<?xml version="1.0" encoding="utf-8"?>
<!-- Generator: Adobe Illustrator 19.0.0, SVG Export Plug-In . SVG Version: 6.00 Build 0)  -->
<svg version="1.1" id="Layer_1" xmlns="http://www.w3.org/2000/svg" xmlns:xlink="http://www.w3.org/1999/xlink" x="0px" y="0px"
	 viewBox="-279 231 400 100" style="enable-background:new -279 231 400 100;" xml:space="preserve">
<style type="text/css">
	.st0{display:none;fill:#6C979E;}
	.st1{enable-background:new    ;}
	.st2{fill:#FFFFFF;stroke:#FFFFFF;stroke-miterlimit:10;}
</style>
<rect id="XMLID_2_" x="-352" y="308" class="st0" width="1024" height="717.8"/>
<g>
	<g class="st1">
		<path class="st2" d="M-274.6,261.6c0-6,0-7.1-0.1-8.3c-0.1-1.3-0.4-2-1.9-2.2c-0.3-0.1-1.1-0.1-1.7-0.1c-0.5,0-0.7-0.1-0.7-0.4
			c0-0.3,0.3-0.4,1-0.4c2.3,0,5,0.1,6.2,0.1c1.8,0,4.3-0.1,6.3-0.1c5.4,0,7.4,1.7,8,2.2c1,0.8,2.2,2.6,2.2,4.7
			c0,5.6-4.5,9.5-10.6,9.5c-0.2,0-0.7,0-0.9,0c-0.2,0-0.5-0.1-0.5-0.4c0-0.3,0.3-0.4,1.2-0.4c2.4,0,5.8-2.5,5.8-6.5
			c0-1.3-0.1-3.9-2.6-5.9c-1.6-1.3-3.3-1.5-4.3-1.5c-0.6,0-1.3,0-1.7,0.2c-0.2,0.1-0.3,0.3-0.3,0.7v15.7c0,3.6,0,6.7,0.2,8.4
			c0.1,1.1,0.4,2,1.7,2.1c0.6,0.1,1.6,0.2,2.2,0.2c0.5,0,0.7,0.1,0.7,0.3c0,0.3-0.3,0.4-0.8,0.4c-2.9,0-5.6-0.1-6.7-0.1
			c-1,0-3.7,0.1-5.5,0.1c-0.6,0-0.9-0.1-0.9-0.4c0-0.2,0.2-0.3,0.7-0.3c0.6,0,1.2-0.1,1.6-0.2c0.9-0.2,1.1-1,1.3-2.2
			c0.2-1.7,0.2-4.8,0.2-8.4v-6.8H-274.6z"/>
		<path class="st2" d="M-246.7,269.7c-0.2,0-0.3,0.1-0.4,0.3l-2.3,5.6c-0.4,1-0.6,1.9-0.6,2.4c0,0.7,0.4,1.2,1.7,1.2h0.6
			c0.5,0,0.6,0.1,0.6,0.3c0,0.3-0.3,0.4-0.7,0.4c-1.4,0-3.2-0.1-4.6-0.1c-0.5,0-2.9,0.1-5.1,0.1c-0.6,0-0.8-0.1-0.8-0.4
			c0-0.2,0.2-0.3,0.5-0.3c0.4,0,1,0,1.3-0.1c2-0.2,2.8-1.6,3.7-3.5l10.9-24.7c0.5-1.1,0.8-1.6,1.2-1.6c0.4,0,0.6,0.4,1.1,1.3
			c1,2.2,8,18.2,10.7,24.2c1.6,3.5,2.9,4.1,3.8,4.3c0.6,0.1,1.3,0.2,1.8,0.2c0.3,0,0.6,0,0.6,0.3c0,0.3-0.4,0.4-2,0.4
			c-1.6,0-4.7,0-8.2-0.1c-0.8,0-1.3,0-1.3-0.3c0-0.2,0.2-0.3,0.6-0.4c0.3-0.1,0.6-0.4,0.4-0.9l-3.5-8.3c-0.1-0.2-0.2-0.3-0.4-0.3
			H-246.7L-246.7,269.7z M-237.9,267.7c0.2,0,0.3-0.1,0.2-0.2l-3.9-9.7c0-0.2-0.1-0.4-0.2-0.4s-0.2,0.2-0.3,0.4l-4,9.7
			c0,0.2,0,0.3,0.2,0.3h8V267.7z"/>
		<path class="st2" d="M-223.9,254c-0.5-1.5-1-2.4-1.6-2.8c-0.5-0.3-1.3-0.4-1.7-0.4c-0.4,0-0.7,0-0.7-0.4c0-0.3,0.3-0.4,1-0.4
			c2.3,0,4.6,0.1,5,0.1s2.3-0.1,4.8-0.1c0.6,0,0.9,0.1,0.9,0.4c0,0.3-0.3,0.4-0.8,0.4c-0.3,0-0.8,0-1.1,0.2
			c-0.4,0.2-0.5,0.4-0.5,0.9s0.4,1.8,1,3.6c0.7,2.6,4.8,14.5,5.5,16.7h0.1l8.4-20.5c0.4-1.1,0.7-1.4,1.1-1.4c0.5,0,0.7,0.6,1.3,1.8
			l9,19.8h0.1c0.8-2.6,4.2-13,5.8-17.6c0.3-0.9,0.4-1.7,0.4-2.3s-0.4-1.2-2.1-1.2c-0.4,0-0.7-0.1-0.7-0.4c0-0.3,0.3-0.4,1-0.4
			c2.3,0,4.1,0.1,4.5,0.1c0.3,0,2.2-0.1,3.6-0.1c0.5,0,0.8,0.1,0.8,0.3c0,0.3-0.2,0.4-0.6,0.4c-0.4,0-1,0-1.5,0.2
			c-1,0.4-1.5,1.9-2.4,4.2c-2,5-6.5,17.5-8.7,23.4c-0.5,1.4-0.7,1.8-1.3,1.8c-0.4,0-0.7-0.5-1.3-1.9l-9-19.7h-0.1
			c-0.8,2-6.6,15.9-8.4,19.6c-0.8,1.6-1,2.1-1.6,2.1c-0.4,0-0.6-0.4-1-1.5L-223.9,254z"/>
		<path class="st2" d="M-173.1,261.6c0-6,0-7.1-0.1-8.3c-0.1-1.3-0.4-2-1.9-2.2c-0.3-0.1-1.1-0.1-1.7-0.1c-0.5,0-0.7-0.1-0.7-0.4
			c0-0.3,0.3-0.4,1-0.4c1.2,0,2.4,0,3.5,0s2.1,0.1,2.7,0.1c1.4,0,10,0,10.8,0c0.8-0.1,1.5-0.2,1.9-0.2c0.2,0,0.5-0.2,0.7-0.2
			s0.3,0.2,0.3,0.4c0,0.3-0.2,0.7-0.3,2.6c0,0.4-0.1,2.1-0.2,2.6c0,0.2-0.1,0.4-0.4,0.4s-0.4-0.2-0.4-0.6c0-0.3,0-0.9-0.3-1.4
			c-0.3-0.7-0.7-1.2-2.9-1.4c-0.7-0.1-5.3-0.2-6.1-0.2c-0.2,0-0.3,0.1-0.3,0.4v10c0,0.3,0,0.4,0.3,0.4c1,0,5.9,0,6.9-0.1
			c1-0.1,1.7-0.2,2.1-0.6c0.3-0.3,0.5-0.5,0.7-0.5s0.3,0.1,0.3,0.3s-0.2,0.9-0.3,2.9c0,0.8-0.2,2.4-0.2,2.6c0,0.3,0,0.7-0.4,0.7
			c-0.3,0-0.4-0.2-0.4-0.4c0-0.4,0-0.9-0.2-1.4c-0.2-0.8-0.8-1.4-2.4-1.5c-0.8-0.1-5.1-0.1-6.1-0.1c-0.2,0-0.3,0.2-0.3,0.4v3.1
			c0,1.3,0,5,0,6.1c0.1,2.7,0.8,3.3,5.2,3.3c1.1,0,2.9,0,4.1-0.5c1.1-0.5,1.6-1.3,1.9-2.9c0.1-0.4,0.2-0.6,0.5-0.6s0.3,0.3,0.3,0.7
			c0,0.9-0.3,3.6-0.6,4.4c-0.3,1-0.7,1-2.3,1c-3.2,0-5.6-0.1-7.5-0.1c-1.9-0.1-3.2-0.1-4.5-0.1c-0.5,0-1.4,0-2.5,0
			c-1,0-2.1,0.1-3,0.1c-0.6,0-0.9-0.1-0.9-0.4c0-0.2,0.2-0.3,0.7-0.3c0.6,0,1.2-0.1,1.6-0.2c0.9-0.2,1.1-1,1.3-2.2
			c0.2-1.7,0.2-4.8,0.2-8.4v-6.8H-173.1z"/>
		<path class="st2" d="M-145.8,261.6c0-6,0-7.1-0.1-8.3c-0.1-1.3-0.4-2-1.9-2.2c-0.3-0.1-1.1-0.1-1.7-0.1c-0.5,0-0.7-0.1-0.7-0.4
			c0-0.3,0.3-0.4,1-0.4c1.2,0,2.4,0,3.5,0s2.1,0.1,2.7,0.1c1.4,0,10,0,10.8,0c0.8-0.1,1.5-0.2,1.9-0.2c0.2,0,0.5-0.2,0.7-0.2
			s0.3,0.2,0.3,0.4c0,0.3-0.2,0.7-0.3,2.6c0,0.4-0.1,2.1-0.2,2.6c0,0.2-0.1,0.4-0.4,0.4c-0.3,0-0.4-0.2-0.4-0.6c0-0.3,0-0.9-0.3-1.4
			c-0.3-0.7-0.7-1.2-2.9-1.4c-0.7-0.1-5.3-0.2-6.1-0.2c-0.2,0-0.3,0.1-0.3,0.4v10c0,0.3,0,0.4,0.3,0.4c1,0,5.9,0,6.9-0.1
			c1-0.1,1.7-0.2,2.1-0.6c0.3-0.3,0.5-0.5,0.7-0.5s0.3,0.1,0.3,0.3s-0.2,0.9-0.3,2.9c0,0.8-0.2,2.4-0.2,2.6c0,0.3,0,0.7-0.4,0.7
			c-0.3,0-0.4-0.2-0.4-0.4c0-0.4,0-0.9-0.2-1.4c-0.2-0.8-0.8-1.4-2.4-1.5c-0.8-0.1-5.1-0.1-6.1-0.1c-0.2,0-0.3,0.2-0.3,0.4v3.1
			c0,1.3,0,5,0,6.1c0.1,2.7,0.8,3.3,5.2,3.3c1.1,0,2.9,0,4.1-0.5s1.6-1.3,1.9-2.9c0.1-0.4,0.2-0.6,0.5-0.6s0.3,0.3,0.3,0.7
			c0,0.9-0.3,3.6-0.6,4.4c-0.3,1-0.7,1-2.3,1c-3.2,0-5.6-0.1-7.5-0.1c-1.9-0.1-3.2-0.1-4.5-0.1c-0.5,0-1.4,0-2.5,0
			c-1,0-2.1,0.1-3,0.1c-0.6,0-0.9-0.1-0.9-0.4c0-0.2,0.2-0.3,0.7-0.3c0.6,0,1.2-0.1,1.6-0.2c0.9-0.2,1.1-1,1.3-2.2
			c0.2-1.7,0.2-4.8,0.2-8.4v-6.8H-145.8z"/>
		<path class="st2" d="M-120.8,279.5c-0.7-0.3-0.8-0.5-0.8-1.3c0-2.2,0.2-4.5,0.2-5.2c0-0.6,0.2-1,0.5-1c0.4,0,0.4,0.4,0.4,0.7
			c0,0.5,0.2,1.3,0.4,2c1,2.9,3.5,4,6.2,4c3.9,0,5.8-2.4,5.8-4.5c0-1.9-0.6-3.7-4.2-6.3l-2-1.4c-4.8-3.4-6.4-6.1-6.4-9.3
			c0-4.3,4-7.4,10-7.4c2.8,0,4.6,0.4,5.8,0.7c0.4,0.1,0.6,0.2,0.6,0.5c0,0.5-0.2,1.7-0.2,4.7c0,0.9-0.1,1.2-0.5,1.2
			c-0.3,0-0.4-0.2-0.4-0.7c0-0.4-0.2-1.6-1.1-2.6c-0.6-0.7-1.9-1.9-4.7-1.9c-3.2,0-5.2,1.7-5.2,4.1c0,1.8,1,3.2,4.6,5.7l1.2,0.8
			c5.2,3.6,7.1,6.3,7.1,10c0,2.3-1,5-4.1,6.8c-2.2,1.3-4.6,1.6-6.9,1.6C-117,280.5-118.9,280.2-120.8,279.5z"/>
		<path class="st2" d="M-85.1,279.8c-0.3,0-0.6-0.2-0.6-0.6c0-0.3,0.4-0.7,0.9-1c6.1-4.8,14.7-11,14.7-19.3c0-6.2-3.8-7.5-5.9-7.5
			c-1.9,0-3.3,0.3-4.6,1.4c-1,0.9-1.8,2.8-1.8,3.8c0,0.4-0.1,0.7-0.6,0.7c-0.2,0-0.3-0.3-0.4-0.7c0-0.4-0.3-3.6-0.3-4.8
			c0-0.4,0-0.5,0.5-0.8c1.7-0.8,4-1.5,7.8-1.5c7.6,0,10.9,3.8,10.9,8.4c0,7.6-9.3,14.3-14.9,18.3c-0.2,0.2-0.1,0.3,0.1,0.3h2.9
			c0.7,0,5.8,0,7.4-0.2c3-0.3,4.4-1.7,4.9-3.5c0.1-0.5,0.3-0.6,0.5-0.6c0.3,0,0.3,0.4,0.3,0.7c0,0.6-0.8,4.3-1.3,5.6
			c-0.3,1.1-1,1.2-3.8,1.2h-16.7V279.8z"/>
		<path class="st2" d="M-48.7,280.5c-8.5,0-10.9-9-10.9-14.6c0-9.2,3.5-16.3,11.6-16.3c8.6,0,10.9,8.3,10.9,14.5
			C-37.2,273.9-41.3,280.5-48.7,280.5z M-49,251.4c-3.2,0-5.6,4.1-5.6,13c0,6.8,1.9,14.3,6.6,14.3c3.5,0,5.7-5.4,5.7-13
			C-42.3,258.9-44.2,251.4-49,251.4z"/>
		<path class="st2" d="M-24.3,261.7c0-2.1,0-3.8,0-5.2c0-0.9,0-1.4-0.6-1.4c-0.8,0-4.1,1.5-5,1.9c-0.2,0.1-0.4,0.2-0.6,0.2
			c-0.1,0-0.3-0.2-0.3-0.4c0-0.2,0.2-0.4,0.4-0.6c0.2-0.1,8.5-5,10-6.1c0.4-0.2,0.8-0.5,1.1-0.5c0.4,0,0.5,0.4,0.5,0.8
			c0,0.3-0.3,4.2-0.3,10.2v7.3c0,3.8,0,7.1,0.2,8.9c0.1,1.3,0.3,1.8,1.7,2.1c0.6,0.1,2.5,0.2,2.9,0.2c0.2,0,0.4,0.1,0.4,0.4
			c0,0.3-0.2,0.4-0.7,0.4c-3.3,0-6.1-0.1-7.2-0.1c-1,0-4.6,0.1-7.4,0.1c-0.5,0-0.7-0.1-0.7-0.4s0.2-0.4,0.3-0.4
			c0.5,0,2.7-0.1,3.5-0.3c1.4-0.3,1.6-0.8,1.7-2.1c0.2-1.7,0.3-5.1,0.2-8.9L-24.3,261.7z"/>
		<path class="st2" d="M14.4,250.3c0.8,0,1,0.1,1,0.3s-0.2,0.6-0.3,0.7c-3.6,4.6-10.3,20.3-11,25.3c-0.1,0.7,0,0.9,0,1.5
			c0,0.8-3.5,2.4-5.5,2.4c-0.5,0-0.6-0.1-0.6-0.5s0.1-1,0.3-1.6c1.2-3.8,6.8-15.4,12.7-24.5H-0.2c-1.2,0-3,0.1-4.1,0.7
			c-0.8,0.5-1.3,1.7-1.4,2.4c0,0.3-0.2,0.5-0.4,0.5c-0.3,0-0.3-0.2-0.3-0.6c0-1.5,0.6-6.1,0.6-6.5s0.2-0.6,0.4-0.6
			c0.3,0,1.3,0.4,5.8,0.4h14V250.3z"/>
	</g>
	<g>
		<path class="st2" d="M-274,307.3c0,1.8,0,3.3,0.1,4.1c0.1,0.6,0.2,1,0.7,1c0.3,0,0.7,0.1,0.9,0.1c0.1,0,0.2,0.1,0.2,0.1
			c0,0.1-0.1,0.2-0.3,0.2c-1,0-2.2-0.1-2.3-0.1s-1.3,0.1-1.9,0.1c-0.2,0-0.3,0-0.3-0.2c0-0.1,0-0.1,0.2-0.1c0.2,0,0.4,0,0.6-0.1
			c0.4-0.1,0.5-0.5,0.6-1c0.1-0.8,0.1-2.3,0.1-4.1v-3.4c0-3,0-3.5,0-4.1c0-0.6-0.2-1-0.6-1.1c-0.2-0.1-0.5-0.1-0.6-0.1
			c-0.1,0-0.2,0-0.2-0.1c0-0.1,0.1-0.2,0.3-0.2c0.6,0,1.8,0.1,1.9,0.1s1.3-0.1,1.9-0.1c0.2,0,0.3,0,0.3,0.2c0,0.1-0.1,0.1-0.2,0.1
			c-0.1,0-0.2,0-0.5,0.1c-0.5,0.1-0.7,0.4-0.7,1.1c0,0.6,0,1.1,0,4.1V307.3z"/>
		<path class="st2" d="M-267,310.6c0,1.3,0.2,1.7,0.6,1.8c0.3,0.1,0.7,0.1,0.8,0.1c0.1,0,0.1,0.1,0.1,0.1c0,0.1-0.1,0.1-0.3,0.1
			c-1,0-1.6-0.1-1.8-0.1c-0.2,0-0.9,0.1-1.6,0.1c-0.2,0-0.3,0-0.3-0.1c0-0.1,0.1-0.1,0.1-0.1c0.1,0,0.4,0,0.7-0.1
			c0.4-0.1,0.5-0.6,0.5-2v-9.3c0-0.6,0.1-0.8,0.2-0.8c0.2,0,0.5,0.3,0.6,0.5c0.3,0.3,2.7,2.9,5.3,5.5c1.7,1.7,3.4,3.6,4,4.2
			l-0.2-8.1c0-1-0.1-1.4-0.6-1.5c-0.3-0.1-0.7-0.1-0.8-0.1c-0.1,0-0.1-0.1-0.1-0.2c0-0.1,0.1-0.1,0.3-0.1c0.8,0,1.6,0,1.8,0
			c0.2,0,0.7,0,1.4,0c0.2,0,0.3,0,0.3,0.1c0,0.1-0.1,0.2-0.2,0.2c-0.1,0-0.2,0-0.4,0c-0.6,0.1-0.6,0.4-0.6,1.4l0,9.5
			c0,1.1,0,1.2-0.1,1.2c-0.2,0-0.3-0.1-1.3-1c-0.2-0.2-2.6-2.5-4.4-4.4c-1.9-2-3.8-4-4.3-4.6L-267,310.6z"/>
		<path class="st2" d="M-248.1,308.1c0,1.6,0,2.8,0.1,3.5c0.1,0.5,0.1,0.8,0.6,0.9c0.2,0,0.6,0.1,0.8,0.1c0.1,0,0.1,0.1,0.1,0.1
			c0,0.1-0.1,0.1-0.3,0.1c-0.9,0-2-0.1-2.1-0.1c-0.1,0-1.2,0.1-1.7,0.1c-0.2,0-0.3,0-0.3-0.1c0-0.1,0-0.1,0.1-0.1
			c0.2,0,0.3,0,0.5-0.1c0.3-0.1,0.4-0.4,0.5-0.9c0.1-0.7,0.1-1.9,0.1-3.5v-6.8l-2.4,0c-1,0-1.4,0.1-1.7,0.5
			c-0.2,0.3-0.2,0.4-0.3,0.5c0,0.1-0.1,0.2-0.2,0.2c0,0-0.1,0-0.1-0.1c0-0.2,0.3-1.6,0.4-1.8c0-0.1,0.1-0.3,0.2-0.3
			c0.1,0,0.3,0.1,0.7,0.2c0.5,0.1,1.1,0.1,1.3,0.1h6.3c0.6,0,0.9,0,1.2-0.1c0.2,0,0.4-0.1,0.5-0.1s0.1,0.1,0.1,0.2
			c0,0.5-0.1,1.7-0.1,1.8c0,0.1-0.1,0.2-0.2,0.2s-0.1-0.1-0.1-0.3l0-0.2c-0.1-0.5-0.4-0.9-2-0.9l-2.1,0V308.1z"/>
		<path class="st2" d="M-240.2,305.2c0-2.5,0-3,0-3.5c0-0.6-0.1-0.8-0.7-0.9c-0.1,0-0.4,0-0.6,0c-0.1,0-0.1-0.1-0.1-0.1
			c0-0.1,0.1-0.1,0.3-0.1c0.8,0,1.8,0,1.9,0c0.1,0,3.6,0,4,0c0.3,0,0.6-0.1,0.8-0.1c0.1,0,0.2-0.1,0.2-0.1c0.1,0,0.1,0.1,0.1,0.2
			c0,0.1-0.1,0.3-0.1,0.8c0,0.2-0.1,0.9-0.1,1.1c0,0.1-0.1,0.2-0.2,0.2c-0.1,0-0.1-0.1-0.1-0.2c0-0.1,0-0.4-0.1-0.6
			c-0.1-0.3-0.3-0.4-1.2-0.5c-0.3,0-2.2-0.1-2.4-0.1c-0.1,0-0.1,0.1-0.1,0.2v4.4c0,0.1,0,0.2,0.1,0.2c0.2,0,2.4,0,2.8,0
			c0.4,0,0.6-0.1,0.8-0.2c0.1-0.1,0.2-0.2,0.2-0.2s0.1,0,0.1,0.1c0,0.1-0.1,0.4-0.1,0.9c0,0.3-0.1,0.9-0.1,1c0,0.1,0,0.3-0.2,0.3
			c-0.1,0-0.1-0.1-0.1-0.2c0-0.2,0-0.3-0.1-0.5c-0.1-0.2-0.2-0.4-0.9-0.5c-0.5-0.1-2.2-0.1-2.5-0.1c-0.1,0-0.1,0.1-0.1,0.1v1.4
			c0,0.6,0,2.4,0,2.8c0,1.1,0.3,1.3,2,1.3c0.4,0,1.2,0,1.7-0.2c0.4-0.2,0.7-0.5,0.8-1.1c0-0.2,0.1-0.2,0.2-0.2s0.1,0.1,0.1,0.2
			s-0.1,1.2-0.2,1.6c-0.1,0.4-0.3,0.4-0.9,0.4c-1.3,0-2.2,0-2.9-0.1c-0.7,0-1.1,0-1.4,0c0,0-0.4,0-0.7,0c-0.3,0-0.7,0-1,0
			c-0.2,0-0.3,0-0.3-0.1c0-0.1,0-0.1,0.1-0.1c0.2,0,0.4-0.1,0.5-0.1c0.3-0.1,0.4-0.4,0.4-0.9c0.1-0.7,0.1-1.9,0.1-3.5V305.2z"/>
		<path class="st2" d="M-229.7,305.2c0-2.5,0-3,0-3.5c0-0.6-0.1-0.8-0.7-0.9c-0.1,0-0.4,0-0.6,0c-0.1,0-0.1-0.1-0.1-0.1
			c0-0.1,0.1-0.1,0.3-0.1c0.8,0,1.9,0,2,0c0.2,0,1.6,0,2.1,0c1.1,0,2.2,0.1,3.1,0.7c0.4,0.3,1.2,1.1,1.2,2.2c0,1.2-0.5,2.4-2.1,3.7
			c1.4,1.7,2.5,3.2,3.5,4.2c0.9,0.9,1.4,1.1,1.9,1.1c0.3,0.1,0.5,0.1,0.6,0.1s0.2,0.1,0.2,0.1c0,0.1-0.1,0.1-0.4,0.1h-1
			c-1,0-1.4-0.1-1.8-0.3c-0.7-0.4-1.3-1.2-2.3-2.4c-0.7-0.9-1.4-1.9-1.8-2.4c-0.1-0.1-0.1-0.1-0.2-0.1l-2.1,0c-0.1,0-0.1,0-0.1,0.1
			v0.4c0,1.6,0,2.8,0.1,3.5c0.1,0.5,0.2,0.8,0.7,0.9c0.2,0,0.6,0.1,0.7,0.1c0.1,0,0.1,0.1,0.1,0.1c0,0.1-0.1,0.1-0.3,0.1
			c-0.9,0-2-0.1-2.1-0.1c0,0-1.1,0.1-1.7,0.1c-0.2,0-0.3,0-0.3-0.1c0-0.1,0-0.1,0.1-0.1c0.2,0,0.4,0,0.5-0.1
			c0.3-0.1,0.4-0.4,0.4-0.9c0.1-0.7,0.1-1.9,0.1-3.5V305.2z M-228.2,306.6c0,0.1,0,0.2,0.1,0.2c0.2,0.1,1.1,0.2,1.8,0.2
			c0.4,0,0.9,0,1.3-0.3c0.6-0.4,1-1.2,1-2.5c0-2-1.1-3.2-2.9-3.2c-0.5,0-1,0.1-1.2,0.1c-0.1,0-0.1,0.1-0.1,0.2V306.6z"/>
		<path class="st2" d="M-216.2,310.6c0,1.3,0.2,1.7,0.6,1.8c0.3,0.1,0.7,0.1,0.8,0.1c0.1,0,0.1,0.1,0.1,0.1c0,0.1-0.1,0.1-0.3,0.1
			c-1,0-1.6-0.1-1.8-0.1c-0.2,0-0.9,0.1-1.6,0.1c-0.2,0-0.3,0-0.3-0.1c0-0.1,0.1-0.1,0.1-0.1c0.1,0,0.4,0,0.7-0.1
			c0.4-0.1,0.5-0.6,0.5-2v-9.3c0-0.6,0.1-0.8,0.2-0.8c0.2,0,0.5,0.3,0.6,0.5c0.3,0.3,2.7,2.9,5.3,5.5c1.7,1.7,3.4,3.6,4,4.2
			l-0.2-8.1c0-1-0.1-1.4-0.6-1.5c-0.3-0.1-0.7-0.1-0.8-0.1c-0.1,0-0.1-0.1-0.1-0.2c0-0.1,0.1-0.1,0.3-0.1c0.8,0,1.6,0,1.8,0
			c0.2,0,0.7,0,1.4,0c0.2,0,0.3,0,0.3,0.1c0,0.1-0.1,0.2-0.2,0.2c-0.1,0-0.2,0-0.4,0c-0.6,0.1-0.6,0.4-0.6,1.4l0,9.5
			c0,1.1,0,1.2-0.1,1.2c-0.2,0-0.3-0.1-1.3-1c-0.2-0.2-2.6-2.5-4.4-4.4c-1.9-2-3.8-4-4.3-4.6L-216.2,310.6z"/>
		<path class="st2" d="M-198.4,300.9c0.2-0.5,0.3-0.6,0.4-0.6c0.2,0,0.2,0.2,0.4,0.6c0.3,0.7,3,7.4,4,9.8c0.6,1.4,1.1,1.7,1.4,1.8
			c0.2,0.1,0.5,0.1,0.7,0.1c0.1,0,0.2,0,0.2,0.1s-0.2,0.1-0.4,0.1c-0.2,0-1.5,0-2.6,0c-0.3,0-0.6,0-0.6-0.1c0-0.1,0-0.1,0.1-0.1
			c0.1,0,0.3-0.2,0.2-0.4l-1.5-3.7c0-0.1-0.1-0.1-0.2-0.1h-3.9c-0.1,0-0.1,0-0.2,0.1l-1,2.6c-0.2,0.4-0.2,0.8-0.2,1.1
			c0,0.3,0.3,0.4,0.6,0.4h0.2c0.1,0,0.2,0.1,0.2,0.1c0,0.1-0.1,0.1-0.2,0.1c-0.4,0-1.3-0.1-1.5-0.1c-0.2,0-1,0.1-1.7,0.1
			c-0.2,0-0.3,0-0.3-0.1c0-0.1,0.1-0.1,0.2-0.1c0.1,0,0.4,0,0.5,0c0.8-0.1,1.1-0.7,1.4-1.5L-198.4,300.9z M-196.6,307.6
			c0.1,0,0.1,0,0.1-0.1l-1.7-4.4c-0.1-0.2-0.2-0.2-0.3,0l-1.6,4.4c0,0.1,0,0.1,0.1,0.1H-196.6z"/>
		<path class="st2" d="M-186.7,308.1c0,1.6,0,2.8,0.1,3.5c0.1,0.5,0.1,0.8,0.6,0.9c0.2,0,0.6,0.1,0.8,0.1c0.1,0,0.1,0.1,0.1,0.1
			c0,0.1-0.1,0.1-0.3,0.1c-0.9,0-2-0.1-2.1-0.1c-0.1,0-1.2,0.1-1.7,0.1c-0.2,0-0.3,0-0.3-0.1c0-0.1,0-0.1,0.1-0.1
			c0.2,0,0.3,0,0.5-0.1c0.3-0.1,0.4-0.4,0.5-0.9c0.1-0.7,0.1-1.9,0.1-3.5v-6.8l-2.4,0c-1,0-1.4,0.1-1.7,0.5
			c-0.2,0.3-0.2,0.4-0.3,0.5c0,0.1-0.1,0.2-0.2,0.2c0,0-0.1,0-0.1-0.1c0-0.2,0.3-1.6,0.4-1.8c0-0.1,0.1-0.3,0.2-0.3
			c0.1,0,0.3,0.1,0.7,0.2c0.5,0.1,1.1,0.1,1.3,0.1h6.3c0.6,0,0.9,0,1.2-0.1c0.2,0,0.4-0.1,0.5-0.1s0.1,0.1,0.1,0.2
			c0,0.5-0.1,1.7-0.1,1.8c0,0.1-0.1,0.2-0.2,0.2s-0.1-0.1-0.1-0.3l0-0.2c-0.1-0.5-0.4-0.9-2-0.9l-2.1,0V308.1z"/>
		<path class="st2" d="M-177.2,308.1c0,1.6,0,2.8,0.1,3.5c0.1,0.5,0.1,0.8,0.6,0.9c0.2,0,0.6,0.1,0.8,0.1c0.1,0,0.1,0.1,0.1,0.1
			c0,0.1-0.1,0.1-0.3,0.1c-0.9,0-2-0.1-2.1-0.1c-0.1,0-1.1,0.1-1.7,0.1c-0.2,0-0.3,0-0.3-0.1c0-0.1,0-0.1,0.1-0.1
			c0.2,0,0.4,0,0.5-0.1c0.3-0.1,0.4-0.4,0.4-0.9c0.1-0.7,0.1-1.9,0.1-3.5v-2.9c0-2.5,0-3,0-3.5c0-0.6-0.2-0.8-0.5-0.9
			c-0.2,0-0.4-0.1-0.5-0.1c-0.1,0-0.1-0.1-0.1-0.1c0-0.1,0.1-0.1,0.3-0.1c0.6,0,1.6,0,1.7,0c0.1,0,1.2,0,1.7,0c0.2,0,0.3,0,0.3,0.1
			c0,0.1-0.1,0.1-0.1,0.1c-0.1,0-0.2,0-0.4,0c-0.5,0.1-0.6,0.3-0.6,0.9c0,0.5,0,1,0,3.5V308.1z"/>
		<path class="st2" d="M-166.8,300.3c3.8,0,6.6,2.3,6.6,6.1c0,3.6-2.7,6.6-6.7,6.6c-4.6,0-6.6-3.4-6.6-6.4
			C-173.4,304-171.4,300.3-166.8,300.3z M-166.4,312.3c1.5,0,4.5-0.8,4.5-5.5c0-3.9-2.4-5.9-5-5.9c-2.8,0-4.8,1.8-4.8,5.3
			C-171.7,310-169.4,312.3-166.4,312.3z"/>
		<path class="st2" d="M-156,310.6c0,1.3,0.2,1.7,0.6,1.8c0.3,0.1,0.7,0.1,0.8,0.1c0.1,0,0.1,0.1,0.1,0.1c0,0.1-0.1,0.1-0.3,0.1
			c-1,0-1.6-0.1-1.8-0.1s-0.9,0.1-1.6,0.1c-0.2,0-0.3,0-0.3-0.1c0-0.1,0.1-0.1,0.1-0.1c0.1,0,0.4,0,0.7-0.1c0.4-0.1,0.5-0.6,0.5-2
			v-9.3c0-0.6,0.1-0.8,0.2-0.8c0.2,0,0.5,0.3,0.6,0.5c0.3,0.3,2.7,2.9,5.3,5.5c1.7,1.7,3.4,3.6,4,4.2l-0.2-8.1c0-1-0.1-1.4-0.6-1.5
			c-0.3-0.1-0.7-0.1-0.8-0.1c-0.1,0-0.1-0.1-0.1-0.2c0-0.1,0.1-0.1,0.3-0.1c0.8,0,1.6,0,1.8,0c0.2,0,0.7,0,1.4,0
			c0.2,0,0.3,0,0.3,0.1c0,0.1-0.1,0.2-0.2,0.2c-0.1,0-0.2,0-0.4,0c-0.6,0.1-0.6,0.4-0.6,1.4l0,9.5c0,1.1,0,1.2-0.1,1.2
			c-0.2,0-0.3-0.1-1.3-1c-0.2-0.2-2.6-2.5-4.4-4.4c-1.9-2-3.8-4-4.3-4.6L-156,310.6z"/>
		<path class="st2" d="M-138.2,300.9c0.2-0.5,0.3-0.6,0.4-0.6c0.2,0,0.2,0.2,0.4,0.6c0.3,0.7,3,7.4,4,9.8c0.6,1.4,1.1,1.7,1.4,1.8
			c0.2,0.1,0.5,0.1,0.7,0.1c0.1,0,0.2,0,0.2,0.1s-0.2,0.1-0.4,0.1c-0.2,0-1.5,0-2.6,0c-0.3,0-0.6,0-0.6-0.1c0-0.1,0-0.1,0.1-0.1
			c0.1,0,0.3-0.2,0.2-0.4l-1.5-3.7c0-0.1-0.1-0.1-0.2-0.1h-3.9c-0.1,0-0.1,0-0.2,0.1l-1,2.6c-0.2,0.4-0.2,0.8-0.2,1.1
			c0,0.3,0.3,0.4,0.6,0.4h0.2c0.1,0,0.2,0.1,0.2,0.1c0,0.1-0.1,0.1-0.2,0.1c-0.4,0-1.3-0.1-1.5-0.1c-0.2,0-1,0.1-1.7,0.1
			c-0.2,0-0.3,0-0.3-0.1c0-0.1,0.1-0.1,0.2-0.1c0.1,0,0.4,0,0.5,0c0.8-0.1,1.1-0.7,1.4-1.5L-138.2,300.9z M-136.4,307.6
			c0.1,0,0.1,0,0.1-0.1l-1.7-4.4c-0.1-0.2-0.2-0.2-0.3,0l-1.6,4.4c0,0.1,0,0.1,0.1,0.1H-136.4z"/>
		<path class="st2" d="M-127.4,308.1c0,2.4,0,3.4,0.3,3.6c0.3,0.3,0.9,0.4,2.2,0.4c0.9,0,1.6,0,2-0.5c0.2-0.2,0.3-0.6,0.4-0.9
			c0-0.1,0.1-0.2,0.2-0.2c0.1,0,0.1,0.1,0.1,0.2s-0.1,1.1-0.2,1.6c-0.1,0.4-0.2,0.4-1.1,0.4c-1.2,0-2.1,0-2.9-0.1
			c-0.8,0-1.3,0-1.8,0c-0.1,0-0.4,0-0.7,0c-0.3,0-0.7,0-1,0c-0.2,0-0.3,0-0.3-0.1c0-0.1,0-0.1,0.1-0.1c0.2,0,0.4,0,0.5-0.1
			c0.3-0.1,0.4-0.4,0.4-0.9c0.1-0.7,0.1-1.9,0.1-3.5v-2.9c0-2.5,0-3,0-3.5c0-0.6-0.1-0.8-0.7-0.9c-0.1,0-0.4,0-0.6,0
			c-0.1,0-0.1-0.1-0.1-0.1c0-0.1,0.1-0.1,0.3-0.1c0.8,0,1.8,0,1.9,0c0.1,0,1.3,0,1.8,0c0.2,0,0.3,0,0.3,0.1c0,0.1-0.1,0.1-0.1,0.1
			c-0.1,0-0.4,0-0.6,0c-0.5,0.1-0.6,0.3-0.6,0.9c0,0.5,0,1,0,3.5V308.1z"/>
		<path class="st2" d="M-111.9,311c-1.8-1.7-2.3-3.8-2.3-5.6c0-1.3,0.4-3.5,2.1-5.2c1.1-1.1,2.9-2,5.8-2c0.8,0,1.8,0.1,2.8,0.2
			c0.7,0.1,1.3,0.2,1.9,0.3c0.2,0,0.2,0.1,0.2,0.2c0,0.2-0.1,0.4-0.1,1.1c0,0.6,0,1.7-0.1,2c0,0.3-0.1,0.4-0.2,0.4
			c-0.1,0-0.2-0.1-0.2-0.4c0-0.7-0.3-1.5-0.8-1.9c-0.7-0.6-2.1-1.1-3.8-1.1c-2.5,0-3.7,0.7-4.4,1.4c-1.4,1.3-1.7,3-1.7,5
			c0,3.6,2.8,7,6.9,7c1.4,0,2.6-0.2,3.3-1c0.4-0.4,0.6-1.3,0.7-1.6c0-0.2,0.1-0.3,0.2-0.3c0.1,0,0.1,0.1,0.1,0.3
			c0,0.1-0.2,1.8-0.4,2.4c-0.1,0.4-0.2,0.4-0.5,0.6c-0.8,0.3-2.2,0.4-3.4,0.4C-108.5,313.1-110.4,312.3-111.9,311z"/>
		<path class="st2" d="M-92.6,300.3c3.8,0,6.6,2.3,6.6,6.1c0,3.6-2.7,6.6-6.7,6.6c-4.6,0-6.6-3.4-6.6-6.4
			C-99.3,304-97.3,300.3-92.6,300.3z M-92.2,312.3c1.5,0,4.5-0.8,4.5-5.5c0-3.9-2.4-5.9-5-5.9c-2.8,0-4.8,1.8-4.8,5.3
			C-97.5,310-95.3,312.3-92.2,312.3z"/>
		<path class="st2" d="M-81.8,310.6c0,1.3,0.2,1.7,0.6,1.8c0.3,0.1,0.7,0.1,0.8,0.1c0.1,0,0.1,0.1,0.1,0.1c0,0.1-0.1,0.1-0.3,0.1
			c-1,0-1.6-0.1-1.8-0.1s-0.9,0.1-1.6,0.1c-0.2,0-0.3,0-0.3-0.1c0-0.1,0.1-0.1,0.1-0.1c0.1,0,0.4,0,0.7-0.1c0.4-0.1,0.5-0.6,0.5-2
			v-9.3c0-0.6,0.1-0.8,0.2-0.8c0.2,0,0.5,0.3,0.6,0.5c0.3,0.3,2.7,2.9,5.3,5.5c1.7,1.7,3.4,3.6,4,4.2l-0.2-8.1c0-1-0.1-1.4-0.6-1.5
			c-0.3-0.1-0.7-0.1-0.8-0.1c-0.1,0-0.1-0.1-0.1-0.2c0-0.1,0.1-0.1,0.3-0.1c0.8,0,1.6,0,1.8,0s0.7,0,1.4,0c0.2,0,0.3,0,0.3,0.1
			c0,0.1-0.1,0.2-0.2,0.2c-0.1,0-0.2,0-0.4,0c-0.6,0.1-0.6,0.4-0.6,1.4l0,9.5c0,1.1,0,1.2-0.1,1.2c-0.2,0-0.3-0.1-1.3-1
			c-0.2-0.2-2.6-2.5-4.4-4.4c-1.9-2-3.8-4-4.3-4.6L-81.8,310.6z"/>
		<path class="st2" d="M-67,305.2c0-2.5,0-3,0-3.5c0-0.6-0.1-0.8-0.7-0.9c-0.1,0-0.4,0-0.6,0c-0.1,0-0.1-0.1-0.1-0.1
			c0-0.1,0.1-0.1,0.3-0.1c0.8,0,1.8,0,1.9,0c0.3,0,4,0,4.3,0c0.3,0,0.6,0,0.8-0.1c0.1,0,0.2-0.1,0.2-0.1c0.1,0,0.1,0.1,0.1,0.2
			c0,0.1-0.1,0.3-0.1,0.8c0,0.2,0,0.9-0.1,1.1c0,0.1-0.1,0.2-0.2,0.2s-0.1-0.1-0.1-0.2c0-0.1-0.1-0.4-0.2-0.6s-0.5-0.5-1.1-0.5
			l-2.7,0c-0.1,0-0.1,0-0.1,0.2v4.4c0,0.1,0,0.2,0.1,0.2l2.3,0c0.3,0,0.5,0,0.8,0c0.4,0,0.6-0.1,0.8-0.3c0.1-0.1,0.2-0.2,0.2-0.2
			c0.1,0,0.1,0.1,0.1,0.1c0,0.1-0.1,0.4-0.2,0.9c0,0.3-0.1,1-0.1,1.1c0,0.2,0,0.3-0.2,0.3c-0.1,0-0.1-0.1-0.1-0.2
			c0-0.2,0-0.4-0.1-0.6c-0.1-0.2-0.3-0.4-0.9-0.5c-0.4-0.1-2.4,0-2.7,0c-0.1,0-0.1,0-0.1,0.2v1.3c0,1.6,0,2.9,0.1,3.5
			c0.1,0.5,0.2,0.8,0.6,0.9c0.2,0,0.6,0.1,0.8,0.1c0.1,0,0.1,0.1,0.1,0.1c0,0.1-0.1,0.1-0.3,0.1c-0.9,0-2-0.1-2.1-0.1
			c-0.1,0-1.1,0.1-1.7,0.1c-0.2,0-0.3,0-0.3-0.1c0-0.1,0-0.1,0.1-0.1c0.2,0,0.4-0.1,0.5-0.1c0.3-0.1,0.4-0.4,0.4-0.9
			c0.1-0.7,0.1-1.9,0.1-3.5V305.2z"/>
		<path class="st2" d="M-56.8,305.2c0-2.5,0-3,0-3.5c0-0.6-0.1-0.8-0.7-0.9c-0.1,0-0.4,0-0.6,0c-0.1,0-0.1-0.1-0.1-0.1
			c0-0.1,0.1-0.1,0.3-0.1c0.8,0,1.8,0,1.9,0c0.1,0,3.6,0,4,0c0.3,0,0.6-0.1,0.8-0.1c0.1,0,0.2-0.1,0.2-0.1c0.1,0,0.1,0.1,0.1,0.2
			c0,0.1-0.1,0.3-0.1,0.8c0,0.2-0.1,0.9-0.1,1.1c0,0.1-0.1,0.2-0.2,0.2c-0.1,0-0.1-0.1-0.1-0.2c0-0.1,0-0.4-0.1-0.6
			c-0.1-0.3-0.3-0.4-1.2-0.5c-0.3,0-2.2-0.1-2.4-0.1c-0.1,0-0.1,0.1-0.1,0.2v4.4c0,0.1,0,0.2,0.1,0.2c0.2,0,2.4,0,2.8,0
			c0.4,0,0.6-0.1,0.8-0.2c0.1-0.1,0.2-0.2,0.2-0.2c0.1,0,0.1,0,0.1,0.1c0,0.1-0.1,0.4-0.1,0.9c0,0.3-0.1,0.9-0.1,1
			c0,0.1,0,0.3-0.2,0.3c-0.1,0-0.1-0.1-0.1-0.2c0-0.2,0-0.3-0.1-0.5c-0.1-0.2-0.2-0.4-0.9-0.5c-0.5-0.1-2.2-0.1-2.5-0.1
			c-0.1,0-0.1,0.1-0.1,0.1v1.4c0,0.6,0,2.4,0,2.8c0,1.1,0.3,1.3,2,1.3c0.4,0,1.2,0,1.7-0.2c0.4-0.2,0.7-0.5,0.8-1.1
			c0-0.2,0.1-0.2,0.2-0.2s0.1,0.1,0.1,0.2s-0.1,1.2-0.2,1.6c-0.1,0.4-0.3,0.4-0.9,0.4c-1.3,0-2.2,0-2.9-0.1c-0.7,0-1.1,0-1.4,0
			c0,0-0.4,0-0.7,0c-0.3,0-0.7,0-1,0c-0.2,0-0.3,0-0.3-0.1c0-0.1,0-0.1,0.1-0.1c0.2,0,0.4-0.1,0.5-0.1c0.3-0.1,0.4-0.4,0.4-0.9
			c0.1-0.7,0.1-1.9,0.1-3.5V305.2z"/>
		<path class="st2" d="M-46.3,305.2c0-2.5,0-3,0-3.5c0-0.6-0.1-0.8-0.7-0.9c-0.1,0-0.4,0-0.6,0c-0.1,0-0.1-0.1-0.1-0.1
			c0-0.1,0.1-0.1,0.3-0.1c0.8,0,1.9,0,2,0c0.2,0,1.6,0,2.1,0c1.1,0,2.2,0.1,3.1,0.7c0.4,0.3,1.2,1.1,1.2,2.2c0,1.2-0.5,2.4-2.1,3.7
			c1.4,1.7,2.5,3.2,3.5,4.2c0.9,0.9,1.4,1.1,1.9,1.1c0.3,0.1,0.5,0.1,0.6,0.1c0.1,0,0.2,0.1,0.2,0.1c0,0.1-0.1,0.1-0.4,0.1h-1
			c-1,0-1.4-0.1-1.8-0.3c-0.7-0.4-1.3-1.2-2.3-2.4c-0.7-0.9-1.4-1.9-1.8-2.4c-0.1-0.1-0.1-0.1-0.2-0.1l-2.1,0c-0.1,0-0.1,0-0.1,0.1
			v0.4c0,1.6,0,2.8,0.1,3.5c0.1,0.5,0.2,0.8,0.7,0.9c0.2,0,0.6,0.1,0.7,0.1c0.1,0,0.1,0.1,0.1,0.1c0,0.1-0.1,0.1-0.3,0.1
			c-0.9,0-2-0.1-2.1-0.1c0,0-1.1,0.1-1.7,0.1c-0.2,0-0.3,0-0.3-0.1c0-0.1,0-0.1,0.1-0.1c0.2,0,0.4,0,0.5-0.1
			c0.3-0.1,0.4-0.4,0.4-0.9c0.1-0.7,0.1-1.9,0.1-3.5V305.2z M-44.9,306.6c0,0.1,0,0.2,0.1,0.2c0.2,0.1,1.1,0.2,1.8,0.2
			c0.4,0,0.9,0,1.3-0.3c0.6-0.4,1-1.2,1-2.5c0-2-1.1-3.2-2.9-3.2c-0.5,0-1,0.1-1.2,0.1c-0.1,0-0.1,0.1-0.1,0.2V306.6z"/>
		<path class="st2" d="M-33.5,305.2c0-2.5,0-3,0-3.5c0-0.6-0.1-0.8-0.7-0.9c-0.1,0-0.4,0-0.6,0c-0.1,0-0.1-0.1-0.1-0.1
			c0-0.1,0.1-0.1,0.3-0.1c0.8,0,1.8,0,1.9,0c0.1,0,3.6,0,4,0c0.3,0,0.6-0.1,0.8-0.1c0.1,0,0.2-0.1,0.2-0.1c0.1,0,0.1,0.1,0.1,0.2
			c0,0.1-0.1,0.3-0.1,0.8c0,0.2-0.1,0.9-0.1,1.1c0,0.1-0.1,0.2-0.2,0.2c-0.1,0-0.1-0.1-0.1-0.2c0-0.1,0-0.4-0.1-0.6
			c-0.1-0.3-0.3-0.4-1.2-0.5c-0.3,0-2.2-0.1-2.4-0.1c-0.1,0-0.1,0.1-0.1,0.2v4.4c0,0.1,0,0.2,0.1,0.2c0.2,0,2.4,0,2.8,0
			c0.4,0,0.6-0.1,0.8-0.2c0.1-0.1,0.2-0.2,0.2-0.2c0.1,0,0.1,0,0.1,0.1c0,0.1-0.1,0.4-0.1,0.9c0,0.3-0.1,0.9-0.1,1
			c0,0.1,0,0.3-0.2,0.3c-0.1,0-0.1-0.1-0.1-0.2c0-0.2,0-0.3-0.1-0.5c-0.1-0.2-0.2-0.4-0.9-0.5c-0.5-0.1-2.2-0.1-2.5-0.1
			c-0.1,0-0.1,0.1-0.1,0.1v1.4c0,0.6,0,2.4,0,2.8c0,1.1,0.3,1.3,2,1.3c0.4,0,1.2,0,1.7-0.2c0.4-0.2,0.7-0.5,0.8-1.1
			c0-0.2,0.1-0.2,0.2-0.2s0.1,0.1,0.1,0.2s-0.1,1.2-0.2,1.6c-0.1,0.4-0.3,0.4-0.9,0.4c-1.3,0-2.2,0-2.9-0.1c-0.7,0-1.1,0-1.4,0
			c0,0-0.4,0-0.7,0c-0.3,0-0.7,0-1,0c-0.2,0-0.3,0-0.3-0.1c0-0.1,0-0.1,0.1-0.1c0.2,0,0.4-0.1,0.5-0.1c0.3-0.1,0.4-0.4,0.4-0.9
			c0.1-0.7,0.1-1.9,0.1-3.5V305.2z"/>
		<path class="st2" d="M-22.3,310.6c0,1.3,0.2,1.7,0.6,1.8c0.3,0.1,0.7,0.1,0.8,0.1c0.1,0,0.1,0.1,0.1,0.1c0,0.1-0.1,0.1-0.3,0.1
			c-1,0-1.6-0.1-1.8-0.1s-0.9,0.1-1.6,0.1c-0.2,0-0.3,0-0.3-0.1c0-0.1,0.1-0.1,0.1-0.1c0.1,0,0.4,0,0.7-0.1c0.4-0.1,0.5-0.6,0.5-2
			v-9.3c0-0.6,0.1-0.8,0.2-0.8c0.2,0,0.5,0.3,0.6,0.5c0.3,0.3,2.7,2.9,5.3,5.5c1.7,1.7,3.4,3.6,4,4.2l-0.2-8.1c0-1-0.1-1.4-0.6-1.5
			c-0.3-0.1-0.7-0.1-0.8-0.1c-0.1,0-0.1-0.1-0.1-0.2c0-0.1,0.1-0.1,0.3-0.1c0.8,0,1.6,0,1.8,0s0.7,0,1.4,0c0.2,0,0.3,0,0.3,0.1
			c0,0.1-0.1,0.2-0.2,0.2c-0.1,0-0.2,0-0.4,0c-0.6,0.1-0.6,0.4-0.6,1.4l0,9.5c0,1.1,0,1.2-0.1,1.2c-0.2,0-0.3-0.1-1.3-1
			c-0.2-0.2-2.6-2.5-4.4-4.4c-1.9-2-3.8-4-4.3-4.6L-22.3,310.6z"/>
		<path class="st2" d="M-7.3,311.3c-1.6-1.4-2-3.3-2-4.8c0-1.1,0.4-3,1.9-4.4c1-1,2.5-1.7,5.1-1.7c0.7,0,1.6,0.1,2.4,0.2
			c0.6,0.1,1.2,0.2,1.7,0.2c0.2,0,0.2,0.1,0.2,0.2c0,0.1,0,0.3-0.1,0.9c0,0.5,0,1.4,0,1.7c0,0.2-0.1,0.3-0.2,0.3
			c-0.1,0-0.1-0.1-0.1-0.3c0-0.6-0.3-1.3-0.7-1.6c-0.6-0.5-1.8-0.9-3.3-0.9c-2.2,0-3.2,0.6-3.8,1.1c-1.2,1.1-1.5,2.6-1.5,4.2
			c0,3.1,2.5,5.9,6,5.9c1.3,0,2.1-0.1,2.8-0.8c0.4-0.4,0.6-1,0.6-1.4c0-0.2,0.1-0.2,0.2-0.2c0.1,0,0.2,0.1,0.2,0.2s-0.2,1.5-0.4,2.1
			c-0.1,0.3-0.1,0.4-0.4,0.5c-0.7,0.3-1.9,0.4-3,0.4C-4.2,313-5.9,312.4-7.3,311.3z"/>
		<path class="st2" d="M6.1,305.2c0-2.5,0-3,0-3.5c0-0.6-0.1-0.8-0.7-0.9c-0.1,0-0.4,0-0.6,0c-0.1,0-0.1-0.1-0.1-0.1
			c0-0.1,0.1-0.1,0.3-0.1c0.8,0,1.8,0,1.9,0c0.1,0,3.6,0,4,0c0.3,0,0.6-0.1,0.8-0.1c0.1,0,0.2-0.1,0.2-0.1c0.1,0,0.1,0.1,0.1,0.2
			c0,0.1-0.1,0.3-0.1,0.8c0,0.2-0.1,0.9-0.1,1.1c0,0.1-0.1,0.2-0.2,0.2c-0.1,0-0.1-0.1-0.1-0.2c0-0.1,0-0.4-0.1-0.6
			c-0.1-0.3-0.3-0.4-1.2-0.5c-0.3,0-2.2-0.1-2.4-0.1c-0.1,0-0.1,0.1-0.1,0.2v4.4c0,0.1,0,0.2,0.1,0.2c0.2,0,2.4,0,2.8,0
			c0.4,0,0.6-0.1,0.8-0.2c0.1-0.1,0.2-0.2,0.2-0.2c0.1,0,0.1,0,0.1,0.1c0,0.1-0.1,0.4-0.1,0.9c0,0.3-0.1,0.9-0.1,1
			c0,0.1,0,0.3-0.2,0.3c-0.1,0-0.1-0.1-0.1-0.2c0-0.2,0-0.3-0.1-0.5c-0.1-0.2-0.2-0.4-0.9-0.5c-0.5-0.1-2.2-0.1-2.5-0.1
			c-0.1,0-0.1,0.1-0.1,0.1v1.4c0,0.6,0,2.4,0,2.8c0,1.1,0.3,1.3,2,1.3c0.4,0,1.2,0,1.7-0.2c0.4-0.2,0.7-0.5,0.8-1.1
			c0-0.2,0.1-0.2,0.2-0.2s0.1,0.1,0.1,0.2s-0.1,1.2-0.2,1.6c-0.1,0.4-0.3,0.4-0.9,0.4c-1.3,0-2.2,0-2.9-0.1c-0.7,0-1.1,0-1.4,0
			c0,0-0.4,0-0.7,0c-0.3,0-0.7,0-1,0c-0.2,0-0.3,0-0.3-0.1c0-0.1,0-0.1,0.1-0.1c0.2,0,0.4-0.1,0.5-0.1c0.3-0.1,0.4-0.4,0.4-0.9
			c0.1-0.7,0.1-1.9,0.1-3.5V305.2z"/>
	</g>
</g>
</svg>
