<?xml version="1.0" encoding="utf-8"?>
<!-- Generator: Adobe Illustrator 19.0.0, SVG Export Plug-In . SVG Version: 6.00 Build 0)  -->
<svg version="1.1" id="Layer_1" xmlns="http://www.w3.org/2000/svg" xmlns:xlink="http://www.w3.org/1999/xlink" x="0px" y="0px"
	 viewBox="50 151 400 100" style="enable-background:new 50 151 400 100;" xml:space="preserve">
<style type="text/css">
	.st0{fill:#FFFFFF;stroke:#FFFFFF;stroke-miterlimit:10;}
</style>
<path id="XMLID_61_" class="st0" d="M190.2,181.1c-1-2.7-1.8-4.4-2.9-5.1c-0.9-0.5-2.5-0.6-3.2-0.6c-0.8,0-1.3-0.1-1.3-0.6
	s0.6-0.6,1.7-0.6c4.1,0,8.5,0.2,9.2,0.2s4.2-0.2,8.8-0.2c1.1,0,1.7,0.2,1.7,0.6c0,0.6-0.6,0.6-1.4,0.6c-0.6,0-1.4,0-2,0.3
	c-0.7,0.3-0.9,0.8-0.9,1.6c0,0.9,0.8,3.4,1.7,6.6c1.3,4.8,8.7,26.6,10.1,30.6h0.2l15.4-37.5c0.8-2,1.3-2.6,2-2.6
	c0.9,0,1.3,1.1,2.3,3.4l16.5,36.2h0.2c1.4-4.8,7.8-23.8,10.5-32.3c0.6-1.7,0.8-3.2,0.8-4.2c0-1.2-0.7-2.2-3.8-2.2
	c-0.8,0-1.3-0.2-1.3-0.6c0-0.5,0.6-0.6,1.8-0.6c4.2,0,7.5,0.2,8.2,0.2c0.6,0,4-0.2,6.6-0.2c0.9,0,1.4,0.1,1.4,0.6s-0.4,0.7-1.1,0.7
	c-0.8,0-1.9,0.1-2.8,0.4c-1.9,0.6-2.8,3.5-4.4,7.6c-3.6,9.1-12,32-15.8,42.8c-0.9,2.5-1.3,3.4-2.3,3.4c-0.8,0-1.3-0.9-2.5-3.5
	l-16.4-36.2H227c-1.5,3.7-12,29.2-15.4,35.8c-1.5,3-1.9,3.8-2.9,3.8c-0.8,0-1.1-0.8-1.8-2.7L190.2,181.1z"/>
</svg>
