<?xml version="1.0" encoding="utf-8"?>
<!-- Generator: Adobe Illustrator 19.0.0, SVG Export Plug-In . SVG Version: 6.00 Build 0)  -->
<svg version="1.1" id="Layer_1" xmlns="http://www.w3.org/2000/svg" xmlns:xlink="http://www.w3.org/1999/xlink" x="0px" y="0px"
	 viewBox="50 151 400 100" style="enable-background:new 50 151 400 100;" xml:space="preserve">
<style type="text/css">
	.st0{fill:#FFFFFF;stroke:#FFFFFF;stroke-miterlimit:10;}
</style>
<path id="XMLID_56_" class="st0" d="M97.4,194.9c0-10.9,0-13-0.2-15.3c-0.2-2.4-0.8-3.6-3.4-4.1c-0.6-0.1-2-0.2-3.1-0.2
	c-0.9,0-1.3-0.1-1.3-0.6s0.6-0.6,1.7-0.6c4.2,0,9.2,0.2,11.4,0.2c3.2,0,7.8-0.2,11.5-0.2c9.9,0,13.5,3,14.7,4.1c1.7,1.5,4,4.8,4,8.6
	c0,10.2-8.2,17.4-19.5,17.4c-0.4,0-1.3,0-1.7-0.1s-1-0.1-1-0.6c0-0.6,0.6-0.8,2.2-0.8c4.4,0,10.6-4.5,10.6-11.9
	c0-2.4-0.2-7.2-4.7-10.8c-2.9-2.4-6.1-2.8-7.9-2.8c-1.2,0-2.4,0.1-3.1,0.3c-0.4,0.1-0.6,0.6-0.6,1.4v28.8c0,6.6,0,12.3,0.4,15.4
	c0.2,2,0.7,3.6,3.1,3.9c1.1,0.1,2.9,0.3,4,0.3c0.9,0,1.3,0.2,1.3,0.6c0,0.5-0.6,0.7-1.5,0.7c-5.1-0.1-10.1-0.3-12.1-0.3
	c-1.8,0-6.8,0.2-10,0.2c-1,0-1.6-0.2-1.6-0.7c0-0.4,0.3-0.6,1.3-0.6c1.2,0,2.1-0.1,2.9-0.3c1.6-0.3,2-1.9,2.3-4
	c0.4-3,0.4-8.7,0.4-15.3v-12.7L97.4,194.9L97.4,194.9z"/>
</svg>
