<?xml version="1.0" encoding="utf-8"?>
<!-- Generator: Adobe Illustrator 19.0.0, SVG Export Plug-In . SVG Version: 6.00 Build 0)  -->
<svg version="1.1" id="Layer_1" xmlns="http://www.w3.org/2000/svg" xmlns:xlink="http://www.w3.org/1999/xlink" x="0px" y="0px"
	 viewBox="50 151 400 100" style="enable-background:new 50 151 400 100;" xml:space="preserve">
<style type="text/css">
	.st0{fill:#FFFFFF;stroke:#FFFFFF;stroke-miterlimit:10;}
</style>
<path id="XMLID_58_" class="st0" d="M148.5,209.7c-0.4,0-0.6,0.1-0.7,0.6l-4.3,10.3c-0.8,1.8-1.2,3.5-1.2,4.4c0,1.3,0.7,2.2,3.2,2.2
	h1.2c1,0,1.2,0.1,1.2,0.6c0,0.6-0.5,0.7-1.3,0.7c-2.5,0-5.9-0.2-8.4-0.2c-0.9,0-5.2,0.2-9.3,0.2c-1,0-1.5-0.1-1.5-0.7
	c0-0.4,0.3-0.6,1-0.6s1.8-0.1,2.5-0.1c3.6-0.4,5.1-2.9,6.7-6.5l19.9-45.2c1-2.1,1.4-2.9,2.2-2.9c0.7,0,1.2,0.6,2,2.3
	c1.9,4,14.6,33.3,19.6,44.3c3,6.5,5.3,7.5,7,7.8c1.2,0.2,2.4,0.3,3.3,0.3c0.6,0,1,0.1,1,0.6c0,0.6-0.7,0.7-3.6,0.7
	c-2.9,0-8.6,0-15-0.1c-1.4-0.1-2.4-0.1-2.4-0.6c0-0.4,0.3-0.6,1.1-0.6c0.6-0.1,1.1-0.8,0.7-1.7l-6.3-15.3c-0.2-0.4-0.4-0.5-0.8-0.5
	C166.3,209.7,148.5,209.7,148.5,209.7z M164.6,206.1c0.4,0,0.5-0.2,0.4-0.4l-7.1-17.8c-0.1-0.3-0.2-0.6-0.4-0.6s-0.4,0.4-0.5,0.6
	l-7.3,17.7c-0.1,0.3,0,0.5,0.3,0.5H164.6z"/>
</svg>
