<?xml version="1.0" encoding="utf-8"?>
<!-- Generator: Adobe Illustrator 19.0.0, SVG Export Plug-In . SVG Version: 6.00 Build 0)  -->
<svg version="1.1" id="Layer_1" xmlns="http://www.w3.org/2000/svg" xmlns:xlink="http://www.w3.org/1999/xlink" x="0px" y="0px"
	 viewBox="50 151 400 100" style="enable-background:new 50 151 400 100;" xml:space="preserve">
<style type="text/css">
	.st0{fill:#FFFFFF;stroke:#FFFFFF;stroke-miterlimit:10;}
</style>
<path id="XMLID_56_" class="st0" d="M97.4,194.9c0-10.9,0-13-0.2-15.3c-0.2-2.4-0.8-3.6-3.4-4.1c-0.6-0.1-2-0.2-3.1-0.2
	c-0.9,0-1.3-0.1-1.3-0.6s0.6-0.6,1.7-0.6c4.2,0,9.2,0.2,11.4,0.2c3.2,0,7.8-0.2,11.5-0.2c9.9,0,13.5,3,14.7,4.1c1.7,1.5,4,4.8,4,8.6
	c0,10.2-8.2,17.4-19.5,17.4c-0.4,0-1.3,0-1.7-0.1s-1-0.1-1-0.6c0-0.6,0.6-0.8,2.2-0.8c4.4,0,10.6-4.5,10.6-11.9
	c0-2.4-0.2-7.2-4.7-10.8c-2.9-2.4-6.1-2.8-7.9-2.8c-1.2,0-2.4,0.1-3.1,0.3c-0.4,0.1-0.6,0.6-0.6,1.4v28.8c0,6.6,0,12.3,0.4,15.4
	c0.2,2,0.7,3.6,3.1,3.9c1.1,0.1,2.9,0.3,4,0.3c0.9,0,1.3,0.2,1.3,0.6c0,0.5-0.6,0.7-1.5,0.7c-5.1-0.1-10.1-0.3-12.1-0.3
	c-1.8,0-6.8,0.2-10,0.2c-1,0-1.6-0.2-1.6-0.7c0-0.4,0.3-0.6,1.3-0.6c1.2,0,2.1-0.1,2.9-0.3c1.6-0.3,2-1.9,2.3-4
	c0.4-3,0.4-8.7,0.4-15.3v-12.7L97.4,194.9L97.4,194.9z"/>
<path id="XMLID_58_" class="st0" d="M148.5,209.7c-0.4,0-0.6,0.1-0.7,0.6l-4.3,10.3c-0.8,1.8-1.2,3.5-1.2,4.4c0,1.3,0.7,2.2,3.2,2.2
	h1.2c1,0,1.2,0.1,1.2,0.6c0,0.6-0.5,0.7-1.3,0.7c-2.5,0-5.9-0.2-8.4-0.2c-0.9,0-5.2,0.2-9.3,0.2c-1,0-1.5-0.1-1.5-0.7
	c0-0.4,0.3-0.6,1-0.6s1.8-0.1,2.5-0.1c3.6-0.4,5.1-2.9,6.7-6.5l19.9-45.2c1-2.1,1.4-2.9,2.2-2.9c0.7,0,1.2,0.6,2,2.3
	c1.9,4,14.6,33.3,19.6,44.3c3,6.5,5.3,7.5,7,7.8c1.2,0.2,2.4,0.3,3.3,0.3c0.6,0,1,0.1,1,0.6c0,0.6-0.7,0.7-3.6,0.7
	c-2.9,0-8.6,0-15-0.1c-1.4-0.1-2.4-0.1-2.4-0.6c0-0.4,0.3-0.6,1.1-0.6c0.6-0.1,1.1-0.8,0.7-1.7l-6.3-15.3c-0.2-0.4-0.4-0.5-0.8-0.5
	C166.3,209.7,148.5,209.7,148.5,209.7z M164.6,206.1c0.4,0,0.5-0.2,0.4-0.4l-7.1-17.8c-0.1-0.3-0.2-0.6-0.4-0.6s-0.4,0.4-0.5,0.6
	l-7.3,17.7c-0.1,0.3,0,0.5,0.3,0.5H164.6z"/>
<path id="XMLID_61_" class="st0" d="M190.2,181.1c-1-2.7-1.8-4.4-2.9-5.1c-0.9-0.5-2.5-0.6-3.2-0.6c-0.8,0-1.3-0.1-1.3-0.6
	s0.6-0.6,1.7-0.6c4.1,0,8.5,0.2,9.2,0.2s4.2-0.2,8.8-0.2c1.1,0,1.7,0.2,1.7,0.6c0,0.6-0.6,0.6-1.4,0.6c-0.6,0-1.4,0-2,0.3
	c-0.7,0.3-0.9,0.8-0.9,1.6c0,0.9,0.8,3.4,1.7,6.6c1.3,4.8,8.7,26.6,10.1,30.6h0.2l15.4-37.5c0.8-2,1.3-2.6,2-2.6
	c0.9,0,1.3,1.1,2.3,3.4l16.5,36.2h0.2c1.4-4.8,7.8-23.8,10.5-32.3c0.6-1.7,0.8-3.2,0.8-4.2c0-1.2-0.7-2.2-3.8-2.2
	c-0.8,0-1.3-0.2-1.3-0.6c0-0.5,0.6-0.6,1.8-0.6c4.2,0,7.5,0.2,8.2,0.2c0.6,0,4-0.2,6.6-0.2c0.9,0,1.4,0.1,1.4,0.6s-0.4,0.7-1.1,0.7
	c-0.8,0-1.9,0.1-2.8,0.4c-1.9,0.6-2.8,3.5-4.4,7.6c-3.6,9.1-12,32-15.8,42.8c-0.9,2.5-1.3,3.4-2.3,3.4c-0.8,0-1.3-0.9-2.5-3.5
	l-16.4-36.2H227c-1.5,3.7-12,29.2-15.4,35.8c-1.5,3-1.9,3.8-2.9,3.8c-0.8,0-1.1-0.8-1.8-2.7L190.2,181.1z"/>
<path id="XMLID_63_" class="st0" d="M283.6,194.9c0-10.9-0.4-13-0.6-15.3c-0.2-2.4-0.8-3.6-3.4-4.1c-0.6-0.1-2-0.2-3.1-0.2
	c-0.9,0-1.3-0.1-1.3-0.6s0.6-0.6,1.7-0.6c2.1,0,4.4,0.1,6.4,0.1c2.1,0.1,3.9,0.1,5,0.1c2.5,0,18.3,0,19.8-0.1s2.8-0.3,3.4-0.4
	c0.4-0.1,0.9-0.3,1.3-0.3s0.5,0.3,0.5,0.6c0,0.5-0.4,1.4-0.6,4.7c-0.1,0.7-0.2,3.9-0.4,4.8c-0.1,0.4-0.2,0.8-0.8,0.8
	c-0.6,0-0.7-0.4-0.7-1c0-0.5-0.1-1.7-0.5-2.6c-0.6-1.3-1.3-2.2-5.3-2.6c-1.3-0.1-9.7-0.3-11.2-0.3c-0.4,0-0.6,0.2-0.6,0.7v18.2
	c0,0.5,0.1,0.8,0.6,0.8c1.7,0,10.8,0,12.7-0.1c1.9-0.1,3.1-0.4,3.8-1.1c0.6-0.6,0.9-0.9,1.3-0.9c0.3,0,0.6,0.1,0.6,0.6
	s-0.3,1.6-0.6,5.3c-0.1,1.4-0.3,4.3-0.3,4.8c0,0.6,0,1.4-0.7,1.4c-0.6,0-0.7-0.3-0.7-0.6c-0.1-0.7-0.1-1.7-0.3-2.6
	c-0.4-1.4-1.5-2.5-4.4-2.8c-1.5-0.1-9.3-0.2-11.2-0.2c-0.4,0-0.5,0.3-0.5,0.7v5.7c0,2.4-0.1,9.1,0,11.2c0.2,5,1.4,6,9.5,6
	c2.1,0,5.4,0,7.4-0.9c2.1-0.9,3-2.4,3.6-5.3c0.2-0.8,0.3-1.1,0.9-1.1s0.6,0.6,0.6,1.3c0,1.7-0.6,6.6-1,8c-0.6,1.9-1.3,1.9-4.3,1.9
	c-5.9,0-10.3-0.1-13.7-0.2c-3.4-0.1-5.9-0.2-8.2-0.2c-0.9,0-2.6,0-4.5,0.1c-1.8,0-3.9,0.1-5.5,0.1c-1,0-1.6-0.2-1.6-0.7
	c0-0.4,0.3-0.6,1.3-0.6c1.2,0,2.1-0.1,2.9-0.3c1.6-0.3,2-1.9,2.3-4c0.4-3,0.4-8.7,0.4-15.3L283.6,194.9L283.6,194.9z"/>
<path id="XMLID_65_" class="st0" d="M333.6,194.9c0-10.9-0.4-13-0.6-15.3c-0.2-2.4-0.8-3.6-3.4-4.1c-0.6-0.1-2-0.2-3.1-0.2
	c-0.9,0-1.3-0.1-1.3-0.6s0.6-0.6,1.7-0.6c2.1,0,4.4,0.1,6.4,0.1c2.1,0.1,3.9,0.1,5,0.1c2.5,0,18.3,0,19.8-0.1s2.8-0.3,3.4-0.4
	c0.4-0.1,0.9-0.3,1.3-0.3s0.5,0.3,0.5,0.6c0,0.5-0.4,1.4-0.6,4.7c-0.1,0.7-0.2,3.9-0.4,4.8c-0.1,0.4-0.2,0.8-0.8,0.8
	c-0.6,0-0.7-0.4-0.7-1c0-0.5-0.1-1.7-0.5-2.6c-0.6-1.3-1.3-2.2-5.3-2.6c-1.3-0.1-9.7-0.3-11.2-0.3c-0.4,0-0.6,0.2-0.6,0.7v18.2
	c0,0.5,0.1,0.8,0.6,0.8c1.7,0,10.8,0,12.7-0.1c1.9-0.1,3.1-0.4,3.8-1.1c0.6-0.6,0.9-0.9,1.3-0.9c0.3,0,0.6,0.1,0.6,0.6
	s-0.3,1.6-0.6,5.3c-0.1,1.4-0.3,4.3-0.3,4.8c0,0.6,0,1.4-0.7,1.4c-0.6,0-0.7-0.3-0.7-0.6c-0.1-0.7-0.1-1.7-0.3-2.6
	c-0.4-1.4-1.5-2.5-4.4-2.8c-1.5-0.1-9.3-0.2-11.2-0.2c-0.4,0-0.5,0.3-0.5,0.7v5.7c0,2.4-0.1,9.1,0,11.2c0.2,5,1.4,6,9.5,6
	c2.1,0,5.4,0,7.4-0.9c2.1-0.9,3-2.4,3.6-5.3c0.2-0.8,0.3-1.1,0.9-1.1s0.6,0.6,0.6,1.3c0,1.7-0.6,6.6-1,8c-0.6,1.9-1.3,1.9-4.3,1.9
	c-5.9,0-10.3-0.1-13.7-0.2c-3.4-0.1-5.9-0.2-8.2-0.2c-0.9,0-2.6,0-4.5,0.1c-1.8,0-3.9,0.1-5.5,0.1c-1,0-1.6-0.2-1.6-0.7
	c0-0.4,0.3-0.6,1.3-0.6c1.2,0,2.1-0.1,2.9-0.3c1.6-0.3,2-1.9,2.3-4c0.4-3,0.4-8.7,0.4-15.3L333.6,194.9L333.6,194.9z"/>
<path id="XMLID_67_" class="st0" d="M379,227.6c-1.3-0.5-1.5-0.9-1.5-2.4c0-4,0.3-8.3,0.4-9.4c0.1-1.1,0.3-1.9,1-1.9
	s0.8,0.6,0.8,1.2c0,0.9,0.3,2.4,0.7,3.7c1.7,5.3,6.4,7.3,11.3,7.3c7.1,0,10.6-4.4,10.6-8.2c0-3.5-1.2-6.8-7.8-11.5l-3.6-2.6
	c-8.7-6.2-11.7-11.2-11.7-17.1c0-7.9,7.3-13.6,18.3-13.6c5.1,0,8.5,0.7,10.5,1.2c0.7,0.1,1.1,0.4,1.1,0.9c0,0.9-0.3,3-0.3,8.6
	c0,1.6-0.2,2.2-0.9,2.2c-0.6,0-0.8-0.4-0.8-1.3c0-0.6-0.4-2.9-2.1-4.8c-1.2-1.4-3.5-3.5-8.6-3.5c-5.9,0-9.4,3.1-9.4,7.4
	c0,3.3,1.8,5.8,8.4,10.4l2.2,1.5c9.6,6.6,13,11.5,13,18.4c0,4.2-1.7,9.1-7.4,12.5c-4,2.3-8.4,3-12.6,3
	C386,229.5,382.4,229,379,227.6z"/>
</svg>
