<?xml version="1.0" encoding="utf-8"?>
<!-- Generator: Adobe Illustrator 19.0.0, SVG Export Plug-In . SVG Version: 6.00 Build 0)  -->
<svg version="1.1" id="Layer_1" xmlns="http://www.w3.org/2000/svg" xmlns:xlink="http://www.w3.org/1999/xlink" x="0px" y="0px"
	 viewBox="50 151 400 100" style="enable-background:new 50 151 400 100;" xml:space="preserve">
<style type="text/css">
	.st0{fill:#FFFFFF;stroke:#FFFFFF;stroke-miterlimit:10;}
</style>
<path id="XMLID_67_" class="st0" d="M379,227.6c-1.3-0.5-1.5-0.9-1.5-2.4c0-4,0.3-8.3,0.4-9.4c0.1-1.1,0.3-1.9,1-1.9
	s0.8,0.6,0.8,1.2c0,0.9,0.3,2.4,0.7,3.7c1.7,5.3,6.4,7.3,11.3,7.3c7.1,0,10.6-4.4,10.6-8.2c0-3.5-1.2-6.8-7.8-11.5l-3.6-2.6
	c-8.7-6.2-11.7-11.2-11.7-17.1c0-7.9,7.3-13.6,18.3-13.6c5.1,0,8.5,0.7,10.5,1.2c0.7,0.1,1.1,0.4,1.1,0.9c0,0.9-0.3,3-0.3,8.6
	c0,1.6-0.2,2.2-0.9,2.2c-0.6,0-0.8-0.4-0.8-1.3c0-0.6-0.4-2.9-2.1-4.8c-1.2-1.4-3.5-3.5-8.6-3.5c-5.9,0-9.4,3.1-9.4,7.4
	c0,3.3,1.8,5.8,8.4,10.4l2.2,1.5c9.6,6.6,13,11.5,13,18.4c0,4.2-1.7,9.1-7.4,12.5c-4,2.3-8.4,3-12.6,3
	C386,229.5,382.4,229,379,227.6z"/>
</svg>
