<?xml version="1.0" encoding="utf-8"?>
<!-- Generator: Adobe Illustrator 19.0.0, SVG Export Plug-In . SVG Version: 6.00 Build 0)  -->
<svg version="1.1" id="Layer_1" xmlns="http://www.w3.org/2000/svg" xmlns:xlink="http://www.w3.org/1999/xlink" x="0px" y="0px"
	 viewBox="50 151 400 100" style="enable-background:new 50 151 400 100;" xml:space="preserve">
<style type="text/css">
	.st0{fill:#FFFFFF;stroke:#FFFFFF;stroke-miterlimit:10;}
</style>
<path id="XMLID_63_" class="st0" d="M283.6,194.9c0-10.9-0.4-13-0.6-15.3c-0.2-2.4-0.8-3.6-3.4-4.1c-0.6-0.1-2-0.2-3.1-0.2
	c-0.9,0-1.3-0.1-1.3-0.6s0.6-0.6,1.7-0.6c2.1,0,4.4,0.1,6.4,0.1c2.1,0.1,3.9,0.1,5,0.1c2.5,0,18.3,0,19.8-0.1s2.8-0.3,3.4-0.4
	c0.4-0.1,0.9-0.3,1.3-0.3s0.5,0.3,0.5,0.6c0,0.5-0.4,1.4-0.6,4.7c-0.1,0.7-0.2,3.9-0.4,4.8c-0.1,0.4-0.2,0.8-0.8,0.8
	c-0.6,0-0.7-0.4-0.7-1c0-0.5-0.1-1.7-0.5-2.6c-0.6-1.3-1.3-2.2-5.3-2.6c-1.3-0.1-9.7-0.3-11.2-0.3c-0.4,0-0.6,0.2-0.6,0.7v18.2
	c0,0.5,0.1,0.8,0.6,0.8c1.7,0,10.8,0,12.7-0.1c1.9-0.1,3.1-0.4,3.8-1.1c0.6-0.6,0.9-0.9,1.3-0.9c0.3,0,0.6,0.1,0.6,0.6
	s-0.3,1.6-0.6,5.3c-0.1,1.4-0.3,4.3-0.3,4.8c0,0.6,0,1.4-0.7,1.4c-0.6,0-0.7-0.3-0.7-0.6c-0.1-0.7-0.1-1.7-0.3-2.6
	c-0.4-1.4-1.5-2.5-4.4-2.8c-1.5-0.1-9.3-0.2-11.2-0.2c-0.4,0-0.5,0.3-0.5,0.7v5.7c0,2.4-0.1,9.1,0,11.2c0.2,5,1.4,6,9.5,6
	c2.1,0,5.4,0,7.4-0.9c2.1-0.9,3-2.4,3.6-5.3c0.2-0.8,0.3-1.1,0.9-1.1s0.6,0.6,0.6,1.3c0,1.7-0.6,6.6-1,8c-0.6,1.9-1.3,1.9-4.3,1.9
	c-5.9,0-10.3-0.1-13.7-0.2c-3.4-0.1-5.9-0.2-8.2-0.2c-0.9,0-2.6,0-4.5,0.1c-1.8,0-3.9,0.1-5.5,0.1c-1,0-1.6-0.2-1.6-0.7
	c0-0.4,0.3-0.6,1.3-0.6c1.2,0,2.1-0.1,2.9-0.3c1.6-0.3,2-1.9,2.3-4c0.4-3,0.4-8.7,0.4-15.3L283.6,194.9L283.6,194.9z"/>
</svg>
