<?xml version="1.0" encoding="utf-8"?>
<!-- Generator: Adobe Illustrator 19.0.0, SVG Export Plug-In . SVG Version: 6.00 Build 0)  -->
<svg version="1.1" id="Layer_1" xmlns="http://www.w3.org/2000/svg" xmlns:xlink="http://www.w3.org/1999/xlink" x="0px" y="0px"
	 viewBox="-279 231 400 100" style="enable-background:new -279 231 400 100;" xml:space="preserve">
<style type="text/css">
	.st0{fill:#535034;}
	.st1{fill:#5B583E;}
	.st2{fill:#636147;}
	.st3{fill:#6C6951;}
	.st4{fill:#74715B;}
	.st5{fill:#7C7A64;}
	.st6{fill:#84826E;}
	.st7{fill:#8C8A78;}
	.st8{fill:#959381;}
	.st9{fill:#9D9B8B;}
	.st10{fill:#A5A395;}
	.st11{fill:#ADAC9E;}
	.st12{fill:#B5B4A8;}
	.st13{fill:#BDBCB2;}
	.st14{fill:#C6C5BB;}
	.st15{fill:#CECDC5;}
	.st16{fill:#D6D5CF;}
	.st17{fill:#DEDED8;}
	.st18{fill:#E6E6E2;}
	.st19{fill:#EFEEEC;}
	.st20{fill:#F7F7F5;}
	.st21{fill:#FFFFFF;}
</style>
<g>
	<g>
		<path class="st0" d="M-257.2,322.1c-1.9,0.7-3.9,1-5.9,1c-4.1,0-7.5-1.1-10.1-3.3s-3.9-5.2-3.9-8.8c0-3.5,1.3-6.4,3.8-8.7
			c2.6-2.3,5.8-3.4,9.8-3.4c2.1,0,4.2,0.4,6.3,1.2l-1.8,4.2c-1.3-0.3-2.4-0.5-3.3-0.5c-2.3,0-4.1,0.7-5.4,2c-1.3,1.3-2,3.1-2,5.3
			c0,2.1,0.6,3.8,1.9,5.1c1.3,1.4,3.3,2.2,5.7,2.2c1.2,0,2.4-0.2,3.6-0.5L-257.2,322.1z"/>
		<path class="st0" d="M-239.6,313.3l-2.4-7.4l-2.7,7.4H-239.6z M-229.1,322.7h-7.5l-1.9-5.7h-7.3l-2.3,5.7h-5.5l9.6-23.6h6
			L-229.1,322.7z"/>
		<path class="st0" d="M-208,322.7h-15.7v-23.6h7v19.1h8.7V322.7z"/>
		<path class="st0" d="M-186.9,322.7h-15.7v-23.6h7v19.1h8.7V322.7z"/>
		<path class="st0" d="M-158,298.8l-0.9,3.3c-0.8-0.3-1.5-0.4-2.2-0.4c-1.5,0-2.3,0.8-2.3,2.5v1.8h4.1v3.1h-4.1v13.7h-6.7V309h-2.7
			v-3.1h2.7v-1.6c0-2,0.7-3.6,2.1-4.7c1.3-1.1,3.1-1.6,5.3-1.6C-161.1,298-159.5,298.2-158,298.8z"/>
		<path class="st0" d="M-143.6,314.2c0-3.9-0.9-5.8-2.8-5.8c-0.9,0-1.5,0.5-2,1.6c-0.5,1-0.8,2.4-0.8,4.2c0,1.8,0.3,3.2,0.8,4.3
			c0.5,1.1,1.2,1.6,2,1.6c0.9,0,1.6-0.5,2.1-1.5C-143.8,317.5-143.6,316.1-143.6,314.2z M-136.7,314.1c0,2.6-0.9,4.8-2.7,6.4
			c-1.8,1.7-4.1,2.5-6.9,2.5c-2.8,0-5.1-0.8-6.9-2.5c-1.8-1.7-2.7-3.8-2.7-6.4c0-2.5,0.9-4.6,2.7-6.2c1.8-1.6,4.2-2.4,7-2.4
			c2.7,0,5,0.8,6.8,2.5S-136.7,311.6-136.7,314.1z"/>
		<path class="st0" d="M-116.6,306.8l-1.9,5c-0.6-0.3-1.3-0.4-2.1-0.4c-1.6,0-2.7,0.8-3.2,2.3c-0.2,0.6-0.3,1.6-0.3,3.2v5.9h-6.7
			v-16.8h6.7v3.9l0.5-1.1c1-2.2,2.2-3.2,3.6-3.2C-118.9,305.4-117.8,305.9-116.6,306.8z"/>
		<path class="st0" d="M-88.4,313.3l-2.4-7.4l-2.7,7.4H-88.4z M-78,322.7h-7.5l-1.9-5.7h-7.3l-2.3,5.7h-5.5l9.6-23.6h6L-78,322.7z"
			/>
		<path class="st0" d="M-60.8,305.5c0-1.2-0.5-1.9-1.5-2.3c-0.4-0.2-1.2-0.2-2.2-0.2h-1.1v5.5h0.9c1.3,0,2.2-0.2,2.7-0.5
			C-61.2,307.3-60.8,306.5-60.8,305.5z M-52.9,315.8c0,1.5-0.5,2.9-1.6,4.1c-1,1.1-2.3,1.9-3.8,2.3c-1.2,0.3-3.3,0.5-6.2,0.5h-8.1
			v-23.6h8.4c2,0,3.4,0.1,4.3,0.2c0.8,0.1,1.7,0.3,2.4,0.7c2.1,0.9,3.1,2.5,3.1,4.6c0,1.2-0.4,2.3-1.1,3.1s-1.9,1.5-3.6,2.2
			c1,0.1,2,0.4,3,0.9C-54,311.7-52.9,313.4-52.9,315.8z M-60.1,315.3c0-1.4-0.6-2.3-1.7-2.8c-0.5-0.2-1.3-0.3-2.5-0.3h-1.4v6.6h1
			c1.6,0,2.7-0.3,3.3-0.8C-60.5,317.4-60.1,316.5-60.1,315.3z"/>
		<path class="st0" d="M-31.5,316.1c0,2.1-0.8,3.8-2.5,5c-1.7,1.3-3.9,1.9-6.6,1.9c-2.8,0-5.3-0.7-7.4-2.2l2.2-3.9
			c1.3,1.1,2.7,1.7,4.3,1.7c0.8,0,1.5-0.2,2.1-0.6c0.6-0.4,0.9-1,0.9-1.6c0-0.6-0.3-1.3-0.8-2c-0.4-0.4-1.2-1.3-2.6-2.5
			c-0.8-0.7-1.9-1.7-3.2-2.9c-1.2-1.3-1.8-2.7-1.8-4.2c0-1.9,0.8-3.4,2.3-4.5c1.5-1.1,3.5-1.7,6-1.7c2.2,0,4.3,0.5,6.2,1.6l-1.9,3.7
			c-1.2-0.6-2.3-0.9-3.2-0.9c-1.5,0-2.2,0.5-2.2,1.5c0,0.4,0.2,0.8,0.5,1.1c0.3,0.4,1,1,2,1.9c1.2,1,2.4,2.2,3.5,3.4
			C-32.3,312.6-31.5,314.3-31.5,316.1z"/>
		<path class="st0" d="M-6.4,303.6h-6.9v19.1h-7v-19.1h-6.8v-4.5h20.7V303.6z"/>
		<path class="st0" d="M11.3,306.3c0-1.2-0.4-2.1-1.1-2.5c-0.5-0.3-1.5-0.5-2.9-0.5H6v6.4h1.2c1.5,0,2.5-0.3,3.1-0.9
			C11,308.2,11.3,307.4,11.3,306.3z M19.2,322.3l-7.4,0.8l-3.9-9.6H6v9.2h-7v-23.6h9.2c1.7,0,3,0,3.7,0.1c1.4,0.2,2.6,0.6,3.5,1.2
			c1.8,1.2,2.6,3,2.6,5.4c0,2.8-1.4,5-4.3,6.5L19.2,322.3z"/>
		<path class="st0" d="M36.6,313.3l-2.4-7.4l-2.7,7.4H36.6z M47.1,322.7h-7.5l-1.9-5.7h-7.3l-2.3,5.7h-5.5l9.6-23.6h6L47.1,322.7z"
			/>
		<path class="st0" d="M71.3,322.1c-1.9,0.7-3.9,1-5.9,1c-4.1,0-7.5-1.1-10.1-3.3s-3.9-5.2-3.9-8.8c0-3.5,1.3-6.4,3.8-8.7
			c2.6-2.3,5.8-3.4,9.8-3.4c2.1,0,4.2,0.4,6.3,1.2l-1.8,4.2c-1.3-0.3-2.4-0.5-3.3-0.5c-2.3,0-4.1,0.7-5.4,2c-1.3,1.3-2,3.1-2,5.3
			c0,2.1,0.6,3.8,1.9,5.1c1.3,1.4,3.3,2.2,5.7,2.2c1.2,0,2.4-0.2,3.6-0.5L71.3,322.1z"/>
		<path class="st0" d="M95.7,303.6h-6.9v19.1h-7v-19.1H75v-4.5h20.7V303.6z"/>
		<path class="st0" d="M115.9,316.1c0,2.1-0.8,3.8-2.5,5c-1.7,1.3-3.9,1.9-6.6,1.9c-2.8,0-5.3-0.7-7.4-2.2l2.2-3.9
			c1.3,1.1,2.7,1.7,4.3,1.7c0.8,0,1.5-0.2,2.1-0.6c0.6-0.4,0.9-1,0.9-1.6c0-0.6-0.3-1.3-0.8-2c-0.4-0.4-1.2-1.3-2.6-2.5
			c-0.8-0.7-1.9-1.7-3.2-2.9c-1.2-1.3-1.8-2.7-1.8-4.2c0-1.9,0.8-3.4,2.3-4.5c1.5-1.1,3.5-1.7,6-1.7c2.2,0,4.3,0.5,6.2,1.6l-1.9,3.7
			c-1.2-0.6-2.3-0.9-3.2-0.9c-1.5,0-2.2,0.5-2.2,1.5c0,0.4,0.2,0.8,0.5,1.1c0.3,0.4,1,1,2,1.9c1.2,1,2.4,2.2,3.5,3.4
			C115.2,312.6,115.9,314.3,115.9,316.1z"/>
	</g>
	<g>
		<path class="st1" d="M-257.1,322.1c-1.9,0.7-3.9,1-5.9,1c-4.1,0-7.5-1.1-10.1-3.3s-3.9-5.2-3.9-8.8c0-3.5,1.3-6.4,3.8-8.7
			c2.6-2.3,5.8-3.4,9.8-3.4c2.1,0,4.2,0.4,6.3,1.2l-1.8,4.2c-1.3-0.3-2.4-0.5-3.3-0.5c-2.3,0-4.1,0.7-5.4,2c-1.3,1.3-2,3.1-2,5.3
			c0,2.1,0.6,3.8,1.9,5.1c1.4,1.4,3.3,2.2,5.7,2.2c1.2,0,2.4-0.2,3.6-0.5L-257.1,322.1z"/>
		<path class="st1" d="M-239.4,313.3l-2.4-7.4l-2.7,7.4H-239.4z M-229,322.7h-7.5l-1.9-5.7h-7.3l-2.3,5.7h-5.5l9.6-23.6h6
			L-229,322.7z"/>
		<polygon class="st1" points="-207.9,322.7 -223.6,322.7 -223.6,299.1 -216.6,299.1 -216.6,318.2 -207.9,318.2 		"/>
		<polygon class="st1" points="-186.8,322.7 -202.5,322.7 -202.5,299.1 -195.5,299.1 -195.5,318.2 -186.8,318.2 		"/>
		<path class="st1" d="M-157.8,298.8l-0.9,3.3c-0.8-0.3-1.5-0.4-2.2-0.4c-1.5,0-2.3,0.8-2.3,2.5v1.8h4.1v3.1h-4.1v13.7h-6.7V309
			h-2.7v-3.1h2.7v-1.6c0-2,0.7-3.6,2.1-4.7c1.3-1.1,3.1-1.6,5.3-1.6C-160.9,298-159.4,298.2-157.8,298.8z"/>
		<path class="st1" d="M-143.4,314.2c0-3.9-0.9-5.8-2.8-5.8c-0.9,0-1.5,0.5-2,1.6c-0.5,1-0.8,2.4-0.8,4.2c0,1.8,0.3,3.2,0.8,4.3
			c0.5,1.1,1.2,1.6,2,1.6c0.9,0,1.6-0.5,2.1-1.5C-143.7,317.5-143.4,316.1-143.4,314.2z M-136.6,314.1c0,2.6-0.9,4.8-2.7,6.4
			c-1.8,1.7-4.1,2.5-6.9,2.5c-2.8,0-5.1-0.8-6.9-2.5c-1.8-1.7-2.7-3.8-2.7-6.4c0-2.5,0.9-4.6,2.7-6.2c1.8-1.6,4.2-2.4,7-2.4
			c2.7,0,5,0.8,6.8,2.5S-136.6,311.6-136.6,314.1z"/>
		<path class="st1" d="M-116.4,306.8l-1.9,5c-0.6-0.3-1.3-0.4-2.1-0.4c-1.6,0-2.7,0.8-3.2,2.3c-0.2,0.6-0.3,1.6-0.3,3.2v5.9h-6.7
			v-16.8h6.7v3.9l0.5-1.1c1-2.2,2.2-3.2,3.6-3.2C-118.8,305.4-117.7,305.9-116.4,306.8z"/>
		<path class="st1" d="M-88.3,313.3l-2.4-7.4l-2.7,7.4H-88.3z M-77.8,322.7h-7.5l-1.9-5.7h-7.3l-2.3,5.7h-5.5l9.6-23.6h6
			L-77.8,322.7z"/>
		<path class="st1" d="M-60.6,305.5c0-1.2-0.5-1.9-1.5-2.3c-0.4-0.2-1.2-0.2-2.2-0.2h-1.1v5.5h0.9c1.3,0,2.2-0.2,2.7-0.5
			C-61.1,307.3-60.6,306.5-60.6,305.5z M-52.8,315.8c0,1.5-0.5,2.9-1.6,4.1c-1,1.1-2.3,1.9-3.8,2.3c-1.2,0.3-3.3,0.5-6.2,0.5h-8.1
			v-23.6h8.4c2,0,3.4,0.1,4.3,0.2c0.8,0.1,1.7,0.3,2.4,0.7c2.1,0.9,3.1,2.5,3.1,4.6c0,1.2-0.4,2.3-1.1,3.1s-1.9,1.5-3.6,2.2
			c1,0.1,2,0.4,3,0.9C-53.8,311.7-52.8,313.4-52.8,315.8z M-60,315.3c0-1.4-0.6-2.3-1.7-2.8c-0.5-0.2-1.3-0.3-2.5-0.3h-1.4v6.6h1
			c1.6,0,2.7-0.3,3.3-0.8C-60.4,317.4-60,316.5-60,315.3z"/>
		<path class="st1" d="M-31.4,316.1c0,2.1-0.8,3.8-2.5,5c-1.7,1.3-3.9,1.9-6.6,1.9c-2.8,0-5.3-0.7-7.4-2.2l2.2-3.9
			c1.3,1.1,2.7,1.7,4.3,1.7c0.8,0,1.5-0.2,2.1-0.6c0.6-0.4,0.9-1,0.9-1.6c0-0.6-0.3-1.3-0.8-2c-0.4-0.4-1.2-1.3-2.6-2.5
			c-0.8-0.7-2-1.6-3.2-2.9c-1.2-1.2-1.8-2.7-1.8-4.2c0-1.9,0.8-3.4,2.3-4.5c1.5-1.1,3.5-1.7,6-1.7c2.2,0,4.3,0.5,6.2,1.6l-1.9,3.7
			c-1.2-0.6-2.3-0.9-3.2-0.9c-1.5,0-2.2,0.5-2.2,1.5c0,0.4,0.2,0.8,0.5,1.1c0.3,0.4,1,1,2,1.9c1.2,1,2.4,2.2,3.5,3.4
			C-32.1,312.6-31.4,314.3-31.4,316.1z"/>
		<polygon class="st1" points="-6.3,303.6 -13.2,303.6 -13.2,322.7 -20.2,322.7 -20.2,303.6 -27,303.6 -27,299.1 -6.3,299.1 		"/>
		<path class="st1" d="M11.4,306.3c0-1.2-0.4-2.1-1.1-2.5c-0.5-0.3-1.5-0.5-2.9-0.5H6.1v6.4h1.2c1.5,0,2.5-0.3,3.1-0.9
			C11.1,308.2,11.4,307.4,11.4,306.3z M19.3,322.3l-7.4,0.8l-3.9-9.6H6.1v9.2h-7v-23.6h9.2c1.7,0,3,0,3.7,0.1
			c1.4,0.2,2.6,0.6,3.5,1.2c1.8,1.2,2.6,3,2.6,5.4c0,2.8-1.4,5-4.3,6.5L19.3,322.3z"/>
		<path class="st1" d="M36.8,313.3l-2.4-7.4l-2.7,7.4H36.8z M47.2,322.7h-7.5l-1.9-5.7h-7.3l-2.3,5.7h-5.5l9.6-23.6h6L47.2,322.7z"
			/>
		<path class="st1" d="M71.5,322.1c-1.9,0.7-3.9,1-5.9,1c-4.1,0-7.5-1.1-10.1-3.3s-3.9-5.2-3.9-8.8c0-3.5,1.3-6.4,3.8-8.7
			c2.6-2.3,5.8-3.4,9.8-3.4c2.1,0,4.2,0.4,6.3,1.2l-1.8,4.2c-1.3-0.3-2.4-0.5-3.3-0.5c-2.3,0-4.1,0.7-5.4,2c-1.3,1.3-2,3.1-2,5.3
			c0,2.1,0.6,3.8,1.9,5.1c1.4,1.4,3.3,2.2,5.7,2.2c1.2,0,2.4-0.2,3.6-0.5L71.5,322.1z"/>
		<polygon class="st1" points="95.8,303.6 88.9,303.6 88.9,322.7 81.9,322.7 81.9,303.6 75.1,303.6 75.1,299.1 95.8,299.1 		"/>
		<path class="st1" d="M116.1,316.1c0,2.1-0.8,3.8-2.5,5c-1.7,1.3-3.9,1.9-6.6,1.9c-2.8,0-5.3-0.7-7.4-2.2l2.2-3.9
			c1.3,1.1,2.7,1.7,4.3,1.7c0.8,0,1.5-0.2,2.1-0.6c0.6-0.4,0.9-1,0.9-1.6c0-0.6-0.3-1.3-0.8-2c-0.4-0.4-1.2-1.3-2.6-2.5
			c-0.8-0.7-2-1.6-3.2-2.9c-1.2-1.2-1.8-2.7-1.8-4.2c0-1.9,0.8-3.4,2.3-4.5c1.5-1.1,3.5-1.7,6-1.7c2.2,0,4.3,0.5,6.2,1.6l-1.9,3.7
			c-1.2-0.6-2.3-0.9-3.2-0.9c-1.5,0-2.2,0.5-2.2,1.5c0,0.4,0.2,0.8,0.5,1.1c0.3,0.4,1,1,2,1.9c1.2,1,2.4,2.2,3.5,3.4
			C115.3,312.6,116.1,314.3,116.1,316.1z"/>
	</g>
	<g>
		<path class="st2" d="M-257,322.1c-1.9,0.7-3.9,1-5.9,1c-4.1,0-7.5-1.1-10.1-3.3s-3.9-5.2-3.9-8.8c0-3.5,1.3-6.4,3.8-8.7
			c2.6-2.3,5.8-3.4,9.8-3.4c2.1,0,4.2,0.4,6.3,1.2l-1.8,4.2c-1.3-0.3-2.4-0.5-3.3-0.5c-2.3,0-4.1,0.7-5.4,2c-1.3,1.3-2,3.1-2,5.3
			c0,2.1,0.6,3.8,1.9,5.1c1.4,1.4,3.3,2.2,5.7,2.2c1.2,0,2.4-0.2,3.6-0.5L-257,322.1z"/>
		<path class="st2" d="M-239.3,313.3l-2.4-7.4l-2.7,7.4H-239.3z M-228.8,322.7h-7.5l-1.9-5.7h-7.3l-2.3,5.7h-5.5l9.6-23.6h6
			L-228.8,322.7z"/>
		<polygon class="st2" points="-207.8,322.7 -223.5,322.7 -223.5,299.1 -216.4,299.1 -216.4,318.2 -207.8,318.2 		"/>
		<polygon class="st2" points="-186.7,322.7 -202.4,322.7 -202.4,299.1 -195.3,299.1 -195.3,318.2 -186.7,318.2 		"/>
		<path class="st2" d="M-157.7,298.8l-0.9,3.3c-0.8-0.3-1.5-0.4-2.2-0.4c-1.5,0-2.3,0.8-2.3,2.5v1.8h4.1v3.1h-4.1v13.7h-6.7V309
			h-2.7v-3.1h2.7v-1.6c0-2,0.7-3.6,2.1-4.7c1.3-1.1,3.1-1.6,5.3-1.6C-160.8,298-159.2,298.2-157.7,298.8z"/>
		<path class="st2" d="M-143.3,314.2c0-3.9-0.9-5.8-2.8-5.8c-0.9,0-1.5,0.5-2,1.6c-0.5,1-0.8,2.4-0.8,4.2c0,1.8,0.3,3.2,0.8,4.3
			c0.5,1.1,1.2,1.6,2,1.6c0.9,0,1.6-0.5,2.1-1.5C-143.5,317.5-143.3,316.1-143.3,314.2z M-136.4,314.1c0,2.6-0.9,4.8-2.7,6.4
			c-1.8,1.7-4.1,2.5-6.9,2.5c-2.8,0-5.1-0.8-6.9-2.5c-1.8-1.7-2.7-3.8-2.7-6.4c0-2.5,0.9-4.6,2.7-6.2c1.8-1.6,4.2-2.4,7-2.4
			c2.7,0,5,0.8,6.8,2.5S-136.4,311.6-136.4,314.1z"/>
		<path class="st2" d="M-116.3,306.8l-1.9,5c-0.6-0.3-1.3-0.4-2.1-0.4c-1.6,0-2.7,0.8-3.2,2.3c-0.2,0.6-0.3,1.6-0.3,3.2v5.9h-6.7
			v-16.8h6.7v3.9l0.5-1.1c1-2.2,2.2-3.2,3.6-3.2C-118.7,305.4-117.5,305.9-116.3,306.8z"/>
		<path class="st2" d="M-88.2,313.3l-2.4-7.4l-2.7,7.4H-88.2z M-77.7,322.7h-7.5l-1.9-5.7h-7.3l-2.3,5.7h-5.5l9.6-23.6h6
			L-77.7,322.7z"/>
		<path class="st2" d="M-60.5,305.5c0-1.2-0.5-1.9-1.5-2.3c-0.4-0.2-1.2-0.2-2.2-0.2h-1.1v5.5h0.9c1.3,0,2.2-0.2,2.7-0.5
			C-60.9,307.3-60.5,306.5-60.5,305.5z M-52.6,315.8c0,1.5-0.5,2.9-1.6,4.1c-1,1.1-2.3,1.9-3.8,2.3c-1.2,0.3-3.3,0.5-6.2,0.5h-8.1
			v-23.6h8.4c2,0,3.4,0.1,4.3,0.2c0.8,0.1,1.7,0.3,2.4,0.7c2.1,0.9,3.1,2.5,3.1,4.6c0,1.2-0.4,2.3-1.1,3.1s-1.9,1.5-3.6,2.2
			c1,0.1,2,0.4,3,0.9C-53.7,311.7-52.6,313.4-52.6,315.8z M-59.8,315.3c0-1.4-0.6-2.3-1.7-2.8c-0.5-0.2-1.3-0.3-2.5-0.3h-1.4v6.6h1
			c1.6,0,2.7-0.3,3.3-0.8C-60.2,317.4-59.8,316.5-59.8,315.3z"/>
		<path class="st2" d="M-31.2,316.1c0,2.1-0.8,3.8-2.5,5c-1.7,1.3-3.9,1.9-6.6,1.9c-2.8,0-5.3-0.7-7.4-2.2l2.2-3.9
			c1.3,1.1,2.7,1.7,4.3,1.7c0.8,0,1.5-0.2,2.1-0.6c0.6-0.4,0.9-1,0.9-1.6c0-0.6-0.3-1.3-0.8-2c-0.4-0.4-1.2-1.3-2.6-2.5
			c-0.8-0.7-2-1.6-3.2-2.9c-1.2-1.2-1.8-2.7-1.8-4.2c0-1.9,0.8-3.4,2.3-4.5c1.5-1.1,3.5-1.7,6-1.7c2.2,0,4.3,0.5,6.2,1.6l-1.9,3.7
			c-1.2-0.6-2.3-0.9-3.2-0.9c-1.5,0-2.2,0.5-2.2,1.5c0,0.4,0.2,0.8,0.5,1.1c0.3,0.4,1,1,2,1.9c1.2,1,2.4,2.2,3.5,3.4
			C-32,312.6-31.2,314.3-31.2,316.1z"/>
		<polygon class="st2" points="-6.1,303.6 -13,303.6 -13,322.7 -20.1,322.7 -20.1,303.6 -26.8,303.6 -26.8,299.1 -6.1,299.1 		"/>
		<path class="st2" d="M11.5,306.3c0-1.2-0.4-2.1-1.1-2.5c-0.5-0.3-1.5-0.5-2.9-0.5H6.3v6.4h1.2c1.5,0,2.5-0.3,3.1-0.9
			C11.2,308.2,11.5,307.4,11.5,306.3z M19.4,322.3l-7.4,0.8l-3.9-9.6H6.3v9.2h-7v-23.6h9.2c1.7,0,3,0,3.7,0.1
			c1.4,0.2,2.6,0.6,3.5,1.2c1.7,1.2,2.6,3,2.6,5.4c0,2.8-1.4,5-4.3,6.5L19.4,322.3z"/>
		<path class="st2" d="M36.9,313.3l-2.4-7.4l-2.7,7.4H36.9z M47.4,322.7h-7.5L38,317h-7.3l-2.3,5.7h-5.5l9.6-23.6h6L47.4,322.7z"/>
		<path class="st2" d="M71.6,322.1c-1.9,0.7-3.9,1-5.9,1c-4.1,0-7.5-1.1-10.1-3.3s-3.9-5.2-3.9-8.8c0-3.5,1.3-6.4,3.8-8.7
			c2.6-2.3,5.8-3.4,9.8-3.4c2.1,0,4.2,0.4,6.3,1.2l-1.8,4.2c-1.3-0.3-2.4-0.5-3.3-0.5c-2.3,0-4.1,0.7-5.4,2c-1.3,1.3-2,3.1-2,5.3
			c0,2.1,0.6,3.8,1.9,5.1c1.4,1.4,3.3,2.2,5.7,2.2c1.2,0,2.4-0.2,3.6-0.5L71.6,322.1z"/>
		<polygon class="st2" points="96,303.6 89.1,303.6 89.1,322.7 82,322.7 82,303.6 75.3,303.6 75.3,299.1 96,299.1 		"/>
		<path class="st2" d="M116.2,316.1c0,2.1-0.8,3.8-2.5,5c-1.7,1.3-3.9,1.9-6.6,1.9c-2.8,0-5.3-0.7-7.4-2.2l2.2-3.9
			c1.3,1.1,2.7,1.7,4.3,1.7c0.8,0,1.5-0.2,2.1-0.6c0.6-0.4,0.9-1,0.9-1.6c0-0.6-0.3-1.3-0.8-2c-0.4-0.4-1.2-1.3-2.6-2.5
			c-0.8-0.7-2-1.6-3.2-2.9c-1.2-1.2-1.8-2.7-1.8-4.2c0-1.9,0.8-3.4,2.3-4.5c1.5-1.1,3.5-1.7,6-1.7c2.2,0,4.3,0.5,6.2,1.6l-1.9,3.7
			c-1.2-0.6-2.3-0.9-3.2-0.9c-1.5,0-2.2,0.5-2.2,1.5c0,0.4,0.2,0.8,0.5,1.1c0.3,0.4,1,1,2,1.9c1.2,1,2.4,2.2,3.5,3.4
			C115.4,312.6,116.2,314.3,116.2,316.1z"/>
	</g>
	<g>
		<path class="st3" d="M-256.8,322.1c-1.9,0.7-3.9,1-5.9,1c-4.1,0-7.5-1.1-10.1-3.3s-3.9-5.2-3.9-8.8c0-3.5,1.3-6.4,3.8-8.7
			c2.6-2.3,5.8-3.4,9.8-3.4c2.1,0,4.2,0.4,6.3,1.2l-1.8,4.2c-1.3-0.3-2.4-0.5-3.3-0.5c-2.3,0-4.1,0.7-5.4,2c-1.3,1.3-2,3.1-2,5.3
			c0,2.1,0.6,3.8,1.9,5.1c1.4,1.4,3.3,2.2,5.7,2.2c1.2,0,2.4-0.2,3.6-0.5L-256.8,322.1z"/>
		<path class="st3" d="M-239.2,313.3l-2.4-7.4l-2.7,7.4H-239.2z M-228.7,322.7h-7.5l-1.9-5.7h-7.3l-2.3,5.7h-5.5l9.6-23.6h6
			L-228.7,322.7z"/>
		<polygon class="st3" points="-207.6,322.7 -223.3,322.7 -223.3,299.1 -216.3,299.1 -216.3,318.2 -207.6,318.2 		"/>
		<polygon class="st3" points="-186.5,322.7 -202.2,322.7 -202.2,299.1 -195.2,299.1 -195.2,318.2 -186.5,318.2 		"/>
		<path class="st3" d="M-157.6,298.8l-0.9,3.3c-0.8-0.3-1.5-0.4-2.2-0.4c-1.5,0-2.3,0.8-2.3,2.5v1.8h4.1v3.1h-4.1v13.7h-6.7V309
			h-2.7v-3.1h2.7v-1.6c0-2,0.7-3.6,2.1-4.7c1.3-1.1,3.1-1.6,5.3-1.6C-160.6,298-159.1,298.2-157.6,298.8z"/>
		<path class="st3" d="M-143.2,314.2c0-3.9-0.9-5.8-2.8-5.8c-0.9,0-1.5,0.5-2,1.6c-0.5,1-0.8,2.4-0.8,4.2c0,1.8,0.3,3.2,0.8,4.3
			c0.5,1.1,1.2,1.6,2,1.6c0.9,0,1.6-0.5,2.1-1.5C-143.4,317.5-143.2,316.1-143.2,314.2z M-136.3,314.1c0,2.6-0.9,4.8-2.7,6.4
			c-1.8,1.7-4.1,2.5-6.9,2.5c-2.8,0-5.1-0.8-6.9-2.5c-1.8-1.7-2.7-3.8-2.7-6.4c0-2.5,0.9-4.6,2.7-6.2c1.8-1.6,4.2-2.4,7-2.4
			c2.7,0,5,0.8,6.8,2.5S-136.3,311.6-136.3,314.1z"/>
		<path class="st3" d="M-116.2,306.8l-1.9,5c-0.6-0.3-1.3-0.4-2.1-0.4c-1.6,0-2.7,0.8-3.2,2.3c-0.2,0.6-0.3,1.6-0.3,3.2v5.9h-6.7
			v-16.8h6.7v3.9l0.5-1.1c1-2.2,2.2-3.2,3.6-3.2C-118.5,305.4-117.4,305.9-116.2,306.8z"/>
		<path class="st3" d="M-88,313.3l-2.4-7.4l-2.7,7.4H-88z M-77.6,322.7h-7.5l-1.9-5.7h-7.3l-2.3,5.7h-5.5l9.6-23.6h6L-77.6,322.7z"
			/>
		<path class="st3" d="M-60.4,305.5c0-1.2-0.5-1.9-1.5-2.3c-0.4-0.2-1.2-0.2-2.2-0.2h-1.1v5.5h0.9c1.3,0,2.2-0.2,2.7-0.5
			C-60.8,307.3-60.4,306.5-60.4,305.5z M-52.5,315.8c0,1.5-0.5,2.9-1.6,4.1c-1,1.1-2.3,1.9-3.8,2.3c-1.2,0.3-3.3,0.5-6.2,0.5h-8.1
			v-23.6h8.4c2,0,3.4,0.1,4.3,0.2c0.8,0.1,1.7,0.3,2.4,0.7c2.1,0.9,3.1,2.5,3.1,4.6c0,1.2-0.4,2.3-1.1,3.1s-1.9,1.5-3.6,2.2
			c1,0.1,2,0.4,3,0.9C-53.5,311.7-52.5,313.4-52.5,315.8z M-59.7,315.3c0-1.4-0.6-2.3-1.7-2.8c-0.5-0.2-1.3-0.3-2.5-0.3h-1.4v6.6h1
			c1.6,0,2.7-0.3,3.3-0.8C-60.1,317.4-59.7,316.5-59.7,315.3z"/>
		<path class="st3" d="M-31.1,316.1c0,2.1-0.8,3.8-2.5,5c-1.7,1.3-3.9,1.9-6.6,1.9c-2.8,0-5.3-0.7-7.4-2.2l2.2-3.9
			c1.3,1.1,2.7,1.7,4.3,1.7c0.8,0,1.5-0.2,2.1-0.6c0.6-0.4,0.9-1,0.9-1.6c0-0.6-0.3-1.3-0.8-2c-0.4-0.4-1.2-1.3-2.6-2.5
			c-0.8-0.7-2-1.6-3.2-2.9c-1.2-1.2-1.8-2.7-1.8-4.2c0-1.9,0.8-3.4,2.3-4.5c1.5-1.1,3.5-1.7,6-1.7c2.2,0,4.3,0.5,6.2,1.6l-1.9,3.7
			c-1.2-0.6-2.3-0.9-3.2-0.9c-1.5,0-2.2,0.5-2.2,1.5c0,0.4,0.2,0.8,0.5,1.1c0.3,0.4,1,1,2,1.9c1.2,1,2.4,2.2,3.5,3.4
			C-31.8,312.6-31.1,314.3-31.1,316.1z"/>
		<polygon class="st3" points="-6,303.6 -12.9,303.6 -12.9,322.7 -19.9,322.7 -19.9,303.6 -26.7,303.6 -26.7,299.1 -6,299.1 		"/>
		<path class="st3" d="M11.7,306.3c0-1.2-0.4-2.1-1.1-2.5c-0.5-0.3-1.5-0.5-2.9-0.5H6.4v6.4h1.2c1.5,0,2.5-0.3,3.1-0.9
			C11.4,308.2,11.7,307.4,11.7,306.3z M19.6,322.3l-7.4,0.8l-3.9-9.6H6.4v9.2h-7v-23.6h9.2c1.7,0,3,0,3.7,0.1
			c1.4,0.2,2.6,0.6,3.5,1.2c1.8,1.2,2.6,3,2.6,5.4c0,2.8-1.4,5-4.3,6.5L19.6,322.3z"/>
		<path class="st3" d="M37.1,313.3l-2.4-7.4l-2.7,7.4H37.1z M47.5,322.7H40l-1.9-5.7h-7.3l-2.3,5.7h-5.5l9.6-23.6h6L47.5,322.7z"/>
		<path class="st3" d="M71.7,322.1c-1.9,0.7-3.9,1-5.9,1c-4.1,0-7.5-1.1-10.1-3.3s-3.9-5.2-3.9-8.8c0-3.5,1.3-6.4,3.8-8.7
			c2.6-2.3,5.8-3.4,9.8-3.4c2.1,0,4.2,0.4,6.3,1.2l-1.8,4.2c-1.3-0.3-2.4-0.5-3.3-0.5c-2.3,0-4.1,0.7-5.4,2c-1.3,1.3-2,3.1-2,5.3
			c0,2.1,0.6,3.8,1.9,5.1c1.4,1.4,3.3,2.2,5.7,2.2c1.2,0,2.4-0.2,3.6-0.5L71.7,322.1z"/>
		<polygon class="st3" points="96.1,303.6 89.2,303.6 89.2,322.7 82.2,322.7 82.2,303.6 75.4,303.6 75.4,299.1 96.1,299.1 		"/>
		<path class="st3" d="M116.3,316.1c0,2.1-0.8,3.8-2.5,5c-1.7,1.3-3.9,1.9-6.6,1.9c-2.8,0-5.3-0.7-7.4-2.2l2.2-3.9
			c1.3,1.1,2.7,1.7,4.3,1.7c0.8,0,1.5-0.2,2.1-0.6c0.6-0.4,0.9-1,0.9-1.6c0-0.6-0.3-1.3-0.8-2c-0.4-0.4-1.2-1.3-2.6-2.5
			c-0.8-0.7-2-1.6-3.2-2.9c-1.2-1.2-1.8-2.7-1.8-4.2c0-1.9,0.8-3.4,2.3-4.5c1.5-1.1,3.5-1.7,6-1.7c2.2,0,4.3,0.5,6.2,1.6l-1.9,3.7
			c-1.2-0.6-2.3-0.9-3.2-0.9c-1.5,0-2.2,0.5-2.2,1.5c0,0.4,0.2,0.8,0.5,1.1c0.3,0.4,1,1,2,1.9c1.2,1,2.4,2.2,3.5,3.4
			C115.6,312.6,116.3,314.3,116.3,316.1z"/>
	</g>
	<g>
		<path class="st4" d="M-256.7,322.1c-1.9,0.7-3.9,1-5.9,1c-4.1,0-7.5-1.1-10.1-3.3s-3.9-5.2-3.9-8.8c0-3.5,1.3-6.4,3.8-8.7
			c2.6-2.3,5.8-3.4,9.8-3.4c2.1,0,4.2,0.4,6.3,1.2l-1.8,4.2c-1.3-0.3-2.4-0.5-3.3-0.5c-2.3,0-4.1,0.7-5.4,2c-1.3,1.3-2,3.1-2,5.3
			c0,2.1,0.6,3.8,1.9,5.1c1.4,1.4,3.3,2.2,5.7,2.2c1.2,0,2.4-0.2,3.6-0.5L-256.7,322.1z"/>
		<path class="st4" d="M-239,313.3l-2.4-7.4l-2.7,7.4H-239z M-228.6,322.7h-7.5l-1.9-5.7h-7.3l-2.3,5.7h-5.5l9.6-23.6h6
			L-228.6,322.7z"/>
		<polygon class="st4" points="-207.5,322.7 -223.2,322.7 -223.2,299.1 -216.2,299.1 -216.2,318.2 -207.5,318.2 		"/>
		<polygon class="st4" points="-186.4,322.7 -202.1,322.7 -202.1,299.1 -195.1,299.1 -195.1,318.2 -186.4,318.2 		"/>
		<path class="st4" d="M-157.4,298.8l-0.9,3.3c-0.8-0.3-1.5-0.4-2.2-0.4c-1.5,0-2.3,0.8-2.3,2.5v1.8h4.1v3.1h-4.1v13.7h-6.7V309
			h-2.7v-3.1h2.7v-1.6c0-2,0.7-3.6,2.1-4.7c1.3-1.1,3.1-1.6,5.3-1.6C-160.5,298-159,298.2-157.4,298.8z"/>
		<path class="st4" d="M-143,314.2c0-3.9-0.9-5.8-2.8-5.8c-0.9,0-1.5,0.5-2,1.6c-0.5,1-0.8,2.4-0.8,4.2c0,1.8,0.3,3.2,0.8,4.3
			c0.5,1.1,1.2,1.6,2,1.6c0.9,0,1.6-0.5,2.1-1.5C-143.3,317.5-143,316.1-143,314.2z M-136.1,314.1c0,2.6-0.9,4.8-2.7,6.4
			c-1.8,1.7-4.1,2.5-6.9,2.5c-2.8,0-5.1-0.8-6.9-2.5c-1.8-1.7-2.7-3.8-2.7-6.4c0-2.5,0.9-4.6,2.7-6.2c1.8-1.6,4.2-2.4,7-2.4
			c2.7,0,5,0.8,6.8,2.5S-136.1,311.6-136.1,314.1z"/>
		<path class="st4" d="M-116,306.8l-1.9,5c-0.6-0.3-1.3-0.4-2.1-0.4c-1.6,0-2.7,0.8-3.2,2.3c-0.2,0.6-0.3,1.6-0.3,3.2v5.9h-6.7
			v-16.8h6.7v3.9l0.5-1.1c1-2.2,2.2-3.2,3.6-3.2C-118.4,305.4-117.3,305.9-116,306.8z"/>
		<path class="st4" d="M-87.9,313.3l-2.4-7.4l-2.7,7.4H-87.9z M-77.4,322.7h-7.5l-1.9-5.7h-7.3l-2.3,5.7h-5.5l9.6-23.6h6
			L-77.4,322.7z"/>
		<path class="st4" d="M-60.2,305.5c0-1.2-0.5-1.9-1.5-2.3c-0.4-0.2-1.2-0.2-2.2-0.2H-65v5.5h0.9c1.3,0,2.2-0.2,2.7-0.5
			C-60.6,307.3-60.2,306.5-60.2,305.5z M-52.4,315.8c0,1.5-0.5,2.9-1.6,4.1c-1,1.1-2.3,1.9-3.8,2.3c-1.2,0.3-3.3,0.5-6.2,0.5h-8.1
			v-23.6h8.4c2,0,3.4,0.1,4.3,0.2c0.8,0.1,1.7,0.3,2.4,0.7c2.1,0.9,3.1,2.5,3.1,4.6c0,1.2-0.4,2.3-1.1,3.1s-1.9,1.5-3.6,2.2
			c1,0.1,2,0.4,3,0.9C-53.4,311.7-52.4,313.4-52.4,315.8z M-59.6,315.3c0-1.4-0.6-2.3-1.7-2.8c-0.5-0.2-1.3-0.3-2.5-0.3H-65v6.6h1
			c1.6,0,2.7-0.3,3.3-0.8C-60,317.4-59.6,316.5-59.6,315.3z"/>
		<path class="st4" d="M-31,316.1c0,2.1-0.8,3.8-2.5,5c-1.7,1.3-3.9,1.9-6.6,1.9c-2.8,0-5.3-0.7-7.4-2.2l2.2-3.9
			c1.3,1.1,2.7,1.7,4.3,1.7c0.8,0,1.5-0.2,2.1-0.6c0.6-0.4,0.9-1,0.9-1.6c0-0.6-0.3-1.3-0.8-2c-0.4-0.4-1.2-1.3-2.6-2.5
			c-0.8-0.7-2-1.6-3.2-2.9c-1.2-1.2-1.8-2.7-1.8-4.2c0-1.9,0.8-3.4,2.3-4.5c1.5-1.1,3.5-1.7,6-1.7c2.2,0,4.3,0.5,6.2,1.6l-1.9,3.7
			c-1.2-0.6-2.3-0.9-3.2-0.9c-1.5,0-2.2,0.5-2.2,1.5c0,0.4,0.2,0.8,0.5,1.1c0.3,0.4,1,1,2,1.9c1.2,1,2.4,2.2,3.5,3.4
			C-31.7,312.6-31,314.3-31,316.1z"/>
		<polygon class="st4" points="-5.9,303.6 -12.7,303.6 -12.7,322.7 -19.8,322.7 -19.8,303.6 -26.5,303.6 -26.5,299.1 -5.9,299.1 		
			"/>
		<path class="st4" d="M11.8,306.3c0-1.2-0.4-2.1-1.1-2.5c-0.5-0.3-1.5-0.5-2.9-0.5H6.5v6.4h1.2c1.5,0,2.5-0.3,3.1-0.9
			C11.5,308.2,11.8,307.4,11.8,306.3z M19.7,322.3l-7.4,0.8l-3.9-9.6H6.5v9.2h-7v-23.6h9.2c1.7,0,3,0,3.7,0.1
			c1.4,0.2,2.6,0.6,3.5,1.2c1.8,1.2,2.6,3,2.6,5.4c0,2.8-1.4,5-4.3,6.5L19.7,322.3z"/>
		<path class="st4" d="M37.2,313.3l-2.4-7.4l-2.7,7.4H37.2z M47.7,322.7h-7.5l-1.9-5.7H31l-2.3,5.7h-5.5l9.6-23.6h6L47.7,322.7z"/>
		<path class="st4" d="M71.9,322.1c-1.9,0.7-3.9,1-5.9,1c-4.1,0-7.5-1.1-10.1-3.3s-3.9-5.2-3.9-8.8c0-3.5,1.3-6.4,3.8-8.7
			c2.6-2.3,5.8-3.4,9.8-3.4c2.1,0,4.2,0.4,6.3,1.2l-1.8,4.2c-1.3-0.3-2.4-0.5-3.3-0.5c-2.3,0-4.1,0.7-5.4,2c-1.3,1.3-2,3.1-2,5.3
			c0,2.1,0.6,3.8,1.9,5.1c1.4,1.4,3.3,2.2,5.7,2.2c1.2,0,2.4-0.2,3.6-0.5L71.9,322.1z"/>
		<polygon class="st4" points="96.2,303.6 89.3,303.6 89.3,322.7 82.3,322.7 82.3,303.6 75.6,303.6 75.6,299.1 96.2,299.1 		"/>
		<path class="st4" d="M116.5,316.1c0,2.1-0.8,3.8-2.5,5c-1.7,1.3-3.9,1.9-6.6,1.9c-2.8,0-5.3-0.7-7.4-2.2l2.2-3.9
			c1.3,1.1,2.7,1.7,4.3,1.7c0.8,0,1.5-0.2,2.1-0.6c0.6-0.4,0.9-1,0.9-1.6c0-0.6-0.3-1.3-0.8-2c-0.4-0.4-1.2-1.3-2.6-2.5
			c-0.8-0.7-2-1.6-3.2-2.9c-1.2-1.2-1.8-2.7-1.8-4.2c0-1.9,0.8-3.4,2.3-4.5c1.5-1.1,3.5-1.7,6-1.7c2.2,0,4.3,0.5,6.2,1.6l-1.9,3.7
			c-1.2-0.6-2.3-0.9-3.2-0.9c-1.5,0-2.2,0.5-2.2,1.5c0,0.4,0.2,0.8,0.5,1.1c0.3,0.4,1,1,2,1.9c1.2,1,2.4,2.2,3.5,3.4
			C115.7,312.6,116.5,314.3,116.5,316.1z"/>
	</g>
	<g>
		<path class="st5" d="M-256.5,322.1c-1.9,0.7-3.9,1-5.9,1c-4.1,0-7.5-1.1-10.1-3.3s-3.9-5.2-3.9-8.8c0-3.5,1.3-6.4,3.8-8.7
			c2.6-2.3,5.8-3.4,9.8-3.4c2.1,0,4.2,0.4,6.3,1.2l-1.8,4.2c-1.3-0.3-2.4-0.5-3.3-0.5c-2.3,0-4.1,0.7-5.4,2c-1.3,1.3-2,3.1-2,5.3
			c0,2.1,0.6,3.8,1.9,5.1c1.4,1.4,3.3,2.2,5.7,2.2c1.2,0,2.4-0.2,3.6-0.5L-256.5,322.1z"/>
		<path class="st5" d="M-238.9,313.3l-2.4-7.4l-2.7,7.4H-238.9z M-228.4,322.7h-7.5l-1.9-5.7h-7.3l-2.3,5.7h-5.5l9.6-23.6h6
			L-228.4,322.7z"/>
		<polygon class="st5" points="-207.3,322.7 -223.1,322.7 -223.1,299.1 -216,299.1 -216,318.2 -207.3,318.2 		"/>
		<polygon class="st5" points="-186.2,322.7 -202,322.7 -202,299.1 -194.9,299.1 -194.9,318.2 -186.2,318.2 		"/>
		<path class="st5" d="M-157.3,298.8l-0.9,3.3c-0.8-0.3-1.5-0.4-2.2-0.4c-1.5,0-2.3,0.8-2.3,2.5v1.8h4.1v3.1h-4.1v13.7h-6.7V309
			h-2.7v-3.1h2.7v-1.6c0-2,0.7-3.6,2.1-4.7c1.3-1.1,3.1-1.6,5.3-1.6C-160.4,298-158.8,298.2-157.3,298.8z"/>
		<path class="st5" d="M-142.9,314.2c0-3.9-0.9-5.8-2.8-5.8c-0.9,0-1.5,0.5-2,1.6c-0.5,1-0.8,2.4-0.8,4.2c0,1.8,0.3,3.2,0.8,4.3
			c0.5,1.1,1.2,1.6,2,1.6c0.9,0,1.6-0.5,2.1-1.5C-143.1,317.5-142.9,316.1-142.9,314.2z M-136,314.1c0,2.6-0.9,4.8-2.7,6.4
			c-1.8,1.7-4.1,2.5-6.9,2.5c-2.8,0-5.1-0.8-6.9-2.5c-1.8-1.7-2.7-3.8-2.7-6.4c0-2.5,0.9-4.6,2.7-6.2c1.8-1.6,4.2-2.4,7-2.4
			c2.7,0,5,0.8,6.8,2.5S-136,311.6-136,314.1z"/>
		<path class="st5" d="M-115.9,306.8l-1.9,5c-0.6-0.3-1.3-0.4-2.1-0.4c-1.6,0-2.7,0.8-3.2,2.3c-0.2,0.6-0.3,1.6-0.3,3.2v5.9h-6.7
			v-16.8h6.7v3.9l0.5-1.1c1-2.2,2.2-3.2,3.6-3.2C-118.2,305.4-117.1,305.9-115.9,306.8z"/>
		<path class="st5" d="M-87.8,313.3l-2.4-7.4l-2.7,7.4H-87.8z M-77.3,322.7h-7.5l-1.9-5.7h-7.3l-2.3,5.7h-5.5l9.6-23.6h6
			L-77.3,322.7z"/>
		<path class="st5" d="M-60.1,305.5c0-1.2-0.5-1.9-1.5-2.3c-0.4-0.2-1.2-0.2-2.2-0.2h-1.1v5.5h0.9c1.3,0,2.2-0.2,2.7-0.5
			C-60.5,307.3-60.1,306.5-60.1,305.5z M-52.2,315.8c0,1.5-0.5,2.9-1.6,4.1c-1,1.1-2.3,1.9-3.8,2.3c-1.2,0.3-3.3,0.5-6.2,0.5h-8.1
			v-23.6h8.4c2,0,3.4,0.1,4.3,0.2c0.8,0.1,1.7,0.3,2.4,0.7c2.1,0.9,3.1,2.5,3.1,4.6c0,1.2-0.4,2.3-1.1,3.1s-1.9,1.5-3.6,2.2
			c1,0.1,2,0.4,3,0.9C-53.3,311.7-52.2,313.4-52.2,315.8z M-59.4,315.3c0-1.4-0.6-2.3-1.7-2.8c-0.5-0.2-1.3-0.3-2.5-0.3h-1.4v6.6h1
			c1.6,0,2.7-0.3,3.3-0.8C-59.8,317.4-59.4,316.5-59.4,315.3z"/>
		<path class="st5" d="M-30.8,316.1c0,2.1-0.8,3.8-2.5,5c-1.7,1.3-3.9,1.9-6.6,1.9c-2.8,0-5.3-0.7-7.4-2.2l2.2-3.9
			c1.3,1.1,2.7,1.7,4.3,1.7c0.8,0,1.5-0.2,2.1-0.6c0.6-0.4,0.9-1,0.9-1.6c0-0.6-0.3-1.3-0.8-2c-0.4-0.4-1.2-1.3-2.6-2.5
			c-0.8-0.7-2-1.6-3.2-2.9c-1.2-1.2-1.8-2.7-1.8-4.2c0-1.9,0.8-3.4,2.3-4.5c1.5-1.1,3.5-1.7,6-1.7c2.2,0,4.3,0.5,6.2,1.6l-1.9,3.7
			c-1.2-0.6-2.3-0.9-3.2-0.9c-1.5,0-2.2,0.5-2.2,1.5c0,0.4,0.2,0.8,0.5,1.1c0.3,0.4,1,1,2,1.9c1.2,1,2.4,2.2,3.5,3.4
			C-31.6,312.6-30.8,314.3-30.8,316.1z"/>
		<polygon class="st5" points="-5.7,303.6 -12.6,303.6 -12.6,322.7 -19.6,322.7 -19.6,303.6 -26.4,303.6 -26.4,299.1 -5.7,299.1 		
			"/>
		<path class="st5" d="M12,306.3c0-1.2-0.4-2.1-1.1-2.5c-0.5-0.3-1.5-0.5-2.9-0.5H6.7v6.4h1.2c1.5,0,2.5-0.3,3.1-0.9
			C11.7,308.2,12,307.4,12,306.3z M19.9,322.3l-7.4,0.8l-3.9-9.6H6.7v9.2h-7v-23.6h9.2c1.7,0,3,0,3.7,0.1c1.4,0.2,2.6,0.6,3.5,1.2
			c1.7,1.2,2.6,3,2.6,5.4c0,2.8-1.4,5-4.3,6.5L19.9,322.3z"/>
		<path class="st5" d="M37.3,313.3l-2.4-7.4l-2.7,7.4H37.3z M47.8,322.7h-7.5l-1.9-5.7h-7.3l-2.3,5.7h-5.5l9.6-23.6h6L47.8,322.7z"
			/>
		<path class="st5" d="M72,322.1c-1.9,0.7-3.9,1-5.9,1c-4.1,0-7.5-1.1-10.1-3.3s-3.9-5.2-3.9-8.8c0-3.5,1.3-6.4,3.8-8.7
			c2.6-2.3,5.8-3.4,9.8-3.4c2.1,0,4.2,0.4,6.3,1.2l-1.8,4.2c-1.3-0.3-2.4-0.5-3.3-0.5c-2.3,0-4.1,0.7-5.4,2c-1.3,1.3-2,3.1-2,5.3
			c0,2.1,0.6,3.8,1.9,5.1c1.4,1.4,3.3,2.2,5.7,2.2c1.2,0,2.4-0.2,3.6-0.5L72,322.1z"/>
		<polygon class="st5" points="96.4,303.6 89.5,303.6 89.5,322.7 82.5,322.7 82.5,303.6 75.7,303.6 75.7,299.1 96.4,299.1 		"/>
		<path class="st5" d="M116.6,316.1c0,2.1-0.8,3.8-2.5,5c-1.7,1.3-3.9,1.9-6.6,1.9c-2.8,0-5.3-0.7-7.4-2.2l2.2-3.9
			c1.3,1.1,2.7,1.7,4.3,1.7c0.8,0,1.5-0.2,2.1-0.6c0.6-0.4,0.9-1,0.9-1.6c0-0.6-0.3-1.3-0.8-2c-0.4-0.4-1.2-1.3-2.6-2.5
			c-0.8-0.7-2-1.6-3.2-2.9c-1.2-1.2-1.8-2.7-1.8-4.2c0-1.9,0.8-3.4,2.3-4.5c1.5-1.1,3.5-1.7,6-1.7c2.2,0,4.3,0.5,6.2,1.6l-1.9,3.7
			c-1.2-0.6-2.3-0.9-3.2-0.9c-1.5,0-2.2,0.5-2.2,1.5c0,0.4,0.2,0.8,0.5,1.1c0.3,0.4,1,1,2,1.9c1.2,1,2.4,2.2,3.5,3.4
			C115.9,312.6,116.6,314.3,116.6,316.1z"/>
	</g>
	<g>
		<path class="st6" d="M-256.4,322.1c-1.9,0.7-3.9,1-5.9,1c-4.1,0-7.5-1.1-10.1-3.3s-3.9-5.2-3.9-8.8c0-3.5,1.3-6.4,3.8-8.7
			c2.6-2.3,5.8-3.4,9.8-3.4c2.1,0,4.2,0.4,6.3,1.2l-1.8,4.2c-1.3-0.3-2.4-0.5-3.3-0.5c-2.3,0-4.1,0.7-5.4,2c-1.3,1.3-2,3.1-2,5.3
			c0,2.1,0.6,3.8,1.9,5.1c1.4,1.4,3.3,2.2,5.7,2.2c1.2,0,2.4-0.2,3.6-0.5L-256.4,322.1z"/>
		<path class="st6" d="M-238.7,313.3l-2.4-7.4l-2.7,7.4H-238.7z M-228.3,322.7h-7.5l-1.9-5.7h-7.3l-2.3,5.7h-5.5l9.6-23.6h6
			L-228.3,322.7z"/>
		<polygon class="st6" points="-207.2,322.7 -222.9,322.7 -222.9,299.1 -215.9,299.1 -215.9,318.2 -207.2,318.2 		"/>
		<polygon class="st6" points="-186.1,322.7 -201.8,322.7 -201.8,299.1 -194.8,299.1 -194.8,318.2 -186.1,318.2 		"/>
		<path class="st6" d="M-157.1,298.8l-0.9,3.3c-0.8-0.3-1.5-0.4-2.2-0.4c-1.5,0-2.3,0.8-2.3,2.5v1.8h4.1v3.1h-4.1v13.7h-6.7V309
			h-2.7v-3.1h2.7v-1.6c0-2,0.7-3.6,2.1-4.7c1.3-1.1,3.1-1.6,5.3-1.6C-160.2,298-158.7,298.2-157.1,298.8z"/>
		<path class="st6" d="M-142.7,314.2c0-3.9-0.9-5.8-2.8-5.8c-0.9,0-1.5,0.5-2,1.6c-0.5,1-0.8,2.4-0.8,4.2c0,1.8,0.3,3.2,0.8,4.3
			c0.5,1.1,1.2,1.6,2,1.6c0.9,0,1.6-0.5,2.1-1.5C-143,317.5-142.7,316.1-142.7,314.2z M-135.9,314.1c0,2.6-0.9,4.8-2.7,6.4
			c-1.8,1.7-4.1,2.5-6.9,2.5c-2.8,0-5.1-0.8-6.9-2.5c-1.8-1.7-2.7-3.8-2.7-6.4c0-2.5,0.9-4.6,2.7-6.2c1.8-1.6,4.2-2.4,7-2.4
			c2.7,0,5,0.8,6.8,2.5S-135.9,311.6-135.9,314.1z"/>
		<path class="st6" d="M-115.7,306.8l-1.9,5c-0.6-0.3-1.3-0.4-2.1-0.4c-1.6,0-2.7,0.8-3.2,2.3c-0.2,0.6-0.3,1.6-0.3,3.2v5.9h-6.7
			v-16.8h6.7v3.9l0.5-1.1c1-2.2,2.2-3.2,3.6-3.2C-118.1,305.4-117,305.9-115.7,306.8z"/>
		<path class="st6" d="M-87.6,313.3l-2.4-7.4l-2.7,7.4H-87.6z M-77.1,322.7h-7.5l-1.9-5.7h-7.3l-2.3,5.7h-5.5l9.6-23.6h6
			L-77.1,322.7z"/>
		<path class="st6" d="M-60,305.5c0-1.2-0.5-1.9-1.5-2.3c-0.4-0.2-1.2-0.2-2.2-0.2h-1.1v5.5h0.9c1.3,0,2.2-0.2,2.7-0.5
			C-60.4,307.3-60,306.5-60,305.5z M-52.1,315.8c0,1.5-0.5,2.9-1.6,4.1c-1,1.1-2.3,1.9-3.8,2.3c-1.2,0.3-3.3,0.5-6.2,0.5h-8.1v-23.6
			h8.4c2,0,3.4,0.1,4.3,0.2c0.8,0.1,1.7,0.3,2.4,0.7c2.1,0.9,3.1,2.5,3.1,4.6c0,1.2-0.4,2.3-1.1,3.1s-1.9,1.5-3.6,2.2
			c1,0.1,2,0.4,3,0.9C-53.1,311.7-52.1,313.4-52.1,315.8z M-59.3,315.3c0-1.4-0.6-2.3-1.7-2.8c-0.5-0.2-1.3-0.3-2.5-0.3h-1.4v6.6h1
			c1.6,0,2.7-0.3,3.3-0.8C-59.7,317.4-59.3,316.5-59.3,315.3z"/>
		<path class="st6" d="M-30.7,316.1c0,2.1-0.8,3.8-2.5,5c-1.7,1.3-3.9,1.9-6.6,1.9c-2.8,0-5.3-0.7-7.4-2.2l2.2-3.9
			c1.3,1.1,2.7,1.7,4.3,1.7c0.8,0,1.5-0.2,2.1-0.6c0.6-0.4,0.9-1,0.9-1.6c0-0.6-0.3-1.3-0.8-2c-0.4-0.4-1.2-1.3-2.6-2.5
			c-0.8-0.7-2-1.6-3.2-2.9c-1.2-1.2-1.8-2.7-1.8-4.2c0-1.9,0.8-3.4,2.3-4.5c1.5-1.1,3.5-1.7,6-1.7c2.2,0,4.3,0.5,6.2,1.6l-1.9,3.7
			c-1.2-0.6-2.3-0.9-3.2-0.9c-1.5,0-2.2,0.5-2.2,1.5c0,0.4,0.2,0.8,0.5,1.1c0.3,0.4,1,1,2,1.9c1.2,1,2.4,2.2,3.5,3.4
			C-31.4,312.6-30.7,314.3-30.7,316.1z"/>
		<polygon class="st6" points="-5.6,303.6 -12.5,303.6 -12.5,322.7 -19.5,322.7 -19.5,303.6 -26.3,303.6 -26.3,299.1 -5.6,299.1 		
			"/>
		<path class="st6" d="M12.1,306.3c0-1.2-0.4-2.1-1.1-2.5c-0.5-0.3-1.5-0.5-2.9-0.5H6.8v6.4h1.2c1.5,0,2.5-0.3,3.1-0.9
			C11.8,308.2,12.1,307.4,12.1,306.3z M20,322.3l-7.4,0.8l-3.9-9.6H6.8v9.2h-7v-23.6h9.2c1.7,0,3,0,3.7,0.1c1.4,0.2,2.6,0.6,3.5,1.2
			c1.8,1.2,2.6,3,2.6,5.4c0,2.8-1.4,5-4.3,6.5L20,322.3z"/>
		<path class="st6" d="M37.5,313.3l-2.4-7.4l-2.7,7.4H37.5z M47.9,322.7h-7.5l-1.9-5.7h-7.3l-2.3,5.7h-5.5l9.6-23.6h6L47.9,322.7z"
			/>
		<path class="st6" d="M72.2,322.1c-1.9,0.7-3.9,1-5.9,1c-4.1,0-7.5-1.1-10.1-3.3s-3.9-5.2-3.9-8.8c0-3.5,1.3-6.4,3.8-8.7
			c2.6-2.3,5.8-3.4,9.8-3.4c2.1,0,4.2,0.4,6.3,1.2l-1.8,4.2c-1.3-0.3-2.4-0.5-3.3-0.5c-2.3,0-4.1,0.7-5.4,2c-1.3,1.3-2,3.1-2,5.3
			c0,2.1,0.6,3.8,1.9,5.1c1.4,1.4,3.3,2.2,5.7,2.2c1.2,0,2.4-0.2,3.6-0.5L72.2,322.1z"/>
		<polygon class="st6" points="96.5,303.6 89.6,303.6 89.6,322.7 82.6,322.7 82.6,303.6 75.8,303.6 75.8,299.1 96.5,299.1 		"/>
		<path class="st6" d="M116.7,316.1c0,2.1-0.8,3.8-2.5,5c-1.7,1.3-3.9,1.9-6.6,1.9c-2.8,0-5.3-0.7-7.4-2.2l2.2-3.9
			c1.3,1.1,2.7,1.7,4.3,1.7c0.8,0,1.5-0.2,2.1-0.6c0.6-0.4,0.9-1,0.9-1.6c0-0.6-0.3-1.3-0.8-2c-0.4-0.4-1.2-1.3-2.6-2.5
			c-0.8-0.7-2-1.6-3.2-2.9c-1.2-1.2-1.8-2.7-1.8-4.2c0-1.9,0.8-3.4,2.3-4.5c1.5-1.1,3.5-1.7,6-1.7c2.2,0,4.3,0.5,6.2,1.6l-1.9,3.7
			c-1.2-0.6-2.3-0.9-3.2-0.9c-1.5,0-2.2,0.5-2.2,1.5c0,0.4,0.2,0.8,0.5,1.1c0.3,0.4,1,1,2,1.9c1.2,1,2.4,2.2,3.5,3.4
			C116,312.6,116.7,314.3,116.7,316.1z"/>
	</g>
	<g>
		<path class="st7" d="M-256.3,322.1c-1.9,0.7-3.9,1-5.9,1c-4.1,0-7.5-1.1-10.1-3.3s-3.9-5.2-3.9-8.8c0-3.5,1.3-6.4,3.8-8.7
			c2.6-2.3,5.8-3.4,9.8-3.4c2.1,0,4.2,0.4,6.3,1.2l-1.8,4.2c-1.3-0.3-2.4-0.5-3.3-0.5c-2.3,0-4.1,0.7-5.4,2c-1.3,1.3-2,3.1-2,5.3
			c0,2.1,0.6,3.8,1.9,5.1c1.4,1.4,3.3,2.2,5.7,2.2c1.2,0,2.4-0.2,3.6-0.5L-256.3,322.1z"/>
		<path class="st7" d="M-238.6,313.3l-2.4-7.4l-2.7,7.4H-238.6z M-228.1,322.7h-7.5l-1.9-5.7h-7.3l-2.3,5.7h-5.5l9.6-23.6h6
			L-228.1,322.7z"/>
		<polygon class="st7" points="-207.1,322.7 -222.8,322.7 -222.8,299.1 -215.8,299.1 -215.8,318.2 -207.1,318.2 		"/>
		<polygon class="st7" points="-186,322.7 -201.7,322.7 -201.7,299.1 -194.7,299.1 -194.7,318.2 -186,318.2 		"/>
		<path class="st7" d="M-157,298.8l-0.9,3.3c-0.8-0.3-1.5-0.4-2.2-0.4c-1.5,0-2.3,0.8-2.3,2.5v1.8h4.1v3.1h-4.1v13.7h-6.7V309h-2.7
			v-3.1h2.7v-1.6c0-2,0.7-3.6,2.1-4.7c1.3-1.1,3.1-1.6,5.3-1.6C-160.1,298-158.5,298.2-157,298.8z"/>
		<path class="st7" d="M-142.6,314.2c0-3.9-0.9-5.8-2.8-5.8c-0.9,0-1.5,0.5-2,1.6c-0.5,1-0.8,2.4-0.8,4.2c0,1.8,0.3,3.2,0.8,4.3
			c0.5,1.1,1.2,1.6,2,1.6c0.9,0,1.6-0.5,2.1-1.5C-142.8,317.5-142.6,316.1-142.6,314.2z M-135.7,314.1c0,2.6-0.9,4.8-2.7,6.4
			c-1.8,1.7-4.1,2.5-6.9,2.5c-2.8,0-5.1-0.8-6.9-2.5c-1.8-1.7-2.7-3.8-2.7-6.4c0-2.5,0.9-4.6,2.7-6.2c1.8-1.6,4.2-2.4,7-2.4
			c2.7,0,5,0.8,6.8,2.5S-135.7,311.6-135.7,314.1z"/>
		<path class="st7" d="M-115.6,306.8l-1.9,5c-0.6-0.3-1.3-0.4-2.1-0.4c-1.6,0-2.7,0.8-3.2,2.3c-0.2,0.6-0.3,1.6-0.3,3.2v5.9h-6.7
			v-16.8h6.7v3.9l0.5-1.1c1-2.2,2.2-3.2,3.6-3.2C-118,305.4-116.8,305.9-115.6,306.8z"/>
		<path class="st7" d="M-87.5,313.3l-2.4-7.4l-2.7,7.4H-87.5z M-77,322.7h-7.5l-1.9-5.7h-7.3l-2.3,5.7h-5.5l9.6-23.6h6L-77,322.7z"
			/>
		<path class="st7" d="M-59.8,305.5c0-1.2-0.5-1.9-1.5-2.3c-0.4-0.2-1.2-0.2-2.2-0.2h-1.1v5.5h0.9c1.3,0,2.2-0.2,2.7-0.5
			C-60.2,307.3-59.8,306.5-59.8,305.5z M-51.9,315.8c0,1.5-0.5,2.9-1.6,4.1c-1,1.1-2.3,1.9-3.8,2.3c-1.2,0.3-3.3,0.5-6.2,0.5h-8.1
			v-23.6h8.4c2,0,3.4,0.1,4.3,0.2c0.8,0.1,1.7,0.3,2.4,0.7c2.1,0.9,3.1,2.5,3.1,4.6c0,1.2-0.4,2.3-1.1,3.1s-1.9,1.5-3.6,2.2
			c1,0.1,2,0.4,3,0.9C-53,311.7-51.9,313.4-51.9,315.8z M-59.1,315.3c0-1.4-0.6-2.3-1.7-2.8c-0.5-0.2-1.3-0.3-2.5-0.3h-1.4v6.6h1
			c1.6,0,2.7-0.3,3.3-0.8C-59.5,317.4-59.1,316.5-59.1,315.3z"/>
		<path class="st7" d="M-30.5,316.1c0,2.1-0.8,3.8-2.5,5c-1.7,1.3-3.9,1.9-6.6,1.9c-2.8,0-5.3-0.7-7.4-2.2l2.2-3.9
			c1.3,1.1,2.7,1.7,4.3,1.7c0.8,0,1.5-0.2,2.1-0.6c0.6-0.4,0.9-1,0.9-1.6c0-0.6-0.3-1.3-0.8-2c-0.4-0.4-1.2-1.3-2.6-2.5
			c-0.8-0.7-2-1.6-3.2-2.9c-1.2-1.2-1.8-2.7-1.8-4.2c0-1.9,0.8-3.4,2.3-4.5c1.5-1.1,3.5-1.7,6-1.7c2.2,0,4.3,0.5,6.2,1.6l-1.9,3.7
			c-1.2-0.6-2.3-0.9-3.2-0.9c-1.5,0-2.2,0.5-2.2,1.5c0,0.4,0.2,0.8,0.5,1.1c0.3,0.4,1,1,2,1.9c1.2,1,2.4,2.2,3.5,3.4
			C-31.3,312.6-30.5,314.3-30.5,316.1z"/>
		<polygon class="st7" points="-5.4,303.6 -12.3,303.6 -12.3,322.7 -19.4,322.7 -19.4,303.6 -26.1,303.6 -26.1,299.1 -5.4,299.1 		
			"/>
		<path class="st7" d="M12.2,306.3c0-1.2-0.4-2.1-1.1-2.5c-0.5-0.3-1.5-0.5-2.9-0.5H6.9v6.4h1.2c1.5,0,2.5-0.3,3.1-0.9
			C11.9,308.2,12.2,307.4,12.2,306.3z M20.1,322.3l-7.4,0.8l-3.9-9.6H6.9v9.2h-7v-23.6h9.2c1.7,0,3,0,3.7,0.1
			c1.4,0.2,2.6,0.6,3.5,1.2c1.8,1.2,2.6,3,2.6,5.4c0,2.8-1.4,5-4.3,6.5L20.1,322.3z"/>
		<path class="st7" d="M37.6,313.3l-2.4-7.4l-2.7,7.4H37.6z M48.1,322.7h-7.5l-1.9-5.7h-7.3l-2.3,5.7h-5.5l9.6-23.6h6L48.1,322.7z"
			/>
		<path class="st7" d="M72.3,322.1c-1.9,0.7-3.9,1-5.9,1c-4.1,0-7.5-1.1-10.1-3.3s-3.9-5.2-3.9-8.8c0-3.5,1.3-6.4,3.8-8.7
			c2.6-2.3,5.8-3.4,9.8-3.4c2.1,0,4.2,0.4,6.3,1.2l-1.8,4.2c-1.3-0.3-2.4-0.5-3.3-0.5c-2.3,0-4.1,0.7-5.4,2c-1.3,1.3-2,3.1-2,5.3
			c0,2.1,0.6,3.8,1.9,5.1c1.4,1.4,3.3,2.2,5.7,2.2c1.2,0,2.4-0.2,3.6-0.5L72.3,322.1z"/>
		<polygon class="st7" points="96.7,303.6 89.8,303.6 89.8,322.7 82.7,322.7 82.7,303.6 76,303.6 76,299.1 96.7,299.1 		"/>
		<path class="st7" d="M116.9,316.1c0,2.1-0.8,3.8-2.5,5c-1.7,1.3-3.9,1.9-6.6,1.9c-2.8,0-5.3-0.7-7.4-2.2l2.2-3.9
			c1.3,1.1,2.7,1.7,4.3,1.7c0.8,0,1.5-0.2,2.1-0.6c0.6-0.4,0.9-1,0.9-1.6c0-0.6-0.3-1.3-0.8-2c-0.4-0.4-1.2-1.3-2.6-2.5
			c-0.8-0.7-2-1.6-3.2-2.9c-1.2-1.2-1.8-2.7-1.8-4.2c0-1.9,0.8-3.4,2.3-4.5c1.5-1.1,3.5-1.7,6-1.7c2.2,0,4.3,0.5,6.2,1.6l-1.9,3.7
			c-1.2-0.6-2.3-0.9-3.2-0.9c-1.5,0-2.2,0.5-2.2,1.5c0,0.4,0.2,0.8,0.5,1.1c0.3,0.4,1,1,2,1.9c1.2,1,2.4,2.2,3.5,3.4
			C116.1,312.6,116.9,314.3,116.9,316.1z"/>
	</g>
	<g>
		<path class="st8" d="M-256.1,322.1c-1.9,0.7-3.9,1-5.9,1c-4.1,0-7.5-1.1-10.1-3.3s-3.9-5.2-3.9-8.8c0-3.5,1.3-6.4,3.8-8.7
			c2.6-2.3,5.8-3.4,9.8-3.4c2.1,0,4.2,0.4,6.3,1.2l-1.8,4.2c-1.3-0.3-2.4-0.5-3.3-0.5c-2.3,0-4.1,0.7-5.4,2c-1.3,1.3-2,3.1-2,5.3
			c0,2.1,0.6,3.8,1.9,5.1c1.4,1.4,3.3,2.2,5.7,2.2c1.2,0,2.4-0.2,3.6-0.5L-256.1,322.1z"/>
		<path class="st8" d="M-238.5,313.3l-2.4-7.4l-2.7,7.4H-238.5z M-228,322.7h-7.5l-1.9-5.7h-7.3l-2.3,5.7h-5.5l9.6-23.6h6
			L-228,322.7z"/>
		<polygon class="st8" points="-206.9,322.7 -222.6,322.7 -222.6,299.1 -215.6,299.1 -215.6,318.2 -206.9,318.2 		"/>
		<polygon class="st8" points="-185.8,322.7 -201.5,322.7 -201.5,299.1 -194.5,299.1 -194.5,318.2 -185.8,318.2 		"/>
		<path class="st8" d="M-156.9,298.8l-0.9,3.3c-0.8-0.3-1.5-0.4-2.2-0.4c-1.5,0-2.3,0.8-2.3,2.5v1.8h4.1v3.1h-4.1v13.7h-6.7V309
			h-2.7v-3.1h2.7v-1.6c0-2,0.7-3.6,2.1-4.7c1.3-1.1,3.1-1.6,5.3-1.6C-159.9,298-158.4,298.2-156.9,298.8z"/>
		<path class="st8" d="M-142.5,314.2c0-3.9-0.9-5.8-2.8-5.8c-0.9,0-1.5,0.5-2,1.6c-0.5,1-0.8,2.4-0.8,4.2c0,1.8,0.3,3.2,0.8,4.3
			c0.5,1.1,1.2,1.6,2,1.6c0.9,0,1.6-0.5,2.1-1.5C-142.7,317.5-142.5,316.1-142.5,314.2z M-135.6,314.1c0,2.6-0.9,4.8-2.7,6.4
			c-1.8,1.7-4.1,2.5-6.9,2.5c-2.8,0-5.1-0.8-6.9-2.5c-1.8-1.7-2.7-3.8-2.7-6.4c0-2.5,0.9-4.6,2.7-6.2c1.8-1.6,4.2-2.4,7-2.4
			c2.7,0,5,0.8,6.8,2.5S-135.6,311.6-135.6,314.1z"/>
		<path class="st8" d="M-115.5,306.8l-1.9,5c-0.6-0.3-1.3-0.4-2.1-0.4c-1.6,0-2.7,0.8-3.2,2.3c-0.2,0.6-0.3,1.6-0.3,3.2v5.9h-6.7
			v-16.8h6.7v3.9l0.5-1.1c1-2.2,2.2-3.2,3.6-3.2C-117.8,305.4-116.7,305.9-115.5,306.8z"/>
		<path class="st8" d="M-87.3,313.3l-2.4-7.4l-2.7,7.4H-87.3z M-76.9,322.7h-7.5l-1.9-5.7h-7.3l-2.3,5.7h-5.5l9.6-23.6h6
			L-76.9,322.7z"/>
		<path class="st8" d="M-59.7,305.5c0-1.2-0.5-1.9-1.5-2.3c-0.4-0.2-1.2-0.2-2.2-0.2h-1.1v5.5h0.9c1.3,0,2.2-0.2,2.7-0.5
			C-60.1,307.3-59.7,306.5-59.7,305.5z M-51.8,315.8c0,1.5-0.5,2.9-1.6,4.1c-1,1.1-2.3,1.9-3.8,2.3c-1.2,0.3-3.3,0.5-6.2,0.5h-8.1
			v-23.6h8.4c2,0,3.4,0.1,4.3,0.2c0.8,0.1,1.7,0.3,2.4,0.7c2.1,0.9,3.1,2.5,3.1,4.6c0,1.2-0.4,2.3-1.1,3.1s-1.9,1.5-3.6,2.2
			c1,0.1,2,0.4,3,0.9C-52.9,311.7-51.8,313.4-51.8,315.8z M-59,315.3c0-1.4-0.6-2.3-1.7-2.8c-0.5-0.2-1.3-0.3-2.5-0.3h-1.4v6.6h1
			c1.6,0,2.7-0.3,3.3-0.8C-59.4,317.4-59,316.5-59,315.3z"/>
		<path class="st8" d="M-30.4,316.1c0,2.1-0.8,3.8-2.5,5c-1.7,1.3-3.9,1.9-6.6,1.9c-2.8,0-5.3-0.7-7.4-2.2l2.2-3.9
			c1.3,1.1,2.7,1.7,4.3,1.7c0.8,0,1.5-0.2,2.1-0.6c0.6-0.4,0.9-1,0.9-1.6c0-0.6-0.3-1.3-0.8-2c-0.4-0.4-1.2-1.3-2.6-2.5
			c-0.8-0.7-2-1.6-3.2-2.9c-1.2-1.2-1.8-2.7-1.8-4.2c0-1.9,0.8-3.4,2.3-4.5c1.5-1.1,3.5-1.7,6-1.7c2.2,0,4.3,0.5,6.2,1.6l-1.9,3.7
			c-1.2-0.6-2.3-0.9-3.2-0.9c-1.5,0-2.2,0.5-2.2,1.5c0,0.4,0.2,0.8,0.5,1.1c0.3,0.4,1,1,2,1.9c1.2,1,2.4,2.2,3.5,3.4
			C-31.2,312.6-30.4,314.3-30.4,316.1z"/>
		<polygon class="st8" points="-5.3,303.6 -12.2,303.6 -12.2,322.7 -19.2,322.7 -19.2,303.6 -26,303.6 -26,299.1 -5.3,299.1 		"/>
		<path class="st8" d="M12.4,306.3c0-1.2-0.4-2.1-1.1-2.5c-0.5-0.3-1.5-0.5-2.9-0.5H7.1v6.4h1.2c1.5,0,2.5-0.3,3.1-0.9
			C12.1,308.2,12.4,307.4,12.4,306.3z M20.3,322.3l-7.4,0.8l-3.9-9.6H7.1v9.2h-7v-23.6h9.2c1.7,0,3,0,3.7,0.1
			c1.4,0.2,2.6,0.6,3.5,1.2c1.8,1.2,2.6,3,2.6,5.4c0,2.8-1.4,5-4.3,6.5L20.3,322.3z"/>
		<path class="st8" d="M37.7,313.3l-2.4-7.4l-2.7,7.4H37.7z M48.2,322.7h-7.5l-1.9-5.7h-7.3l-2.3,5.7h-5.5l9.6-23.6h6L48.2,322.7z"
			/>
		<path class="st8" d="M72.4,322.1c-1.9,0.7-3.9,1-5.9,1c-4.1,0-7.5-1.1-10.1-3.3s-3.9-5.2-3.9-8.8c0-3.5,1.3-6.4,3.8-8.7
			c2.6-2.3,5.8-3.4,9.8-3.4c2.1,0,4.2,0.4,6.3,1.2l-1.8,4.2c-1.3-0.3-2.4-0.5-3.3-0.5c-2.3,0-4.1,0.7-5.4,2c-1.3,1.3-2,3.1-2,5.3
			c0,2.1,0.6,3.8,1.9,5.1c1.4,1.4,3.3,2.2,5.7,2.2c1.2,0,2.4-0.2,3.6-0.5L72.4,322.1z"/>
		<polygon class="st8" points="96.8,303.6 89.9,303.6 89.9,322.7 82.9,322.7 82.9,303.6 76.1,303.6 76.1,299.1 96.8,299.1 		"/>
		<path class="st8" d="M117,316.1c0,2.1-0.8,3.8-2.5,5c-1.7,1.3-3.9,1.9-6.6,1.9c-2.8,0-5.3-0.7-7.4-2.2l2.2-3.9
			c1.3,1.1,2.7,1.7,4.3,1.7c0.8,0,1.5-0.2,2.1-0.6c0.6-0.4,0.9-1,0.9-1.6c0-0.6-0.3-1.3-0.8-2c-0.4-0.4-1.2-1.3-2.6-2.5
			c-0.8-0.7-2-1.6-3.2-2.9c-1.2-1.2-1.8-2.7-1.8-4.2c0-1.9,0.8-3.4,2.3-4.5c1.5-1.1,3.5-1.7,6-1.7c2.2,0,4.3,0.5,6.2,1.6l-1.9,3.7
			c-1.2-0.6-2.3-0.9-3.2-0.9c-1.5,0-2.2,0.5-2.2,1.5c0,0.4,0.2,0.8,0.5,1.1c0.3,0.4,1,1,2,1.9c1.2,1,2.4,2.2,3.5,3.4
			C116.3,312.6,117,314.3,117,316.1z"/>
	</g>
	<g>
		<path class="st9" d="M-256,322.1c-1.9,0.7-3.9,1-5.9,1c-4.1,0-7.5-1.1-10.1-3.3s-3.9-5.2-3.9-8.8c0-3.5,1.3-6.4,3.8-8.7
			c2.6-2.3,5.8-3.4,9.8-3.4c2.1,0,4.2,0.4,6.3,1.2l-1.8,4.2c-1.3-0.3-2.4-0.5-3.3-0.5c-2.3,0-4.1,0.7-5.4,2c-1.3,1.3-2,3.1-2,5.3
			c0,2.1,0.6,3.8,1.9,5.1c1.4,1.4,3.3,2.2,5.7,2.2c1.2,0,2.4-0.2,3.6-0.5L-256,322.1z"/>
		<path class="st9" d="M-238.3,313.3l-2.4-7.4l-2.7,7.4H-238.3z M-227.9,322.7h-7.5l-1.9-5.7h-7.3l-2.3,5.7h-5.5l9.6-23.6h6
			L-227.9,322.7z"/>
		<polygon class="st9" points="-206.8,322.7 -222.5,322.7 -222.5,299.1 -215.5,299.1 -215.5,318.2 -206.8,318.2 		"/>
		<polygon class="st9" points="-185.7,322.7 -201.4,322.7 -201.4,299.1 -194.4,299.1 -194.4,318.2 -185.7,318.2 		"/>
		<path class="st9" d="M-156.7,298.8l-0.9,3.3c-0.8-0.3-1.5-0.4-2.2-0.4c-1.5,0-2.3,0.8-2.3,2.5v1.8h4.1v3.1h-4.1v13.7h-6.7V309
			h-2.7v-3.1h2.7v-1.6c0-2,0.7-3.6,2.1-4.7c1.3-1.1,3.1-1.6,5.3-1.6C-159.8,298-158.3,298.2-156.7,298.8z"/>
		<path class="st9" d="M-142.3,314.2c0-3.9-0.9-5.8-2.8-5.8c-0.9,0-1.5,0.5-2,1.6c-0.5,1-0.8,2.4-0.8,4.2c0,1.8,0.3,3.2,0.8,4.3
			c0.5,1.1,1.2,1.6,2,1.6c0.9,0,1.6-0.5,2.1-1.5C-142.6,317.5-142.3,316.1-142.3,314.2z M-135.5,314.1c0,2.6-0.9,4.8-2.7,6.4
			c-1.8,1.7-4.1,2.5-6.9,2.5c-2.8,0-5.1-0.8-6.9-2.5c-1.8-1.7-2.7-3.8-2.7-6.4c0-2.5,0.9-4.6,2.7-6.2c1.8-1.6,4.2-2.4,7-2.4
			c2.7,0,5,0.8,6.8,2.5S-135.5,311.6-135.5,314.1z"/>
		<path class="st9" d="M-115.3,306.8l-1.9,5c-0.6-0.3-1.3-0.4-2.1-0.4c-1.6,0-2.7,0.8-3.2,2.3c-0.2,0.6-0.3,1.6-0.3,3.2v5.9h-6.7
			v-16.8h6.7v3.9l0.5-1.1c1-2.2,2.2-3.2,3.6-3.2C-117.7,305.4-116.6,305.9-115.3,306.8z"/>
		<path class="st9" d="M-87.2,313.3l-2.4-7.4l-2.7,7.4H-87.2z M-76.7,322.7h-7.5l-1.9-5.7h-7.3l-2.3,5.7h-5.5l9.6-23.6h6
			L-76.7,322.7z"/>
		<path class="st9" d="M-59.5,305.5c0-1.2-0.5-1.9-1.5-2.3c-0.4-0.2-1.2-0.2-2.2-0.2h-1.1v5.5h0.9c1.3,0,2.2-0.2,2.7-0.5
			C-59.9,307.3-59.5,306.5-59.5,305.5z M-51.7,315.8c0,1.5-0.5,2.9-1.6,4.1c-1,1.1-2.3,1.9-3.8,2.3c-1.2,0.3-3.3,0.5-6.2,0.5h-8.1
			v-23.6h8.4c2,0,3.4,0.1,4.3,0.2c0.8,0.1,1.7,0.3,2.4,0.7c2.1,0.9,3.1,2.5,3.1,4.6c0,1.2-0.4,2.3-1.1,3.1s-1.9,1.5-3.6,2.2
			c1,0.1,2,0.4,3,0.9C-52.7,311.7-51.7,313.4-51.7,315.8z M-58.9,315.3c0-1.4-0.6-2.3-1.7-2.8c-0.5-0.2-1.3-0.3-2.5-0.3h-1.4v6.6h1
			c1.6,0,2.7-0.3,3.3-0.8C-59.3,317.4-58.9,316.5-58.9,315.3z"/>
		<path class="st9" d="M-30.3,316.1c0,2.1-0.8,3.8-2.5,5c-1.7,1.3-3.9,1.9-6.6,1.9c-2.8,0-5.3-0.7-7.4-2.2l2.2-3.9
			c1.3,1.1,2.7,1.7,4.3,1.7c0.8,0,1.5-0.2,2.1-0.6c0.6-0.4,0.9-1,0.9-1.6c0-0.6-0.3-1.3-0.8-2c-0.4-0.4-1.2-1.3-2.6-2.5
			c-0.8-0.7-2-1.6-3.2-2.9c-1.2-1.2-1.8-2.7-1.8-4.2c0-1.9,0.8-3.4,2.3-4.5c1.5-1.1,3.5-1.7,6-1.7c2.2,0,4.3,0.5,6.2,1.6l-1.9,3.7
			c-1.2-0.6-2.3-0.9-3.2-0.9c-1.5,0-2.2,0.5-2.2,1.5c0,0.4,0.2,0.8,0.5,1.1c0.3,0.4,1,1,2,1.9c1.2,1,2.4,2.2,3.5,3.4
			C-31,312.6-30.3,314.3-30.3,316.1z"/>
		<polygon class="st9" points="-5.2,303.6 -12.1,303.6 -12.1,322.7 -19.1,322.7 -19.1,303.6 -25.9,303.6 -25.9,299.1 -5.2,299.1 		
			"/>
		<path class="st9" d="M12.5,306.3c0-1.2-0.4-2.1-1.1-2.5c-0.5-0.3-1.5-0.5-2.9-0.5H7.2v6.4h1.2c1.5,0,2.5-0.3,3.1-0.9
			C12.2,308.2,12.5,307.4,12.5,306.3z M20.4,322.3l-7.4,0.8L9,313.5H7.2v9.2h-7v-23.6h9.2c1.7,0,3,0,3.7,0.1
			c1.4,0.2,2.6,0.6,3.5,1.2c1.8,1.2,2.6,3,2.6,5.4c0,2.8-1.4,5-4.3,6.5L20.4,322.3z"/>
		<path class="st9" d="M37.9,313.3l-2.4-7.4l-2.7,7.4H37.9z M48.3,322.7h-7.5L39,317h-7.3l-2.3,5.7h-5.5l9.6-23.6h6L48.3,322.7z"/>
		<path class="st9" d="M72.6,322.1c-1.9,0.7-3.9,1-5.9,1c-4.1,0-7.5-1.1-10.1-3.3s-3.9-5.2-3.9-8.8c0-3.5,1.3-6.4,3.8-8.7
			c2.6-2.3,5.8-3.4,9.8-3.4c2.1,0,4.2,0.4,6.3,1.2l-1.8,4.2c-1.3-0.3-2.4-0.5-3.3-0.5c-2.3,0-4.1,0.7-5.4,2c-1.3,1.3-2,3.1-2,5.3
			c0,2.1,0.6,3.8,1.9,5.1c1.4,1.4,3.3,2.2,5.7,2.2c1.2,0,2.4-0.2,3.6-0.5L72.6,322.1z"/>
		<polygon class="st9" points="96.9,303.6 90,303.6 90,322.7 83,322.7 83,303.6 76.2,303.6 76.2,299.1 96.9,299.1 		"/>
		<path class="st9" d="M117.2,316.1c0,2.1-0.8,3.8-2.5,5c-1.7,1.3-3.9,1.9-6.6,1.9c-2.8,0-5.3-0.7-7.4-2.2l2.2-3.9
			c1.3,1.1,2.7,1.7,4.3,1.7c0.8,0,1.5-0.2,2.1-0.6c0.6-0.4,0.9-1,0.9-1.6c0-0.6-0.3-1.3-0.8-2c-0.4-0.4-1.2-1.3-2.6-2.5
			c-0.8-0.7-2-1.6-3.2-2.9c-1.2-1.2-1.8-2.7-1.8-4.2c0-1.9,0.8-3.4,2.3-4.5c1.5-1.1,3.5-1.7,6-1.7c2.2,0,4.3,0.5,6.2,1.6l-1.9,3.7
			c-1.2-0.6-2.3-0.9-3.2-0.9c-1.5,0-2.2,0.5-2.2,1.5c0,0.4,0.2,0.8,0.5,1.1c0.3,0.4,1,1,2,1.9c1.2,1,2.4,2.2,3.5,3.4
			C116.4,312.6,117.2,314.3,117.2,316.1z"/>
	</g>
	<g>
		<path class="st10" d="M-255.9,322.1c-1.9,0.7-3.9,1-5.9,1c-4.1,0-7.5-1.1-10.1-3.3s-3.9-5.2-3.9-8.8c0-3.5,1.3-6.4,3.8-8.7
			c2.6-2.3,5.8-3.4,9.8-3.4c2.1,0,4.2,0.4,6.3,1.2l-1.7,4.2c-1.3-0.3-2.4-0.5-3.3-0.5c-2.3,0-4.1,0.7-5.4,2c-1.3,1.3-2,3.1-2,5.3
			c0,2.1,0.6,3.8,1.9,5.1c1.4,1.4,3.3,2.2,5.7,2.2c1.2,0,2.4-0.2,3.6-0.5L-255.9,322.1z"/>
		<path class="st10" d="M-238.2,313.3l-2.4-7.4l-2.7,7.4H-238.2z M-227.7,322.7h-7.5l-1.9-5.7h-7.3l-2.3,5.7h-5.5l9.6-23.6h6
			L-227.7,322.7z"/>
		<polygon class="st10" points="-206.7,322.7 -222.4,322.7 -222.4,299.1 -215.3,299.1 -215.3,318.2 -206.7,318.2 		"/>
		<polygon class="st10" points="-185.6,322.7 -201.3,322.7 -201.3,299.1 -194.2,299.1 -194.2,318.2 -185.6,318.2 		"/>
		<path class="st10" d="M-156.6,298.8l-0.9,3.3c-0.8-0.3-1.5-0.4-2.2-0.4c-1.5,0-2.3,0.8-2.3,2.5v1.8h4.1v3.1h-4.1v13.7h-6.7V309
			h-2.7v-3.1h2.7v-1.6c0-2,0.7-3.6,2.1-4.7c1.3-1.1,3.1-1.6,5.3-1.6C-159.7,298-158.1,298.2-156.6,298.8z"/>
		<path class="st10" d="M-142.2,314.2c0-3.9-0.9-5.8-2.8-5.8c-0.9,0-1.5,0.5-2,1.6c-0.5,1-0.8,2.4-0.8,4.2c0,1.8,0.3,3.2,0.8,4.3
			c0.5,1.1,1.2,1.6,2,1.6c0.9,0,1.6-0.5,2.1-1.5C-142.4,317.5-142.2,316.1-142.2,314.2z M-135.3,314.1c0,2.6-0.9,4.8-2.7,6.4
			c-1.8,1.7-4.1,2.5-6.9,2.5c-2.8,0-5.1-0.8-6.9-2.5c-1.8-1.7-2.7-3.8-2.7-6.4c0-2.5,0.9-4.6,2.7-6.2c1.8-1.6,4.2-2.4,7-2.4
			c2.7,0,5,0.8,6.8,2.5S-135.3,311.6-135.3,314.1z"/>
		<path class="st10" d="M-115.2,306.8l-1.9,5c-0.6-0.3-1.3-0.4-2.1-0.4c-1.6,0-2.7,0.8-3.2,2.3c-0.2,0.6-0.3,1.6-0.3,3.2v5.9h-6.7
			v-16.8h6.7v3.9l0.5-1.1c1-2.2,2.2-3.2,3.6-3.2C-117.5,305.4-116.4,305.9-115.2,306.8z"/>
		<path class="st10" d="M-87.1,313.3l-2.4-7.4l-2.7,7.4H-87.1z M-76.6,322.7h-7.5l-1.9-5.7h-7.3l-2.3,5.7h-5.5l9.6-23.6h6
			L-76.6,322.7z"/>
		<path class="st10" d="M-59.4,305.5c0-1.2-0.5-1.9-1.5-2.3c-0.4-0.2-1.2-0.2-2.2-0.2h-1.1v5.5h0.9c1.3,0,2.2-0.2,2.7-0.5
			C-59.8,307.3-59.4,306.5-59.4,305.5z M-51.5,315.8c0,1.5-0.5,2.9-1.6,4.1c-1,1.1-2.3,1.9-3.8,2.3c-1.2,0.3-3.3,0.5-6.2,0.5h-8.1
			v-23.6h8.4c2,0,3.4,0.1,4.3,0.2c0.8,0.1,1.7,0.3,2.4,0.7c2.1,0.9,3.1,2.5,3.1,4.6c0,1.2-0.4,2.3-1.1,3.1s-1.9,1.5-3.6,2.2
			c1,0.1,2,0.4,3,0.9C-52.6,311.7-51.5,313.4-51.5,315.8z M-58.7,315.3c0-1.4-0.6-2.3-1.7-2.8c-0.5-0.2-1.3-0.3-2.5-0.3h-1.4v6.6h1
			c1.6,0,2.7-0.3,3.3-0.8C-59.1,317.4-58.7,316.5-58.7,315.3z"/>
		<path class="st10" d="M-30.1,316.1c0,2.1-0.8,3.8-2.5,5c-1.7,1.3-3.9,1.9-6.6,1.9c-2.8,0-5.3-0.7-7.4-2.2l2.2-3.9
			c1.3,1.1,2.7,1.7,4.3,1.7c0.8,0,1.5-0.2,2.1-0.6c0.6-0.4,0.9-1,0.9-1.6c0-0.6-0.3-1.3-0.8-2c-0.4-0.4-1.2-1.3-2.6-2.5
			c-0.8-0.7-2-1.6-3.2-2.9c-1.2-1.2-1.8-2.7-1.8-4.2c0-1.9,0.8-3.4,2.3-4.5c1.5-1.1,3.5-1.7,6-1.7c2.2,0,4.3,0.5,6.2,1.6l-1.9,3.7
			c-1.2-0.6-2.3-0.9-3.2-0.9c-1.5,0-2.2,0.5-2.2,1.5c0,0.4,0.2,0.8,0.5,1.1c0.3,0.4,1,1,2,1.9c1.2,1,2.4,2.2,3.5,3.4
			C-30.9,312.6-30.1,314.3-30.1,316.1z"/>
		<polygon class="st10" points="-5,303.6 -11.9,303.6 -11.9,322.7 -18.9,322.7 -18.9,303.6 -25.7,303.6 -25.7,299.1 -5,299.1 		"/>
		<path class="st10" d="M12.6,306.3c0-1.2-0.4-2.1-1.1-2.5c-0.5-0.3-1.5-0.5-2.9-0.5H7.4v6.4h1.2c1.5,0,2.5-0.3,3.1-0.9
			C12.3,308.2,12.6,307.4,12.6,306.3z M20.6,322.3l-7.4,0.8l-3.9-9.6H7.4v9.2h-7v-23.6h9.2c1.7,0,3,0,3.7,0.1
			c1.4,0.2,2.6,0.6,3.5,1.2c1.8,1.2,2.6,3,2.6,5.4c0,2.8-1.4,5-4.3,6.5L20.6,322.3z"/>
		<path class="st10" d="M38,313.3l-2.4-7.4l-2.7,7.4H38z M48.5,322.7H41l-1.9-5.7h-7.3l-2.3,5.7H24l9.6-23.6h6L48.5,322.7z"/>
		<path class="st10" d="M72.7,322.1c-1.9,0.7-3.9,1-5.9,1c-4.1,0-7.5-1.1-10.1-3.3s-3.9-5.2-3.9-8.8c0-3.5,1.3-6.4,3.8-8.7
			c2.6-2.3,5.8-3.4,9.8-3.4c2.1,0,4.2,0.4,6.3,1.2l-1.8,4.2c-1.3-0.3-2.4-0.5-3.3-0.5c-2.3,0-4.1,0.7-5.4,2c-1.3,1.3-2,3.1-2,5.3
			c0,2.1,0.6,3.8,1.9,5.1c1.4,1.4,3.3,2.2,5.7,2.2c1.2,0,2.4-0.2,3.6-0.5L72.7,322.1z"/>
		<polygon class="st10" points="97.1,303.6 90.2,303.6 90.2,322.7 83.1,322.7 83.1,303.6 76.4,303.6 76.4,299.1 97.1,299.1 		"/>
		<path class="st10" d="M117.3,316.1c0,2.1-0.8,3.8-2.5,5c-1.7,1.3-3.9,1.9-6.6,1.9c-2.8,0-5.3-0.7-7.4-2.2l2.2-3.9
			c1.3,1.1,2.7,1.7,4.3,1.7c0.8,0,1.5-0.2,2.1-0.6c0.6-0.4,0.9-1,0.9-1.6c0-0.6-0.3-1.3-0.8-2c-0.4-0.4-1.2-1.3-2.6-2.5
			c-0.8-0.7-2-1.6-3.2-2.9c-1.2-1.2-1.8-2.7-1.8-4.2c0-1.9,0.8-3.4,2.3-4.5c1.5-1.1,3.5-1.7,6-1.7c2.2,0,4.3,0.5,6.2,1.6l-1.9,3.7
			c-1.2-0.6-2.3-0.9-3.2-0.9c-1.5,0-2.2,0.5-2.2,1.5c0,0.4,0.2,0.8,0.5,1.1c0.3,0.4,1,1,2,1.9c1.2,1,2.4,2.2,3.5,3.4
			C116.6,312.6,117.3,314.3,117.3,316.1z"/>
	</g>
	<g>
		<path class="st11" d="M-255.7,322.1c-1.9,0.7-3.9,1-5.9,1c-4.1,0-7.5-1.1-10.1-3.3s-3.9-5.2-3.9-8.8c0-3.5,1.3-6.4,3.8-8.7
			c2.6-2.3,5.8-3.4,9.8-3.4c2.1,0,4.2,0.4,6.3,1.2l-1.7,4.2c-1.3-0.3-2.4-0.5-3.3-0.5c-2.3,0-4.1,0.7-5.4,2c-1.3,1.3-2,3.1-2,5.3
			c0,2.1,0.6,3.8,1.9,5.1c1.4,1.4,3.3,2.2,5.7,2.2c1.2,0,2.4-0.2,3.6-0.5L-255.7,322.1z"/>
		<path class="st11" d="M-238,313.3l-2.4-7.4l-2.7,7.4H-238z M-227.6,322.7h-7.5l-1.9-5.7h-7.3l-2.3,5.7h-5.5l9.6-23.6h6
			L-227.6,322.7z"/>
		<polygon class="st11" points="-206.5,322.7 -222.2,322.7 -222.2,299.1 -215.2,299.1 -215.2,318.2 -206.5,318.2 		"/>
		<polygon class="st11" points="-185.4,322.7 -201.1,322.7 -201.1,299.1 -194.1,299.1 -194.1,318.2 -185.4,318.2 		"/>
		<path class="st11" d="M-156.4,298.8l-0.9,3.3c-0.8-0.3-1.5-0.4-2.2-0.4c-1.5,0-2.3,0.8-2.3,2.5v1.8h4.1v3.1h-4.1v13.7h-6.7V309
			h-2.7v-3.1h2.7v-1.6c0-2,0.7-3.6,2.1-4.7c1.3-1.1,3.1-1.6,5.3-1.6C-159.5,298-158,298.2-156.4,298.8z"/>
		<path class="st11" d="M-142,314.2c0-3.9-0.9-5.8-2.8-5.8c-0.9,0-1.5,0.5-2,1.6c-0.5,1-0.8,2.4-0.8,4.2c0,1.8,0.3,3.2,0.8,4.3
			c0.5,1.1,1.2,1.6,2,1.6c0.9,0,1.6-0.5,2.1-1.5C-142.3,317.5-142,316.1-142,314.2z M-135.2,314.1c0,2.6-0.9,4.8-2.7,6.4
			c-1.8,1.7-4.1,2.5-6.9,2.5c-2.8,0-5.1-0.8-6.9-2.5c-1.8-1.7-2.7-3.8-2.7-6.4c0-2.5,0.9-4.6,2.7-6.2c1.8-1.6,4.2-2.4,7-2.4
			c2.7,0,5,0.8,6.8,2.5S-135.2,311.6-135.2,314.1z"/>
		<path class="st11" d="M-115.1,306.8l-1.9,5c-0.6-0.3-1.3-0.4-2.1-0.4c-1.6,0-2.7,0.8-3.2,2.3c-0.2,0.6-0.3,1.6-0.3,3.2v5.9h-6.7
			v-16.8h6.7v3.9l0.5-1.1c1-2.2,2.2-3.2,3.6-3.2C-117.4,305.4-116.3,305.9-115.1,306.8z"/>
		<path class="st11" d="M-86.9,313.3l-2.4-7.4l-2.7,7.4H-86.9z M-76.5,322.7H-84l-1.9-5.7h-7.3l-2.3,5.7h-5.5l9.6-23.6h6
			L-76.5,322.7z"/>
		<path class="st11" d="M-59.3,305.5c0-1.2-0.5-1.9-1.5-2.3c-0.4-0.2-1.2-0.2-2.2-0.2h-1.1v5.5h0.9c1.3,0,2.2-0.2,2.7-0.5
			C-59.7,307.3-59.3,306.5-59.3,305.5z M-51.4,315.8c0,1.5-0.5,2.9-1.6,4.1c-1,1.1-2.3,1.9-3.8,2.3c-1.2,0.3-3.3,0.5-6.2,0.5h-8.1
			v-23.6h8.4c2,0,3.4,0.1,4.3,0.2c0.8,0.1,1.7,0.3,2.4,0.7c2.1,0.9,3.1,2.5,3.1,4.6c0,1.2-0.4,2.3-1.1,3.1s-1.9,1.5-3.6,2.2
			c1,0.1,2,0.4,3,0.9C-52.4,311.7-51.4,313.4-51.4,315.8z M-58.6,315.3c0-1.4-0.6-2.3-1.7-2.8c-0.5-0.2-1.3-0.3-2.5-0.3h-1.4v6.6h1
			c1.6,0,2.7-0.3,3.3-0.8C-59,317.4-58.6,316.5-58.6,315.3z"/>
		<path class="st11" d="M-30,316.1c0,2.1-0.8,3.8-2.5,5c-1.7,1.3-3.9,1.9-6.6,1.9c-2.8,0-5.3-0.7-7.4-2.2l2.2-3.9
			c1.3,1.1,2.7,1.7,4.3,1.7c0.8,0,1.5-0.2,2.1-0.6c0.6-0.4,0.9-1,0.9-1.6c0-0.6-0.3-1.3-0.8-2c-0.4-0.4-1.2-1.3-2.6-2.5
			c-0.8-0.7-2-1.6-3.2-2.9c-1.2-1.2-1.8-2.7-1.8-4.2c0-1.9,0.8-3.4,2.3-4.5c1.5-1.1,3.5-1.7,6-1.7c2.2,0,4.3,0.5,6.2,1.6l-1.9,3.7
			c-1.2-0.6-2.3-0.9-3.2-0.9c-1.5,0-2.2,0.5-2.2,1.5c0,0.4,0.2,0.8,0.5,1.1c0.3,0.4,1,1,2,1.9c1.2,1,2.4,2.2,3.5,3.4
			C-30.7,312.6-30,314.3-30,316.1z"/>
		<polygon class="st11" points="-4.9,303.6 -11.8,303.6 -11.8,322.7 -18.8,322.7 -18.8,303.6 -25.6,303.6 -25.6,299.1 -4.9,299.1 		
			"/>
		<path class="st11" d="M12.8,306.3c0-1.2-0.4-2.1-1.1-2.5c-0.5-0.3-1.5-0.5-2.9-0.5H7.5v6.4h1.2c1.5,0,2.5-0.3,3.1-0.9
			C12.5,308.2,12.8,307.4,12.8,306.3z M20.7,322.3l-7.4,0.8l-3.9-9.6H7.5v9.2h-7v-23.6h9.2c1.7,0,3,0,3.7,0.1
			c1.4,0.2,2.6,0.6,3.5,1.2c1.8,1.2,2.6,3,2.6,5.4c0,2.8-1.4,5-4.3,6.5L20.7,322.3z"/>
		<path class="st11" d="M38.2,313.3l-2.4-7.4l-2.7,7.4H38.2z M48.6,322.7h-7.5l-1.9-5.7H32l-2.3,5.7h-5.5l9.6-23.6h6L48.6,322.7z"/>
		<path class="st11" d="M72.9,322.1c-1.9,0.7-3.9,1-5.9,1c-4.1,0-7.5-1.1-10.1-3.3s-3.9-5.2-3.9-8.8c0-3.5,1.3-6.4,3.8-8.7
			c2.6-2.3,5.8-3.4,9.8-3.4c2.1,0,4.2,0.4,6.3,1.2l-1.8,4.2c-1.3-0.3-2.4-0.5-3.3-0.5c-2.3,0-4.1,0.7-5.4,2c-1.3,1.3-2,3.1-2,5.3
			c0,2.1,0.6,3.8,1.9,5.1c1.4,1.4,3.3,2.2,5.7,2.2c1.2,0,2.4-0.2,3.6-0.5L72.9,322.1z"/>
		<polygon class="st11" points="97.2,303.6 90.3,303.6 90.3,322.7 83.3,322.7 83.3,303.6 76.5,303.6 76.5,299.1 97.2,299.1 		"/>
		<path class="st11" d="M117.4,316.1c0,2.1-0.8,3.8-2.5,5c-1.7,1.3-3.9,1.9-6.6,1.9c-2.8,0-5.3-0.7-7.4-2.2l2.2-3.9
			c1.3,1.1,2.7,1.7,4.3,1.7c0.8,0,1.5-0.2,2.1-0.6c0.6-0.4,0.9-1,0.9-1.6c0-0.6-0.3-1.3-0.8-2c-0.4-0.4-1.2-1.3-2.6-2.5
			c-0.8-0.7-2-1.6-3.2-2.9c-1.2-1.2-1.8-2.7-1.8-4.2c0-1.9,0.8-3.4,2.3-4.5c1.5-1.1,3.5-1.7,6-1.7c2.2,0,4.3,0.5,6.2,1.6l-1.9,3.7
			c-1.2-0.6-2.3-0.9-3.2-0.9c-1.5,0-2.2,0.5-2.2,1.5c0,0.4,0.2,0.8,0.5,1.1c0.3,0.4,1,1,2,1.9c1.2,1,2.4,2.2,3.5,3.4
			C116.7,312.6,117.4,314.3,117.4,316.1z"/>
	</g>
	<g>
		<path class="st12" d="M-255.6,322.1c-1.9,0.7-3.9,1-5.9,1c-4.1,0-7.5-1.1-10.1-3.3s-3.9-5.2-3.9-8.8c0-3.5,1.3-6.4,3.8-8.7
			c2.6-2.3,5.8-3.4,9.8-3.4c2.1,0,4.2,0.4,6.3,1.2l-1.7,4.2c-1.3-0.3-2.4-0.5-3.3-0.5c-2.3,0-4.1,0.7-5.4,2c-1.3,1.3-2,3.1-2,5.3
			c0,2.1,0.6,3.8,1.9,5.1c1.4,1.4,3.3,2.2,5.7,2.2c1.2,0,2.4-0.2,3.6-0.5L-255.6,322.1z"/>
		<path class="st12" d="M-237.9,313.3l-2.4-7.4l-2.7,7.4H-237.9z M-227.4,322.7h-7.5l-1.9-5.7h-7.3l-2.3,5.7h-5.5l9.6-23.6h6
			L-227.4,322.7z"/>
		<polygon class="st12" points="-206.4,322.7 -222.1,322.7 -222.1,299.1 -215.1,299.1 -215.1,318.2 -206.4,318.2 		"/>
		<polygon class="st12" points="-185.3,322.7 -201,322.7 -201,299.1 -194,299.1 -194,318.2 -185.3,318.2 		"/>
		<path class="st12" d="M-156.3,298.8l-0.9,3.3c-0.8-0.3-1.5-0.4-2.2-0.4c-1.5,0-2.3,0.8-2.3,2.5v1.8h4.1v3.1h-4.1v13.7h-6.7V309
			h-2.7v-3.1h2.7v-1.6c0-2,0.7-3.6,2.1-4.7c1.3-1.1,3.1-1.6,5.3-1.6C-159.4,298-157.9,298.2-156.3,298.8z"/>
		<path class="st12" d="M-141.9,314.2c0-3.9-0.9-5.8-2.8-5.8c-0.9,0-1.5,0.5-2,1.6c-0.5,1-0.8,2.4-0.8,4.2c0,1.8,0.3,3.2,0.8,4.3
			c0.5,1.1,1.2,1.6,2,1.6c0.9,0,1.6-0.5,2.1-1.5C-142.1,317.5-141.9,316.1-141.9,314.2z M-135,314.1c0,2.6-0.9,4.8-2.7,6.4
			c-1.8,1.7-4.1,2.5-6.9,2.5c-2.8,0-5.1-0.8-6.9-2.5c-1.8-1.7-2.7-3.8-2.7-6.4c0-2.5,0.9-4.6,2.7-6.2c1.8-1.6,4.2-2.4,7-2.4
			c2.7,0,5,0.8,6.8,2.5S-135,311.6-135,314.1z"/>
		<path class="st12" d="M-114.9,306.8l-1.9,5c-0.6-0.3-1.3-0.4-2.1-0.4c-1.6,0-2.7,0.8-3.2,2.3c-0.2,0.6-0.3,1.6-0.3,3.2v5.9h-6.7
			v-16.8h6.7v3.9l0.5-1.1c1-2.2,2.2-3.2,3.6-3.2C-117.3,305.4-116.2,305.9-114.9,306.8z"/>
		<path class="st12" d="M-86.8,313.3l-2.4-7.4l-2.7,7.4H-86.8z M-76.3,322.7h-7.5l-1.9-5.7H-93l-2.3,5.7h-5.5l9.6-23.6h6
			L-76.3,322.7z"/>
		<path class="st12" d="M-59.1,305.5c0-1.2-0.5-1.9-1.5-2.3c-0.4-0.2-1.2-0.2-2.2-0.2h-1.1v5.5h0.9c1.3,0,2.2-0.2,2.7-0.5
			C-59.5,307.3-59.1,306.5-59.1,305.5z M-51.2,315.8c0,1.5-0.5,2.9-1.6,4.1c-1,1.1-2.3,1.9-3.8,2.3c-1.2,0.3-3.3,0.5-6.2,0.5H-71
			v-23.6h8.4c2,0,3.4,0.1,4.3,0.2c0.8,0.1,1.7,0.3,2.4,0.7c2.1,0.9,3.1,2.5,3.1,4.6c0,1.2-0.4,2.3-1.1,3.1s-1.9,1.5-3.6,2.2
			c1,0.1,2,0.4,3,0.9C-52.3,311.7-51.2,313.4-51.2,315.8z M-58.4,315.3c0-1.4-0.6-2.3-1.7-2.8c-0.5-0.2-1.3-0.3-2.5-0.3h-1.4v6.6h1
			c1.6,0,2.7-0.3,3.3-0.8C-58.8,317.4-58.4,316.5-58.4,315.3z"/>
		<path class="st12" d="M-29.8,316.1c0,2.1-0.8,3.8-2.5,5c-1.7,1.3-3.9,1.9-6.6,1.9c-2.8,0-5.3-0.7-7.4-2.2l2.2-3.9
			c1.3,1.1,2.7,1.7,4.3,1.7c0.8,0,1.5-0.2,2.1-0.6c0.6-0.4,0.9-1,0.9-1.6c0-0.6-0.3-1.3-0.8-2c-0.4-0.4-1.2-1.3-2.6-2.5
			c-0.8-0.7-2-1.6-3.2-2.9c-1.2-1.2-1.8-2.7-1.8-4.2c0-1.9,0.8-3.4,2.3-4.5c1.5-1.1,3.5-1.7,6-1.7c2.2,0,4.3,0.5,6.2,1.6l-1.9,3.7
			c-1.2-0.6-2.3-0.9-3.2-0.9c-1.5,0-2.2,0.5-2.2,1.5c0,0.4,0.2,0.8,0.5,1.1c0.3,0.4,1,1,2,1.9c1.2,1,2.4,2.2,3.5,3.4
			C-30.6,312.6-29.8,314.3-29.8,316.1z"/>
		<polygon class="st12" points="-4.7,303.6 -11.6,303.6 -11.6,322.7 -18.7,322.7 -18.7,303.6 -25.4,303.6 -25.4,299.1 -4.7,299.1 		
			"/>
		<path class="st12" d="M12.9,306.3c0-1.2-0.4-2.1-1.1-2.5c-0.5-0.3-1.5-0.5-2.9-0.5H7.6v6.4h1.2c1.5,0,2.5-0.3,3.1-0.9
			C12.6,308.2,12.9,307.4,12.9,306.3z M20.8,322.3l-7.4,0.8l-3.9-9.6H7.6v9.2h-7v-23.6h9.2c1.7,0,3,0,3.7,0.1
			c1.4,0.2,2.6,0.6,3.5,1.2c1.8,1.2,2.6,3,2.6,5.4c0,2.8-1.4,5-4.3,6.5L20.8,322.3z"/>
		<path class="st12" d="M38.3,313.3l-2.4-7.4l-2.7,7.4H38.3z M48.8,322.7h-7.5l-1.9-5.7h-7.3l-2.3,5.7h-5.5l9.6-23.6h6L48.8,322.7z"
			/>
		<path class="st12" d="M73,322.1c-1.9,0.7-3.9,1-5.9,1c-4.1,0-7.5-1.1-10.1-3.3s-3.9-5.2-3.9-8.8c0-3.5,1.3-6.4,3.8-8.7
			c2.6-2.3,5.8-3.4,9.8-3.4c2.1,0,4.2,0.4,6.3,1.2l-1.8,4.2c-1.3-0.3-2.4-0.5-3.3-0.5c-2.3,0-4.1,0.7-5.4,2c-1.3,1.3-2,3.1-2,5.3
			c0,2.1,0.6,3.8,1.9,5.1c1.4,1.4,3.3,2.2,5.7,2.2c1.2,0,2.4-0.2,3.6-0.5L73,322.1z"/>
		<polygon class="st12" points="97.4,303.6 90.5,303.6 90.5,322.7 83.4,322.7 83.4,303.6 76.7,303.6 76.7,299.1 97.4,299.1 		"/>
		<path class="st12" d="M117.6,316.1c0,2.1-0.8,3.8-2.5,5c-1.7,1.3-3.9,1.9-6.6,1.9c-2.8,0-5.3-0.7-7.4-2.2l2.2-3.9
			c1.3,1.1,2.7,1.7,4.3,1.7c0.8,0,1.5-0.2,2.1-0.6c0.6-0.4,0.9-1,0.9-1.6c0-0.6-0.3-1.3-0.8-2c-0.4-0.4-1.2-1.3-2.6-2.5
			c-0.8-0.7-2-1.6-3.2-2.9c-1.2-1.2-1.8-2.7-1.8-4.2c0-1.9,0.8-3.4,2.3-4.5c1.5-1.1,3.5-1.7,6-1.7c2.2,0,4.3,0.5,6.2,1.6l-1.9,3.7
			c-1.2-0.6-2.3-0.9-3.2-0.9c-1.5,0-2.2,0.5-2.2,1.5c0,0.4,0.2,0.8,0.5,1.1c0.3,0.4,1,1,2,1.9c1.2,1,2.4,2.2,3.5,3.4
			C116.8,312.6,117.6,314.3,117.6,316.1z"/>
	</g>
	<g>
		<path class="st13" d="M-255.4,322.1c-1.9,0.7-3.9,1-5.9,1c-4.1,0-7.5-1.1-10.1-3.3s-3.9-5.2-3.9-8.8c0-3.5,1.3-6.4,3.8-8.7
			c2.6-2.3,5.8-3.4,9.8-3.4c2.1,0,4.2,0.4,6.3,1.2l-1.7,4.2c-1.3-0.3-2.4-0.5-3.3-0.5c-2.3,0-4.1,0.7-5.4,2c-1.3,1.3-2,3.1-2,5.3
			c0,2.1,0.6,3.8,1.9,5.1c1.4,1.4,3.3,2.2,5.7,2.2c1.2,0,2.4-0.2,3.6-0.5L-255.4,322.1z"/>
		<path class="st13" d="M-237.8,313.3l-2.4-7.4l-2.7,7.4H-237.8z M-227.3,322.7h-7.5l-1.9-5.7h-7.3l-2.3,5.7h-5.5l9.6-23.6h6
			L-227.3,322.7z"/>
		<polygon class="st13" points="-206.2,322.7 -222,322.7 -222,299.1 -214.9,299.1 -214.9,318.2 -206.2,318.2 		"/>
		<polygon class="st13" points="-185.1,322.7 -200.9,322.7 -200.9,299.1 -193.8,299.1 -193.8,318.2 -185.1,318.2 		"/>
		<path class="st13" d="M-156.2,298.8l-0.9,3.3c-0.8-0.3-1.5-0.4-2.2-0.4c-1.5,0-2.3,0.8-2.3,2.5v1.8h4.1v3.1h-4.1v13.7h-6.7V309
			h-2.7v-3.1h2.7v-1.6c0-2,0.7-3.6,2.1-4.7c1.3-1.1,3.1-1.6,5.3-1.6C-159.3,298-157.7,298.2-156.2,298.8z"/>
		<path class="st13" d="M-141.8,314.2c0-3.9-0.9-5.8-2.8-5.8c-0.9,0-1.5,0.5-2,1.6c-0.5,1-0.8,2.4-0.8,4.2c0,1.8,0.3,3.2,0.8,4.3
			c0.5,1.1,1.2,1.6,2,1.6c0.9,0,1.6-0.5,2.1-1.5C-142,317.5-141.8,316.1-141.8,314.2z M-134.9,314.1c0,2.6-0.9,4.8-2.7,6.4
			c-1.8,1.7-4.1,2.5-6.9,2.5c-2.8,0-5.1-0.8-6.9-2.5c-1.8-1.7-2.7-3.8-2.7-6.4c0-2.5,0.9-4.6,2.7-6.2c1.8-1.6,4.2-2.4,7-2.4
			c2.7,0,5,0.8,6.8,2.5S-134.9,311.6-134.9,314.1z"/>
		<path class="st13" d="M-114.8,306.8l-1.9,5c-0.6-0.3-1.3-0.4-2.1-0.4c-1.6,0-2.7,0.8-3.2,2.3c-0.2,0.6-0.3,1.6-0.3,3.2v5.9h-6.7
			v-16.8h6.7v3.9l0.5-1.1c1-2.2,2.2-3.2,3.6-3.2C-117.1,305.4-116,305.9-114.8,306.8z"/>
		<path class="st13" d="M-86.6,313.3l-2.4-7.4l-2.7,7.4H-86.6z M-76.2,322.7h-7.5l-1.9-5.7h-7.3l-2.3,5.7h-5.5l9.6-23.6h6
			L-76.2,322.7z"/>
		<path class="st13" d="M-59,305.5c0-1.2-0.5-1.9-1.5-2.3c-0.4-0.2-1.2-0.2-2.2-0.2h-1.1v5.5h0.9c1.3,0,2.2-0.2,2.7-0.5
			C-59.4,307.3-59,306.5-59,305.5z M-51.1,315.8c0,1.5-0.5,2.9-1.6,4.1c-1,1.1-2.3,1.9-3.8,2.3c-1.2,0.3-3.3,0.5-6.2,0.5h-8.1v-23.6
			h8.4c2,0,3.4,0.1,4.3,0.2c0.8,0.1,1.7,0.3,2.4,0.7c2.1,0.9,3.1,2.5,3.1,4.6c0,1.2-0.4,2.3-1.1,3.1s-1.9,1.5-3.6,2.2
			c1,0.1,2,0.4,3,0.9C-52.2,311.7-51.1,313.4-51.1,315.8z M-58.3,315.3c0-1.4-0.6-2.3-1.7-2.8c-0.5-0.2-1.3-0.3-2.5-0.3h-1.4v6.6h1
			c1.6,0,2.7-0.3,3.3-0.8C-58.7,317.4-58.3,316.5-58.3,315.3z"/>
		<path class="st13" d="M-29.7,316.1c0,2.1-0.8,3.8-2.5,5c-1.7,1.3-3.9,1.9-6.6,1.9c-2.8,0-5.3-0.7-7.4-2.2l2.2-3.9
			c1.3,1.1,2.7,1.7,4.3,1.7c0.8,0,1.5-0.2,2.1-0.6c0.6-0.4,0.9-1,0.9-1.6c0-0.6-0.3-1.3-0.8-2c-0.4-0.4-1.2-1.3-2.6-2.5
			c-0.8-0.7-2-1.6-3.2-2.9c-1.2-1.2-1.8-2.7-1.8-4.2c0-1.9,0.8-3.4,2.3-4.5c1.5-1.1,3.5-1.7,6-1.7c2.2,0,4.3,0.5,6.2,1.6l-1.9,3.7
			c-1.2-0.6-2.3-0.9-3.2-0.9c-1.5,0-2.2,0.5-2.2,1.5c0,0.4,0.2,0.8,0.5,1.1c0.3,0.4,1,1,2,1.9c1.2,1,2.4,2.2,3.5,3.4
			C-30.5,312.6-29.7,314.3-29.7,316.1z"/>
		<polygon class="st13" points="-4.6,303.6 -11.5,303.6 -11.5,322.7 -18.5,322.7 -18.5,303.6 -25.3,303.6 -25.3,299.1 -4.6,299.1 		
			"/>
		<path class="st13" d="M13.1,306.3c0-1.2-0.4-2.1-1.1-2.5c-0.5-0.3-1.5-0.5-2.9-0.5H7.8v6.4H9c1.5,0,2.5-0.3,3.1-0.9
			C12.8,308.2,13.1,307.4,13.1,306.3z M21,322.3l-7.4,0.8l-3.9-9.6H7.8v9.2h-7v-23.6h9.2c1.7,0,3,0,3.7,0.1c1.4,0.2,2.6,0.6,3.5,1.2
			c1.8,1.2,2.6,3,2.6,5.4c0,2.8-1.4,5-4.3,6.5L21,322.3z"/>
		<path class="st13" d="M38.4,313.3l-2.4-7.4l-2.7,7.4H38.4z M48.9,322.7h-7.5l-1.9-5.7h-7.3l-2.3,5.7h-5.5l9.6-23.6h6L48.9,322.7z"
			/>
		<path class="st13" d="M73.1,322.1c-1.9,0.7-3.9,1-5.9,1c-4.1,0-7.5-1.1-10.1-3.3s-3.9-5.2-3.9-8.8c0-3.5,1.3-6.4,3.8-8.7
			c2.6-2.3,5.8-3.4,9.8-3.4c2.1,0,4.2,0.4,6.3,1.2l-1.8,4.2c-1.3-0.3-2.4-0.5-3.3-0.5c-2.3,0-4.1,0.7-5.4,2c-1.3,1.3-2,3.1-2,5.3
			c0,2.1,0.6,3.8,1.9,5.1c1.4,1.4,3.3,2.2,5.7,2.2c1.2,0,2.4-0.2,3.6-0.5L73.1,322.1z"/>
		<polygon class="st13" points="97.5,303.6 90.6,303.6 90.6,322.7 83.6,322.7 83.6,303.6 76.8,303.6 76.8,299.1 97.5,299.1 		"/>
		<path class="st13" d="M117.7,316.1c0,2.1-0.8,3.8-2.5,5c-1.7,1.3-3.9,1.9-6.6,1.9c-2.8,0-5.3-0.7-7.4-2.2l2.2-3.9
			c1.3,1.1,2.7,1.7,4.3,1.7c0.8,0,1.5-0.2,2.1-0.6c0.6-0.4,0.9-1,0.9-1.6c0-0.6-0.3-1.3-0.8-2c-0.4-0.4-1.2-1.3-2.6-2.5
			c-0.8-0.7-2-1.6-3.2-2.9c-1.2-1.2-1.8-2.7-1.8-4.2c0-1.9,0.8-3.4,2.3-4.5c1.5-1.1,3.5-1.7,6-1.7c2.2,0,4.3,0.5,6.2,1.6l-1.9,3.7
			c-1.2-0.6-2.3-0.9-3.2-0.9c-1.5,0-2.2,0.5-2.2,1.5c0,0.4,0.2,0.8,0.5,1.1c0.3,0.4,1,1,2,1.9c1.2,1,2.4,2.2,3.5,3.4
			C117,312.6,117.7,314.3,117.7,316.1z"/>
	</g>
	<g>
		<path class="st14" d="M-255.3,322.1c-1.9,0.7-3.9,1-5.9,1c-4.1,0-7.5-1.1-10.1-3.3s-3.9-5.2-3.9-8.8c0-3.5,1.3-6.4,3.8-8.7
			c2.6-2.3,5.8-3.4,9.8-3.4c2.1,0,4.2,0.4,6.3,1.2l-1.8,4.2c-1.3-0.3-2.4-0.5-3.3-0.5c-2.3,0-4.1,0.7-5.4,2c-1.3,1.3-2,3.1-2,5.3
			c0,2.1,0.6,3.8,1.9,5.1c1.4,1.4,3.3,2.2,5.7,2.2c1.2,0,2.4-0.2,3.6-0.5L-255.3,322.1z"/>
		<path class="st14" d="M-237.6,313.3l-2.4-7.4l-2.7,7.4H-237.6z M-227.2,322.7h-7.5l-1.9-5.7h-7.3l-2.3,5.7h-5.5l9.6-23.6h6
			L-227.2,322.7z"/>
		<polygon class="st14" points="-206.1,322.7 -221.8,322.7 -221.8,299.1 -214.8,299.1 -214.8,318.2 -206.1,318.2 		"/>
		<polygon class="st14" points="-185,322.7 -200.7,322.7 -200.7,299.1 -193.7,299.1 -193.7,318.2 -185,318.2 		"/>
		<path class="st14" d="M-156,298.8l-0.9,3.3c-0.8-0.3-1.5-0.4-2.2-0.4c-1.5,0-2.3,0.8-2.3,2.5v1.8h4.1v3.1h-4.1v13.7h-6.7V309h-2.7
			v-3.1h2.7v-1.6c0-2,0.7-3.6,2.1-4.7c1.3-1.1,3.1-1.6,5.3-1.6C-159.1,298-157.6,298.2-156,298.8z"/>
		<path class="st14" d="M-141.6,314.2c0-3.9-0.9-5.8-2.8-5.8c-0.9,0-1.5,0.5-2,1.6c-0.5,1-0.8,2.4-0.8,4.2c0,1.8,0.3,3.2,0.8,4.3
			c0.5,1.1,1.2,1.6,2,1.6c0.9,0,1.6-0.5,2.1-1.5C-141.9,317.5-141.6,316.1-141.6,314.2z M-134.8,314.1c0,2.6-0.9,4.8-2.7,6.4
			c-1.8,1.7-4.1,2.5-6.9,2.5c-2.8,0-5.1-0.8-6.9-2.5c-1.8-1.7-2.7-3.8-2.7-6.4c0-2.5,0.9-4.6,2.7-6.2c1.8-1.6,4.2-2.4,7-2.4
			c2.7,0,5,0.8,6.8,2.5S-134.8,311.6-134.8,314.1z"/>
		<path class="st14" d="M-114.6,306.8l-1.9,5c-0.6-0.3-1.3-0.4-2.1-0.4c-1.6,0-2.7,0.8-3.2,2.3c-0.2,0.6-0.3,1.6-0.3,3.2v5.9h-6.7
			v-16.8h6.7v3.9l0.5-1.1c1-2.2,2.2-3.2,3.6-3.2C-117,305.4-115.9,305.9-114.6,306.8z"/>
		<path class="st14" d="M-86.5,313.3l-2.4-7.4l-2.7,7.4H-86.5z M-76,322.7h-7.5l-1.9-5.7h-7.3l-2.3,5.7h-5.5l9.6-23.6h6L-76,322.7z"
			/>
		<path class="st14" d="M-58.8,305.5c0-1.2-0.5-1.9-1.5-2.3c-0.4-0.2-1.2-0.2-2.2-0.2h-1.1v5.5h0.9c1.3,0,2.2-0.2,2.7-0.5
			C-59.2,307.3-58.8,306.5-58.8,305.5z M-51,315.8c0,1.5-0.5,2.9-1.6,4.1c-1,1.1-2.3,1.9-3.8,2.3c-1.2,0.3-3.3,0.5-6.2,0.5h-8.1
			v-23.6h8.4c2,0,3.4,0.1,4.3,0.2c0.8,0.1,1.7,0.3,2.4,0.7c2.1,0.9,3.1,2.5,3.1,4.6c0,1.2-0.4,2.3-1.1,3.1s-1.9,1.5-3.6,2.2
			c1,0.1,2,0.4,3,0.9C-52,311.7-51,313.4-51,315.8z M-58.2,315.3c0-1.4-0.6-2.3-1.7-2.8c-0.5-0.2-1.3-0.3-2.5-0.3h-1.4v6.6h1
			c1.6,0,2.7-0.3,3.3-0.8C-58.6,317.4-58.2,316.5-58.2,315.3z"/>
		<path class="st14" d="M-29.6,316.1c0,2.1-0.8,3.8-2.5,5c-1.7,1.3-3.9,1.9-6.6,1.9c-2.8,0-5.3-0.7-7.4-2.2l2.2-3.9
			c1.3,1.1,2.7,1.7,4.3,1.7c0.8,0,1.5-0.2,2.1-0.6c0.6-0.4,0.9-1,0.9-1.6c0-0.6-0.3-1.3-0.8-2c-0.4-0.4-1.2-1.3-2.6-2.5
			c-0.8-0.7-2-1.6-3.2-2.9c-1.2-1.2-1.8-2.7-1.8-4.2c0-1.9,0.8-3.4,2.3-4.5c1.5-1.1,3.5-1.7,6-1.7c2.2,0,4.3,0.5,6.2,1.6l-1.9,3.7
			c-1.2-0.6-2.3-0.9-3.2-0.9c-1.5,0-2.2,0.5-2.2,1.5c0,0.4,0.2,0.8,0.5,1.1c0.3,0.4,1,1,2,1.9c1.2,1,2.4,2.2,3.5,3.4
			C-30.3,312.6-29.6,314.3-29.6,316.1z"/>
		<polygon class="st14" points="-4.5,303.6 -11.4,303.6 -11.4,322.7 -18.4,322.7 -18.4,303.6 -25.2,303.6 -25.2,299.1 -4.5,299.1 		
			"/>
		<path class="st14" d="M13.2,306.3c0-1.2-0.4-2.1-1.1-2.5c-0.5-0.3-1.5-0.5-2.9-0.5H7.9v6.4h1.2c1.5,0,2.5-0.3,3.1-0.9
			C12.9,308.2,13.2,307.4,13.2,306.3z M21.1,322.3l-7.4,0.8l-3.9-9.6H7.9v9.2h-7v-23.6H10c1.7,0,3,0,3.7,0.1
			c1.4,0.2,2.6,0.6,3.5,1.2c1.8,1.2,2.6,3,2.6,5.4c0,2.8-1.4,5-4.3,6.5L21.1,322.3z"/>
		<path class="st14" d="M38.6,313.3l-2.4-7.4l-2.7,7.4H38.6z M49,322.7h-7.5l-1.9-5.7h-7.3l-2.3,5.7h-5.5l9.6-23.6h6L49,322.7z"/>
		<path class="st14" d="M73.3,322.1c-1.9,0.7-3.9,1-5.9,1c-4.1,0-7.5-1.1-10.1-3.3s-3.9-5.2-3.9-8.8c0-3.5,1.3-6.4,3.8-8.7
			c2.6-2.3,5.8-3.4,9.8-3.4c2.1,0,4.2,0.4,6.3,1.2l-1.8,4.2c-1.3-0.3-2.4-0.5-3.3-0.5c-2.3,0-4.1,0.7-5.4,2c-1.3,1.3-2,3.1-2,5.3
			c0,2.1,0.6,3.8,1.9,5.1c1.4,1.4,3.3,2.2,5.7,2.2c1.2,0,2.4-0.2,3.6-0.5L73.3,322.1z"/>
		<polygon class="st14" points="97.6,303.6 90.7,303.6 90.7,322.7 83.7,322.7 83.7,303.6 76.9,303.6 76.9,299.1 97.6,299.1 		"/>
		<path class="st14" d="M117.9,316.1c0,2.1-0.8,3.8-2.5,5c-1.7,1.3-3.9,1.9-6.6,1.9c-2.8,0-5.3-0.7-7.4-2.2l2.2-3.9
			c1.3,1.1,2.7,1.7,4.3,1.7c0.8,0,1.5-0.2,2.1-0.6c0.6-0.4,0.9-1,0.9-1.6c0-0.6-0.3-1.3-0.8-2c-0.4-0.4-1.2-1.3-2.6-2.5
			c-0.8-0.7-2-1.6-3.2-2.9c-1.2-1.2-1.8-2.7-1.8-4.2c0-1.9,0.8-3.4,2.3-4.5c1.5-1.1,3.5-1.7,6-1.7c2.2,0,4.3,0.5,6.2,1.6L115,304
			c-1.2-0.6-2.3-0.9-3.2-0.9c-1.5,0-2.2,0.5-2.2,1.5c0,0.4,0.2,0.8,0.5,1.1c0.3,0.4,1,1,2,1.9c1.2,1,2.4,2.2,3.5,3.4
			C117.1,312.6,117.9,314.3,117.9,316.1z"/>
	</g>
	<g>
		<path class="st15" d="M-255.2,322.1c-1.9,0.7-3.9,1-5.9,1c-4.1,0-7.5-1.1-10.1-3.3s-3.9-5.2-3.9-8.8c0-3.5,1.3-6.4,3.8-8.7
			c2.6-2.3,5.8-3.4,9.8-3.4c2.1,0,4.2,0.4,6.3,1.2l-1.8,4.2c-1.3-0.3-2.4-0.5-3.3-0.5c-2.3,0-4.1,0.7-5.4,2c-1.3,1.3-2,3.1-2,5.3
			c0,2.1,0.6,3.8,1.9,5.1c1.4,1.4,3.3,2.2,5.7,2.2c1.2,0,2.4-0.2,3.6-0.5L-255.2,322.1z"/>
		<path class="st15" d="M-237.5,313.3l-2.4-7.4l-2.7,7.4H-237.5z M-227,322.7h-7.5l-1.9-5.7h-7.3l-2.3,5.7h-5.5l9.6-23.6h6
			L-227,322.7z"/>
		<polygon class="st15" points="-206,322.7 -221.7,322.7 -221.7,299.1 -214.6,299.1 -214.6,318.2 -206,318.2 		"/>
		<polygon class="st15" points="-184.9,322.7 -200.6,322.7 -200.6,299.1 -193.5,299.1 -193.5,318.2 -184.9,318.2 		"/>
		<path class="st15" d="M-155.9,298.8l-0.9,3.3c-0.8-0.3-1.5-0.4-2.2-0.4c-1.5,0-2.3,0.8-2.3,2.5v1.8h4.1v3.1h-4.1v13.7h-6.7V309
			h-2.7v-3.1h2.7v-1.6c0-2,0.7-3.6,2.1-4.7c1.3-1.1,3.1-1.6,5.3-1.6C-159,298-157.4,298.2-155.9,298.8z"/>
		<path class="st15" d="M-141.5,314.2c0-3.9-0.9-5.8-2.8-5.8c-0.9,0-1.5,0.5-2,1.6c-0.5,1-0.8,2.4-0.8,4.2c0,1.8,0.3,3.2,0.8,4.3
			c0.5,1.1,1.2,1.6,2,1.6c0.9,0,1.6-0.5,2.1-1.5C-141.7,317.5-141.5,316.1-141.5,314.2z M-134.6,314.1c0,2.6-0.9,4.8-2.7,6.4
			c-1.8,1.7-4.1,2.5-6.9,2.5c-2.8,0-5.1-0.8-6.9-2.5c-1.8-1.7-2.7-3.8-2.7-6.4c0-2.5,0.9-4.6,2.7-6.2c1.8-1.6,4.2-2.4,7-2.4
			c2.7,0,5,0.8,6.8,2.5S-134.6,311.6-134.6,314.1z"/>
		<path class="st15" d="M-114.5,306.8l-1.9,5c-0.6-0.3-1.3-0.4-2.1-0.4c-1.6,0-2.7,0.8-3.2,2.3c-0.2,0.6-0.3,1.6-0.3,3.2v5.9h-6.7
			v-16.8h6.7v3.9l0.5-1.1c1-2.2,2.2-3.2,3.6-3.2C-116.9,305.4-115.7,305.9-114.5,306.8z"/>
		<path class="st15" d="M-86.4,313.3l-2.4-7.4l-2.7,7.4H-86.4z M-75.9,322.7h-7.5l-1.9-5.7h-7.3l-2.3,5.7h-5.5l9.6-23.6h6
			L-75.9,322.7z"/>
		<path class="st15" d="M-58.7,305.5c0-1.2-0.5-1.9-1.5-2.3c-0.4-0.2-1.2-0.2-2.2-0.2h-1.1v5.5h0.9c1.3,0,2.2-0.2,2.7-0.5
			C-59.1,307.3-58.7,306.5-58.7,305.5z M-50.8,315.8c0,1.5-0.5,2.9-1.6,4.1c-1,1.1-2.3,1.9-3.8,2.3c-1.2,0.3-3.3,0.5-6.2,0.5h-8.1
			v-23.6h8.4c2,0,3.4,0.1,4.3,0.2c0.8,0.1,1.7,0.3,2.4,0.7c2.1,0.9,3.1,2.5,3.1,4.6c0,1.2-0.4,2.3-1.1,3.1s-1.9,1.5-3.6,2.2
			c1,0.1,2,0.4,3,0.9C-51.9,311.7-50.8,313.4-50.8,315.8z M-58,315.3c0-1.4-0.6-2.3-1.7-2.8c-0.5-0.2-1.3-0.3-2.5-0.3h-1.4v6.6h1
			c1.6,0,2.7-0.3,3.3-0.8C-58.4,317.4-58,316.5-58,315.3z"/>
		<path class="st15" d="M-29.4,316.1c0,2.1-0.8,3.8-2.5,5c-1.7,1.3-3.9,1.9-6.6,1.9c-2.8,0-5.3-0.7-7.4-2.2l2.2-3.9
			c1.3,1.1,2.7,1.7,4.3,1.7c0.8,0,1.5-0.2,2.1-0.6c0.6-0.4,0.9-1,0.9-1.6c0-0.6-0.3-1.3-0.8-2c-0.4-0.4-1.2-1.3-2.6-2.5
			c-0.8-0.7-2-1.6-3.2-2.9c-1.2-1.2-1.8-2.7-1.8-4.2c0-1.9,0.8-3.4,2.3-4.5c1.5-1.1,3.5-1.7,6-1.7c2.2,0,4.3,0.5,6.2,1.6l-1.9,3.7
			c-1.2-0.6-2.3-0.9-3.2-0.9c-1.5,0-2.2,0.5-2.2,1.5c0,0.4,0.2,0.8,0.5,1.1c0.3,0.4,1,1,2,1.9c1.2,1,2.4,2.2,3.5,3.4
			C-30.2,312.6-29.4,314.3-29.4,316.1z"/>
		<polygon class="st15" points="-4.3,303.6 -11.2,303.6 -11.2,322.7 -18.3,322.7 -18.3,303.6 -25,303.6 -25,299.1 -4.3,299.1 		"/>
		<path class="st15" d="M13.3,306.3c0-1.2-0.4-2.1-1.1-2.5c-0.5-0.3-1.5-0.5-2.9-0.5H8.1v6.4h1.2c1.5,0,2.5-0.3,3.1-0.9
			C13,308.2,13.3,307.4,13.3,306.3z M21.3,322.3l-7.4,0.8l-3.9-9.6H8.1v9.2H1v-23.6h9.2c1.7,0,3,0,3.7,0.1c1.4,0.2,2.6,0.6,3.5,1.2
			c1.8,1.2,2.6,3,2.6,5.4c0,2.8-1.4,5-4.3,6.5L21.3,322.3z"/>
		<path class="st15" d="M38.7,313.3l-2.4-7.4l-2.7,7.4H38.7z M49.2,322.7h-7.5l-1.9-5.7h-7.3l-2.3,5.7h-5.5l9.6-23.6h6L49.2,322.7z"
			/>
		<path class="st15" d="M73.4,322.1c-1.9,0.7-3.9,1-5.9,1c-4.1,0-7.5-1.1-10.1-3.3s-3.9-5.2-3.9-8.8c0-3.5,1.3-6.4,3.8-8.7
			c2.6-2.3,5.8-3.4,9.8-3.4c2.1,0,4.2,0.4,6.3,1.2l-1.8,4.2c-1.3-0.3-2.4-0.5-3.3-0.5c-2.3,0-4.1,0.7-5.4,2c-1.3,1.3-2,3.1-2,5.3
			c0,2.1,0.6,3.8,1.9,5.1c1.4,1.4,3.3,2.2,5.7,2.2c1.2,0,2.4-0.2,3.6-0.5L73.4,322.1z"/>
		<polygon class="st15" points="97.8,303.6 90.9,303.6 90.9,322.7 83.8,322.7 83.8,303.6 77.1,303.6 77.1,299.1 97.8,299.1 		"/>
		<path class="st15" d="M118,316.1c0,2.1-0.8,3.8-2.5,5c-1.7,1.3-3.9,1.9-6.6,1.9c-2.8,0-5.3-0.7-7.4-2.2l2.2-3.9
			c1.3,1.1,2.7,1.7,4.3,1.7c0.8,0,1.5-0.2,2.1-0.6c0.6-0.4,0.9-1,0.9-1.6c0-0.6-0.3-1.3-0.8-2c-0.4-0.4-1.2-1.3-2.6-2.5
			c-0.8-0.7-2-1.6-3.2-2.9c-1.2-1.2-1.8-2.7-1.8-4.2c0-1.9,0.8-3.4,2.3-4.5c1.5-1.1,3.5-1.7,6-1.7c2.2,0,4.3,0.5,6.2,1.6l-1.9,3.7
			c-1.2-0.6-2.3-0.9-3.2-0.9c-1.5,0-2.2,0.5-2.2,1.5c0,0.4,0.2,0.8,0.5,1.1c0.3,0.4,1,1,2,1.9c1.2,1,2.4,2.2,3.5,3.4
			C117.2,312.6,118,314.3,118,316.1z"/>
	</g>
	<g>
		<path class="st16" d="M-255,322.1c-1.9,0.7-3.9,1-5.9,1c-4.1,0-7.5-1.1-10.1-3.3s-3.9-5.2-3.9-8.8c0-3.5,1.3-6.4,3.8-8.7
			c2.6-2.3,5.8-3.4,9.8-3.4c2.1,0,4.2,0.4,6.3,1.2l-1.8,4.2c-1.3-0.3-2.4-0.5-3.3-0.5c-2.3,0-4.1,0.7-5.4,2c-1.3,1.3-2,3.1-2,5.3
			c0,2.1,0.6,3.8,1.9,5.1c1.4,1.4,3.3,2.2,5.7,2.2c1.2,0,2.4-0.2,3.6-0.5L-255,322.1z"/>
		<path class="st16" d="M-237.4,313.3l-2.4-7.4l-2.7,7.4H-237.4z M-226.9,322.7h-7.5l-1.9-5.7h-7.3l-2.3,5.7h-5.5l9.6-23.6h6
			L-226.9,322.7z"/>
		<polygon class="st16" points="-205.8,322.7 -221.5,322.7 -221.5,299.1 -214.5,299.1 -214.5,318.2 -205.8,318.2 		"/>
		<polygon class="st16" points="-184.7,322.7 -200.4,322.7 -200.4,299.1 -193.4,299.1 -193.4,318.2 -184.7,318.2 		"/>
		<path class="st16" d="M-155.7,298.8l-0.9,3.3c-0.8-0.3-1.5-0.4-2.2-0.4c-1.5,0-2.3,0.8-2.3,2.5v1.8h4.1v3.1h-4.1v13.7h-6.7V309
			h-2.7v-3.1h2.7v-1.6c0-2,0.7-3.6,2.1-4.7c1.3-1.1,3.1-1.6,5.3-1.6C-158.8,298-157.3,298.2-155.7,298.8z"/>
		<path class="st16" d="M-141.3,314.2c0-3.9-0.9-5.8-2.8-5.8c-0.9,0-1.5,0.5-2,1.6c-0.5,1-0.8,2.4-0.8,4.2c0,1.8,0.3,3.2,0.8,4.3
			c0.5,1.1,1.2,1.6,2,1.6c0.9,0,1.6-0.5,2.1-1.5C-141.6,317.5-141.3,316.1-141.3,314.2z M-134.5,314.1c0,2.6-0.9,4.8-2.7,6.4
			c-1.8,1.7-4.1,2.5-6.9,2.5c-2.8,0-5.1-0.8-6.9-2.5c-1.8-1.7-2.7-3.8-2.7-6.4c0-2.5,0.9-4.6,2.7-6.2c1.8-1.6,4.2-2.4,7-2.4
			c2.7,0,5,0.8,6.8,2.5S-134.5,311.6-134.5,314.1z"/>
		<path class="st16" d="M-114.4,306.8l-1.9,5c-0.6-0.3-1.3-0.4-2.1-0.4c-1.6,0-2.7,0.8-3.2,2.3c-0.2,0.6-0.3,1.6-0.3,3.2v5.9h-6.7
			v-16.8h6.7v3.9l0.5-1.1c1-2.2,2.2-3.2,3.6-3.2C-116.7,305.4-115.6,305.9-114.4,306.8z"/>
		<path class="st16" d="M-86.2,313.3l-2.4-7.4l-2.7,7.4H-86.2z M-75.8,322.7h-7.5l-1.9-5.7h-7.3l-2.3,5.7h-5.5l9.6-23.6h6
			L-75.8,322.7z"/>
		<path class="st16" d="M-58.6,305.5c0-1.2-0.5-1.9-1.5-2.3c-0.4-0.2-1.2-0.2-2.2-0.2h-1.1v5.5h0.9c1.3,0,2.2-0.2,2.7-0.5
			C-59,307.3-58.6,306.5-58.6,305.5z M-50.7,315.8c0,1.5-0.5,2.9-1.6,4.1c-1,1.1-2.3,1.9-3.8,2.3c-1.2,0.3-3.3,0.5-6.2,0.5h-8.1
			v-23.6h8.4c2,0,3.4,0.1,4.3,0.2c0.8,0.1,1.7,0.3,2.4,0.7c2.1,0.9,3.1,2.5,3.1,4.6c0,1.2-0.4,2.3-1.1,3.1s-1.9,1.5-3.6,2.2
			c1,0.1,2,0.4,3,0.9C-51.7,311.7-50.7,313.4-50.7,315.8z M-57.9,315.3c0-1.4-0.6-2.3-1.7-2.8c-0.5-0.2-1.3-0.3-2.5-0.3h-1.4v6.6h1
			c1.6,0,2.7-0.3,3.3-0.8C-58.3,317.4-57.9,316.5-57.9,315.3z"/>
		<path class="st16" d="M-29.3,316.1c0,2.1-0.8,3.8-2.5,5c-1.7,1.3-3.9,1.9-6.6,1.9c-2.8,0-5.3-0.7-7.4-2.2l2.2-3.9
			c1.3,1.1,2.7,1.7,4.3,1.7c0.8,0,1.5-0.2,2.1-0.6c0.6-0.4,0.9-1,0.9-1.6c0-0.6-0.3-1.3-0.8-2c-0.4-0.4-1.2-1.3-2.6-2.5
			c-0.8-0.7-2-1.6-3.2-2.9c-1.2-1.2-1.8-2.7-1.8-4.2c0-1.9,0.8-3.4,2.3-4.5c1.5-1.1,3.5-1.7,6-1.7c2.2,0,4.3,0.5,6.2,1.6l-1.9,3.7
			c-1.2-0.6-2.3-0.9-3.2-0.9c-1.5,0-2.2,0.5-2.2,1.5c0,0.4,0.2,0.8,0.5,1.1c0.3,0.4,1,1,2,1.9c1.2,1,2.4,2.2,3.5,3.4
			C-30,312.6-29.3,314.3-29.3,316.1z"/>
		<polygon class="st16" points="-4.2,303.6 -11.1,303.6 -11.1,322.7 -18.1,322.7 -18.1,303.6 -24.9,303.6 -24.9,299.1 -4.2,299.1 		
			"/>
		<path class="st16" d="M13.5,306.3c0-1.2-0.4-2.1-1.1-2.5c-0.5-0.3-1.5-0.5-2.9-0.5H8.2v6.4h1.2c1.5,0,2.5-0.3,3.1-0.9
			C13.2,308.2,13.5,307.4,13.5,306.3z M21.4,322.3l-7.4,0.8l-3.9-9.6H8.2v9.2h-7v-23.6h9.2c1.7,0,3,0,3.7,0.1
			c1.4,0.2,2.6,0.6,3.5,1.2c1.8,1.2,2.6,3,2.6,5.4c0,2.8-1.4,5-4.3,6.5L21.4,322.3z"/>
		<path class="st16" d="M38.9,313.3l-2.4-7.4l-2.7,7.4H38.9z M49.3,322.7h-7.5L40,317h-7.3l-2.3,5.7h-5.5l9.6-23.6h6L49.3,322.7z"/>
		<path class="st16" d="M73.5,322.1c-1.9,0.7-3.9,1-5.9,1c-4.1,0-7.5-1.1-10.1-3.3s-3.9-5.2-3.9-8.8c0-3.5,1.3-6.4,3.8-8.7
			c2.6-2.3,5.8-3.4,9.8-3.4c2.1,0,4.2,0.4,6.3,1.2l-1.8,4.2c-1.3-0.3-2.4-0.5-3.3-0.5c-2.3,0-4.1,0.7-5.4,2c-1.3,1.3-2,3.1-2,5.3
			c0,2.1,0.6,3.8,1.9,5.1c1.4,1.4,3.3,2.2,5.7,2.2c1.2,0,2.4-0.2,3.6-0.5L73.5,322.1z"/>
		<polygon class="st16" points="97.9,303.6 91,303.6 91,322.7 84,322.7 84,303.6 77.2,303.6 77.2,299.1 97.9,299.1 		"/>
		<path class="st16" d="M118.1,316.1c0,2.1-0.8,3.8-2.5,5c-1.7,1.3-3.9,1.9-6.6,1.9c-2.8,0-5.3-0.7-7.4-2.2l2.2-3.9
			c1.3,1.1,2.7,1.7,4.3,1.7c0.8,0,1.5-0.2,2.1-0.6c0.6-0.4,0.9-1,0.9-1.6c0-0.6-0.3-1.3-0.8-2c-0.4-0.4-1.2-1.3-2.6-2.5
			c-0.8-0.7-2-1.6-3.2-2.9c-1.2-1.2-1.8-2.7-1.8-4.2c0-1.9,0.8-3.4,2.3-4.5c1.5-1.1,3.5-1.7,6-1.7c2.2,0,4.3,0.5,6.2,1.6l-1.9,3.7
			c-1.2-0.6-2.3-0.9-3.2-0.9c-1.5,0-2.2,0.5-2.2,1.5c0,0.4,0.2,0.8,0.5,1.1c0.3,0.4,1,1,2,1.9c1.2,1,2.4,2.2,3.5,3.4
			C117.4,312.6,118.1,314.3,118.1,316.1z"/>
	</g>
	<g>
		<path class="st17" d="M-254.9,322.1c-1.9,0.7-3.9,1-5.9,1c-4.1,0-7.5-1.1-10.1-3.3s-3.9-5.2-3.9-8.8c0-3.5,1.3-6.4,3.8-8.7
			c2.6-2.3,5.8-3.4,9.8-3.4c2.1,0,4.2,0.4,6.3,1.2l-1.8,4.2c-1.3-0.3-2.4-0.5-3.3-0.5c-2.3,0-4.1,0.7-5.4,2c-1.3,1.3-2,3.1-2,5.3
			c0,2.1,0.6,3.8,1.9,5.1c1.4,1.4,3.3,2.2,5.7,2.2c1.2,0,2.4-0.2,3.6-0.5L-254.9,322.1z"/>
		<path class="st17" d="M-237.2,313.3l-2.4-7.4l-2.7,7.4H-237.2z M-226.7,322.7h-7.5l-1.9-5.7h-7.3l-2.3,5.7h-5.5l9.6-23.6h6
			L-226.7,322.7z"/>
		<polygon class="st17" points="-205.7,322.7 -221.4,322.7 -221.4,299.1 -214.4,299.1 -214.4,318.2 -205.7,318.2 		"/>
		<polygon class="st17" points="-184.6,322.7 -200.3,322.7 -200.3,299.1 -193.3,299.1 -193.3,318.2 -184.6,318.2 		"/>
		<path class="st17" d="M-155.6,298.8l-0.9,3.3c-0.8-0.3-1.5-0.4-2.2-0.4c-1.5,0-2.3,0.8-2.3,2.5v1.8h4.1v3.1h-4.1v13.7h-6.7V309
			h-2.7v-3.1h2.7v-1.6c0-2,0.7-3.6,2.1-4.7c1.3-1.1,3.1-1.6,5.3-1.6C-158.7,298-157.2,298.2-155.6,298.8z"/>
		<path class="st17" d="M-141.2,314.2c0-3.9-0.9-5.8-2.8-5.8c-0.9,0-1.5,0.5-2,1.6c-0.5,1-0.8,2.4-0.8,4.2c0,1.8,0.3,3.2,0.8,4.3
			c0.5,1.1,1.2,1.6,2,1.6c0.9,0,1.6-0.5,2.1-1.5C-141.5,317.5-141.2,316.1-141.2,314.2z M-134.3,314.1c0,2.6-0.9,4.8-2.7,6.4
			c-1.8,1.7-4.1,2.5-6.9,2.5c-2.8,0-5.1-0.8-6.9-2.5c-1.8-1.7-2.7-3.8-2.7-6.4c0-2.5,0.9-4.6,2.7-6.2c1.8-1.6,4.2-2.4,7-2.4
			c2.7,0,5,0.8,6.8,2.5S-134.3,311.6-134.3,314.1z"/>
		<path class="st17" d="M-114.2,306.8l-1.9,5c-0.6-0.3-1.3-0.4-2.1-0.4c-1.6,0-2.7,0.8-3.2,2.3c-0.2,0.6-0.3,1.6-0.3,3.2v5.9h-6.7
			v-16.8h6.7v3.9l0.5-1.1c1-2.2,2.2-3.2,3.6-3.2C-116.6,305.4-115.5,305.9-114.2,306.8z"/>
		<path class="st17" d="M-86.1,313.3l-2.4-7.4l-2.7,7.4H-86.1z M-75.6,322.7h-7.5L-85,317h-7.3l-2.3,5.7h-5.5l9.6-23.6h6
			L-75.6,322.7z"/>
		<path class="st17" d="M-58.4,305.5c0-1.2-0.5-1.9-1.5-2.3c-0.4-0.2-1.2-0.2-2.2-0.2h-1.1v5.5h0.9c1.3,0,2.2-0.2,2.7-0.5
			C-58.8,307.3-58.4,306.5-58.4,305.5z M-50.6,315.8c0,1.5-0.5,2.9-1.6,4.1c-1,1.1-2.3,1.9-3.8,2.3c-1.2,0.3-3.3,0.5-6.2,0.5h-8.1
			v-23.6h8.4c2,0,3.4,0.1,4.3,0.2c0.8,0.1,1.7,0.3,2.4,0.7c2.1,0.9,3.1,2.5,3.1,4.6c0,1.2-0.4,2.3-1.1,3.1s-1.9,1.5-3.6,2.2
			c1,0.1,2,0.4,3,0.9C-51.6,311.7-50.6,313.4-50.6,315.8z M-57.8,315.3c0-1.4-0.6-2.3-1.7-2.8c-0.5-0.2-1.3-0.3-2.5-0.3h-1.4v6.6h1
			c1.6,0,2.7-0.3,3.3-0.8C-58.1,317.4-57.8,316.5-57.8,315.3z"/>
		<path class="st17" d="M-29.2,316.1c0,2.1-0.8,3.8-2.5,5c-1.7,1.3-3.9,1.9-6.6,1.9c-2.8,0-5.3-0.7-7.4-2.2l2.2-3.9
			c1.3,1.1,2.7,1.7,4.3,1.7c0.8,0,1.5-0.2,2.1-0.6c0.6-0.4,0.9-1,0.9-1.6c0-0.6-0.3-1.3-0.8-2c-0.4-0.4-1.2-1.3-2.6-2.5
			c-0.8-0.7-2-1.6-3.2-2.9c-1.2-1.2-1.8-2.7-1.8-4.2c0-1.9,0.8-3.4,2.3-4.5c1.5-1.1,3.5-1.7,6-1.7c2.2,0,4.3,0.5,6.2,1.6L-32,304
			c-1.2-0.6-2.3-0.9-3.2-0.9c-1.5,0-2.2,0.5-2.2,1.5c0,0.4,0.2,0.8,0.5,1.1c0.3,0.4,1,1,2,1.9c1.2,1,2.4,2.2,3.5,3.4
			C-29.9,312.6-29.2,314.3-29.2,316.1z"/>
		<polygon class="st17" points="-4,303.6 -10.9,303.6 -10.9,322.7 -18,322.7 -18,303.6 -24.7,303.6 -24.7,299.1 -4,299.1 		"/>
		<path class="st17" d="M13.6,306.3c0-1.2-0.4-2.1-1.1-2.5c-0.5-0.3-1.5-0.5-2.9-0.5H8.3v6.4h1.2c1.5,0,2.5-0.3,3.1-0.9
			C13.3,308.2,13.6,307.4,13.6,306.3z M21.5,322.3l-7.4,0.8l-3.9-9.6H8.3v9.2h-7v-23.6h9.2c1.7,0,3,0,3.7,0.1
			c1.4,0.2,2.6,0.6,3.5,1.2c1.8,1.2,2.6,3,2.6,5.4c0,2.8-1.4,5-4.3,6.5L21.5,322.3z"/>
		<path class="st17" d="M39,313.3l-2.4-7.4l-2.7,7.4H39z M49.5,322.7H42l-1.9-5.7h-7.3l-2.3,5.7H25l9.6-23.6h6L49.5,322.7z"/>
		<path class="st17" d="M73.7,322.1c-1.9,0.7-3.9,1-5.9,1c-4.1,0-7.5-1.1-10.1-3.3s-3.9-5.2-3.9-8.8c0-3.5,1.3-6.4,3.8-8.7
			c2.6-2.3,5.8-3.4,9.8-3.4c2.1,0,4.2,0.4,6.3,1.2l-1.8,4.2c-1.3-0.3-2.4-0.5-3.3-0.5c-2.3,0-4.1,0.7-5.4,2c-1.3,1.3-2,3.1-2,5.3
			c0,2.1,0.6,3.8,1.9,5.1c1.4,1.4,3.3,2.2,5.7,2.2c1.2,0,2.4-0.2,3.6-0.5L73.7,322.1z"/>
		<polygon class="st17" points="98.1,303.6 91.2,303.6 91.2,322.7 84.1,322.7 84.1,303.6 77.4,303.6 77.4,299.1 98.1,299.1 		"/>
		<path class="st17" d="M118.3,316.1c0,2.1-0.8,3.8-2.5,5c-1.7,1.3-3.9,1.9-6.6,1.9c-2.8,0-5.3-0.7-7.4-2.2l2.2-3.9
			c1.3,1.1,2.7,1.7,4.3,1.7c0.8,0,1.5-0.2,2.1-0.6c0.6-0.4,0.9-1,0.9-1.6c0-0.6-0.3-1.3-0.8-2c-0.4-0.4-1.2-1.3-2.6-2.5
			c-0.8-0.7-2-1.6-3.2-2.9c-1.2-1.2-1.8-2.7-1.8-4.2c0-1.9,0.8-3.4,2.3-4.5c1.5-1.1,3.5-1.7,6-1.7c2.2,0,4.3,0.5,6.2,1.6l-1.9,3.7
			c-1.2-0.6-2.3-0.9-3.2-0.9c-1.5,0-2.2,0.5-2.2,1.5c0,0.4,0.2,0.8,0.5,1.1c0.3,0.4,1,1,2,1.9c1.2,1,2.4,2.2,3.5,3.4
			C117.5,312.6,118.3,314.3,118.3,316.1z"/>
	</g>
	<g>
		<path class="st18" d="M-254.7,322.1c-1.9,0.7-3.9,1-5.9,1c-4.1,0-7.5-1.1-10.1-3.3s-3.9-5.2-3.9-8.8c0-3.5,1.3-6.4,3.8-8.7
			c2.6-2.3,5.8-3.4,9.8-3.4c2.1,0,4.2,0.4,6.3,1.2l-1.8,4.2c-1.3-0.3-2.4-0.5-3.3-0.5c-2.3,0-4.1,0.7-5.4,2c-1.3,1.3-2,3.1-2,5.3
			c0,2.1,0.6,3.8,1.9,5.1c1.4,1.4,3.3,2.2,5.7,2.2c1.2,0,2.4-0.2,3.6-0.5L-254.7,322.1z"/>
		<path class="st18" d="M-237.1,313.3l-2.4-7.4l-2.7,7.4H-237.1z M-226.6,322.7h-7.5l-1.9-5.7h-7.3l-2.3,5.7h-5.5l9.6-23.6h6
			L-226.6,322.7z"/>
		<polygon class="st18" points="-205.5,322.7 -221.3,322.7 -221.3,299.1 -214.2,299.1 -214.2,318.2 -205.5,318.2 		"/>
		<polygon class="st18" points="-184.4,322.7 -200.2,322.7 -200.2,299.1 -193.1,299.1 -193.1,318.2 -184.4,318.2 		"/>
		<path class="st18" d="M-155.5,298.8l-0.9,3.3c-0.8-0.3-1.5-0.4-2.2-0.4c-1.5,0-2.3,0.8-2.3,2.5v1.8h4.1v3.1h-4.1v13.7h-6.7V309
			h-2.7v-3.1h2.7v-1.6c0-2,0.7-3.6,2.1-4.7c1.3-1.1,3.1-1.6,5.3-1.6C-158.6,298-157,298.2-155.5,298.8z"/>
		<path class="st18" d="M-141.1,314.2c0-3.9-0.9-5.8-2.8-5.8c-0.9,0-1.5,0.5-2,1.6c-0.5,1-0.8,2.4-0.8,4.2c0,1.8,0.3,3.2,0.8,4.3
			c0.5,1.1,1.2,1.6,2,1.6c0.9,0,1.6-0.5,2.1-1.5C-141.3,317.5-141.1,316.1-141.1,314.2z M-134.2,314.1c0,2.6-0.9,4.8-2.7,6.4
			c-1.8,1.7-4.1,2.5-6.9,2.5c-2.8,0-5.1-0.8-6.9-2.5c-1.8-1.7-2.7-3.8-2.7-6.4c0-2.5,0.9-4.6,2.7-6.2c1.8-1.6,4.2-2.4,7-2.4
			c2.7,0,5,0.8,6.8,2.5S-134.2,311.6-134.2,314.1z"/>
		<path class="st18" d="M-114.1,306.8l-1.9,5c-0.6-0.3-1.3-0.4-2.1-0.4c-1.6,0-2.7,0.8-3.2,2.3c-0.2,0.6-0.3,1.6-0.3,3.2v5.9h-6.7
			v-16.8h6.7v3.9l0.5-1.1c1-2.2,2.2-3.2,3.6-3.2C-116.4,305.4-115.3,305.9-114.1,306.8z"/>
		<path class="st18" d="M-85.9,313.3l-2.4-7.4l-2.7,7.4H-85.9z M-75.5,322.7H-83l-1.9-5.7h-7.3l-2.3,5.7h-5.5l9.6-23.6h6
			L-75.5,322.7z"/>
		<path class="st18" d="M-58.3,305.5c0-1.2-0.5-1.9-1.5-2.3c-0.4-0.2-1.2-0.2-2.2-0.2h-1.1v5.5h0.9c1.3,0,2.2-0.2,2.7-0.5
			C-58.7,307.3-58.3,306.5-58.3,305.5z M-50.4,315.8c0,1.5-0.5,2.9-1.6,4.1c-1,1.1-2.3,1.9-3.8,2.3c-1.2,0.3-3.3,0.5-6.2,0.5h-8.1
			v-23.6h8.4c2,0,3.4,0.1,4.3,0.2c0.8,0.1,1.7,0.3,2.4,0.7c2.1,0.9,3.1,2.5,3.1,4.6c0,1.2-0.4,2.3-1.1,3.1s-1.9,1.5-3.6,2.2
			c1,0.1,2,0.4,3,0.9C-51.5,311.7-50.4,313.4-50.4,315.8z M-57.6,315.3c0-1.4-0.6-2.3-1.7-2.8c-0.5-0.2-1.3-0.3-2.5-0.3h-1.4v6.6h1
			c1.6,0,2.7-0.3,3.3-0.8C-58,317.4-57.6,316.5-57.6,315.3z"/>
		<path class="st18" d="M-29,316.1c0,2.1-0.8,3.8-2.5,5c-1.7,1.3-3.9,1.9-6.6,1.9c-2.8,0-5.3-0.7-7.4-2.2l2.2-3.9
			c1.3,1.1,2.7,1.7,4.3,1.7c0.8,0,1.5-0.2,2.1-0.6c0.6-0.4,0.9-1,0.9-1.6c0-0.6-0.3-1.3-0.8-2c-0.4-0.4-1.2-1.3-2.6-2.5
			c-0.8-0.7-2-1.6-3.2-2.9c-1.2-1.2-1.8-2.7-1.8-4.2c0-1.9,0.8-3.4,2.3-4.5c1.5-1.1,3.5-1.7,6-1.7c2.2,0,4.3,0.5,6.2,1.6l-1.9,3.7
			c-1.2-0.6-2.3-0.9-3.2-0.9c-1.5,0-2.2,0.5-2.2,1.5c0,0.4,0.2,0.8,0.5,1.1c0.3,0.4,1,1,2,1.9c1.2,1,2.4,2.2,3.5,3.4
			C-29.8,312.6-29,314.3-29,316.1z"/>
		<polygon class="st18" points="-3.9,303.6 -10.8,303.6 -10.8,322.7 -17.8,322.7 -17.8,303.6 -24.6,303.6 -24.6,299.1 -3.9,299.1 		
			"/>
		<path class="st18" d="M13.8,306.3c0-1.2-0.4-2.1-1.1-2.5c-0.5-0.3-1.5-0.5-2.9-0.5H8.5v6.4h1.2c1.5,0,2.5-0.3,3.1-0.9
			C13.5,308.2,13.8,307.4,13.8,306.3z M21.7,322.3l-7.4,0.8l-3.9-9.6H8.5v9.2h-7v-23.6h9.2c1.7,0,3,0,3.7,0.1
			c1.4,0.2,2.6,0.6,3.5,1.2c1.8,1.2,2.6,3,2.6,5.4c0,2.8-1.4,5-4.3,6.5L21.7,322.3z"/>
		<path class="st18" d="M39.1,313.3l-2.4-7.4l-2.7,7.4H39.1z M49.6,322.7h-7.5l-1.9-5.7h-7.3l-2.3,5.7h-5.5l9.6-23.6h6L49.6,322.7z"
			/>
		<path class="st18" d="M73.8,322.1c-1.9,0.7-3.9,1-5.9,1c-4.1,0-7.5-1.1-10.1-3.3s-3.9-5.2-3.9-8.8c0-3.5,1.3-6.4,3.8-8.7
			c2.6-2.3,5.8-3.4,9.8-3.4c2.1,0,4.2,0.4,6.3,1.2l-1.8,4.2c-1.3-0.3-2.4-0.5-3.3-0.5c-2.3,0-4.1,0.7-5.4,2c-1.3,1.3-2,3.1-2,5.3
			c0,2.1,0.6,3.8,1.9,5.1c1.4,1.4,3.3,2.2,5.7,2.2c1.2,0,2.4-0.2,3.6-0.5L73.8,322.1z"/>
		<polygon class="st18" points="98.2,303.6 91.3,303.6 91.3,322.7 84.3,322.7 84.3,303.6 77.5,303.6 77.5,299.1 98.2,299.1 		"/>
		<path class="st18" d="M118.4,316.1c0,2.1-0.8,3.8-2.5,5c-1.7,1.3-3.9,1.9-6.6,1.9c-2.8,0-5.3-0.7-7.4-2.2l2.2-3.9
			c1.3,1.1,2.7,1.7,4.3,1.7c0.8,0,1.5-0.2,2.1-0.6c0.6-0.4,0.9-1,0.9-1.6c0-0.6-0.3-1.3-0.8-2c-0.4-0.4-1.2-1.3-2.6-2.5
			c-0.8-0.7-2-1.6-3.2-2.9c-1.2-1.2-1.8-2.7-1.8-4.2c0-1.9,0.8-3.4,2.3-4.5c1.5-1.1,3.5-1.7,6-1.7c2.2,0,4.3,0.5,6.2,1.6l-1.9,3.7
			c-1.2-0.6-2.3-0.9-3.2-0.9c-1.5,0-2.2,0.5-2.2,1.5c0,0.4,0.2,0.8,0.5,1.1c0.3,0.4,1,1,2,1.9c1.2,1,2.4,2.2,3.5,3.4
			C117.7,312.6,118.4,314.3,118.4,316.1z"/>
	</g>
	<g>
		<path class="st19" d="M-254.6,322.1c-1.9,0.7-3.9,1-5.9,1c-4.1,0-7.5-1.1-10.1-3.3s-3.9-5.2-3.9-8.8c0-3.5,1.3-6.4,3.8-8.7
			c2.6-2.3,5.8-3.4,9.8-3.4c2.1,0,4.2,0.4,6.3,1.2l-1.8,4.2c-1.3-0.3-2.4-0.5-3.3-0.5c-2.3,0-4.1,0.7-5.4,2c-1.3,1.3-2,3.1-2,5.3
			c0,2.1,0.6,3.8,1.9,5.1c1.4,1.4,3.3,2.2,5.7,2.2c1.2,0,2.4-0.2,3.6-0.5L-254.6,322.1z"/>
		<path class="st19" d="M-236.9,313.3l-2.4-7.4l-2.7,7.4H-236.9z M-226.5,322.7h-7.5l-1.9-5.7h-7.3l-2.3,5.7h-5.5l9.6-23.6h6
			L-226.5,322.7z"/>
		<polygon class="st19" points="-205.4,322.7 -221.1,322.7 -221.1,299.1 -214.1,299.1 -214.1,318.2 -205.4,318.2 		"/>
		<polygon class="st19" points="-184.3,322.7 -200,322.7 -200,299.1 -193,299.1 -193,318.2 -184.3,318.2 		"/>
		<path class="st19" d="M-155.3,298.8l-0.9,3.3c-0.8-0.3-1.5-0.4-2.2-0.4c-1.5,0-2.3,0.8-2.3,2.5v1.8h4.1v3.1h-4.1v13.7h-6.7V309
			h-2.7v-3.1h2.7v-1.6c0-2,0.7-3.6,2.1-4.7c1.3-1.1,3.1-1.6,5.3-1.6C-158.4,298-156.9,298.2-155.3,298.8z"/>
		<path class="st19" d="M-140.9,314.2c0-3.9-0.9-5.8-2.8-5.8c-0.9,0-1.5,0.5-2,1.6c-0.5,1-0.8,2.4-0.8,4.2c0,1.8,0.3,3.2,0.8,4.3
			c0.5,1.1,1.2,1.6,2,1.6c0.9,0,1.6-0.5,2.1-1.5C-141.2,317.5-140.9,316.1-140.9,314.2z M-134.1,314.1c0,2.6-0.9,4.8-2.7,6.4
			c-1.8,1.7-4.1,2.5-6.9,2.5c-2.8,0-5.1-0.8-6.9-2.5c-1.8-1.7-2.7-3.8-2.7-6.4c0-2.5,0.9-4.6,2.7-6.2c1.8-1.6,4.2-2.4,7-2.4
			c2.7,0,5,0.8,6.8,2.5S-134.1,311.6-134.1,314.1z"/>
		<path class="st19" d="M-113.9,306.8l-1.9,5c-0.6-0.3-1.3-0.4-2.1-0.4c-1.6,0-2.7,0.8-3.2,2.3c-0.2,0.6-0.3,1.6-0.3,3.2v5.9h-6.7
			v-16.8h6.7v3.9l0.5-1.1c1-2.2,2.2-3.2,3.6-3.2C-116.3,305.4-115.2,305.9-113.9,306.8z"/>
		<path class="st19" d="M-85.8,313.3l-2.4-7.4l-2.7,7.4H-85.8z M-75.3,322.7h-7.5l-1.9-5.7H-92l-2.3,5.7h-5.5l9.6-23.6h6
			L-75.3,322.7z"/>
		<path class="st19" d="M-58.1,305.5c0-1.2-0.5-1.9-1.5-2.3c-0.4-0.2-1.2-0.2-2.2-0.2H-63v5.5h0.9c1.3,0,2.2-0.2,2.7-0.5
			C-58.6,307.3-58.1,306.5-58.1,305.5z M-50.3,315.8c0,1.5-0.5,2.9-1.6,4.1c-1,1.1-2.3,1.9-3.8,2.3c-1.2,0.3-3.3,0.5-6.2,0.5H-70
			v-23.6h8.4c2,0,3.4,0.1,4.3,0.2c0.8,0.1,1.7,0.3,2.4,0.7c2.1,0.9,3.1,2.5,3.1,4.6c0,1.2-0.4,2.3-1.1,3.1s-1.9,1.5-3.6,2.2
			c1,0.1,2,0.4,3,0.9C-51.3,311.7-50.3,313.4-50.3,315.8z M-57.5,315.3c0-1.4-0.6-2.3-1.7-2.8c-0.5-0.2-1.3-0.3-2.5-0.3H-63v6.6h1
			c1.6,0,2.7-0.3,3.3-0.8C-57.9,317.4-57.5,316.5-57.5,315.3z"/>
		<path class="st19" d="M-28.9,316.1c0,2.1-0.8,3.8-2.5,5c-1.7,1.3-3.9,1.9-6.6,1.9c-2.8,0-5.3-0.7-7.4-2.2l2.2-3.9
			c1.3,1.1,2.7,1.7,4.3,1.7c0.8,0,1.5-0.2,2.1-0.6c0.6-0.4,0.9-1,0.9-1.6c0-0.6-0.3-1.3-0.8-2c-0.4-0.4-1.2-1.3-2.6-2.5
			c-0.8-0.7-2-1.6-3.2-2.9c-1.2-1.2-1.8-2.7-1.8-4.2c0-1.9,0.8-3.4,2.3-4.5c1.5-1.1,3.5-1.7,6-1.7c2.2,0,4.3,0.5,6.2,1.6l-1.9,3.7
			c-1.2-0.6-2.3-0.9-3.2-0.9c-1.5,0-2.2,0.5-2.2,1.5c0,0.4,0.2,0.8,0.5,1.1c0.3,0.4,1,1,2,1.9c1.2,1,2.4,2.2,3.5,3.4
			C-29.6,312.6-28.9,314.3-28.9,316.1z"/>
		<polygon class="st19" points="-3.8,303.6 -10.7,303.6 -10.7,322.7 -17.7,322.7 -17.7,303.6 -24.5,303.6 -24.5,299.1 -3.8,299.1 		
			"/>
		<path class="st19" d="M13.9,306.3c0-1.2-0.4-2.1-1.1-2.5c-0.5-0.3-1.5-0.5-2.9-0.5H8.6v6.4h1.2c1.5,0,2.5-0.3,3.1-0.9
			C13.6,308.2,13.9,307.4,13.9,306.3z M21.8,322.3l-7.4,0.8l-3.9-9.6H8.6v9.2h-7v-23.6h9.2c1.7,0,3,0,3.7,0.1
			c1.4,0.2,2.6,0.6,3.5,1.2c1.8,1.2,2.6,3,2.6,5.4c0,2.8-1.4,5-4.3,6.5L21.8,322.3z"/>
		<path class="st19" d="M39.3,313.3l-2.4-7.4l-2.7,7.4H39.3z M49.7,322.7h-7.5l-1.9-5.7h-7.3l-2.3,5.7h-5.5l9.6-23.6h6L49.7,322.7z"
			/>
		<path class="st19" d="M74,322.1c-1.9,0.7-3.9,1-5.9,1c-4.1,0-7.5-1.1-10.1-3.3s-3.9-5.2-3.9-8.8c0-3.5,1.3-6.4,3.8-8.7
			c2.6-2.3,5.8-3.4,9.8-3.4c2.1,0,4.2,0.4,6.3,1.2l-1.8,4.2c-1.3-0.3-2.4-0.5-3.3-0.5c-2.3,0-4.1,0.7-5.4,2c-1.3,1.3-2,3.1-2,5.3
			c0,2.1,0.6,3.8,1.9,5.1c1.4,1.4,3.3,2.2,5.7,2.2c1.2,0,2.4-0.2,3.6-0.5L74,322.1z"/>
		<polygon class="st19" points="98.3,303.6 91.4,303.6 91.4,322.7 84.4,322.7 84.4,303.6 77.6,303.6 77.6,299.1 98.3,299.1 		"/>
		<path class="st19" d="M118.6,316.1c0,2.1-0.8,3.8-2.5,5c-1.7,1.3-3.9,1.9-6.6,1.9c-2.8,0-5.3-0.7-7.4-2.2l2.2-3.9
			c1.3,1.1,2.7,1.7,4.3,1.7c0.8,0,1.5-0.2,2.1-0.6c0.6-0.4,0.9-1,0.9-1.6c0-0.6-0.3-1.3-0.8-2c-0.4-0.4-1.2-1.3-2.6-2.5
			c-0.8-0.7-2-1.6-3.2-2.9c-1.2-1.2-1.8-2.7-1.8-4.2c0-1.9,0.8-3.4,2.3-4.5c1.5-1.1,3.5-1.7,6-1.7c2.2,0,4.3,0.5,6.2,1.6l-1.9,3.7
			c-1.2-0.6-2.3-0.9-3.2-0.9c-1.5,0-2.2,0.5-2.2,1.5c0,0.4,0.2,0.8,0.5,1.1c0.3,0.4,1,1,2,1.9c1.2,1,2.4,2.2,3.5,3.4
			C117.8,312.6,118.6,314.3,118.6,316.1z"/>
	</g>
	<g>
		<path class="st20" d="M-254.5,322.1c-1.9,0.7-3.9,1-5.9,1c-4.1,0-7.5-1.1-10.1-3.3s-3.9-5.2-3.9-8.8c0-3.5,1.3-6.4,3.8-8.7
			c2.6-2.3,5.8-3.4,9.8-3.4c2.1,0,4.2,0.4,6.3,1.2l-1.8,4.2c-1.3-0.3-2.4-0.5-3.3-0.5c-2.3,0-4.1,0.7-5.4,2c-1.3,1.3-2,3.1-2,5.3
			c0,2.1,0.6,3.8,1.9,5.1c1.4,1.4,3.3,2.2,5.7,2.2c1.2,0,2.4-0.2,3.6-0.5L-254.5,322.1z"/>
		<path class="st20" d="M-236.8,313.3l-2.4-7.4l-2.7,7.4H-236.8z M-226.3,322.7h-7.5l-1.9-5.7h-7.3l-2.3,5.7h-5.5l9.6-23.6h6
			L-226.3,322.7z"/>
		<polygon class="st20" points="-205.3,322.7 -221,322.7 -221,299.1 -213.9,299.1 -213.9,318.2 -205.3,318.2 		"/>
		<polygon class="st20" points="-184.2,322.7 -199.9,322.7 -199.9,299.1 -192.9,299.1 -192.9,318.2 -184.2,318.2 		"/>
		<path class="st20" d="M-155.2,298.8l-0.9,3.3c-0.8-0.3-1.5-0.4-2.2-0.4c-1.5,0-2.3,0.8-2.3,2.5v1.8h4.1v3.1h-4.1v13.7h-6.7V309
			h-2.7v-3.1h2.7v-1.6c0-2,0.7-3.6,2.1-4.7c1.3-1.1,3.1-1.6,5.3-1.6C-158.3,298-156.7,298.2-155.2,298.8z"/>
		<path class="st20" d="M-140.8,314.2c0-3.9-0.9-5.8-2.8-5.8c-0.9,0-1.5,0.5-2,1.6c-0.5,1-0.8,2.4-0.8,4.2c0,1.8,0.3,3.2,0.8,4.3
			c0.5,1.1,1.2,1.6,2,1.6c0.9,0,1.6-0.5,2.1-1.5C-141,317.5-140.8,316.1-140.8,314.2z M-133.9,314.1c0,2.6-0.9,4.8-2.7,6.4
			c-1.8,1.7-4.1,2.5-6.9,2.5c-2.8,0-5.1-0.8-6.9-2.5c-1.8-1.7-2.7-3.8-2.7-6.4c0-2.5,0.9-4.6,2.7-6.2c1.8-1.6,4.2-2.4,7-2.4
			c2.7,0,5,0.8,6.8,2.5S-133.9,311.6-133.9,314.1z"/>
		<path class="st20" d="M-113.8,306.8l-1.9,5c-0.6-0.3-1.3-0.4-2.1-0.4c-1.6,0-2.7,0.8-3.2,2.3c-0.2,0.6-0.3,1.6-0.3,3.2v5.9h-6.7
			v-16.8h6.7v3.9l0.5-1.1c1-2.2,2.2-3.2,3.6-3.2C-116.2,305.4-115,305.9-113.8,306.8z"/>
		<path class="st20" d="M-85.7,313.3l-2.4-7.4l-2.7,7.4H-85.7z M-75.2,322.7h-7.5l-1.9-5.7h-7.3l-2.3,5.7h-5.5l9.6-23.6h6
			L-75.2,322.7z"/>
		<path class="st20" d="M-58,305.5c0-1.2-0.5-1.9-1.5-2.3c-0.4-0.2-1.2-0.2-2.2-0.2h-1.1v5.5h0.9c1.3,0,2.2-0.2,2.7-0.5
			C-58.4,307.3-58,306.5-58,305.5z M-50.1,315.8c0,1.5-0.5,2.9-1.6,4.1c-1,1.1-2.3,1.9-3.8,2.3c-1.2,0.3-3.3,0.5-6.2,0.5h-8.1v-23.6
			h8.4c2,0,3.4,0.1,4.3,0.2c0.8,0.1,1.7,0.3,2.4,0.7c2.1,0.9,3.1,2.5,3.1,4.6c0,1.2-0.4,2.3-1.1,3.1s-1.9,1.5-3.6,2.2
			c1,0.1,2,0.4,3,0.9C-51.2,311.7-50.1,313.4-50.1,315.8z M-57.3,315.3c0-1.4-0.6-2.3-1.7-2.8c-0.5-0.2-1.3-0.3-2.5-0.3h-1.4v6.6h1
			c1.6,0,2.7-0.3,3.3-0.8C-57.7,317.4-57.3,316.5-57.3,315.3z"/>
		<path class="st20" d="M-28.7,316.1c0,2.1-0.8,3.8-2.5,5c-1.7,1.3-3.9,1.9-6.6,1.9c-2.8,0-5.3-0.7-7.4-2.2l2.2-3.9
			c1.3,1.1,2.7,1.7,4.3,1.7c0.8,0,1.5-0.2,2.1-0.6c0.6-0.4,0.9-1,0.9-1.6c0-0.6-0.3-1.3-0.8-2c-0.4-0.4-1.2-1.3-2.6-2.5
			c-0.8-0.7-2-1.6-3.2-2.9c-1.2-1.2-1.8-2.7-1.8-4.2c0-1.9,0.8-3.4,2.3-4.5c1.5-1.1,3.5-1.7,6-1.7c2.2,0,4.3,0.5,6.2,1.6l-1.9,3.7
			c-1.2-0.6-2.3-0.9-3.2-0.9c-1.5,0-2.2,0.5-2.2,1.5c0,0.4,0.2,0.8,0.5,1.1c0.3,0.4,1,1,2,1.9c1.2,1,2.4,2.2,3.5,3.4
			C-29.5,312.6-28.7,314.3-28.7,316.1z"/>
		<polygon class="st20" points="-3.6,303.6 -10.5,303.6 -10.5,322.7 -17.6,322.7 -17.6,303.6 -24.3,303.6 -24.3,299.1 -3.6,299.1 		
			"/>
		<path class="st20" d="M14,306.3c0-1.2-0.4-2.1-1.1-2.5c-0.5-0.3-1.5-0.5-2.9-0.5H8.8v6.4H10c1.5,0,2.5-0.3,3.1-0.9
			C13.7,308.2,14,307.4,14,306.3z M21.9,322.3l-7.4,0.8l-3.9-9.6H8.8v9.2h-7v-23.6h9.2c1.7,0,3,0,3.7,0.1c1.4,0.2,2.6,0.6,3.5,1.2
			c1.8,1.2,2.6,3,2.6,5.4c0,2.8-1.4,5-4.3,6.5L21.9,322.3z"/>
		<path class="st20" d="M39.4,313.3l-2.4-7.4l-2.7,7.4H39.4z M49.9,322.7h-7.5l-1.9-5.7h-7.3l-2.3,5.7h-5.5l9.6-23.6h6L49.9,322.7z"
			/>
		<path class="st20" d="M74.1,322.1c-1.9,0.7-3.9,1-5.9,1c-4.1,0-7.5-1.1-10.1-3.3s-3.9-5.2-3.9-8.8c0-3.5,1.3-6.4,3.8-8.7
			c2.6-2.3,5.8-3.4,9.8-3.4c2.1,0,4.2,0.4,6.3,1.2l-1.8,4.2c-1.3-0.3-2.4-0.5-3.3-0.5c-2.3,0-4.1,0.7-5.4,2c-1.3,1.3-2,3.1-2,5.3
			c0,2.1,0.6,3.8,1.9,5.1c1.4,1.4,3.3,2.2,5.7,2.2c1.2,0,2.4-0.2,3.6-0.5L74.1,322.1z"/>
		<polygon class="st20" points="98.5,303.6 91.6,303.6 91.6,322.7 84.5,322.7 84.5,303.6 77.8,303.6 77.8,299.1 98.5,299.1 		"/>
		<path class="st20" d="M118.7,316.1c0,2.1-0.8,3.8-2.5,5c-1.7,1.3-3.9,1.9-6.6,1.9c-2.8,0-5.3-0.7-7.4-2.2l2.2-3.9
			c1.3,1.1,2.7,1.7,4.3,1.7c0.8,0,1.5-0.2,2.1-0.6c0.6-0.4,0.9-1,0.9-1.6c0-0.6-0.3-1.3-0.8-2c-0.4-0.4-1.2-1.3-2.6-2.5
			c-0.8-0.7-2-1.6-3.2-2.9c-1.2-1.2-1.8-2.7-1.8-4.2c0-1.9,0.8-3.4,2.3-4.5c1.5-1.1,3.5-1.7,6-1.7c2.2,0,4.3,0.5,6.2,1.6l-1.9,3.7
			c-1.2-0.6-2.3-0.9-3.2-0.9c-1.5,0-2.2,0.5-2.2,1.5c0,0.4,0.2,0.8,0.5,1.1c0.3,0.4,1,1,2,1.9c1.2,1,2.4,2.2,3.5,3.4
			C117.9,312.6,118.7,314.3,118.7,316.1z"/>
	</g>
	<g>
		<path class="st21" d="M-254.3,322.1c-1.9,0.7-3.9,1-5.9,1c-4.1,0-7.5-1.1-10.1-3.3s-3.9-5.2-3.9-8.8c0-3.5,1.3-6.4,3.8-8.7
			c2.6-2.3,5.8-3.4,9.8-3.4c2.1,0,4.2,0.4,6.3,1.2l-1.8,4.2c-1.3-0.3-2.4-0.5-3.3-0.5c-2.3,0-4.1,0.7-5.4,2c-1.3,1.3-2,3.1-2,5.3
			c0,2.1,0.6,3.8,1.9,5.1c1.3,1.4,3.3,2.2,5.7,2.2c1.2,0,2.4-0.2,3.6-0.5L-254.3,322.1z"/>
		<path class="st21" d="M-236.7,313.3l-2.4-7.4l-2.7,7.4H-236.7z M-226.2,322.7h-7.5l-1.9-5.7h-7.3l-2.3,5.7h-5.5l9.6-23.6h6
			L-226.2,322.7z"/>
		<path class="st21" d="M-205.1,322.7h-15.7v-23.6h7v19.1h8.7V322.7z"/>
		<path class="st21" d="M-184,322.7h-15.7v-23.6h7v19.1h8.7V322.7z"/>
		<path class="st21" d="M-155.1,298.8l-0.9,3.3c-0.8-0.3-1.5-0.4-2.2-0.4c-1.5,0-2.3,0.8-2.3,2.5v1.8h4.1v3.1h-4.1v13.7h-6.7V309
			h-2.7v-3.1h2.7v-1.6c0-2,0.7-3.6,2.1-4.7c1.3-1.1,3.1-1.6,5.3-1.6C-158.1,298-156.6,298.2-155.1,298.8z"/>
		<path class="st21" d="M-140.7,314.2c0-3.9-0.9-5.8-2.8-5.8c-0.9,0-1.5,0.5-2,1.6c-0.5,1-0.8,2.4-0.8,4.2c0,1.8,0.3,3.2,0.8,4.3
			c0.5,1.1,1.2,1.6,2,1.6c0.9,0,1.6-0.5,2.1-1.5C-140.9,317.5-140.7,316.1-140.7,314.2z M-133.8,314.1c0,2.6-0.9,4.8-2.7,6.4
			c-1.8,1.7-4.1,2.5-6.9,2.5c-2.8,0-5.1-0.8-6.9-2.5c-1.8-1.7-2.7-3.8-2.7-6.4c0-2.5,0.9-4.6,2.7-6.2c1.8-1.6,4.2-2.4,7-2.4
			c2.7,0,5,0.8,6.8,2.5S-133.8,311.6-133.8,314.1z"/>
		<path class="st21" d="M-113.7,306.8l-1.9,5c-0.6-0.3-1.3-0.4-2.1-0.4c-1.6,0-2.7,0.8-3.2,2.3c-0.2,0.6-0.3,1.6-0.3,3.2v5.9h-6.7
			v-16.8h6.7v3.9l0.5-1.1c1-2.2,2.2-3.2,3.6-3.2C-116,305.4-114.9,305.9-113.7,306.8z"/>
		<path class="st21" d="M-85.5,313.3l-2.4-7.4l-2.7,7.4H-85.5z M-75.1,322.7h-7.5l-1.9-5.7h-7.3l-2.3,5.7h-5.5l9.6-23.6h6
			L-75.1,322.7z"/>
		<path class="st21" d="M-57.9,305.5c0-1.2-0.5-1.9-1.5-2.3c-0.4-0.2-1.2-0.2-2.2-0.2h-1.1v5.5h0.9c1.3,0,2.2-0.2,2.7-0.5
			C-58.3,307.3-57.9,306.5-57.9,305.5z M-50,315.8c0,1.5-0.5,2.9-1.6,4.1c-1,1.1-2.3,1.9-3.8,2.3c-1.2,0.3-3.3,0.5-6.2,0.5h-8.1
			v-23.6h8.4c2,0,3.4,0.1,4.3,0.2c0.8,0.1,1.7,0.3,2.4,0.7c2.1,0.9,3.1,2.5,3.1,4.6c0,1.2-0.4,2.3-1.1,3.1s-1.9,1.5-3.6,2.2
			c1,0.1,2,0.4,3,0.9C-51.1,311.7-50,313.4-50,315.8z M-57.2,315.3c0-1.4-0.6-2.3-1.7-2.8c-0.5-0.2-1.3-0.3-2.5-0.3h-1.4v6.6h1
			c1.6,0,2.7-0.3,3.3-0.8C-57.6,317.4-57.2,316.5-57.2,315.3z"/>
		<path class="st21" d="M-28.6,316.1c0,2.1-0.8,3.8-2.5,5c-1.7,1.3-3.9,1.9-6.6,1.9c-2.8,0-5.3-0.7-7.4-2.2l2.2-3.9
			c1.3,1.1,2.7,1.7,4.3,1.7c0.8,0,1.5-0.2,2.1-0.6c0.6-0.4,0.9-1,0.9-1.6c0-0.6-0.3-1.3-0.8-2c-0.4-0.4-1.2-1.3-2.6-2.5
			c-0.8-0.7-1.9-1.7-3.2-2.9c-1.2-1.3-1.8-2.7-1.8-4.2c0-1.9,0.8-3.4,2.3-4.5c1.5-1.1,3.5-1.7,6-1.7c2.2,0,4.3,0.5,6.2,1.6l-1.9,3.7
			c-1.2-0.6-2.3-0.9-3.2-0.9c-1.5,0-2.2,0.5-2.2,1.5c0,0.4,0.2,0.8,0.5,1.1c0.3,0.4,1,1,2,1.9c1.2,1,2.4,2.2,3.5,3.4
			C-29.3,312.6-28.6,314.3-28.6,316.1z"/>
		<path class="st21" d="M-3.5,303.6h-6.9v19.1h-7v-19.1h-6.8v-4.5h20.7V303.6z"/>
		<path class="st21" d="M14.2,306.3c0-1.2-0.4-2.1-1.1-2.5c-0.5-0.3-1.5-0.5-2.9-0.5H8.9v6.4h1.2c1.5,0,2.5-0.3,3.1-0.9
			C13.9,308.2,14.2,307.4,14.2,306.3z M22.1,322.3l-7.4,0.8l-3.9-9.6H8.9v9.2h-7v-23.6H11c1.7,0,3,0,3.7,0.1
			c1.4,0.2,2.6,0.6,3.5,1.2c1.8,1.2,2.6,3,2.6,5.4c0,2.8-1.4,5-4.3,6.5L22.1,322.3z"/>
		<path class="st21" d="M39.5,313.3l-2.4-7.4l-2.7,7.4H39.5z M50,322.7h-7.5l-1.9-5.7h-7.3l-2.3,5.7h-5.5l9.6-23.6h6L50,322.7z"/>
		<path class="st21" d="M74.2,322.1c-1.9,0.7-3.9,1-5.9,1c-4.1,0-7.5-1.1-10.1-3.3s-3.9-5.2-3.9-8.8c0-3.5,1.3-6.4,3.8-8.7
			c2.6-2.3,5.8-3.4,9.8-3.4c2.1,0,4.2,0.4,6.3,1.2l-1.8,4.2c-1.3-0.3-2.4-0.5-3.3-0.5c-2.3,0-4.1,0.7-5.4,2c-1.3,1.3-2,3.1-2,5.3
			c0,2.1,0.6,3.8,1.9,5.1c1.3,1.4,3.3,2.2,5.7,2.2c1.2,0,2.4-0.2,3.6-0.5L74.2,322.1z"/>
		<path class="st21" d="M98.6,303.6h-6.9v19.1h-7v-19.1h-6.8v-4.5h20.7V303.6z"/>
		<path class="st21" d="M118.8,316.1c0,2.1-0.8,3.8-2.5,5c-1.7,1.3-3.9,1.9-6.6,1.9c-2.8,0-5.3-0.7-7.4-2.2l2.2-3.9
			c1.3,1.1,2.7,1.7,4.3,1.7c0.8,0,1.5-0.2,2.1-0.6c0.6-0.4,0.9-1,0.9-1.6c0-0.6-0.3-1.3-0.8-2c-0.4-0.4-1.2-1.3-2.6-2.5
			c-0.8-0.7-1.9-1.7-3.2-2.9c-1.2-1.3-1.8-2.7-1.8-4.2c0-1.9,0.8-3.4,2.3-4.5c1.5-1.1,3.5-1.7,6-1.7c2.2,0,4.3,0.5,6.2,1.6L116,304
			c-1.2-0.6-2.3-0.9-3.2-0.9c-1.5,0-2.2,0.5-2.2,1.5c0,0.4,0.2,0.8,0.5,1.1c0.3,0.4,1,1,2,1.9c1.2,1,2.4,2.2,3.5,3.4
			C118.1,312.6,118.8,314.3,118.8,316.1z"/>
	</g>
</g>
</svg>
