<?xml version="1.0" encoding="utf-8"?>
<!-- Generator: Adobe Illustrator 19.0.0, SVG Export Plug-In . SVG Version: 6.00 Build 0)  -->
<svg version="1.1" id="Layer_1" xmlns="http://www.w3.org/2000/svg" xmlns:xlink="http://www.w3.org/1999/xlink" x="0px" y="0px"
	 viewBox="-279 231 400 100" style="enable-background:new -279 231 400 100;" xml:space="preserve">
<style type="text/css">
	.st0{fill:#535034;}
	.st1{fill:#5B5738;}
	.st2{fill:#635E3D;}
	.st3{fill:#6B6541;}
	.st4{fill:#736C46;}
	.st5{fill:#7B734A;}
	.st6{fill:#837A4F;}
	.st7{fill:#8B8153;}
	.st8{fill:#938858;}
	.st9{fill:#9B8F5C;}
	.st10{fill:#A39661;}
	.st11{fill:#AC9D65;}
	.st12{fill:#B4A46A;}
	.st13{fill:#BCAB6E;}
	.st14{fill:#C4B273;}
	.st15{fill:#CCB977;}
	.st16{fill:#D4C07C;}
	.st17{fill:#DCC780;}
	.st18{fill:#E4CE85;}
	.st19{fill:#ECD589;}
	.st20{fill:#F4DC8E;}
	.st21{fill:#FCE392;}
</style>
<g>
	<g>
		<path class="st0" d="M-255.8,330.8c-1.8,0.6-3.7,1-5.7,1c-4,0-7.2-1.1-9.7-3.2c-2.5-2.1-3.8-5-3.8-8.5c0-3.4,1.2-6.2,3.7-8.4
			c2.5-2.2,5.6-3.3,9.4-3.3c2,0,4,0.4,6.1,1.1l-1.7,4.1c-1.2-0.3-2.3-0.5-3.2-0.5c-2.2,0-3.9,0.6-5.2,1.9s-1.9,3-1.9,5.1
			c0,2,0.6,3.6,1.8,4.9c1.3,1.4,3.1,2.1,5.5,2.1c1.1,0,2.3-0.2,3.5-0.5L-255.8,330.8z"/>
		<path class="st0" d="M-235.4,320.2c0-4.7-1.4-7.1-4.2-7.1c-2.7,0-4.1,2.3-4.1,7c0,4.7,1.4,7,4.1,7
			C-236.8,327.1-235.4,324.8-235.4,320.2z M-228.3,320c0,3.4-1,6.2-3,8.4c-2.1,2.3-4.8,3.4-8.2,3.4s-6.1-1.1-8.2-3.4
			c-2.1-2.2-3.1-5-3.1-8.4c0-3.4,1.1-6.2,3.2-8.4c2.2-2.2,4.9-3.3,8.4-3.3c3.1,0,5.7,1.1,7.8,3.3
			C-229.4,313.9-228.3,316.6-228.3,320z"/>
		<path class="st0" d="M-201.8,331.4h-4.3l-10.3-12.8v12.8h-5.3v-22.7h4.7l9.8,12.6v-12.6h5.3V331.4z"/>
		<path class="st0" d="M-180.4,313h-7v5.5h6.9v4.3h-6.9v8.5h-6.8v-22.7h13.8V313z"/>
		<path class="st0" d="M-159.3,331.4h-15.2v-22.7h13.8v4.3h-7v4.3h6.9v4.3h-6.9v5.4h8.4V331.4z"/>
		<path class="st0" d="M-141.1,315.6c0-1.2-0.4-2-1.1-2.4c-0.5-0.3-1.4-0.5-2.8-0.5h-1.3v6.2h1.2c1.4,0,2.4-0.3,3-0.8
			C-141.4,317.5-141.1,316.7-141.1,315.6z M-133.5,331l-7.1,0.7l-3.8-9.3h-1.8v8.9h-6.8v-22.7h8.8c1.7,0,2.9,0,3.6,0.1
			c1.4,0.2,2.5,0.6,3.3,1.2c1.7,1.1,2.5,2.9,2.5,5.2c0,2.7-1.4,4.8-4.2,6.2L-133.5,331z"/>
		<path class="st0" d="M-112.5,331.4h-15.2v-22.7h13.8v4.3h-7v4.3h6.9v4.3h-6.9v5.4h8.4V331.4z"/>
		<path class="st0" d="M-86.2,331.4h-4.3l-10.3-12.8v12.8h-5.3v-22.7h4.7l9.8,12.6v-12.6h5.3V331.4z"/>
		<path class="st0" d="M-60.4,330.8c-1.8,0.6-3.7,1-5.7,1c-4,0-7.2-1.1-9.7-3.2c-2.5-2.1-3.8-5-3.8-8.5c0-3.4,1.2-6.2,3.7-8.4
			c2.5-2.2,5.6-3.3,9.4-3.3c2,0,4,0.4,6.1,1.1l-1.7,4.1c-1.2-0.3-2.3-0.5-3.2-0.5c-2.2,0-3.9,0.6-5.2,1.9c-1.3,1.3-1.9,3-1.9,5.1
			c0,2,0.6,3.6,1.8,4.9c1.3,1.4,3.1,2.1,5.5,2.1c1.1,0,2.3-0.2,3.5-0.5L-60.4,330.8z"/>
		<path class="st0" d="M-39.3,331.4h-15.2v-22.7h13.8v4.3h-7v4.3h6.9v4.3h-6.9v5.4h8.4V331.4z"/>
		<path class="st0" d="M-4.4,313h-6.6v18.4h-6.8V313h-6.5v-4.3h19.9V313z"/>
		<path class="st0" d="M21.5,331.4h-6.8V321H7.5v10.4H0.7v-22.7h6.8v8h7.3v-8h6.8V331.4z"/>
		<path class="st0" d="M44.3,331.4H29.2v-22.7H43v4.3h-7v4.3h6.9v4.3h-6.9v5.4h8.4V331.4z"/>
		<path class="st0" d="M75.8,331.4h-6.5V320c0-0.8,0-2.3,0.1-4.5c-0.3,1.3-0.8,2.8-1.4,4.5l-4,11.4h-2.9l-4-11.4
			c-0.4-1.2-0.9-2.7-1.4-4.5c0.1,1.6,0.1,3.1,0.1,4.5v11.4h-5.3v-22.7h8.1l4.8,13.9l4.6-13.9h7.8V331.4z"/>
		<path class="st0" d="M98.5,331.4H83.3v-22.7h13.8v4.3h-7v4.3H97v4.3h-6.9v5.4h8.4V331.4z"/>
		<path class="st0" d="M119.2,325.1c0,2-0.8,3.6-2.4,4.9s-3.7,1.8-6.3,1.8c-2.7,0-5.1-0.7-7.2-2.1l2.1-3.8c1.3,1.1,2.6,1.6,4.1,1.6
			c0.8,0,1.5-0.2,2-0.6c0.6-0.4,0.8-0.9,0.8-1.6c0-0.6-0.3-1.2-0.8-1.9c-0.4-0.4-1.2-1.2-2.5-2.4c-0.8-0.7-1.8-1.6-3.1-2.8
			c-1.1-1.2-1.7-2.6-1.7-4c0-1.8,0.7-3.2,2.2-4.3c1.5-1.1,3.4-1.6,5.8-1.6c2.1,0,4.1,0.5,6,1.5l-1.8,3.6c-1.2-0.6-2.2-0.8-3.1-0.8
			c-1.4,0-2.1,0.5-2.1,1.4c0,0.4,0.1,0.7,0.4,1.1c0.3,0.4,0.9,1,1.9,1.8c1.2,1,2.3,2.1,3.4,3.2C118.5,321.7,119.2,323.3,119.2,325.1
			z"/>
	</g>
	<g>
		<path class="st1" d="M-256,330.8c-1.8,0.6-3.7,1-5.7,1c-4,0-7.2-1.1-9.7-3.2c-2.5-2.1-3.8-5-3.8-8.5c0-3.4,1.2-6.2,3.7-8.4
			c2.5-2.2,5.6-3.3,9.4-3.3c2,0,4,0.4,6.1,1.1l-1.7,4.1c-1.2-0.3-2.3-0.5-3.2-0.5c-2.2,0-3.9,0.6-5.2,1.9s-1.9,3-1.9,5.1
			c0,2,0.6,3.6,1.8,4.9c1.3,1.4,3.1,2.1,5.5,2.1c1.1,0,2.3-0.2,3.5-0.5L-256,330.8z"/>
		<path class="st1" d="M-235.6,320.2c0-4.7-1.4-7.1-4.2-7.1c-2.7,0-4.1,2.3-4.1,7c0,4.7,1.4,7,4.1,7
			C-236.9,327.1-235.6,324.8-235.6,320.2z M-228.4,320c0,3.4-1,6.2-3,8.4c-2.1,2.3-4.8,3.4-8.2,3.4s-6.1-1.1-8.2-3.4
			c-2-2.2-3.1-5-3.1-8.4c0-3.4,1.1-6.2,3.2-8.4c2.2-2.2,4.9-3.3,8.4-3.3c3.1,0,5.7,1.1,7.8,3.3C-229.5,313.9-228.4,316.6-228.4,320z
			"/>
		<polygon class="st1" points="-201.9,331.4 -206.2,331.4 -216.5,318.6 -216.5,331.4 -221.8,331.4 -221.8,308.7 -217.1,308.7 
			-207.2,321.3 -207.2,308.7 -201.9,308.7 		"/>
		<polygon class="st1" points="-180.5,313 -187.5,313 -187.5,318.5 -180.6,318.5 -180.6,322.8 -187.5,322.8 -187.5,331.4 
			-194.3,331.4 -194.3,308.7 -180.5,308.7 		"/>
		<polygon class="st1" points="-159.4,331.4 -174.6,331.4 -174.6,308.7 -160.8,308.7 -160.8,313 -167.8,313 -167.8,317.4 
			-160.9,317.4 -160.9,321.7 -167.8,321.7 -167.8,327.1 -159.4,327.1 		"/>
		<path class="st1" d="M-141.2,315.6c0-1.2-0.4-2-1.1-2.4c-0.5-0.3-1.4-0.5-2.8-0.5h-1.3v6.2h1.2c1.4,0,2.4-0.3,3-0.8
			C-141.5,317.5-141.2,316.7-141.2,315.6z M-133.6,331l-7.1,0.7l-3.8-9.3h-1.8v8.9h-6.8v-22.7h8.8c1.7,0,2.9,0,3.6,0.1
			c1.4,0.2,2.5,0.6,3.3,1.2c1.7,1.1,2.5,2.9,2.5,5.2c0,2.7-1.4,4.8-4.2,6.2L-133.6,331z"/>
		<polygon class="st1" points="-112.6,331.4 -127.8,331.4 -127.8,308.7 -114,308.7 -114,313 -121,313 -121,317.4 -114.2,317.4 
			-114.2,321.7 -121,321.7 -121,327.1 -112.6,327.1 		"/>
		<polygon class="st1" points="-86.3,331.4 -90.6,331.4 -100.9,318.6 -100.9,331.4 -106.3,331.4 -106.3,308.7 -101.5,308.7 
			-91.7,321.3 -91.7,308.7 -86.3,308.7 		"/>
		<path class="st1" d="M-60.6,330.8c-1.8,0.6-3.7,1-5.7,1c-4,0-7.2-1.1-9.7-3.2c-2.5-2.1-3.8-5-3.8-8.5c0-3.4,1.2-6.2,3.7-8.4
			c2.5-2.2,5.6-3.3,9.4-3.3c2,0,4,0.4,6.1,1.1l-1.7,4.1c-1.2-0.3-2.3-0.5-3.2-0.5c-2.2,0-3.9,0.6-5.2,1.9c-1.3,1.3-1.9,3-1.9,5.1
			c0,2,0.6,3.6,1.8,4.9c1.3,1.4,3.1,2.1,5.5,2.1c1.1,0,2.3-0.2,3.5-0.5L-60.6,330.8z"/>
		<polygon class="st1" points="-39.4,331.4 -54.6,331.4 -54.6,308.7 -40.8,308.7 -40.8,313 -47.8,313 -47.8,317.4 -40.9,317.4 
			-40.9,321.7 -47.8,321.7 -47.8,327.1 -39.4,327.1 		"/>
		<polygon class="st1" points="-4.5,313 -11.2,313 -11.2,331.4 -17.9,331.4 -17.9,313 -24.5,313 -24.5,308.7 -4.5,308.7 		"/>
		<polygon class="st1" points="21.4,331.4 14.7,331.4 14.7,321 7.4,321 7.4,331.4 0.6,331.4 0.6,308.7 7.4,308.7 7.4,316.7 
			14.7,316.7 14.7,308.7 21.4,308.7 		"/>
		<polygon class="st1" points="44.2,331.4 29,331.4 29,308.7 42.8,308.7 42.8,313 35.8,313 35.8,317.4 42.7,317.4 42.7,321.7 
			35.8,321.7 35.8,327.1 44.2,327.1 		"/>
		<path class="st1" d="M75.6,331.4h-6.5V320c0-0.8,0-2.3,0.1-4.5c-0.3,1.3-0.8,2.8-1.4,4.5l-4,11.4h-2.9L57,320
			c-0.4-1.2-0.9-2.7-1.4-4.5c0.1,1.6,0.1,3.1,0.1,4.5v11.4h-5.3v-22.7h8.1l4.8,13.9l4.6-13.9h7.8V331.4z"/>
		<polygon class="st1" points="98.4,331.4 83.2,331.4 83.2,308.7 97,308.7 97,313 90,313 90,317.4 96.9,317.4 96.9,321.7 90,321.7 
			90,327.1 98.4,327.1 		"/>
		<path class="st1" d="M119.1,325.1c0,2-0.8,3.6-2.4,4.9s-3.7,1.8-6.3,1.8c-2.7,0-5.1-0.7-7.2-2.1l2.1-3.8c1.3,1.1,2.6,1.6,4.1,1.6
			c0.8,0,1.5-0.2,2-0.6c0.6-0.4,0.8-0.9,0.8-1.6c0-0.6-0.3-1.2-0.8-1.9c-0.4-0.4-1.2-1.2-2.5-2.4c-0.8-0.7-1.9-1.6-3.1-2.8
			c-1.2-1.2-1.7-2.6-1.7-4c0-1.8,0.7-3.2,2.2-4.3c1.5-1.1,3.4-1.6,5.8-1.6c2.1,0,4.1,0.5,6,1.5l-1.8,3.6c-1.2-0.6-2.2-0.8-3.1-0.8
			c-1.4,0-2.1,0.5-2.1,1.4c0,0.4,0.1,0.7,0.4,1.1c0.3,0.4,0.9,1,1.9,1.8c1.2,1,2.3,2.1,3.4,3.2C118.3,321.7,119.1,323.3,119.1,325.1
			z"/>
	</g>
	<g>
		<path class="st2" d="M-256.1,330.8c-1.8,0.6-3.7,1-5.7,1c-4,0-7.2-1.1-9.7-3.2c-2.5-2.1-3.8-5-3.8-8.5c0-3.4,1.2-6.2,3.7-8.4
			c2.5-2.2,5.6-3.3,9.4-3.3c2,0,4,0.4,6.1,1.1l-1.7,4.1c-1.2-0.3-2.3-0.5-3.2-0.5c-2.2,0-3.9,0.6-5.2,1.9s-1.9,3-1.9,5.1
			c0,2,0.6,3.6,1.8,4.9c1.3,1.4,3.1,2.1,5.5,2.1c1.1,0,2.3-0.2,3.5-0.5L-256.1,330.8z"/>
		<path class="st2" d="M-235.7,320.2c0-4.7-1.4-7.1-4.2-7.1c-2.7,0-4.1,2.3-4.1,7c0,4.7,1.4,7,4.1,7
			C-237.1,327.1-235.7,324.8-235.7,320.2z M-228.5,320c0,3.4-1,6.2-3,8.4c-2.1,2.3-4.8,3.4-8.2,3.4s-6.1-1.1-8.2-3.4
			c-2-2.2-3.1-5-3.1-8.4c0-3.4,1.1-6.2,3.2-8.4c2.2-2.2,4.9-3.3,8.4-3.3c3.1,0,5.7,1.1,7.8,3.3C-229.6,313.9-228.5,316.6-228.5,320z
			"/>
		<polygon class="st2" points="-202,331.4 -206.3,331.4 -216.6,318.6 -216.6,331.4 -221.9,331.4 -221.9,308.7 -217.2,308.7 
			-207.3,321.3 -207.3,308.7 -202,308.7 		"/>
		<polygon class="st2" points="-180.6,313 -187.6,313 -187.6,318.5 -180.7,318.5 -180.7,322.8 -187.6,322.8 -187.6,331.4 
			-194.4,331.4 -194.4,308.7 -180.6,308.7 		"/>
		<polygon class="st2" points="-159.5,331.4 -174.7,331.4 -174.7,308.7 -160.9,308.7 -160.9,313 -167.9,313 -167.9,317.4 
			-161.1,317.4 -161.1,321.7 -167.9,321.7 -167.9,327.1 -159.5,327.1 		"/>
		<path class="st2" d="M-141.3,315.6c0-1.2-0.4-2-1.1-2.4c-0.5-0.3-1.4-0.5-2.8-0.5h-1.3v6.2h1.2c1.4,0,2.4-0.3,3-0.8
			C-141.6,317.5-141.3,316.7-141.3,315.6z M-133.7,331l-7.1,0.7l-3.8-9.3h-1.8v8.9h-6.8v-22.7h8.8c1.7,0,2.9,0,3.6,0.1
			c1.4,0.2,2.5,0.6,3.3,1.2c1.7,1.1,2.5,2.9,2.5,5.2c0,2.7-1.4,4.8-4.2,6.2L-133.7,331z"/>
		<polygon class="st2" points="-112.7,331.4 -127.9,331.4 -127.9,308.7 -114.1,308.7 -114.1,313 -121.1,313 -121.1,317.4 
			-114.3,317.4 -114.3,321.7 -121.1,321.7 -121.1,327.1 -112.7,327.1 		"/>
		<polygon class="st2" points="-86.4,331.4 -90.8,331.4 -101,318.6 -101,331.4 -106.4,331.4 -106.4,308.7 -101.6,308.7 -91.8,321.3 
			-91.8,308.7 -86.4,308.7 		"/>
		<path class="st2" d="M-60.7,330.8c-1.8,0.6-3.7,1-5.7,1c-4,0-7.2-1.1-9.7-3.2c-2.5-2.1-3.8-5-3.8-8.5c0-3.4,1.2-6.2,3.7-8.4
			c2.5-2.2,5.6-3.3,9.4-3.3c2,0,4,0.4,6.1,1.1l-1.7,4.1c-1.2-0.3-2.3-0.5-3.2-0.5c-2.2,0-3.9,0.6-5.2,1.9c-1.3,1.3-1.9,3-1.9,5.1
			c0,2,0.6,3.6,1.8,4.9c1.3,1.4,3.1,2.1,5.5,2.1c1.1,0,2.3-0.2,3.5-0.5L-60.7,330.8z"/>
		<polygon class="st2" points="-39.5,331.4 -54.7,331.4 -54.7,308.7 -40.9,308.7 -40.9,313 -47.9,313 -47.9,317.4 -41,317.4 
			-41,321.7 -47.9,321.7 -47.9,327.1 -39.5,327.1 		"/>
		<polygon class="st2" points="-4.6,313 -11.3,313 -11.3,331.4 -18.1,331.4 -18.1,313 -24.6,313 -24.6,308.7 -4.6,308.7 		"/>
		<polygon class="st2" points="21.3,331.4 14.6,331.4 14.6,321 7.3,321 7.3,331.4 0.5,331.4 0.5,308.7 7.3,308.7 7.3,316.7 
			14.6,316.7 14.6,308.7 21.3,308.7 		"/>
		<polygon class="st2" points="44.1,331.4 28.9,331.4 28.9,308.7 42.7,308.7 42.7,313 35.7,313 35.7,317.4 42.6,317.4 42.6,321.7 
			35.7,321.7 35.7,327.1 44.1,327.1 		"/>
		<path class="st2" d="M75.5,331.4h-6.5V320c0-0.8,0-2.3,0.1-4.5c-0.3,1.3-0.8,2.8-1.4,4.5l-4,11.4H61l-4-11.4
			c-0.4-1.2-0.9-2.7-1.4-4.5c0.1,1.6,0.1,3.1,0.1,4.5v11.4h-5.3v-22.7h8.1l4.8,13.9l4.6-13.9h7.8V331.4z"/>
		<polygon class="st2" points="98.3,331.4 83.1,331.4 83.1,308.7 96.9,308.7 96.9,313 89.9,313 89.9,317.4 96.7,317.4 96.7,321.7 
			89.9,321.7 89.9,327.1 98.3,327.1 		"/>
		<path class="st2" d="M119,325.1c0,2-0.8,3.6-2.4,4.9s-3.7,1.8-6.3,1.8c-2.7,0-5.1-0.7-7.2-2.1l2.1-3.8c1.3,1.1,2.6,1.6,4.1,1.6
			c0.8,0,1.5-0.2,2-0.6c0.6-0.4,0.8-0.9,0.8-1.6c0-0.6-0.3-1.2-0.8-1.9c-0.4-0.4-1.2-1.2-2.5-2.4c-0.8-0.7-1.9-1.6-3.1-2.8
			c-1.2-1.2-1.7-2.6-1.7-4c0-1.8,0.7-3.2,2.2-4.3c1.5-1.1,3.4-1.6,5.8-1.6c2.1,0,4.1,0.5,6,1.5l-1.8,3.6c-1.2-0.6-2.2-0.8-3.1-0.8
			c-1.4,0-2.1,0.5-2.1,1.4c0,0.4,0.1,0.7,0.4,1.1c0.3,0.4,0.9,1,1.9,1.8c1.2,1,2.3,2.1,3.4,3.2C118.2,321.7,119,323.3,119,325.1z"/>
	</g>
	<g>
		<path class="st3" d="M-256.2,330.8c-1.8,0.6-3.7,1-5.7,1c-4,0-7.2-1.1-9.7-3.2c-2.5-2.1-3.8-5-3.8-8.5c0-3.4,1.2-6.2,3.7-8.4
			c2.5-2.2,5.6-3.3,9.4-3.3c2,0,4,0.4,6.1,1.1l-1.7,4.1c-1.2-0.3-2.3-0.5-3.2-0.5c-2.2,0-3.9,0.6-5.2,1.9s-1.9,3-1.9,5.1
			c0,2,0.6,3.6,1.8,4.9c1.3,1.4,3.1,2.1,5.5,2.1c1.1,0,2.3-0.2,3.5-0.5L-256.2,330.8z"/>
		<path class="st3" d="M-235.8,320.2c0-4.7-1.4-7.1-4.2-7.1c-2.7,0-4.1,2.3-4.1,7c0,4.7,1.4,7,4.1,7
			C-237.2,327.1-235.8,324.8-235.8,320.2z M-228.7,320c0,3.4-1,6.2-3,8.4c-2.1,2.3-4.8,3.4-8.2,3.4s-6.1-1.1-8.2-3.4
			c-2-2.2-3.1-5-3.1-8.4c0-3.4,1.1-6.2,3.2-8.4c2.2-2.2,4.9-3.3,8.4-3.3c3.1,0,5.7,1.1,7.8,3.3C-229.7,313.9-228.7,316.6-228.7,320z
			"/>
		<polygon class="st3" points="-202.1,331.4 -206.4,331.4 -216.7,318.6 -216.7,331.4 -222,331.4 -222,308.7 -217.3,308.7 
			-207.4,321.3 -207.4,308.7 -202.1,308.7 		"/>
		<polygon class="st3" points="-180.7,313 -187.7,313 -187.7,318.5 -180.9,318.5 -180.9,322.8 -187.7,322.8 -187.7,331.4 
			-194.5,331.4 -194.5,308.7 -180.7,308.7 		"/>
		<polygon class="st3" points="-159.7,331.4 -174.8,331.4 -174.8,308.7 -161,308.7 -161,313 -168,313 -168,317.4 -161.2,317.4 
			-161.2,321.7 -168,321.7 -168,327.1 -159.7,327.1 		"/>
		<path class="st3" d="M-141.4,315.6c0-1.2-0.4-2-1.1-2.4c-0.5-0.3-1.4-0.5-2.8-0.5h-1.3v6.2h1.2c1.4,0,2.4-0.3,3-0.8
			C-141.7,317.5-141.4,316.7-141.4,315.6z M-133.8,331l-7.1,0.7l-3.8-9.3h-1.8v8.9h-6.8v-22.7h8.8c1.7,0,2.9,0,3.6,0.1
			c1.4,0.2,2.5,0.6,3.3,1.2c1.7,1.1,2.5,2.9,2.5,5.2c0,2.7-1.4,4.8-4.2,6.2L-133.8,331z"/>
		<polygon class="st3" points="-112.9,331.4 -128,331.4 -128,308.7 -114.2,308.7 -114.2,313 -121.2,313 -121.2,317.4 -114.4,317.4 
			-114.4,321.7 -121.2,321.7 -121.2,327.1 -112.9,327.1 		"/>
		<polygon class="st3" points="-86.6,331.4 -90.9,331.4 -101.1,318.6 -101.1,331.4 -106.5,331.4 -106.5,308.7 -101.8,308.7 
			-91.9,321.3 -91.9,308.7 -86.6,308.7 		"/>
		<path class="st3" d="M-60.8,330.8c-1.8,0.6-3.7,1-5.7,1c-4,0-7.2-1.1-9.7-3.2c-2.5-2.1-3.8-5-3.8-8.5c0-3.4,1.2-6.2,3.7-8.4
			c2.5-2.2,5.6-3.3,9.4-3.3c2,0,4,0.4,6.1,1.1l-1.7,4.1c-1.2-0.3-2.3-0.5-3.2-0.5c-2.2,0-3.9,0.6-5.2,1.9c-1.3,1.3-1.9,3-1.9,5.1
			c0,2,0.6,3.6,1.8,4.9c1.3,1.4,3.1,2.1,5.5,2.1c1.1,0,2.3-0.2,3.5-0.5L-60.8,330.8z"/>
		<polygon class="st3" points="-39.6,331.4 -54.8,331.4 -54.8,308.7 -41,308.7 -41,313 -48,313 -48,317.4 -41.2,317.4 -41.2,321.7 
			-48,321.7 -48,327.1 -39.6,327.1 		"/>
		<polygon class="st3" points="-4.8,313 -11.4,313 -11.4,331.4 -18.2,331.4 -18.2,313 -24.7,313 -24.7,308.7 -4.8,308.7 		"/>
		<polygon class="st3" points="21.2,331.4 14.4,331.4 14.4,321 7.2,321 7.2,331.4 0.4,331.4 0.4,308.7 7.2,308.7 7.2,316.7 
			14.4,316.7 14.4,308.7 21.2,308.7 		"/>
		<polygon class="st3" points="44,331.4 28.8,331.4 28.8,308.7 42.6,308.7 42.6,313 35.6,313 35.6,317.4 42.5,317.4 42.5,321.7 
			35.6,321.7 35.6,327.1 44,327.1 		"/>
		<path class="st3" d="M75.4,331.4h-6.5V320c0-0.8,0-2.3,0.1-4.5c-0.3,1.3-0.8,2.8-1.4,4.5l-4,11.4h-2.9l-4-11.4
			c-0.4-1.2-0.9-2.7-1.4-4.5c0.1,1.6,0.1,3.1,0.1,4.5v11.4h-5.3v-22.7h8.1l4.8,13.9l4.6-13.9h7.8V331.4z"/>
		<polygon class="st3" points="98.2,331.4 83,331.4 83,308.7 96.8,308.7 96.8,313 89.8,313 89.8,317.4 96.6,317.4 96.6,321.7 
			89.8,321.7 89.8,327.1 98.2,327.1 		"/>
		<path class="st3" d="M118.8,325.1c0,2-0.8,3.6-2.4,4.9s-3.7,1.8-6.3,1.8c-2.7,0-5.1-0.7-7.2-2.1l2.1-3.8c1.3,1.1,2.6,1.6,4.1,1.6
			c0.8,0,1.5-0.2,2-0.6c0.6-0.4,0.8-0.9,0.8-1.6c0-0.6-0.3-1.2-0.8-1.9c-0.4-0.4-1.2-1.2-2.5-2.4c-0.8-0.7-1.9-1.6-3.1-2.8
			c-1.2-1.2-1.7-2.6-1.7-4c0-1.8,0.7-3.2,2.2-4.3c1.5-1.1,3.4-1.6,5.8-1.6c2.1,0,4.1,0.5,6,1.5l-1.8,3.6c-1.2-0.6-2.2-0.8-3.1-0.8
			c-1.4,0-2.1,0.5-2.1,1.4c0,0.4,0.1,0.7,0.4,1.1c0.3,0.4,0.9,1,1.9,1.8c1.2,1,2.3,2.1,3.4,3.2C118.1,321.7,118.8,323.3,118.8,325.1
			z"/>
	</g>
	<g>
		<path class="st4" d="M-256.3,330.8c-1.8,0.6-3.7,1-5.7,1c-4,0-7.2-1.1-9.7-3.2c-2.5-2.1-3.8-5-3.8-8.5c0-3.4,1.2-6.2,3.7-8.4
			c2.5-2.2,5.6-3.3,9.4-3.3c2,0,4,0.4,6.1,1.1l-1.7,4.1c-1.2-0.3-2.3-0.5-3.2-0.5c-2.2,0-3.9,0.6-5.2,1.9s-1.9,3-1.9,5.1
			c0,2,0.6,3.6,1.8,4.9c1.3,1.4,3.1,2.1,5.5,2.1c1.1,0,2.3-0.2,3.5-0.5L-256.3,330.8z"/>
		<path class="st4" d="M-235.9,320.2c0-4.7-1.4-7.1-4.2-7.1c-2.7,0-4.1,2.3-4.1,7c0,4.7,1.4,7,4.1,7
			C-237.3,327.1-235.9,324.8-235.9,320.2z M-228.8,320c0,3.4-1,6.2-3,8.4c-2.1,2.3-4.8,3.4-8.2,3.4s-6.1-1.1-8.2-3.4
			c-2-2.2-3.1-5-3.1-8.4c0-3.4,1.1-6.2,3.2-8.4c2.2-2.2,4.9-3.3,8.4-3.3c3.1,0,5.7,1.1,7.8,3.3C-229.8,313.9-228.8,316.6-228.8,320z
			"/>
		<polygon class="st4" points="-202.2,331.4 -206.5,331.4 -216.8,318.6 -216.8,331.4 -222.1,331.4 -222.1,308.7 -217.4,308.7 
			-207.6,321.3 -207.6,308.7 -202.2,308.7 		"/>
		<polygon class="st4" points="-180.8,313 -187.8,313 -187.8,318.5 -181,318.5 -181,322.8 -187.8,322.8 -187.8,331.4 -194.6,331.4 
			-194.6,308.7 -180.8,308.7 		"/>
		<polygon class="st4" points="-159.8,331.4 -174.9,331.4 -174.9,308.7 -161.1,308.7 -161.1,313 -168.2,313 -168.2,317.4 
			-161.3,317.4 -161.3,321.7 -168.2,321.7 -168.2,327.1 -159.8,327.1 		"/>
		<path class="st4" d="M-141.5,315.6c0-1.2-0.4-2-1.1-2.4c-0.5-0.3-1.4-0.5-2.8-0.5h-1.3v6.2h1.2c1.4,0,2.4-0.3,3-0.8
			C-141.8,317.5-141.5,316.7-141.5,315.6z M-133.9,331l-7.1,0.7l-3.8-9.3h-1.8v8.9h-6.8v-22.7h8.8c1.7,0,2.9,0,3.6,0.1
			c1.4,0.2,2.5,0.6,3.3,1.2c1.7,1.1,2.5,2.9,2.5,5.2c0,2.7-1.4,4.8-4.2,6.2L-133.9,331z"/>
		<polygon class="st4" points="-113,331.4 -128.1,331.4 -128.1,308.7 -114.3,308.7 -114.3,313 -121.4,313 -121.4,317.4 
			-114.5,317.4 -114.5,321.7 -121.4,321.7 -121.4,327.1 -113,327.1 		"/>
		<polygon class="st4" points="-86.7,331.4 -91,331.4 -101.2,318.6 -101.2,331.4 -106.6,331.4 -106.6,308.7 -101.9,308.7 -92,321.3 
			-92,308.7 -86.7,308.7 		"/>
		<path class="st4" d="M-60.9,330.8c-1.8,0.6-3.7,1-5.7,1c-4,0-7.2-1.1-9.7-3.2c-2.5-2.1-3.8-5-3.8-8.5c0-3.4,1.2-6.2,3.7-8.4
			c2.5-2.2,5.6-3.3,9.4-3.3c2,0,4,0.4,6.1,1.1l-1.7,4.1c-1.2-0.3-2.3-0.5-3.2-0.5c-2.2,0-3.9,0.6-5.2,1.9c-1.3,1.3-1.9,3-1.9,5.1
			c0,2,0.6,3.6,1.8,4.9c1.3,1.4,3.1,2.1,5.5,2.1c1.1,0,2.3-0.2,3.5-0.5L-60.9,330.8z"/>
		<polygon class="st4" points="-39.8,331.4 -54.9,331.4 -54.9,308.7 -41.1,308.7 -41.1,313 -48.1,313 -48.1,317.4 -41.3,317.4 
			-41.3,321.7 -48.1,321.7 -48.1,327.1 -39.8,327.1 		"/>
		<polygon class="st4" points="-4.9,313 -11.5,313 -11.5,331.4 -18.3,331.4 -18.3,313 -24.8,313 -24.8,308.7 -4.9,308.7 		"/>
		<polygon class="st4" points="21.1,331.4 14.3,331.4 14.3,321 7,321 7,331.4 0.3,331.4 0.3,308.7 7,308.7 7,316.7 14.3,316.7 
			14.3,308.7 21.1,308.7 		"/>
		<polygon class="st4" points="43.9,331.4 28.7,331.4 28.7,308.7 42.5,308.7 42.5,313 35.5,313 35.5,317.4 42.3,317.4 42.3,321.7 
			35.5,321.7 35.5,327.1 43.9,327.1 		"/>
		<path class="st4" d="M75.3,331.4h-6.5V320c0-0.8,0-2.3,0.1-4.5c-0.3,1.3-0.8,2.8-1.4,4.5l-4,11.4h-2.9l-4-11.4
			c-0.4-1.2-0.9-2.7-1.4-4.5c0.1,1.6,0.1,3.1,0.1,4.5v11.4h-5.3v-22.7h8.1l4.8,13.9l4.6-13.9h7.8V331.4z"/>
		<polygon class="st4" points="98,331.4 82.9,331.4 82.9,308.7 96.7,308.7 96.7,313 89.6,313 89.6,317.4 96.5,317.4 96.5,321.7 
			89.6,321.7 89.6,327.1 98,327.1 		"/>
		<path class="st4" d="M118.7,325.1c0,2-0.8,3.6-2.4,4.9s-3.7,1.8-6.3,1.8c-2.7,0-5.1-0.7-7.2-2.1l2.1-3.8c1.3,1.1,2.6,1.6,4.1,1.6
			c0.8,0,1.5-0.2,2-0.6c0.6-0.4,0.8-0.9,0.8-1.6c0-0.6-0.3-1.2-0.8-1.9c-0.4-0.4-1.2-1.2-2.5-2.4c-0.8-0.7-1.9-1.6-3.1-2.8
			c-1.2-1.2-1.7-2.6-1.7-4c0-1.8,0.7-3.2,2.2-4.3c1.5-1.1,3.4-1.6,5.8-1.6c2.1,0,4.1,0.5,6,1.5l-1.8,3.6c-1.2-0.6-2.2-0.8-3.1-0.8
			c-1.4,0-2.1,0.5-2.1,1.4c0,0.4,0.1,0.7,0.4,1.1c0.3,0.4,0.9,1,1.9,1.8c1.2,1,2.3,2.1,3.4,3.2C118,321.7,118.7,323.3,118.7,325.1z"
			/>
	</g>
	<g>
		<path class="st5" d="M-256.4,330.8c-1.8,0.6-3.7,1-5.7,1c-4,0-7.2-1.1-9.7-3.2c-2.5-2.1-3.8-5-3.8-8.5c0-3.4,1.2-6.2,3.7-8.4
			c2.5-2.2,5.6-3.3,9.4-3.3c2,0,4,0.4,6.1,1.1l-1.7,4.1c-1.2-0.3-2.3-0.5-3.2-0.5c-2.2,0-3.9,0.6-5.2,1.9s-1.9,3-1.9,5.1
			c0,2,0.6,3.6,1.8,4.9c1.3,1.4,3.1,2.1,5.5,2.1c1.1,0,2.3-0.2,3.5-0.5L-256.4,330.8z"/>
		<path class="st5" d="M-236,320.2c0-4.7-1.4-7.1-4.2-7.1c-2.7,0-4.1,2.3-4.1,7c0,4.7,1.4,7,4.1,7C-237.4,327.1-236,324.8-236,320.2
			z M-228.9,320c0,3.4-1,6.2-3,8.4c-2.1,2.3-4.8,3.4-8.2,3.4s-6.1-1.1-8.2-3.4c-2-2.2-3.1-5-3.1-8.4c0-3.4,1.1-6.2,3.2-8.4
			c2.2-2.2,4.9-3.3,8.4-3.3c3.1,0,5.7,1.1,7.8,3.3C-229.9,313.9-228.9,316.6-228.9,320z"/>
		<polygon class="st5" points="-202.3,331.4 -206.6,331.4 -216.9,318.6 -216.9,331.4 -222.3,331.4 -222.3,308.7 -217.5,308.7 
			-207.7,321.3 -207.7,308.7 -202.3,308.7 		"/>
		<polygon class="st5" points="-180.9,313 -188,313 -188,318.5 -181.1,318.5 -181.1,322.8 -188,322.8 -188,331.4 -194.7,331.4 
			-194.7,308.7 -180.9,308.7 		"/>
		<polygon class="st5" points="-159.9,331.4 -175,331.4 -175,308.7 -161.2,308.7 -161.2,313 -168.3,313 -168.3,317.4 -161.4,317.4 
			-161.4,321.7 -168.3,321.7 -168.3,327.1 -159.9,327.1 		"/>
		<path class="st5" d="M-141.6,315.6c0-1.2-0.4-2-1.1-2.4c-0.5-0.3-1.4-0.5-2.8-0.5h-1.3v6.2h1.2c1.4,0,2.4-0.3,3-0.8
			C-141.9,317.5-141.6,316.7-141.6,315.6z M-134,331l-7.1,0.7l-3.8-9.3h-1.8v8.9h-6.8v-22.7h8.8c1.7,0,2.9,0,3.6,0.1
			c1.4,0.2,2.5,0.6,3.3,1.2c1.7,1.1,2.5,2.9,2.5,5.2c0,2.7-1.4,4.8-4.2,6.2L-134,331z"/>
		<polygon class="st5" points="-113.1,331.4 -128.2,331.4 -128.2,308.7 -114.4,308.7 -114.4,313 -121.5,313 -121.5,317.4 
			-114.6,317.4 -114.6,321.7 -121.5,321.7 -121.5,327.1 -113.1,327.1 		"/>
		<polygon class="st5" points="-86.8,331.4 -91.1,331.4 -101.4,318.6 -101.4,331.4 -106.7,331.4 -106.7,308.7 -102,308.7 
			-92.1,321.3 -92.1,308.7 -86.8,308.7 		"/>
		<path class="st5" d="M-61,330.8c-1.8,0.6-3.7,1-5.7,1c-4,0-7.2-1.1-9.7-3.2c-2.5-2.1-3.8-5-3.8-8.5c0-3.4,1.2-6.2,3.7-8.4
			c2.5-2.2,5.6-3.3,9.4-3.3c2,0,4,0.4,6.1,1.1l-1.7,4.1c-1.2-0.3-2.3-0.5-3.2-0.5c-2.2,0-3.9,0.6-5.2,1.9c-1.3,1.3-1.9,3-1.9,5.1
			c0,2,0.6,3.6,1.8,4.9c1.3,1.4,3.1,2.1,5.5,2.1c1.1,0,2.3-0.2,3.5-0.5L-61,330.8z"/>
		<polygon class="st5" points="-39.9,331.4 -55,331.4 -55,308.7 -41.2,308.7 -41.2,313 -48.3,313 -48.3,317.4 -41.4,317.4 
			-41.4,321.7 -48.3,321.7 -48.3,327.1 -39.9,327.1 		"/>
		<polygon class="st5" points="-5,313 -11.6,313 -11.6,331.4 -18.4,331.4 -18.4,313 -24.9,313 -24.9,308.7 -5,308.7 		"/>
		<polygon class="st5" points="21,331.4 14.2,331.4 14.2,321 6.9,321 6.9,331.4 0.2,331.4 0.2,308.7 6.9,308.7 6.9,316.7 
			14.2,316.7 14.2,308.7 21,308.7 		"/>
		<polygon class="st5" points="43.7,331.4 28.6,331.4 28.6,308.7 42.4,308.7 42.4,313 35.4,313 35.4,317.4 42.2,317.4 42.2,321.7 
			35.4,321.7 35.4,327.1 43.7,327.1 		"/>
		<path class="st5" d="M75.2,331.4h-6.5V320c0-0.8,0-2.3,0.1-4.5c-0.3,1.3-0.8,2.8-1.4,4.5l-4,11.4h-2.9l-4-11.4
			c-0.4-1.2-0.9-2.7-1.4-4.5c0.1,1.6,0.1,3.1,0.1,4.5v11.4H50v-22.7H58l4.8,13.9l4.6-13.9h7.8V331.4z"/>
		<polygon class="st5" points="97.9,331.4 82.8,331.4 82.8,308.7 96.6,308.7 96.6,313 89.5,313 89.5,317.4 96.4,317.4 96.4,321.7 
			89.5,321.7 89.5,327.1 97.9,327.1 		"/>
		<path class="st5" d="M118.6,325.1c0,2-0.8,3.6-2.4,4.9s-3.7,1.8-6.3,1.8c-2.7,0-5.1-0.7-7.2-2.1l2.1-3.8c1.3,1.1,2.6,1.6,4.1,1.6
			c0.8,0,1.5-0.2,2-0.6c0.6-0.4,0.8-0.9,0.8-1.6c0-0.6-0.3-1.2-0.8-1.9c-0.4-0.4-1.2-1.2-2.5-2.4c-0.8-0.7-1.9-1.6-3.1-2.8
			c-1.2-1.2-1.7-2.6-1.7-4c0-1.8,0.7-3.2,2.2-4.3c1.5-1.1,3.4-1.6,5.8-1.6c2.1,0,4.1,0.5,6,1.5l-1.8,3.6c-1.2-0.6-2.2-0.8-3.1-0.8
			c-1.4,0-2.1,0.5-2.1,1.4c0,0.4,0.1,0.7,0.4,1.1c0.3,0.4,0.9,1,1.9,1.8c1.2,1,2.3,2.1,3.4,3.2C117.9,321.7,118.6,323.3,118.6,325.1
			z"/>
	</g>
	<g>
		<path class="st6" d="M-256.5,330.8c-1.8,0.6-3.7,1-5.7,1c-4,0-7.2-1.1-9.7-3.2c-2.5-2.1-3.8-5-3.8-8.5c0-3.4,1.2-6.2,3.7-8.4
			c2.5-2.2,5.6-3.3,9.4-3.3c2,0,4,0.4,6.1,1.1l-1.7,4.1c-1.2-0.3-2.3-0.5-3.2-0.5c-2.2,0-3.9,0.6-5.2,1.9s-1.9,3-1.9,5.1
			c0,2,0.6,3.6,1.8,4.9c1.3,1.4,3.1,2.1,5.5,2.1c1.1,0,2.3-0.2,3.5-0.5L-256.5,330.8z"/>
		<path class="st6" d="M-236.1,320.2c0-4.7-1.4-7.1-4.2-7.1c-2.7,0-4.1,2.3-4.1,7c0,4.7,1.4,7,4.1,7
			C-237.5,327.1-236.1,324.8-236.1,320.2z M-229,320c0,3.4-1,6.2-3,8.4c-2.1,2.3-4.8,3.4-8.2,3.4s-6.1-1.1-8.2-3.4
			c-2-2.2-3.1-5-3.1-8.4c0-3.4,1.1-6.2,3.2-8.4c2.2-2.2,4.9-3.3,8.4-3.3c3.1,0,5.7,1.1,7.8,3.3C-230,313.9-229,316.6-229,320z"/>
		<polygon class="st6" points="-202.4,331.4 -206.8,331.4 -217,318.6 -217,331.4 -222.4,331.4 -222.4,308.7 -217.6,308.7 
			-207.8,321.3 -207.8,308.7 -202.4,308.7 		"/>
		<polygon class="st6" points="-181,313 -188.1,313 -188.1,318.5 -181.2,318.5 -181.2,322.8 -188.1,322.8 -188.1,331.4 
			-194.8,331.4 -194.8,308.7 -181,308.7 		"/>
		<polygon class="st6" points="-160,331.4 -175.2,331.4 -175.2,308.7 -161.4,308.7 -161.4,313 -168.4,313 -168.4,317.4 
			-161.5,317.4 -161.5,321.7 -168.4,321.7 -168.4,327.1 -160,327.1 		"/>
		<path class="st6" d="M-141.8,315.6c0-1.2-0.4-2-1.1-2.4c-0.5-0.3-1.4-0.5-2.8-0.5h-1.3v6.2h1.2c1.4,0,2.4-0.3,3-0.8
			C-142.1,317.5-141.8,316.7-141.8,315.6z M-134.2,331l-7.1,0.7l-3.8-9.3h-1.8v8.9h-6.8v-22.7h8.8c1.7,0,2.9,0,3.6,0.1
			c1.4,0.2,2.5,0.6,3.3,1.2c1.7,1.1,2.5,2.9,2.5,5.2c0,2.7-1.4,4.8-4.2,6.2L-134.2,331z"/>
		<polygon class="st6" points="-113.2,331.4 -128.4,331.4 -128.4,308.7 -114.6,308.7 -114.6,313 -121.6,313 -121.6,317.4 
			-114.7,317.4 -114.7,321.7 -121.6,321.7 -121.6,327.1 -113.2,327.1 		"/>
		<polygon class="st6" points="-86.9,331.4 -91.2,331.4 -101.5,318.6 -101.5,331.4 -106.8,331.4 -106.8,308.7 -102.1,308.7 
			-92.2,321.3 -92.2,308.7 -86.9,308.7 		"/>
		<path class="st6" d="M-61.1,330.8c-1.8,0.6-3.7,1-5.7,1c-4,0-7.2-1.1-9.7-3.2c-2.5-2.1-3.8-5-3.8-8.5c0-3.4,1.2-6.2,3.7-8.4
			c2.5-2.2,5.6-3.3,9.4-3.3c2,0,4,0.4,6.1,1.1l-1.7,4.1c-1.2-0.3-2.3-0.5-3.2-0.5c-2.2,0-3.9,0.6-5.2,1.9c-1.3,1.3-1.9,3-1.9,5.1
			c0,2,0.6,3.6,1.8,4.9c1.3,1.4,3.1,2.1,5.5,2.1c1.1,0,2.3-0.2,3.5-0.5L-61.1,330.8z"/>
		<polygon class="st6" points="-40,331.4 -55.1,331.4 -55.1,308.7 -41.3,308.7 -41.3,313 -48.4,313 -48.4,317.4 -41.5,317.4 
			-41.5,321.7 -48.4,321.7 -48.4,327.1 -40,327.1 		"/>
		<polygon class="st6" points="-5.1,313 -11.7,313 -11.7,331.4 -18.5,331.4 -18.5,313 -25,313 -25,308.7 -5.1,308.7 		"/>
		<polygon class="st6" points="20.9,331.4 14.1,331.4 14.1,321 6.8,321 6.8,331.4 0,331.4 0,308.7 6.8,308.7 6.8,316.7 14.1,316.7 
			14.1,308.7 20.9,308.7 		"/>
		<polygon class="st6" points="43.6,331.4 28.5,331.4 28.5,308.7 42.3,308.7 42.3,313 35.2,313 35.2,317.4 42.1,317.4 42.1,321.7 
			35.2,321.7 35.2,327.1 43.6,327.1 		"/>
		<path class="st6" d="M75.1,331.4h-6.5V320c0-0.8,0-2.3,0.1-4.5c-0.3,1.3-0.8,2.8-1.4,4.5l-4,11.4h-2.9l-4-11.4
			c-0.4-1.2-0.9-2.7-1.4-4.5c0.1,1.6,0.1,3.1,0.1,4.5v11.4h-5.3v-22.7h8.1l4.8,13.9l4.6-13.9h7.8V331.4z"/>
		<polygon class="st6" points="97.8,331.4 82.7,331.4 82.7,308.7 96.4,308.7 96.4,313 89.4,313 89.4,317.4 96.3,317.4 96.3,321.7 
			89.4,321.7 89.4,327.1 97.8,327.1 		"/>
		<path class="st6" d="M118.5,325.1c0,2-0.8,3.6-2.4,4.9s-3.7,1.8-6.3,1.8c-2.7,0-5.1-0.7-7.2-2.1l2.1-3.8c1.3,1.1,2.6,1.6,4.1,1.6
			c0.8,0,1.5-0.2,2-0.6c0.6-0.4,0.8-0.9,0.8-1.6c0-0.6-0.3-1.2-0.8-1.9c-0.4-0.4-1.2-1.2-2.5-2.4c-0.8-0.7-1.9-1.6-3.1-2.8
			c-1.2-1.2-1.7-2.6-1.7-4c0-1.8,0.7-3.2,2.2-4.3c1.5-1.1,3.4-1.6,5.8-1.6c2.1,0,4.1,0.5,6,1.5l-1.8,3.6c-1.2-0.6-2.2-0.8-3.1-0.8
			c-1.4,0-2.1,0.5-2.1,1.4c0,0.4,0.1,0.7,0.4,1.1c0.3,0.4,0.9,1,1.9,1.8c1.2,1,2.3,2.1,3.4,3.2C117.8,321.7,118.5,323.3,118.5,325.1
			z"/>
	</g>
	<g>
		<path class="st7" d="M-256.6,330.8c-1.8,0.6-3.7,1-5.7,1c-4,0-7.2-1.1-9.7-3.2c-2.5-2.1-3.8-5-3.8-8.5c0-3.4,1.2-6.2,3.7-8.4
			c2.5-2.2,5.6-3.3,9.4-3.3c2,0,4,0.4,6.1,1.1l-1.7,4.1c-1.2-0.3-2.3-0.5-3.2-0.5c-2.2,0-3.9,0.6-5.2,1.9s-1.9,3-1.9,5.1
			c0,2,0.6,3.6,1.8,4.9c1.3,1.4,3.1,2.1,5.5,2.1c1.1,0,2.3-0.2,3.5-0.5L-256.6,330.8z"/>
		<path class="st7" d="M-236.2,320.2c0-4.7-1.4-7.1-4.2-7.1c-2.7,0-4.1,2.3-4.1,7c0,4.7,1.4,7,4.1,7
			C-237.6,327.1-236.2,324.8-236.2,320.2z M-229.1,320c0,3.4-1,6.2-3,8.4c-2.1,2.3-4.8,3.4-8.2,3.4s-6.1-1.1-8.2-3.4
			c-2-2.2-3.1-5-3.1-8.4c0-3.4,1.1-6.2,3.2-8.4c2.2-2.2,4.9-3.3,8.4-3.3c3.1,0,5.7,1.1,7.8,3.3C-230.2,313.9-229.1,316.6-229.1,320z
			"/>
		<polygon class="st7" points="-202.6,331.4 -206.9,331.4 -217.1,318.6 -217.1,331.4 -222.5,331.4 -222.5,308.7 -217.8,308.7 
			-207.9,321.3 -207.9,308.7 -202.6,308.7 		"/>
		<polygon class="st7" points="-181.2,313 -188.2,313 -188.2,318.5 -181.3,318.5 -181.3,322.8 -188.2,322.8 -188.2,331.4 
			-195,331.4 -195,308.7 -181.2,308.7 		"/>
		<polygon class="st7" points="-160.1,331.4 -175.3,331.4 -175.3,308.7 -161.5,308.7 -161.5,313 -168.5,313 -168.5,317.4 
			-161.6,317.4 -161.6,321.7 -168.5,321.7 -168.5,327.1 -160.1,327.1 		"/>
		<path class="st7" d="M-141.9,315.6c0-1.2-0.4-2-1.1-2.4c-0.5-0.3-1.4-0.5-2.8-0.5h-1.3v6.2h1.2c1.4,0,2.4-0.3,3-0.8
			C-142.2,317.5-141.9,316.7-141.9,315.6z M-134.3,331l-7.1,0.7l-3.8-9.3h-1.8v8.9h-6.8v-22.7h8.8c1.7,0,2.9,0,3.6,0.1
			c1.4,0.2,2.5,0.6,3.3,1.2c1.7,1.1,2.5,2.9,2.5,5.2c0,2.7-1.4,4.8-4.2,6.2L-134.3,331z"/>
		<polygon class="st7" points="-113.3,331.4 -128.5,331.4 -128.5,308.7 -114.7,308.7 -114.7,313 -121.7,313 -121.7,317.4 
			-114.8,317.4 -114.8,321.7 -121.7,321.7 -121.7,327.1 -113.3,327.1 		"/>
		<polygon class="st7" points="-87,331.4 -91.3,331.4 -101.6,318.6 -101.6,331.4 -106.9,331.4 -106.9,308.7 -102.2,308.7 
			-92.4,321.3 -92.4,308.7 -87,308.7 		"/>
		<path class="st7" d="M-61.2,330.8c-1.8,0.6-3.7,1-5.7,1c-4,0-7.2-1.1-9.7-3.2c-2.5-2.1-3.8-5-3.8-8.5c0-3.4,1.2-6.2,3.7-8.4
			c2.5-2.2,5.6-3.3,9.4-3.3c2,0,4,0.4,6.1,1.1l-1.7,4.1c-1.2-0.3-2.3-0.5-3.2-0.5c-2.2,0-3.9,0.6-5.2,1.9c-1.3,1.3-1.9,3-1.9,5.1
			c0,2,0.6,3.6,1.8,4.9c1.3,1.4,3.1,2.1,5.5,2.1c1.1,0,2.3-0.2,3.5-0.5L-61.2,330.8z"/>
		<polygon class="st7" points="-40.1,331.4 -55.3,331.4 -55.3,308.7 -41.5,308.7 -41.5,313 -48.5,313 -48.5,317.4 -41.6,317.4 
			-41.6,321.7 -48.5,321.7 -48.5,327.1 -40.1,327.1 		"/>
		<polygon class="st7" points="-5.2,313 -11.9,313 -11.9,331.4 -18.6,331.4 -18.6,313 -25.1,313 -25.1,308.7 -5.2,308.7 		"/>
		<polygon class="st7" points="20.8,331.4 14,331.4 14,321 6.7,321 6.7,331.4 -0.1,331.4 -0.1,308.7 6.7,308.7 6.7,316.7 14,316.7 
			14,308.7 20.8,308.7 		"/>
		<polygon class="st7" points="43.5,331.4 28.4,331.4 28.4,308.7 42.2,308.7 42.2,313 35.1,313 35.1,317.4 42,317.4 42,321.7 
			35.1,321.7 35.1,327.1 43.5,327.1 		"/>
		<path class="st7" d="M75,331.4h-6.5V320c0-0.8,0-2.3,0.1-4.5c-0.3,1.3-0.8,2.8-1.4,4.5l-4,11.4h-2.9l-4-11.4
			c-0.4-1.2-0.9-2.7-1.4-4.5c0.1,1.6,0.1,3.1,0.1,4.5v11.4h-5.3v-22.7h8.1l4.8,13.9l4.6-13.9H75V331.4z"/>
		<polygon class="st7" points="97.7,331.4 82.5,331.4 82.5,308.7 96.3,308.7 96.3,313 89.3,313 89.3,317.4 96.2,317.4 96.2,321.7 
			89.3,321.7 89.3,327.1 97.7,327.1 		"/>
		<path class="st7" d="M118.4,325.1c0,2-0.8,3.6-2.4,4.9s-3.7,1.8-6.3,1.8c-2.7,0-5.1-0.7-7.2-2.1l2.1-3.8c1.3,1.1,2.6,1.6,4.1,1.6
			c0.8,0,1.5-0.2,2-0.6c0.6-0.4,0.8-0.9,0.8-1.6c0-0.6-0.3-1.2-0.8-1.9c-0.4-0.4-1.2-1.2-2.5-2.4c-0.8-0.7-1.9-1.6-3.1-2.8
			c-1.2-1.2-1.7-2.6-1.7-4c0-1.8,0.7-3.2,2.2-4.3c1.5-1.1,3.4-1.6,5.8-1.6c2.1,0,4.1,0.5,6,1.5l-1.8,3.6c-1.2-0.6-2.2-0.8-3.1-0.8
			c-1.4,0-2.1,0.5-2.1,1.4c0,0.4,0.1,0.7,0.4,1.1c0.3,0.4,0.9,1,1.9,1.8c1.2,1,2.3,2.1,3.4,3.2C117.7,321.7,118.4,323.3,118.4,325.1
			z"/>
	</g>
	<g>
		<path class="st8" d="M-256.8,330.8c-1.8,0.6-3.7,1-5.7,1c-4,0-7.2-1.1-9.7-3.2c-2.5-2.1-3.8-5-3.8-8.5c0-3.4,1.2-6.2,3.7-8.4
			c2.5-2.2,5.6-3.3,9.4-3.3c2,0,4,0.4,6.1,1.1l-1.7,4.1c-1.2-0.3-2.3-0.5-3.2-0.5c-2.2,0-3.9,0.6-5.2,1.9s-1.9,3-1.9,5.1
			c0,2,0.6,3.6,1.8,4.9c1.3,1.4,3.1,2.1,5.5,2.1c1.1,0,2.3-0.2,3.5-0.5L-256.8,330.8z"/>
		<path class="st8" d="M-236.4,320.2c0-4.7-1.4-7.1-4.2-7.1c-2.7,0-4.1,2.3-4.1,7c0,4.7,1.4,7,4.1,7
			C-237.7,327.1-236.4,324.8-236.4,320.2z M-229.2,320c0,3.4-1,6.2-3,8.4c-2.1,2.3-4.8,3.4-8.2,3.4s-6.1-1.1-8.2-3.4
			c-2-2.2-3.1-5-3.1-8.4c0-3.4,1.1-6.2,3.2-8.4c2.2-2.2,4.9-3.3,8.4-3.3c3.1,0,5.7,1.1,7.8,3.3C-230.3,313.9-229.2,316.6-229.2,320z
			"/>
		<polygon class="st8" points="-202.7,331.4 -207,331.4 -217.2,318.6 -217.2,331.4 -222.6,331.4 -222.6,308.7 -217.9,308.7 
			-208,321.3 -208,308.7 -202.7,308.7 		"/>
		<polygon class="st8" points="-181.3,313 -188.3,313 -188.3,318.5 -181.4,318.5 -181.4,322.8 -188.3,322.8 -188.3,331.4 
			-195.1,331.4 -195.1,308.7 -181.3,308.7 		"/>
		<polygon class="st8" points="-160.2,331.4 -175.4,331.4 -175.4,308.7 -161.6,308.7 -161.6,313 -168.6,313 -168.6,317.4 
			-161.7,317.4 -161.7,321.7 -168.6,321.7 -168.6,327.1 -160.2,327.1 		"/>
		<path class="st8" d="M-142,315.6c0-1.2-0.4-2-1.1-2.4c-0.5-0.3-1.4-0.5-2.8-0.5h-1.3v6.2h1.2c1.4,0,2.4-0.3,3-0.8
			C-142.3,317.5-142,316.7-142,315.6z M-134.4,331l-7.1,0.7l-3.8-9.3h-1.8v8.9h-6.8v-22.7h8.8c1.7,0,2.9,0,3.6,0.1
			c1.4,0.2,2.5,0.6,3.3,1.2c1.7,1.1,2.5,2.9,2.5,5.2c0,2.7-1.4,4.8-4.2,6.2L-134.4,331z"/>
		<polygon class="st8" points="-113.4,331.4 -128.6,331.4 -128.6,308.7 -114.8,308.7 -114.8,313 -121.8,313 -121.8,317.4 
			-115,317.4 -115,321.7 -121.8,321.7 -121.8,327.1 -113.4,327.1 		"/>
		<polygon class="st8" points="-87.1,331.4 -91.4,331.4 -101.7,318.6 -101.7,331.4 -107,331.4 -107,308.7 -102.3,308.7 -92.5,321.3 
			-92.5,308.7 -87.1,308.7 		"/>
		<path class="st8" d="M-61.4,330.8c-1.8,0.6-3.7,1-5.7,1c-4,0-7.2-1.1-9.7-3.2c-2.5-2.1-3.8-5-3.8-8.5c0-3.4,1.2-6.2,3.7-8.4
			c2.5-2.2,5.6-3.3,9.4-3.3c2,0,4,0.4,6.1,1.1l-1.7,4.1c-1.2-0.3-2.3-0.5-3.2-0.5c-2.2,0-3.9,0.6-5.2,1.9c-1.3,1.3-1.9,3-1.9,5.1
			c0,2,0.6,3.6,1.8,4.9c1.3,1.4,3.1,2.1,5.5,2.1c1.1,0,2.3-0.2,3.5-0.5L-61.4,330.8z"/>
		<polygon class="st8" points="-40.2,331.4 -55.4,331.4 -55.4,308.7 -41.6,308.7 -41.6,313 -48.6,313 -48.6,317.4 -41.7,317.4 
			-41.7,321.7 -48.6,321.7 -48.6,327.1 -40.2,327.1 		"/>
		<polygon class="st8" points="-5.3,313 -12,313 -12,331.4 -18.7,331.4 -18.7,313 -25.2,313 -25.2,308.7 -5.3,308.7 		"/>
		<polygon class="st8" points="20.6,331.4 13.9,331.4 13.9,321 6.6,321 6.6,331.4 -0.2,331.4 -0.2,308.7 6.6,308.7 6.6,316.7 
			13.9,316.7 13.9,308.7 20.6,308.7 		"/>
		<polygon class="st8" points="43.4,331.4 28.2,331.4 28.2,308.7 42,308.7 42,313 35,313 35,317.4 41.9,317.4 41.9,321.7 35,321.7 
			35,327.1 43.4,327.1 		"/>
		<path class="st8" d="M74.8,331.4h-6.5V320c0-0.8,0-2.3,0.1-4.5c-0.3,1.3-0.8,2.8-1.4,4.5l-4,11.4h-2.9l-4-11.4
			c-0.4-1.2-0.9-2.7-1.4-4.5c0.1,1.6,0.1,3.1,0.1,4.5v11.4h-5.3v-22.7h8.1l4.8,13.9l4.6-13.9h7.8V331.4z"/>
		<polygon class="st8" points="97.6,331.4 82.4,331.4 82.4,308.7 96.2,308.7 96.2,313 89.2,313 89.2,317.4 96.1,317.4 96.1,321.7 
			89.2,321.7 89.2,327.1 97.6,327.1 		"/>
		<path class="st8" d="M118.3,325.1c0,2-0.8,3.6-2.4,4.9s-3.7,1.8-6.3,1.8c-2.7,0-5.1-0.7-7.2-2.1l2.1-3.8c1.3,1.1,2.6,1.6,4.1,1.6
			c0.8,0,1.5-0.2,2-0.6c0.6-0.4,0.8-0.9,0.8-1.6c0-0.6-0.3-1.2-0.8-1.9c-0.4-0.4-1.2-1.2-2.5-2.4c-0.8-0.7-1.9-1.6-3.1-2.8
			c-1.2-1.2-1.7-2.6-1.7-4c0-1.8,0.7-3.2,2.2-4.3c1.5-1.1,3.4-1.6,5.8-1.6c2.1,0,4.1,0.5,6,1.5l-1.8,3.6c-1.2-0.6-2.2-0.8-3.1-0.8
			c-1.4,0-2.1,0.5-2.1,1.4c0,0.4,0.1,0.7,0.4,1.1c0.3,0.4,0.9,1,1.9,1.8c1.2,1,2.3,2.1,3.4,3.2C117.5,321.7,118.3,323.3,118.3,325.1
			z"/>
	</g>
	<g>
		<path class="st9" d="M-256.9,330.8c-1.8,0.6-3.7,1-5.7,1c-4,0-7.2-1.1-9.7-3.2c-2.5-2.1-3.8-5-3.8-8.5c0-3.4,1.2-6.2,3.7-8.4
			c2.5-2.2,5.6-3.3,9.4-3.3c2,0,4,0.4,6.1,1.1l-1.7,4.1c-1.2-0.3-2.3-0.5-3.2-0.5c-2.2,0-3.9,0.6-5.2,1.9s-1.9,3-1.9,5.1
			c0,2,0.6,3.6,1.8,4.9c1.3,1.4,3.1,2.1,5.5,2.1c1.1,0,2.3-0.2,3.5-0.5L-256.9,330.8z"/>
		<path class="st9" d="M-236.5,320.2c0-4.7-1.4-7.1-4.2-7.1c-2.7,0-4.1,2.3-4.1,7c0,4.7,1.4,7,4.1,7
			C-237.9,327.1-236.5,324.8-236.5,320.2z M-229.3,320c0,3.4-1,6.2-3,8.4c-2.1,2.3-4.8,3.4-8.2,3.4s-6.1-1.1-8.2-3.4
			c-2-2.2-3.1-5-3.1-8.4c0-3.4,1.1-6.2,3.2-8.4c2.2-2.2,4.9-3.3,8.4-3.3c3.1,0,5.7,1.1,7.8,3.3C-230.4,313.9-229.3,316.6-229.3,320z
			"/>
		<polygon class="st9" points="-202.8,331.4 -207.1,331.4 -217.4,318.6 -217.4,331.4 -222.7,331.4 -222.7,308.7 -218,308.7 
			-208.1,321.3 -208.1,308.7 -202.8,308.7 		"/>
		<polygon class="st9" points="-181.4,313 -188.4,313 -188.4,318.5 -181.5,318.5 -181.5,322.8 -188.4,322.8 -188.4,331.4 
			-195.2,331.4 -195.2,308.7 -181.4,308.7 		"/>
		<polygon class="st9" points="-160.3,331.4 -175.5,331.4 -175.5,308.7 -161.7,308.7 -161.7,313 -168.7,313 -168.7,317.4 
			-161.9,317.4 -161.9,321.7 -168.7,321.7 -168.7,327.1 -160.3,327.1 		"/>
		<path class="st9" d="M-142.1,315.6c0-1.2-0.4-2-1.1-2.4c-0.5-0.3-1.4-0.5-2.8-0.5h-1.3v6.2h1.2c1.4,0,2.4-0.3,3-0.8
			C-142.4,317.5-142.1,316.7-142.1,315.6z M-134.5,331l-7.1,0.7l-3.8-9.3h-1.8v8.9h-6.8v-22.7h8.8c1.7,0,2.9,0,3.6,0.1
			c1.4,0.2,2.5,0.6,3.3,1.2c1.7,1.1,2.5,2.9,2.5,5.2c0,2.7-1.4,4.8-4.2,6.2L-134.5,331z"/>
		<polygon class="st9" points="-113.5,331.4 -128.7,331.4 -128.7,308.7 -114.9,308.7 -114.9,313 -121.9,313 -121.9,317.4 
			-115.1,317.4 -115.1,321.7 -121.9,321.7 -121.9,327.1 -113.5,327.1 		"/>
		<polygon class="st9" points="-87.2,331.4 -91.6,331.4 -101.8,318.6 -101.8,331.4 -107.2,331.4 -107.2,308.7 -102.4,308.7 
			-92.6,321.3 -92.6,308.7 -87.2,308.7 		"/>
		<path class="st9" d="M-61.5,330.8c-1.8,0.6-3.7,1-5.7,1c-4,0-7.2-1.1-9.7-3.2c-2.5-2.1-3.8-5-3.8-8.5c0-3.4,1.2-6.2,3.7-8.4
			c2.5-2.2,5.6-3.3,9.4-3.3c2,0,4,0.4,6.1,1.1l-1.7,4.1c-1.2-0.3-2.3-0.5-3.2-0.5c-2.2,0-3.9,0.6-5.2,1.9c-1.3,1.3-1.9,3-1.9,5.1
			c0,2,0.6,3.6,1.8,4.9c1.3,1.4,3.1,2.1,5.5,2.1c1.1,0,2.3-0.2,3.5-0.5L-61.5,330.8z"/>
		<polygon class="st9" points="-40.3,331.4 -55.5,331.4 -55.5,308.7 -41.7,308.7 -41.7,313 -48.7,313 -48.7,317.4 -41.8,317.4 
			-41.8,321.7 -48.7,321.7 -48.7,327.1 -40.3,327.1 		"/>
		<polygon class="st9" points="-5.4,313 -12.1,313 -12.1,331.4 -18.9,331.4 -18.9,313 -25.4,313 -25.4,308.7 -5.4,308.7 		"/>
		<polygon class="st9" points="20.5,331.4 13.8,331.4 13.8,321 6.5,321 6.5,331.4 -0.3,331.4 -0.3,308.7 6.5,308.7 6.5,316.7 
			13.8,316.7 13.8,308.7 20.5,308.7 		"/>
		<polygon class="st9" points="43.3,331.4 28.1,331.4 28.1,308.7 41.9,308.7 41.9,313 34.9,313 34.9,317.4 41.8,317.4 41.8,321.7 
			34.9,321.7 34.9,327.1 43.3,327.1 		"/>
		<path class="st9" d="M74.7,331.4h-6.5V320c0-0.8,0-2.3,0.1-4.5c-0.3,1.3-0.8,2.8-1.4,4.5l-4,11.4h-2.9l-4-11.4
			c-0.4-1.2-0.9-2.7-1.4-4.5c0.1,1.6,0.1,3.1,0.1,4.5v11.4h-5.3v-22.7h8.1l4.8,13.9l4.6-13.9h7.8V331.4z"/>
		<polygon class="st9" points="97.5,331.4 82.3,331.4 82.3,308.7 96.1,308.7 96.1,313 89.1,313 89.1,317.4 95.9,317.4 95.9,321.7 
			89.1,321.7 89.1,327.1 97.5,327.1 		"/>
		<path class="st9" d="M118.2,325.1c0,2-0.8,3.6-2.4,4.9s-3.7,1.8-6.3,1.8c-2.7,0-5.1-0.7-7.2-2.1l2.1-3.8c1.3,1.1,2.6,1.6,4.1,1.6
			c0.8,0,1.5-0.2,2-0.6c0.6-0.4,0.8-0.9,0.8-1.6c0-0.6-0.3-1.2-0.8-1.9c-0.4-0.4-1.2-1.2-2.5-2.4c-0.8-0.7-1.9-1.6-3.1-2.8
			c-1.2-1.2-1.7-2.6-1.7-4c0-1.8,0.7-3.2,2.2-4.3c1.5-1.1,3.4-1.6,5.8-1.6c2.1,0,4.1,0.5,6,1.5l-1.8,3.6c-1.2-0.6-2.2-0.8-3.1-0.8
			c-1.4,0-2.1,0.5-2.1,1.4c0,0.4,0.1,0.7,0.4,1.1c0.3,0.4,0.9,1,1.9,1.8c1.2,1,2.3,2.1,3.4,3.2C117.4,321.7,118.2,323.3,118.2,325.1
			z"/>
	</g>
	<g>
		<path class="st10" d="M-257,330.8c-1.8,0.6-3.7,1-5.7,1c-4,0-7.2-1.1-9.7-3.2c-2.5-2.1-3.8-5-3.8-8.5c0-3.4,1.2-6.2,3.7-8.4
			c2.5-2.2,5.6-3.3,9.4-3.3c2,0,4,0.4,6.1,1.1l-1.7,4.1c-1.2-0.3-2.3-0.5-3.2-0.5c-2.2,0-3.9,0.6-5.2,1.9s-1.9,3-1.9,5.1
			c0,2,0.6,3.6,1.8,4.9c1.3,1.4,3.1,2.1,5.5,2.1c1.1,0,2.3-0.2,3.5-0.5L-257,330.8z"/>
		<path class="st10" d="M-236.6,320.2c0-4.7-1.4-7.1-4.2-7.1c-2.7,0-4.1,2.3-4.1,7c0,4.7,1.4,7,4.1,7
			C-238,327.1-236.6,324.8-236.6,320.2z M-229.5,320c0,3.4-1,6.2-3,8.4c-2.1,2.3-4.8,3.4-8.2,3.4s-6.1-1.1-8.2-3.4
			c-2-2.2-3.1-5-3.1-8.4c0-3.4,1.1-6.2,3.2-8.4c2.2-2.2,4.9-3.3,8.4-3.3c3.1,0,5.7,1.1,7.8,3.3C-230.5,313.9-229.5,316.6-229.5,320z
			"/>
		<polygon class="st10" points="-202.9,331.4 -207.2,331.4 -217.5,318.6 -217.5,331.4 -222.8,331.4 -222.8,308.7 -218.1,308.7 
			-208.2,321.3 -208.2,308.7 -202.9,308.7 		"/>
		<polygon class="st10" points="-181.5,313 -188.5,313 -188.5,318.5 -181.7,318.5 -181.7,322.8 -188.5,322.8 -188.5,331.4 
			-195.3,331.4 -195.3,308.7 -181.5,308.7 		"/>
		<polygon class="st10" points="-160.5,331.4 -175.6,331.4 -175.6,308.7 -161.8,308.7 -161.8,313 -168.8,313 -168.8,317.4 
			-162,317.4 -162,321.7 -168.8,321.7 -168.8,327.1 -160.5,327.1 		"/>
		<path class="st10" d="M-142.2,315.6c0-1.2-0.4-2-1.1-2.4c-0.5-0.3-1.4-0.5-2.8-0.5h-1.3v6.2h1.2c1.4,0,2.4-0.3,3-0.8
			C-142.5,317.5-142.2,316.7-142.2,315.6z M-134.6,331l-7.1,0.7l-3.8-9.3h-1.8v8.9h-6.8v-22.7h8.8c1.7,0,2.9,0,3.6,0.1
			c1.4,0.2,2.5,0.6,3.3,1.2c1.7,1.1,2.5,2.9,2.5,5.2c0,2.7-1.4,4.8-4.2,6.2L-134.6,331z"/>
		<polygon class="st10" points="-113.7,331.4 -128.8,331.4 -128.8,308.7 -115,308.7 -115,313 -122,313 -122,317.4 -115.2,317.4 
			-115.2,321.7 -122,321.7 -122,327.1 -113.7,327.1 		"/>
		<polygon class="st10" points="-87.4,331.4 -91.7,331.4 -101.9,318.6 -101.9,331.4 -107.3,331.4 -107.3,308.7 -102.6,308.7 
			-92.7,321.3 -92.7,308.7 -87.4,308.7 		"/>
		<path class="st10" d="M-61.6,330.8c-1.8,0.6-3.7,1-5.7,1c-4,0-7.2-1.1-9.7-3.2c-2.5-2.1-3.8-5-3.8-8.5c0-3.4,1.2-6.2,3.7-8.4
			c2.5-2.2,5.6-3.3,9.4-3.3c2,0,4,0.4,6.1,1.1l-1.7,4.1c-1.2-0.3-2.3-0.5-3.2-0.5c-2.2,0-3.9,0.6-5.2,1.9c-1.3,1.3-1.9,3-1.9,5.1
			c0,2,0.6,3.6,1.8,4.9c1.3,1.4,3.1,2.1,5.5,2.1c1.1,0,2.3-0.2,3.5-0.5L-61.6,330.8z"/>
		<polygon class="st10" points="-40.4,331.4 -55.6,331.4 -55.6,308.7 -41.8,308.7 -41.8,313 -48.8,313 -48.8,317.4 -42,317.4 
			-42,321.7 -48.8,321.7 -48.8,327.1 -40.4,327.1 		"/>
		<polygon class="st10" points="-5.6,313 -12.2,313 -12.2,331.4 -19,331.4 -19,313 -25.5,313 -25.5,308.7 -5.6,308.7 		"/>
		<polygon class="st10" points="20.4,331.4 13.6,331.4 13.6,321 6.4,321 6.4,331.4 -0.4,331.4 -0.4,308.7 6.4,308.7 6.4,316.7 
			13.6,316.7 13.6,308.7 20.4,308.7 		"/>
		<polygon class="st10" points="43.2,331.4 28,331.4 28,308.7 41.8,308.7 41.8,313 34.8,313 34.8,317.4 41.7,317.4 41.7,321.7 
			34.8,321.7 34.8,327.1 43.2,327.1 		"/>
		<path class="st10" d="M74.6,331.4h-6.5V320c0-0.8,0-2.3,0.1-4.5c-0.3,1.3-0.8,2.8-1.4,4.5l-4,11.4H60L56,320
			c-0.4-1.2-0.9-2.7-1.4-4.5c0.1,1.6,0.1,3.1,0.1,4.5v11.4h-5.3v-22.7h8.1l4.8,13.9l4.6-13.9h7.8V331.4z"/>
		<polygon class="st10" points="97.4,331.4 82.2,331.4 82.2,308.7 96,308.7 96,313 89,313 89,317.4 95.8,317.4 95.8,321.7 89,321.7 
			89,327.1 97.4,327.1 		"/>
		<path class="st10" d="M118,325.1c0,2-0.8,3.6-2.4,4.9s-3.7,1.8-6.3,1.8c-2.7,0-5.1-0.7-7.2-2.1l2.1-3.8c1.3,1.1,2.6,1.6,4.1,1.6
			c0.8,0,1.5-0.2,2-0.6c0.6-0.4,0.8-0.9,0.8-1.6c0-0.6-0.3-1.2-0.8-1.9c-0.4-0.4-1.2-1.2-2.5-2.4c-0.8-0.7-1.9-1.6-3.1-2.8
			c-1.2-1.2-1.7-2.6-1.7-4c0-1.8,0.7-3.2,2.2-4.3c1.5-1.1,3.4-1.6,5.8-1.6c2.1,0,4.1,0.5,6,1.5l-1.8,3.6c-1.2-0.6-2.2-0.8-3.1-0.8
			c-1.4,0-2.1,0.5-2.1,1.4c0,0.4,0.1,0.7,0.4,1.1c0.3,0.4,0.9,1,1.9,1.8c1.2,1,2.3,2.1,3.4,3.2C117.3,321.7,118,323.3,118,325.1z"/>
	</g>
	<g>
		<path class="st11" d="M-257.1,330.8c-1.8,0.6-3.7,1-5.7,1c-4,0-7.2-1.1-9.7-3.2c-2.5-2.1-3.8-5-3.8-8.5c0-3.4,1.2-6.2,3.7-8.4
			c2.5-2.2,5.6-3.3,9.4-3.3c2,0,4,0.4,6.1,1.1l-1.7,4.1c-1.2-0.3-2.3-0.5-3.2-0.5c-2.2,0-3.9,0.6-5.2,1.9s-1.9,3-1.9,5.1
			c0,2,0.6,3.6,1.8,4.9c1.3,1.4,3.1,2.1,5.5,2.1c1.1,0,2.3-0.2,3.5-0.5L-257.1,330.8z"/>
		<path class="st11" d="M-236.7,320.2c0-4.7-1.4-7.1-4.2-7.1c-2.7,0-4.1,2.3-4.1,7c0,4.7,1.4,7,4.1,7
			C-238.1,327.1-236.7,324.8-236.7,320.2z M-229.6,320c0,3.4-1,6.2-3,8.4c-2.1,2.3-4.8,3.4-8.2,3.4s-6.1-1.1-8.2-3.4
			c-2-2.2-3.1-5-3.1-8.4c0-3.4,1.1-6.2,3.2-8.4c2.2-2.2,4.9-3.3,8.4-3.3c3.1,0,5.7,1.1,7.8,3.3C-230.6,313.9-229.6,316.6-229.6,320z
			"/>
		<polygon class="st11" points="-203,331.4 -207.3,331.4 -217.6,318.6 -217.6,331.4 -222.9,331.4 -222.9,308.7 -218.2,308.7 
			-208.4,321.3 -208.4,308.7 -203,308.7 		"/>
		<polygon class="st11" points="-181.6,313 -188.6,313 -188.6,318.5 -181.8,318.5 -181.8,322.8 -188.6,322.8 -188.6,331.4 
			-195.4,331.4 -195.4,308.7 -181.6,308.7 		"/>
		<polygon class="st11" points="-160.6,331.4 -175.7,331.4 -175.7,308.7 -161.9,308.7 -161.9,313 -169,313 -169,317.4 -162.1,317.4 
			-162.1,321.7 -169,321.7 -169,327.1 -160.6,327.1 		"/>
		<path class="st11" d="M-142.3,315.6c0-1.2-0.4-2-1.1-2.4c-0.5-0.3-1.4-0.5-2.8-0.5h-1.3v6.2h1.2c1.4,0,2.4-0.3,3-0.8
			C-142.6,317.5-142.3,316.7-142.3,315.6z M-134.7,331l-7.1,0.7l-3.8-9.3h-1.8v8.9h-6.8v-22.7h8.8c1.7,0,2.9,0,3.6,0.1
			c1.4,0.2,2.5,0.6,3.3,1.2c1.7,1.1,2.5,2.9,2.5,5.2c0,2.7-1.4,4.8-4.2,6.2L-134.7,331z"/>
		<polygon class="st11" points="-113.8,331.4 -128.9,331.4 -128.9,308.7 -115.1,308.7 -115.1,313 -122.2,313 -122.2,317.4 
			-115.3,317.4 -115.3,321.7 -122.2,321.7 -122.2,327.1 -113.8,327.1 		"/>
		<polygon class="st11" points="-87.5,331.4 -91.8,331.4 -102,318.6 -102,331.4 -107.4,331.4 -107.4,308.7 -102.7,308.7 
			-92.8,321.3 -92.8,308.7 -87.5,308.7 		"/>
		<path class="st11" d="M-61.7,330.8c-1.8,0.6-3.7,1-5.7,1c-4,0-7.2-1.1-9.7-3.2c-2.5-2.1-3.8-5-3.8-8.5c0-3.4,1.2-6.2,3.7-8.4
			c2.5-2.2,5.6-3.3,9.4-3.3c2,0,4,0.4,6.1,1.1l-1.7,4.1c-1.2-0.3-2.3-0.5-3.2-0.5c-2.2,0-3.9,0.6-5.2,1.9c-1.3,1.3-1.9,3-1.9,5.1
			c0,2,0.6,3.6,1.8,4.9c1.3,1.4,3.1,2.1,5.5,2.1c1.1,0,2.3-0.2,3.5-0.5L-61.7,330.8z"/>
		<polygon class="st11" points="-40.6,331.4 -55.7,331.4 -55.7,308.7 -41.9,308.7 -41.9,313 -48.9,313 -48.9,317.4 -42.1,317.4 
			-42.1,321.7 -48.9,321.7 -48.9,327.1 -40.6,327.1 		"/>
		<polygon class="st11" points="-5.7,313 -12.3,313 -12.3,331.4 -19.1,331.4 -19.1,313 -25.6,313 -25.6,308.7 -5.7,308.7 		"/>
		<polygon class="st11" points="20.3,331.4 13.5,331.4 13.5,321 6.2,321 6.2,331.4 -0.5,331.4 -0.5,308.7 6.2,308.7 6.2,316.7 
			13.5,316.7 13.5,308.7 20.3,308.7 		"/>
		<polygon class="st11" points="43.1,331.4 27.9,331.4 27.9,308.7 41.7,308.7 41.7,313 34.7,313 34.7,317.4 41.5,317.4 41.5,321.7 
			34.7,321.7 34.7,327.1 43.1,327.1 		"/>
		<path class="st11" d="M74.5,331.4H68V320c0-0.8,0-2.3,0.1-4.5c-0.3,1.3-0.8,2.8-1.4,4.5l-4,11.4h-2.9l-4-11.4
			c-0.4-1.2-0.9-2.7-1.4-4.5c0.1,1.6,0.1,3.1,0.1,4.5v11.4h-5.3v-22.7h8.1l4.8,13.9l4.6-13.9h7.8V331.4z"/>
		<polygon class="st11" points="97.2,331.4 82.1,331.4 82.1,308.7 95.9,308.7 95.9,313 88.8,313 88.8,317.4 95.7,317.4 95.7,321.7 
			88.8,321.7 88.8,327.1 97.2,327.1 		"/>
		<path class="st11" d="M117.9,325.1c0,2-0.8,3.6-2.4,4.9s-3.7,1.8-6.3,1.8c-2.7,0-5.1-0.7-7.2-2.1l2.1-3.8c1.3,1.1,2.6,1.6,4.1,1.6
			c0.8,0,1.5-0.2,2-0.6c0.6-0.4,0.8-0.9,0.8-1.6c0-0.6-0.3-1.2-0.8-1.9c-0.4-0.4-1.2-1.2-2.5-2.4c-0.8-0.7-1.9-1.6-3.1-2.8
			c-1.2-1.2-1.7-2.6-1.7-4c0-1.8,0.7-3.2,2.2-4.3c1.5-1.1,3.4-1.6,5.8-1.6c2.1,0,4.1,0.5,6,1.5l-1.8,3.6c-1.2-0.6-2.2-0.8-3.1-0.8
			c-1.4,0-2.1,0.5-2.1,1.4c0,0.4,0.1,0.7,0.4,1.1c0.3,0.4,0.9,1,1.9,1.8c1.2,1,2.3,2.1,3.4,3.2C117.2,321.7,117.9,323.3,117.9,325.1
			z"/>
	</g>
	<g>
		<path class="st12" d="M-257.2,330.8c-1.8,0.6-3.7,1-5.7,1c-4,0-7.2-1.1-9.7-3.2c-2.5-2.1-3.8-5-3.8-8.5c0-3.4,1.2-6.2,3.7-8.4
			c2.5-2.2,5.6-3.3,9.4-3.3c2,0,4,0.4,6.1,1.1l-1.7,4.1c-1.2-0.3-2.3-0.5-3.2-0.5c-2.2,0-3.9,0.6-5.2,1.9s-1.9,3-1.9,5.1
			c0,2,0.6,3.6,1.8,4.9c1.3,1.4,3.1,2.1,5.5,2.1c1.1,0,2.3-0.2,3.5-0.5L-257.2,330.8z"/>
		<path class="st12" d="M-236.8,320.2c0-4.7-1.4-7.1-4.2-7.1c-2.7,0-4.1,2.3-4.1,7c0,4.7,1.4,7,4.1,7
			C-238.2,327.1-236.8,324.8-236.8,320.2z M-229.7,320c0,3.4-1,6.2-3,8.4c-2.1,2.3-4.8,3.4-8.2,3.4s-6.1-1.1-8.2-3.4
			c-2-2.2-3.1-5-3.1-8.4c0-3.4,1.1-6.2,3.2-8.4c2.2-2.2,4.9-3.3,8.4-3.3c3.1,0,5.7,1.1,7.8,3.3C-230.7,313.9-229.7,316.6-229.7,320z
			"/>
		<polygon class="st12" points="-203.1,331.4 -207.4,331.4 -217.7,318.6 -217.7,331.4 -223,331.4 -223,308.7 -218.3,308.7 
			-208.5,321.3 -208.5,308.7 -203.1,308.7 		"/>
		<polygon class="st12" points="-181.7,313 -188.8,313 -188.8,318.5 -181.9,318.5 -181.9,322.8 -188.8,322.8 -188.8,331.4 
			-195.5,331.4 -195.5,308.7 -181.7,308.7 		"/>
		<polygon class="st12" points="-160.7,331.4 -175.8,331.4 -175.8,308.7 -162,308.7 -162,313 -169.1,313 -169.1,317.4 -162.2,317.4 
			-162.2,321.7 -169.1,321.7 -169.1,327.1 -160.7,327.1 		"/>
		<path class="st12" d="M-142.4,315.6c0-1.2-0.4-2-1.1-2.4c-0.5-0.3-1.4-0.5-2.8-0.5h-1.3v6.2h1.2c1.4,0,2.4-0.3,3-0.8
			C-142.7,317.5-142.4,316.7-142.4,315.6z M-134.8,331l-7.1,0.7l-3.8-9.3h-1.8v8.9h-6.8v-22.7h8.8c1.7,0,2.9,0,3.6,0.1
			c1.4,0.2,2.5,0.6,3.3,1.2c1.7,1.1,2.5,2.9,2.5,5.2c0,2.7-1.4,4.8-4.2,6.2L-134.8,331z"/>
		<polygon class="st12" points="-113.9,331.4 -129,331.4 -129,308.7 -115.2,308.7 -115.2,313 -122.3,313 -122.3,317.4 -115.4,317.4 
			-115.4,321.7 -122.3,321.7 -122.3,327.1 -113.9,327.1 		"/>
		<polygon class="st12" points="-87.6,331.4 -91.9,331.4 -102.2,318.6 -102.2,331.4 -107.5,331.4 -107.5,308.7 -102.8,308.7 
			-92.9,321.3 -92.9,308.7 -87.6,308.7 		"/>
		<path class="st12" d="M-61.8,330.8c-1.8,0.6-3.7,1-5.7,1c-4,0-7.2-1.1-9.7-3.2c-2.5-2.1-3.8-5-3.8-8.5c0-3.4,1.2-6.2,3.7-8.4
			c2.5-2.2,5.6-3.3,9.4-3.3c2,0,4,0.4,6.1,1.1l-1.7,4.1c-1.2-0.3-2.3-0.5-3.2-0.5c-2.2,0-3.9,0.6-5.2,1.9c-1.3,1.3-1.9,3-1.9,5.1
			c0,2,0.6,3.6,1.8,4.9c1.3,1.4,3.1,2.1,5.5,2.1c1.1,0,2.3-0.2,3.5-0.5L-61.8,330.8z"/>
		<polygon class="st12" points="-40.7,331.4 -55.8,331.4 -55.8,308.7 -42,308.7 -42,313 -49.1,313 -49.1,317.4 -42.2,317.4 
			-42.2,321.7 -49.1,321.7 -49.1,327.1 -40.7,327.1 		"/>
		<polygon class="st12" points="-5.8,313 -12.4,313 -12.4,331.4 -19.2,331.4 -19.2,313 -25.7,313 -25.7,308.7 -5.8,308.7 		"/>
		<polygon class="st12" points="20.2,331.4 13.4,331.4 13.4,321 6.1,321 6.1,331.4 -0.6,331.4 -0.6,308.7 6.1,308.7 6.1,316.7 
			13.4,316.7 13.4,308.7 20.2,308.7 		"/>
		<polygon class="st12" points="42.9,331.4 27.8,331.4 27.8,308.7 41.6,308.7 41.6,313 34.6,313 34.6,317.4 41.4,317.4 41.4,321.7 
			34.6,321.7 34.6,327.1 42.9,327.1 		"/>
		<path class="st12" d="M74.4,331.4h-6.5V320c0-0.8,0-2.3,0.1-4.5c-0.3,1.3-0.8,2.8-1.4,4.5l-4,11.4h-2.9l-4-11.4
			c-0.4-1.2-0.9-2.7-1.4-4.5c0.1,1.6,0.1,3.1,0.1,4.5v11.4h-5.3v-22.7h8.1l4.8,13.9l4.6-13.9h7.8V331.4z"/>
		<polygon class="st12" points="97.1,331.4 82,331.4 82,308.7 95.8,308.7 95.8,313 88.7,313 88.7,317.4 95.6,317.4 95.6,321.7 
			88.7,321.7 88.7,327.1 97.1,327.1 		"/>
		<path class="st12" d="M117.8,325.1c0,2-0.8,3.6-2.4,4.9s-3.7,1.8-6.3,1.8c-2.7,0-5.1-0.7-7.2-2.1l2.1-3.8c1.3,1.1,2.6,1.6,4.1,1.6
			c0.8,0,1.5-0.2,2-0.6c0.6-0.4,0.8-0.9,0.8-1.6c0-0.6-0.3-1.2-0.8-1.9c-0.4-0.4-1.2-1.2-2.5-2.4c-0.8-0.7-1.9-1.6-3.1-2.8
			c-1.2-1.2-1.7-2.6-1.7-4c0-1.8,0.7-3.2,2.2-4.3c1.5-1.1,3.4-1.6,5.8-1.6c2.1,0,4.1,0.5,6,1.5l-1.8,3.6c-1.2-0.6-2.2-0.8-3.1-0.8
			c-1.4,0-2.1,0.5-2.1,1.4c0,0.4,0.1,0.7,0.4,1.1c0.3,0.4,0.9,1,1.9,1.8c1.2,1,2.3,2.1,3.4,3.2C117.1,321.7,117.8,323.3,117.8,325.1
			z"/>
	</g>
	<g>
		<path class="st13" d="M-257.3,330.8c-1.8,0.6-3.7,1-5.7,1c-4,0-7.2-1.1-9.7-3.2c-2.5-2.1-3.8-5-3.8-8.5c0-3.4,1.2-6.2,3.7-8.4
			c2.5-2.2,5.6-3.3,9.4-3.3c2,0,4,0.4,6.1,1.1l-1.7,4.1c-1.2-0.3-2.3-0.5-3.2-0.5c-2.2,0-3.9,0.6-5.2,1.9s-1.9,3-1.9,5.1
			c0,2,0.6,3.6,1.8,4.9c1.3,1.4,3.1,2.1,5.5,2.1c1.1,0,2.3-0.2,3.5-0.5L-257.3,330.8z"/>
		<path class="st13" d="M-236.9,320.2c0-4.7-1.4-7.1-4.2-7.1c-2.7,0-4.1,2.3-4.1,7c0,4.7,1.4,7,4.1,7
			C-238.3,327.1-236.9,324.8-236.9,320.2z M-229.8,320c0,3.4-1,6.2-3,8.4c-2.1,2.3-4.8,3.4-8.2,3.4s-6.1-1.1-8.2-3.4
			c-2-2.2-3.1-5-3.1-8.4c0-3.4,1.1-6.2,3.2-8.4c2.2-2.2,4.9-3.3,8.4-3.3c3.1,0,5.7,1.1,7.8,3.3C-230.8,313.9-229.8,316.6-229.8,320z
			"/>
		<polygon class="st13" points="-203.2,331.4 -207.6,331.4 -217.8,318.6 -217.8,331.4 -223.2,331.4 -223.2,308.7 -218.4,308.7 
			-208.6,321.3 -208.6,308.7 -203.2,308.7 		"/>
		<polygon class="st13" points="-181.8,313 -188.9,313 -188.9,318.5 -182,318.5 -182,322.8 -188.9,322.8 -188.9,331.4 -195.6,331.4 
			-195.6,308.7 -181.8,308.7 		"/>
		<polygon class="st13" points="-160.8,331.4 -175.9,331.4 -175.9,308.7 -162.2,308.7 -162.2,313 -169.2,313 -169.2,317.4 
			-162.3,317.4 -162.3,321.7 -169.2,321.7 -169.2,327.1 -160.8,327.1 		"/>
		<path class="st13" d="M-142.6,315.6c0-1.2-0.4-2-1.1-2.4c-0.5-0.3-1.4-0.5-2.8-0.5h-1.3v6.2h1.2c1.4,0,2.4-0.3,3-0.8
			C-142.9,317.5-142.6,316.7-142.6,315.6z M-135,331l-7.1,0.7l-3.8-9.3h-1.8v8.9h-6.8v-22.7h8.8c1.7,0,2.9,0,3.6,0.1
			c1.4,0.2,2.5,0.6,3.3,1.2c1.7,1.1,2.5,2.9,2.5,5.2c0,2.7-1.4,4.8-4.2,6.2L-135,331z"/>
		<polygon class="st13" points="-114,331.4 -129.2,331.4 -129.2,308.7 -115.4,308.7 -115.4,313 -122.4,313 -122.4,317.4 
			-115.5,317.4 -115.5,321.7 -122.4,321.7 -122.4,327.1 -114,327.1 		"/>
		<polygon class="st13" points="-87.7,331.4 -92,331.4 -102.3,318.6 -102.3,331.4 -107.6,331.4 -107.6,308.7 -102.9,308.7 
			-93,321.3 -93,308.7 -87.7,308.7 		"/>
		<path class="st13" d="M-61.9,330.8c-1.8,0.6-3.7,1-5.7,1c-4,0-7.2-1.1-9.7-3.2c-2.5-2.1-3.8-5-3.8-8.5c0-3.4,1.2-6.2,3.7-8.4
			c2.5-2.2,5.6-3.3,9.4-3.3c2,0,4,0.4,6.1,1.1l-1.7,4.1c-1.2-0.3-2.3-0.5-3.2-0.5c-2.2,0-3.9,0.6-5.2,1.9c-1.3,1.3-1.9,3-1.9,5.1
			c0,2,0.6,3.6,1.8,4.9c1.3,1.4,3.1,2.1,5.5,2.1c1.1,0,2.3-0.2,3.5-0.5L-61.9,330.8z"/>
		<polygon class="st13" points="-40.8,331.4 -55.9,331.4 -55.9,308.7 -42.1,308.7 -42.1,313 -49.2,313 -49.2,317.4 -42.3,317.4 
			-42.3,321.7 -49.2,321.7 -49.2,327.1 -40.8,327.1 		"/>
		<polygon class="st13" points="-5.9,313 -12.5,313 -12.5,331.4 -19.3,331.4 -19.3,313 -25.8,313 -25.8,308.7 -5.9,308.7 		"/>
		<polygon class="st13" points="20.1,331.4 13.3,331.4 13.3,321 6,321 6,331.4 -0.8,331.4 -0.8,308.7 6,308.7 6,316.7 13.3,316.7 
			13.3,308.7 20.1,308.7 		"/>
		<polygon class="st13" points="42.8,331.4 27.7,331.4 27.7,308.7 41.5,308.7 41.5,313 34.4,313 34.4,317.4 41.3,317.4 41.3,321.7 
			34.4,321.7 34.4,327.1 42.8,327.1 		"/>
		<path class="st13" d="M74.3,331.4h-6.5V320c0-0.8,0-2.3,0.1-4.5c-0.3,1.3-0.8,2.8-1.4,4.5l-4,11.4h-2.9l-4-11.4
			c-0.4-1.2-0.9-2.7-1.4-4.5c0.1,1.6,0.1,3.1,0.1,4.5v11.4H49v-22.7h8.1l4.8,13.9l4.6-13.9h7.8V331.4z"/>
		<polygon class="st13" points="97,331.4 81.9,331.4 81.9,308.7 95.6,308.7 95.6,313 88.6,313 88.6,317.4 95.5,317.4 95.5,321.7 
			88.6,321.7 88.6,327.1 97,327.1 		"/>
		<path class="st13" d="M117.7,325.1c0,2-0.8,3.6-2.4,4.9s-3.7,1.8-6.3,1.8c-2.7,0-5.1-0.7-7.2-2.1l2.1-3.8c1.3,1.1,2.6,1.6,4.1,1.6
			c0.8,0,1.5-0.2,2-0.6c0.6-0.4,0.8-0.9,0.8-1.6c0-0.6-0.3-1.2-0.8-1.9c-0.4-0.4-1.2-1.2-2.5-2.4c-0.8-0.7-1.9-1.6-3.1-2.8
			c-1.2-1.2-1.7-2.6-1.7-4c0-1.8,0.7-3.2,2.2-4.3c1.5-1.1,3.4-1.6,5.8-1.6c2.1,0,4.1,0.5,6,1.5l-1.8,3.6c-1.2-0.6-2.2-0.8-3.1-0.8
			c-1.4,0-2.1,0.5-2.1,1.4c0,0.4,0.1,0.7,0.4,1.1c0.3,0.4,0.9,1,1.9,1.8c1.2,1,2.3,2.1,3.4,3.2C117,321.7,117.7,323.3,117.7,325.1z"
			/>
	</g>
	<g>
		<path class="st14" d="M-257.4,330.8c-1.8,0.6-3.7,1-5.7,1c-4,0-7.2-1.1-9.7-3.2c-2.5-2.1-3.8-5-3.8-8.5c0-3.4,1.2-6.2,3.7-8.4
			c2.5-2.2,5.6-3.3,9.4-3.3c2,0,4,0.4,6.1,1.1l-1.7,4.1c-1.2-0.3-2.3-0.5-3.2-0.5c-2.2,0-3.9,0.6-5.2,1.9s-1.9,3-1.9,5.1
			c0,2,0.6,3.6,1.8,4.9c1.3,1.4,3.1,2.1,5.5,2.1c1.1,0,2.3-0.2,3.5-0.5L-257.4,330.8z"/>
		<path class="st14" d="M-237,320.2c0-4.7-1.4-7.1-4.2-7.1c-2.7,0-4.1,2.3-4.1,7c0,4.7,1.4,7,4.1,7
			C-238.4,327.1-237,324.8-237,320.2z M-229.9,320c0,3.4-1,6.2-3,8.4c-2.1,2.3-4.8,3.4-8.2,3.4s-6.1-1.1-8.2-3.4
			c-2-2.2-3.1-5-3.1-8.4c0-3.4,1.1-6.2,3.2-8.4c2.2-2.2,4.9-3.3,8.4-3.3c3.1,0,5.7,1.1,7.8,3.3C-231,313.9-229.9,316.6-229.9,320z"
			/>
		<polygon class="st14" points="-203.4,331.4 -207.7,331.4 -217.9,318.6 -217.9,331.4 -223.3,331.4 -223.3,308.7 -218.6,308.7 
			-208.7,321.3 -208.7,308.7 -203.4,308.7 		"/>
		<polygon class="st14" points="-182,313 -189,313 -189,318.5 -182.1,318.5 -182.1,322.8 -189,322.8 -189,331.4 -195.8,331.4 
			-195.8,308.7 -182,308.7 		"/>
		<polygon class="st14" points="-160.9,331.4 -176.1,331.4 -176.1,308.7 -162.3,308.7 -162.3,313 -169.3,313 -169.3,317.4 
			-162.4,317.4 -162.4,321.7 -169.3,321.7 -169.3,327.1 -160.9,327.1 		"/>
		<path class="st14" d="M-142.7,315.6c0-1.2-0.4-2-1.1-2.4c-0.5-0.3-1.4-0.5-2.8-0.5h-1.3v6.2h1.2c1.4,0,2.4-0.3,3-0.8
			C-143,317.5-142.7,316.7-142.7,315.6z M-135.1,331l-7.1,0.7l-3.8-9.3h-1.8v8.9h-6.8v-22.7h8.8c1.7,0,2.9,0,3.6,0.1
			c1.4,0.2,2.5,0.6,3.3,1.2c1.7,1.1,2.5,2.9,2.5,5.2c0,2.7-1.4,4.8-4.2,6.2L-135.1,331z"/>
		<polygon class="st14" points="-114.1,331.4 -129.3,331.4 -129.3,308.7 -115.5,308.7 -115.5,313 -122.5,313 -122.5,317.4 
			-115.6,317.4 -115.6,321.7 -122.5,321.7 -122.5,327.1 -114.1,327.1 		"/>
		<polygon class="st14" points="-87.8,331.4 -92.1,331.4 -102.4,318.6 -102.4,331.4 -107.7,331.4 -107.7,308.7 -103,308.7 
			-93.2,321.3 -93.2,308.7 -87.8,308.7 		"/>
		<path class="st14" d="M-62,330.8c-1.8,0.6-3.7,1-5.7,1c-4,0-7.2-1.1-9.7-3.2c-2.5-2.1-3.8-5-3.8-8.5c0-3.4,1.2-6.2,3.7-8.4
			c2.5-2.2,5.6-3.3,9.4-3.3c2,0,4,0.4,6.1,1.1l-1.7,4.1c-1.2-0.3-2.3-0.5-3.2-0.5c-2.2,0-3.9,0.6-5.2,1.9c-1.3,1.3-1.9,3-1.9,5.1
			c0,2,0.6,3.6,1.8,4.9c1.3,1.4,3.1,2.1,5.5,2.1c1.1,0,2.3-0.2,3.5-0.5L-62,330.8z"/>
		<polygon class="st14" points="-40.9,331.4 -56.1,331.4 -56.1,308.7 -42.3,308.7 -42.3,313 -49.3,313 -49.3,317.4 -42.4,317.4 
			-42.4,321.7 -49.3,321.7 -49.3,327.1 -40.9,327.1 		"/>
		<polygon class="st14" points="-6,313 -12.7,313 -12.7,331.4 -19.4,331.4 -19.4,313 -25.9,313 -25.9,308.7 -6,308.7 		"/>
		<polygon class="st14" points="20,331.4 13.2,331.4 13.2,321 5.9,321 5.9,331.4 -0.9,331.4 -0.9,308.7 5.9,308.7 5.9,316.7 
			13.2,316.7 13.2,308.7 20,308.7 		"/>
		<polygon class="st14" points="42.7,331.4 27.6,331.4 27.6,308.7 41.4,308.7 41.4,313 34.3,313 34.3,317.4 41.2,317.4 41.2,321.7 
			34.3,321.7 34.3,327.1 42.7,327.1 		"/>
		<path class="st14" d="M74.2,331.4h-6.5V320c0-0.8,0-2.3,0.1-4.5c-0.3,1.3-0.8,2.8-1.4,4.5l-4,11.4h-2.9l-4-11.4
			c-0.4-1.2-0.9-2.7-1.4-4.5c0.1,1.6,0.1,3.1,0.1,4.5v11.4h-5.3v-22.7H57l4.8,13.9l4.6-13.9h7.8V331.4z"/>
		<polygon class="st14" points="96.9,331.4 81.7,331.4 81.7,308.7 95.5,308.7 95.5,313 88.5,313 88.5,317.4 95.4,317.4 95.4,321.7 
			88.5,321.7 88.5,327.1 96.9,327.1 		"/>
		<path class="st14" d="M117.6,325.1c0,2-0.8,3.6-2.4,4.9s-3.7,1.8-6.3,1.8c-2.7,0-5.1-0.7-7.2-2.1l2.1-3.8c1.3,1.1,2.6,1.6,4.1,1.6
			c0.8,0,1.5-0.2,2-0.6c0.6-0.4,0.8-0.9,0.8-1.6c0-0.6-0.3-1.2-0.8-1.9c-0.4-0.4-1.2-1.2-2.5-2.4c-0.8-0.7-1.9-1.6-3.1-2.8
			c-1.2-1.2-1.7-2.6-1.7-4c0-1.8,0.7-3.2,2.2-4.3c1.5-1.1,3.4-1.6,5.8-1.6c2.1,0,4.1,0.5,6,1.5l-1.8,3.6c-1.2-0.6-2.2-0.8-3.1-0.8
			c-1.4,0-2.1,0.5-2.1,1.4c0,0.4,0.1,0.7,0.4,1.1c0.3,0.4,0.9,1,1.9,1.8c1.2,1,2.3,2.1,3.4,3.2C116.9,321.7,117.6,323.3,117.6,325.1
			z"/>
	</g>
	<g>
		<path class="st15" d="M-257.6,330.8c-1.8,0.6-3.7,1-5.7,1c-4,0-7.2-1.1-9.7-3.2c-2.5-2.1-3.8-5-3.8-8.5c0-3.4,1.2-6.2,3.7-8.4
			c2.5-2.2,5.6-3.3,9.4-3.3c2,0,4,0.4,6.1,1.1l-1.7,4.1c-1.2-0.3-2.3-0.5-3.2-0.5c-2.2,0-3.9,0.6-5.2,1.9s-1.9,3-1.9,5.1
			c0,2,0.6,3.6,1.8,4.9c1.3,1.4,3.1,2.1,5.5,2.1c1.1,0,2.3-0.2,3.5-0.5L-257.6,330.8z"/>
		<path class="st15" d="M-237.2,320.2c0-4.7-1.4-7.1-4.2-7.1c-2.7,0-4.1,2.3-4.1,7c0,4.7,1.4,7,4.1,7
			C-238.5,327.1-237.2,324.8-237.2,320.2z M-230,320c0,3.4-1,6.2-3,8.4c-2.1,2.3-4.8,3.4-8.2,3.4s-6.1-1.1-8.2-3.4
			c-2-2.2-3.1-5-3.1-8.4c0-3.4,1.1-6.2,3.2-8.4c2.2-2.2,4.9-3.3,8.4-3.3c3.1,0,5.7,1.1,7.8,3.3C-231.1,313.9-230,316.6-230,320z"/>
		<polygon class="st15" points="-203.5,331.4 -207.8,331.4 -218,318.6 -218,331.4 -223.4,331.4 -223.4,308.7 -218.7,308.7 
			-208.8,321.3 -208.8,308.7 -203.5,308.7 		"/>
		<polygon class="st15" points="-182.1,313 -189.1,313 -189.1,318.5 -182.2,318.5 -182.2,322.8 -189.1,322.8 -189.1,331.4 
			-195.9,331.4 -195.9,308.7 -182.1,308.7 		"/>
		<polygon class="st15" points="-161,331.4 -176.2,331.4 -176.2,308.7 -162.4,308.7 -162.4,313 -169.4,313 -169.4,317.4 
			-162.5,317.4 -162.5,321.7 -169.4,321.7 -169.4,327.1 -161,327.1 		"/>
		<path class="st15" d="M-142.8,315.6c0-1.2-0.4-2-1.1-2.4c-0.5-0.3-1.4-0.5-2.8-0.5h-1.3v6.2h1.2c1.4,0,2.4-0.3,3-0.8
			C-143.1,317.5-142.8,316.7-142.8,315.6z M-135.2,331l-7.1,0.7l-3.8-9.3h-1.8v8.9h-6.8v-22.7h8.8c1.7,0,2.9,0,3.6,0.1
			c1.4,0.2,2.5,0.6,3.3,1.2c1.7,1.1,2.5,2.9,2.5,5.2c0,2.7-1.4,4.8-4.2,6.2L-135.2,331z"/>
		<polygon class="st15" points="-114.2,331.4 -129.4,331.4 -129.4,308.7 -115.6,308.7 -115.6,313 -122.6,313 -122.6,317.4 
			-115.8,317.4 -115.8,321.7 -122.6,321.7 -122.6,327.1 -114.2,327.1 		"/>
		<polygon class="st15" points="-87.9,331.4 -92.2,331.4 -102.5,318.6 -102.5,331.4 -107.8,331.4 -107.8,308.7 -103.1,308.7 
			-93.3,321.3 -93.3,308.7 -87.9,308.7 		"/>
		<path class="st15" d="M-62.2,330.8c-1.8,0.6-3.7,1-5.7,1c-4,0-7.2-1.1-9.7-3.2c-2.5-2.1-3.8-5-3.8-8.5c0-3.4,1.2-6.2,3.7-8.4
			c2.5-2.2,5.6-3.3,9.4-3.3c2,0,4,0.4,6.1,1.1l-1.7,4.1c-1.2-0.3-2.3-0.5-3.2-0.5c-2.2,0-3.9,0.6-5.2,1.9c-1.3,1.3-1.9,3-1.9,5.1
			c0,2,0.6,3.6,1.8,4.9c1.3,1.4,3.1,2.1,5.5,2.1c1.1,0,2.3-0.2,3.5-0.5L-62.2,330.8z"/>
		<polygon class="st15" points="-41,331.4 -56.2,331.4 -56.2,308.7 -42.4,308.7 -42.4,313 -49.4,313 -49.4,317.4 -42.5,317.4 
			-42.5,321.7 -49.4,321.7 -49.4,327.1 -41,327.1 		"/>
		<polygon class="st15" points="-6.1,313 -12.8,313 -12.8,331.4 -19.5,331.4 -19.5,313 -26,313 -26,308.7 -6.1,308.7 		"/>
		<polygon class="st15" points="19.8,331.4 13.1,331.4 13.1,321 5.8,321 5.8,331.4 -1,331.4 -1,308.7 5.8,308.7 5.8,316.7 
			13.1,316.7 13.1,308.7 19.8,308.7 		"/>
		<polygon class="st15" points="42.6,331.4 27.4,331.4 27.4,308.7 41.2,308.7 41.2,313 34.2,313 34.2,317.4 41.1,317.4 41.1,321.7 
			34.2,321.7 34.2,327.1 42.6,327.1 		"/>
		<path class="st15" d="M74,331.4h-6.5V320c0-0.8,0-2.3,0.1-4.5c-0.3,1.3-0.8,2.8-1.4,4.5l-4,11.4h-2.9l-4-11.4
			c-0.4-1.2-0.9-2.7-1.4-4.5c0.1,1.6,0.1,3.1,0.1,4.5v11.4h-5.3v-22.7h8.1l4.8,13.9l4.6-13.9H74V331.4z"/>
		<polygon class="st15" points="96.8,331.4 81.6,331.4 81.6,308.7 95.4,308.7 95.4,313 88.4,313 88.4,317.4 95.3,317.4 95.3,321.7 
			88.4,321.7 88.4,327.1 96.8,327.1 		"/>
		<path class="st15" d="M117.5,325.1c0,2-0.8,3.6-2.4,4.9s-3.7,1.8-6.3,1.8c-2.7,0-5.1-0.7-7.2-2.1l2.1-3.8c1.3,1.1,2.6,1.6,4.1,1.6
			c0.8,0,1.5-0.2,2-0.6c0.6-0.4,0.8-0.9,0.8-1.6c0-0.6-0.3-1.2-0.8-1.9c-0.4-0.4-1.2-1.2-2.5-2.4c-0.8-0.7-1.9-1.6-3.1-2.8
			c-1.2-1.2-1.7-2.6-1.7-4c0-1.8,0.7-3.2,2.2-4.3c1.5-1.1,3.4-1.6,5.8-1.6c2.1,0,4.1,0.5,6,1.5l-1.8,3.6c-1.2-0.6-2.2-0.8-3.1-0.8
			c-1.4,0-2.1,0.5-2.1,1.4c0,0.4,0.1,0.7,0.4,1.1c0.3,0.4,0.9,1,1.9,1.8c1.2,1,2.3,2.1,3.4,3.2C116.7,321.7,117.5,323.3,117.5,325.1
			z"/>
	</g>
	<g>
		<path class="st16" d="M-257.7,330.8c-1.8,0.6-3.7,1-5.7,1c-4,0-7.2-1.1-9.7-3.2c-2.5-2.1-3.8-5-3.8-8.5c0-3.4,1.2-6.2,3.7-8.4
			c2.5-2.2,5.6-3.3,9.4-3.3c2,0,4,0.4,6.1,1.1l-1.7,4.1c-1.2-0.3-2.3-0.5-3.2-0.5c-2.2,0-3.9,0.6-5.2,1.9s-1.9,3-1.9,5.1
			c0,2,0.6,3.6,1.8,4.9c1.3,1.4,3.1,2.1,5.5,2.1c1.1,0,2.3-0.2,3.5-0.5L-257.7,330.8z"/>
		<path class="st16" d="M-237.3,320.2c0-4.7-1.4-7.1-4.2-7.1c-2.7,0-4.1,2.3-4.1,7c0,4.7,1.4,7,4.1,7
			C-238.7,327.1-237.3,324.8-237.3,320.2z M-230.1,320c0,3.4-1,6.2-3,8.4c-2.1,2.3-4.8,3.4-8.2,3.4s-6.1-1.1-8.2-3.4
			c-2-2.2-3.1-5-3.1-8.4c0-3.4,1.1-6.2,3.2-8.4c2.2-2.2,4.9-3.3,8.4-3.3c3.1,0,5.7,1.1,7.8,3.3C-231.2,313.9-230.1,316.6-230.1,320z
			"/>
		<polygon class="st16" points="-203.6,331.4 -207.9,331.4 -218.2,318.6 -218.2,331.4 -223.5,331.4 -223.5,308.7 -218.8,308.7 
			-208.9,321.3 -208.9,308.7 -203.6,308.7 		"/>
		<polygon class="st16" points="-182.2,313 -189.2,313 -189.2,318.5 -182.3,318.5 -182.3,322.8 -189.2,322.8 -189.2,331.4 
			-196,331.4 -196,308.7 -182.2,308.7 		"/>
		<polygon class="st16" points="-161.1,331.4 -176.3,331.4 -176.3,308.7 -162.5,308.7 -162.5,313 -169.5,313 -169.5,317.4 
			-162.7,317.4 -162.7,321.7 -169.5,321.7 -169.5,327.1 -161.1,327.1 		"/>
		<path class="st16" d="M-142.9,315.6c0-1.2-0.4-2-1.1-2.4c-0.5-0.3-1.4-0.5-2.8-0.5h-1.3v6.2h1.2c1.4,0,2.4-0.3,3-0.8
			C-143.2,317.5-142.9,316.7-142.9,315.6z M-135.3,331l-7.1,0.7l-3.8-9.3h-1.8v8.9h-6.8v-22.7h8.8c1.7,0,2.9,0,3.6,0.1
			c1.4,0.2,2.5,0.6,3.3,1.2c1.7,1.1,2.5,2.9,2.5,5.2c0,2.7-1.4,4.8-4.2,6.2L-135.3,331z"/>
		<polygon class="st16" points="-114.3,331.4 -129.5,331.4 -129.5,308.7 -115.7,308.7 -115.7,313 -122.7,313 -122.7,317.4 
			-115.9,317.4 -115.9,321.7 -122.7,321.7 -122.7,327.1 -114.3,327.1 		"/>
		<polygon class="st16" points="-88,331.4 -92.4,331.4 -102.6,318.6 -102.6,331.4 -108,331.4 -108,308.7 -103.2,308.7 -93.4,321.3 
			-93.4,308.7 -88,308.7 		"/>
		<path class="st16" d="M-62.3,330.8c-1.8,0.6-3.7,1-5.7,1c-4,0-7.2-1.1-9.7-3.2c-2.5-2.1-3.8-5-3.8-8.5c0-3.4,1.2-6.2,3.7-8.4
			c2.5-2.2,5.6-3.3,9.4-3.3c2,0,4,0.4,6.1,1.1l-1.7,4.1c-1.2-0.3-2.3-0.5-3.2-0.5c-2.2,0-3.9,0.6-5.2,1.9c-1.3,1.3-1.9,3-1.9,5.1
			c0,2,0.6,3.6,1.8,4.9c1.3,1.4,3.1,2.1,5.5,2.1c1.1,0,2.3-0.2,3.5-0.5L-62.3,330.8z"/>
		<polygon class="st16" points="-41.1,331.4 -56.3,331.4 -56.3,308.7 -42.5,308.7 -42.5,313 -49.5,313 -49.5,317.4 -42.6,317.4 
			-42.6,321.7 -49.5,321.7 -49.5,327.1 -41.1,327.1 		"/>
		<polygon class="st16" points="-6.2,313 -12.9,313 -12.9,331.4 -19.7,331.4 -19.7,313 -26.2,313 -26.2,308.7 -6.2,308.7 		"/>
		<polygon class="st16" points="19.7,331.4 13,331.4 13,321 5.7,321 5.7,331.4 -1.1,331.4 -1.1,308.7 5.7,308.7 5.7,316.7 13,316.7 
			13,308.7 19.7,308.7 		"/>
		<polygon class="st16" points="42.5,331.4 27.3,331.4 27.3,308.7 41.1,308.7 41.1,313 34.1,313 34.1,317.4 41,317.4 41,321.7 
			34.1,321.7 34.1,327.1 42.5,327.1 		"/>
		<path class="st16" d="M73.9,331.4h-6.5V320c0-0.8,0-2.3,0.1-4.5c-0.3,1.3-0.8,2.8-1.4,4.5l-4,11.4h-2.9l-4-11.4
			c-0.4-1.2-0.9-2.7-1.4-4.5C54,317,54,318.5,54,320v11.4h-5.3v-22.7h8.1l4.8,13.9l4.6-13.9h7.8V331.4z"/>
		<polygon class="st16" points="96.7,331.4 81.5,331.4 81.5,308.7 95.3,308.7 95.3,313 88.3,313 88.3,317.4 95.1,317.4 95.1,321.7 
			88.3,321.7 88.3,327.1 96.7,327.1 		"/>
		<path class="st16" d="M117.4,325.1c0,2-0.8,3.6-2.4,4.9s-3.7,1.8-6.3,1.8c-2.7,0-5.1-0.7-7.2-2.1l2.1-3.8c1.3,1.1,2.6,1.6,4.1,1.6
			c0.8,0,1.5-0.2,2-0.6c0.6-0.4,0.8-0.9,0.8-1.6c0-0.6-0.3-1.2-0.8-1.9c-0.4-0.4-1.2-1.2-2.5-2.4c-0.8-0.7-1.9-1.6-3.1-2.8
			c-1.2-1.2-1.7-2.6-1.7-4c0-1.8,0.7-3.2,2.2-4.3c1.5-1.1,3.4-1.6,5.8-1.6c2.1,0,4.1,0.5,6,1.5l-1.8,3.6c-1.2-0.6-2.2-0.8-3.1-0.8
			c-1.4,0-2.1,0.5-2.1,1.4c0,0.4,0.1,0.7,0.4,1.1c0.3,0.4,0.9,1,1.9,1.8c1.2,1,2.3,2.1,3.4,3.2C116.6,321.7,117.4,323.3,117.4,325.1
			z"/>
	</g>
	<g>
		<path class="st17" d="M-257.8,330.8c-1.8,0.6-3.7,1-5.7,1c-4,0-7.2-1.1-9.7-3.2c-2.5-2.1-3.8-5-3.8-8.5c0-3.4,1.2-6.2,3.7-8.4
			c2.5-2.2,5.6-3.3,9.4-3.3c2,0,4,0.4,6.1,1.1l-1.7,4.1c-1.2-0.3-2.3-0.5-3.2-0.5c-2.2,0-3.9,0.6-5.2,1.9s-1.9,3-1.9,5.1
			c0,2,0.6,3.6,1.8,4.9c1.3,1.4,3.1,2.1,5.5,2.1c1.1,0,2.3-0.2,3.5-0.5L-257.8,330.8z"/>
		<path class="st17" d="M-237.4,320.2c0-4.7-1.4-7.1-4.2-7.1c-2.7,0-4.1,2.3-4.1,7c0,4.7,1.4,7,4.1,7
			C-238.8,327.1-237.4,324.8-237.4,320.2z M-230.3,320c0,3.4-1,6.2-3,8.4c-2.1,2.3-4.8,3.4-8.2,3.4s-6.1-1.1-8.2-3.4
			c-2-2.2-3.1-5-3.1-8.4c0-3.4,1.1-6.2,3.2-8.4c2.2-2.2,4.9-3.3,8.4-3.3c3.1,0,5.7,1.1,7.8,3.3C-231.3,313.9-230.3,316.6-230.3,320z
			"/>
		<polygon class="st17" points="-203.7,331.4 -208,331.4 -218.3,318.6 -218.3,331.4 -223.6,331.4 -223.6,308.7 -218.9,308.7 
			-209,321.3 -209,308.7 -203.7,308.7 		"/>
		<polygon class="st17" points="-182.3,313 -189.3,313 -189.3,318.5 -182.5,318.5 -182.5,322.8 -189.3,322.8 -189.3,331.4 
			-196.1,331.4 -196.1,308.7 -182.3,308.7 		"/>
		<polygon class="st17" points="-161.3,331.4 -176.4,331.4 -176.4,308.7 -162.6,308.7 -162.6,313 -169.6,313 -169.6,317.4 
			-162.8,317.4 -162.8,321.7 -169.6,321.7 -169.6,327.1 -161.3,327.1 		"/>
		<path class="st17" d="M-143,315.6c0-1.2-0.4-2-1.1-2.4c-0.5-0.3-1.4-0.5-2.8-0.5h-1.3v6.2h1.2c1.4,0,2.4-0.3,3-0.8
			C-143.3,317.5-143,316.7-143,315.6z M-135.4,331l-7.1,0.7l-3.8-9.3h-1.8v8.9h-6.8v-22.7h8.8c1.7,0,2.9,0,3.6,0.1
			c1.4,0.2,2.5,0.6,3.3,1.2c1.7,1.1,2.5,2.9,2.5,5.2c0,2.7-1.4,4.8-4.2,6.2L-135.4,331z"/>
		<polygon class="st17" points="-114.5,331.4 -129.6,331.4 -129.6,308.7 -115.8,308.7 -115.8,313 -122.8,313 -122.8,317.4 
			-116,317.4 -116,321.7 -122.8,321.7 -122.8,327.1 -114.5,327.1 		"/>
		<polygon class="st17" points="-88.2,331.4 -92.5,331.4 -102.7,318.6 -102.7,331.4 -108.1,331.4 -108.1,308.7 -103.3,308.7 
			-93.5,321.3 -93.5,308.7 -88.2,308.7 		"/>
		<path class="st17" d="M-62.4,330.8c-1.8,0.6-3.7,1-5.7,1c-4,0-7.2-1.1-9.7-3.2c-2.5-2.1-3.8-5-3.8-8.5c0-3.4,1.2-6.2,3.7-8.4
			c2.5-2.2,5.6-3.3,9.4-3.3c2,0,4,0.4,6.1,1.1l-1.7,4.1c-1.2-0.3-2.3-0.5-3.2-0.5c-2.2,0-3.9,0.6-5.2,1.9c-1.3,1.3-1.9,3-1.9,5.1
			c0,2,0.6,3.6,1.8,4.9c1.3,1.4,3.1,2.1,5.5,2.1c1.1,0,2.3-0.2,3.5-0.5L-62.4,330.8z"/>
		<polygon class="st17" points="-41.2,331.4 -56.4,331.4 -56.4,308.7 -42.6,308.7 -42.6,313 -49.6,313 -49.6,317.4 -42.8,317.4 
			-42.8,321.7 -49.6,321.7 -49.6,327.1 -41.2,327.1 		"/>
		<polygon class="st17" points="-6.4,313 -13,313 -13,331.4 -19.8,331.4 -19.8,313 -26.3,313 -26.3,308.7 -6.4,308.7 		"/>
		<polygon class="st17" points="19.6,331.4 12.8,331.4 12.8,321 5.6,321 5.6,331.4 -1.2,331.4 -1.2,308.7 5.6,308.7 5.6,316.7 
			12.8,316.7 12.8,308.7 19.6,308.7 		"/>
		<polygon class="st17" points="42.4,331.4 27.2,331.4 27.2,308.7 41,308.7 41,313 34,313 34,317.4 40.9,317.4 40.9,321.7 34,321.7 
			34,327.1 42.4,327.1 		"/>
		<path class="st17" d="M73.8,331.4h-6.5V320c0-0.8,0-2.3,0.1-4.5c-0.3,1.3-0.8,2.8-1.4,4.5l-4,11.4h-2.9l-4-11.4
			c-0.4-1.2-0.9-2.7-1.4-4.5c0.1,1.6,0.1,3.1,0.1,4.5v11.4h-5.3v-22.7h8.1l4.8,13.9l4.6-13.9h7.8V331.4z"/>
		<polygon class="st17" points="96.6,331.4 81.4,331.4 81.4,308.7 95.2,308.7 95.2,313 88.2,313 88.2,317.4 95,317.4 95,321.7 
			88.2,321.7 88.2,327.1 96.6,327.1 		"/>
		<path class="st17" d="M117.2,325.1c0,2-0.8,3.6-2.4,4.9s-3.7,1.8-6.3,1.8c-2.7,0-5.1-0.7-7.2-2.1l2.1-3.8c1.3,1.1,2.6,1.6,4.1,1.6
			c0.8,0,1.5-0.2,2-0.6c0.6-0.4,0.8-0.9,0.8-1.6c0-0.6-0.3-1.2-0.8-1.9c-0.4-0.4-1.2-1.2-2.5-2.4c-0.8-0.7-1.9-1.6-3.1-2.8
			c-1.2-1.2-1.7-2.6-1.7-4c0-1.8,0.7-3.2,2.2-4.3c1.5-1.1,3.4-1.6,5.8-1.6c2.1,0,4.1,0.5,6,1.5l-1.8,3.6c-1.2-0.6-2.2-0.8-3.1-0.8
			c-1.4,0-2.1,0.5-2.1,1.4c0,0.4,0.1,0.7,0.4,1.1c0.3,0.4,0.9,1,1.9,1.8c1.2,1,2.3,2.1,3.4,3.2C116.5,321.7,117.2,323.3,117.2,325.1
			z"/>
	</g>
	<g>
		<path class="st18" d="M-257.9,330.8c-1.8,0.6-3.7,1-5.7,1c-4,0-7.2-1.1-9.7-3.2c-2.5-2.1-3.8-5-3.8-8.5c0-3.4,1.2-6.2,3.7-8.4
			c2.5-2.2,5.6-3.3,9.4-3.3c2,0,4,0.4,6.1,1.1l-1.7,4.1c-1.2-0.3-2.3-0.5-3.2-0.5c-2.2,0-3.9,0.6-5.2,1.9s-1.9,3-1.9,5.1
			c0,2,0.6,3.6,1.8,4.9c1.3,1.4,3.1,2.1,5.5,2.1c1.1,0,2.3-0.2,3.5-0.5L-257.9,330.8z"/>
		<path class="st18" d="M-237.5,320.2c0-4.7-1.4-7.1-4.2-7.1c-2.7,0-4.1,2.3-4.1,7c0,4.7,1.4,7,4.1,7
			C-238.9,327.1-237.5,324.8-237.5,320.2z M-230.4,320c0,3.4-1,6.2-3,8.4c-2.1,2.3-4.8,3.4-8.2,3.4s-6.1-1.1-8.2-3.4
			c-2-2.2-3.1-5-3.1-8.4c0-3.4,1.1-6.2,3.2-8.4c2.2-2.2,4.9-3.3,8.4-3.3c3.1,0,5.7,1.1,7.8,3.3C-231.4,313.9-230.4,316.6-230.4,320z
			"/>
		<polygon class="st18" points="-203.8,331.4 -208.1,331.4 -218.4,318.6 -218.4,331.4 -223.7,331.4 -223.7,308.7 -219,308.7 
			-209.2,321.3 -209.2,308.7 -203.8,308.7 		"/>
		<polygon class="st18" points="-182.4,313 -189.4,313 -189.4,318.5 -182.6,318.5 -182.6,322.8 -189.4,322.8 -189.4,331.4 
			-196.2,331.4 -196.2,308.7 -182.4,308.7 		"/>
		<polygon class="st18" points="-161.4,331.4 -176.5,331.4 -176.5,308.7 -162.7,308.7 -162.7,313 -169.8,313 -169.8,317.4 
			-162.9,317.4 -162.9,321.7 -169.8,321.7 -169.8,327.1 -161.4,327.1 		"/>
		<path class="st18" d="M-143.1,315.6c0-1.2-0.4-2-1.1-2.4c-0.5-0.3-1.4-0.5-2.8-0.5h-1.3v6.2h1.2c1.4,0,2.4-0.3,3-0.8
			C-143.4,317.5-143.1,316.7-143.1,315.6z M-135.5,331l-7.1,0.7l-3.8-9.3h-1.8v8.9h-6.8v-22.7h8.8c1.7,0,2.9,0,3.6,0.1
			c1.4,0.2,2.5,0.6,3.3,1.2c1.7,1.1,2.5,2.9,2.5,5.2c0,2.7-1.4,4.8-4.2,6.2L-135.5,331z"/>
		<polygon class="st18" points="-114.6,331.4 -129.7,331.4 -129.7,308.7 -115.9,308.7 -115.9,313 -123,313 -123,317.4 -116.1,317.4 
			-116.1,321.7 -123,321.7 -123,327.1 -114.6,327.1 		"/>
		<polygon class="st18" points="-88.3,331.4 -92.6,331.4 -102.8,318.6 -102.8,331.4 -108.2,331.4 -108.2,308.7 -103.5,308.7 
			-93.6,321.3 -93.6,308.7 -88.3,308.7 		"/>
		<path class="st18" d="M-62.5,330.8c-1.8,0.6-3.7,1-5.7,1c-4,0-7.2-1.1-9.7-3.2c-2.5-2.1-3.8-5-3.8-8.5c0-3.4,1.2-6.2,3.7-8.4
			c2.5-2.2,5.6-3.3,9.4-3.3c2,0,4,0.4,6.1,1.1l-1.7,4.1c-1.2-0.3-2.3-0.5-3.2-0.5c-2.2,0-3.9,0.6-5.2,1.9c-1.3,1.3-1.9,3-1.9,5.1
			c0,2,0.6,3.6,1.8,4.9c1.3,1.4,3.1,2.1,5.5,2.1c1.1,0,2.3-0.2,3.5-0.5L-62.5,330.8z"/>
		<polygon class="st18" points="-41.4,331.4 -56.5,331.4 -56.5,308.7 -42.7,308.7 -42.7,313 -49.7,313 -49.7,317.4 -42.9,317.4 
			-42.9,321.7 -49.7,321.7 -49.7,327.1 -41.4,327.1 		"/>
		<polygon class="st18" points="-6.5,313 -13.1,313 -13.1,331.4 -19.9,331.4 -19.9,313 -26.4,313 -26.4,308.7 -6.5,308.7 		"/>
		<polygon class="st18" points="19.5,331.4 12.7,331.4 12.7,321 5.4,321 5.4,331.4 -1.3,331.4 -1.3,308.7 5.4,308.7 5.4,316.7 
			12.7,316.7 12.7,308.7 19.5,308.7 		"/>
		<polygon class="st18" points="42.3,331.4 27.1,331.4 27.1,308.7 40.9,308.7 40.9,313 33.9,313 33.9,317.4 40.7,317.4 40.7,321.7 
			33.9,321.7 33.9,327.1 42.3,327.1 		"/>
		<path class="st18" d="M73.7,331.4h-6.5V320c0-0.8,0-2.3,0.1-4.5c-0.3,1.3-0.8,2.8-1.4,4.5l-4,11.4h-2.9l-4-11.4
			c-0.4-1.2-0.9-2.7-1.4-4.5c0.1,1.6,0.1,3.1,0.1,4.5v11.4h-5.3v-22.7h8.1l4.8,13.9l4.6-13.9h7.8V331.4z"/>
		<polygon class="st18" points="96.4,331.4 81.3,331.4 81.3,308.7 95.1,308.7 95.1,313 88,313 88,317.4 94.9,317.4 94.9,321.7 
			88,321.7 88,327.1 96.4,327.1 		"/>
		<path class="st18" d="M117.1,325.1c0,2-0.8,3.6-2.4,4.9s-3.7,1.8-6.3,1.8c-2.7,0-5.1-0.7-7.2-2.1l2.1-3.8c1.3,1.1,2.6,1.6,4.1,1.6
			c0.8,0,1.5-0.2,2-0.6c0.6-0.4,0.8-0.9,0.8-1.6c0-0.6-0.3-1.2-0.8-1.9c-0.4-0.4-1.2-1.2-2.5-2.4c-0.8-0.7-1.9-1.6-3.1-2.8
			c-1.2-1.2-1.7-2.6-1.7-4c0-1.8,0.7-3.2,2.2-4.3c1.5-1.1,3.4-1.6,5.8-1.6c2.1,0,4.1,0.5,6,1.5l-1.8,3.6c-1.2-0.6-2.2-0.8-3.1-0.8
			c-1.4,0-2.1,0.5-2.1,1.4c0,0.4,0.1,0.7,0.4,1.1c0.3,0.4,0.9,1,1.9,1.8c1.2,1,2.3,2.1,3.4,3.2C116.4,321.7,117.1,323.3,117.1,325.1
			z"/>
	</g>
	<g>
		<path class="st19" d="M-258,330.8c-1.8,0.6-3.7,1-5.7,1c-4,0-7.2-1.1-9.7-3.2c-2.5-2.1-3.8-5-3.8-8.5c0-3.4,1.2-6.2,3.7-8.4
			c2.5-2.2,5.6-3.3,9.4-3.3c2,0,4,0.4,6.1,1.1l-1.7,4.1c-1.2-0.3-2.3-0.5-3.2-0.5c-2.2,0-3.9,0.6-5.2,1.9s-1.9,3-1.9,5.1
			c0,2,0.6,3.6,1.8,4.9c1.3,1.4,3.1,2.1,5.5,2.1c1.1,0,2.3-0.2,3.5-0.5L-258,330.8z"/>
		<path class="st19" d="M-237.6,320.2c0-4.7-1.4-7.1-4.2-7.1c-2.7,0-4.1,2.3-4.1,7c0,4.7,1.4,7,4.1,7
			C-239,327.1-237.6,324.8-237.6,320.2z M-230.5,320c0,3.4-1,6.2-3,8.4c-2.1,2.3-4.8,3.4-8.2,3.4s-6.1-1.1-8.2-3.4
			c-2-2.2-3.1-5-3.1-8.4c0-3.4,1.1-6.2,3.2-8.4c2.2-2.2,4.9-3.3,8.4-3.3c3.1,0,5.7,1.1,7.8,3.3C-231.5,313.9-230.5,316.6-230.5,320z
			"/>
		<polygon class="st19" points="-203.9,331.4 -208.2,331.4 -218.5,318.6 -218.5,331.4 -223.8,331.4 -223.8,308.7 -219.1,308.7 
			-209.3,321.3 -209.3,308.7 -203.9,308.7 		"/>
		<polygon class="st19" points="-182.5,313 -189.6,313 -189.6,318.5 -182.7,318.5 -182.7,322.8 -189.6,322.8 -189.6,331.4 
			-196.3,331.4 -196.3,308.7 -182.5,308.7 		"/>
		<polygon class="st19" points="-161.5,331.4 -176.6,331.4 -176.6,308.7 -162.8,308.7 -162.8,313 -169.9,313 -169.9,317.4 
			-163,317.4 -163,321.7 -169.9,321.7 -169.9,327.1 -161.5,327.1 		"/>
		<path class="st19" d="M-143.2,315.6c0-1.2-0.4-2-1.1-2.4c-0.5-0.3-1.4-0.5-2.8-0.5h-1.3v6.2h1.2c1.4,0,2.4-0.3,3-0.8
			C-143.5,317.5-143.2,316.7-143.2,315.6z M-135.6,331l-7.1,0.7l-3.8-9.3h-1.8v8.9h-6.8v-22.7h8.8c1.7,0,2.9,0,3.6,0.1
			c1.4,0.2,2.5,0.6,3.3,1.2c1.7,1.1,2.5,2.9,2.5,5.2c0,2.7-1.4,4.8-4.2,6.2L-135.6,331z"/>
		<polygon class="st19" points="-114.7,331.4 -129.8,331.4 -129.8,308.7 -116,308.7 -116,313 -123.1,313 -123.1,317.4 -116.2,317.4 
			-116.2,321.7 -123.1,321.7 -123.1,327.1 -114.7,327.1 		"/>
		<polygon class="st19" points="-88.4,331.4 -92.7,331.4 -103,318.6 -103,331.4 -108.3,331.4 -108.3,308.7 -103.6,308.7 
			-93.7,321.3 -93.7,308.7 -88.4,308.7 		"/>
		<path class="st19" d="M-62.6,330.8c-1.8,0.6-3.7,1-5.7,1c-4,0-7.2-1.1-9.7-3.2c-2.5-2.1-3.8-5-3.8-8.5c0-3.4,1.2-6.2,3.7-8.4
			c2.5-2.2,5.6-3.3,9.4-3.3c2,0,4,0.4,6.1,1.1l-1.7,4.1c-1.2-0.3-2.3-0.5-3.2-0.5c-2.2,0-3.9,0.6-5.2,1.9c-1.3,1.3-1.9,3-1.9,5.1
			c0,2,0.6,3.6,1.8,4.9c1.3,1.4,3.1,2.1,5.5,2.1c1.1,0,2.3-0.2,3.5-0.5L-62.6,330.8z"/>
		<polygon class="st19" points="-41.5,331.4 -56.6,331.4 -56.6,308.7 -42.8,308.7 -42.8,313 -49.9,313 -49.9,317.4 -43,317.4 
			-43,321.7 -49.9,321.7 -49.9,327.1 -41.5,327.1 		"/>
		<polygon class="st19" points="-6.6,313 -13.2,313 -13.2,331.4 -20,331.4 -20,313 -26.5,313 -26.5,308.7 -6.6,308.7 		"/>
		<polygon class="st19" points="19.4,331.4 12.6,331.4 12.6,321 5.3,321 5.3,331.4 -1.4,331.4 -1.4,308.7 5.3,308.7 5.3,316.7 
			12.6,316.7 12.6,308.7 19.4,308.7 		"/>
		<polygon class="st19" points="42.1,331.4 27,331.4 27,308.7 40.8,308.7 40.8,313 33.8,313 33.8,317.4 40.6,317.4 40.6,321.7 
			33.8,321.7 33.8,327.1 42.1,327.1 		"/>
		<path class="st19" d="M73.6,331.4h-6.5V320c0-0.8,0-2.3,0.1-4.5c-0.3,1.3-0.8,2.8-1.4,4.5l-4,11.4H59L55,320
			c-0.4-1.2-0.9-2.7-1.4-4.5c0.1,1.6,0.1,3.1,0.1,4.5v11.4h-5.3v-22.7h8.1l4.8,13.9l4.6-13.9h7.8V331.4z"/>
		<polygon class="st19" points="96.3,331.4 81.2,331.4 81.2,308.7 95,308.7 95,313 87.9,313 87.9,317.4 94.8,317.4 94.8,321.7 
			87.9,321.7 87.9,327.1 96.3,327.1 		"/>
		<path class="st19" d="M117,325.1c0,2-0.8,3.6-2.4,4.9s-3.7,1.8-6.3,1.8c-2.7,0-5.1-0.7-7.2-2.1l2.1-3.8c1.3,1.1,2.6,1.6,4.1,1.6
			c0.8,0,1.5-0.2,2-0.6c0.6-0.4,0.8-0.9,0.8-1.6c0-0.6-0.3-1.2-0.8-1.9c-0.4-0.4-1.2-1.2-2.5-2.4c-0.8-0.7-1.9-1.6-3.1-2.8
			c-1.2-1.2-1.7-2.6-1.7-4c0-1.8,0.7-3.2,2.2-4.3c1.5-1.1,3.4-1.6,5.8-1.6c2.1,0,4.1,0.5,6,1.5l-1.8,3.6c-1.2-0.6-2.2-0.8-3.1-0.8
			c-1.4,0-2.1,0.5-2.1,1.4c0,0.4,0.1,0.7,0.4,1.1c0.3,0.4,0.9,1,1.9,1.8c1.2,1,2.3,2.1,3.4,3.2C116.3,321.7,117,323.3,117,325.1z"/>
	</g>
	<g>
		<path class="st20" d="M-258.1,330.8c-1.8,0.6-3.7,1-5.7,1c-4,0-7.2-1.1-9.7-3.2c-2.5-2.1-3.8-5-3.8-8.5c0-3.4,1.2-6.2,3.7-8.4
			c2.5-2.2,5.6-3.3,9.4-3.3c2,0,4,0.4,6.1,1.1l-1.7,4.1c-1.2-0.3-2.3-0.5-3.2-0.5c-2.2,0-3.9,0.6-5.2,1.9s-1.9,3-1.9,5.1
			c0,2,0.6,3.6,1.8,4.9c1.3,1.4,3.1,2.1,5.5,2.1c1.1,0,2.3-0.2,3.5-0.5L-258.1,330.8z"/>
		<path class="st20" d="M-237.7,320.2c0-4.7-1.4-7.1-4.2-7.1c-2.7,0-4.1,2.3-4.1,7c0,4.7,1.4,7,4.1,7
			C-239.1,327.1-237.7,324.8-237.7,320.2z M-230.6,320c0,3.4-1,6.2-3,8.4c-2.1,2.3-4.8,3.4-8.2,3.4s-6.1-1.1-8.2-3.4
			c-2-2.2-3.1-5-3.1-8.4c0-3.4,1.1-6.2,3.2-8.4c2.2-2.2,4.9-3.3,8.4-3.3c3.1,0,5.7,1.1,7.8,3.3C-231.6,313.9-230.6,316.6-230.6,320z
			"/>
		<polygon class="st20" points="-204,331.4 -208.4,331.4 -218.6,318.6 -218.6,331.4 -224,331.4 -224,308.7 -219.2,308.7 
			-209.4,321.3 -209.4,308.7 -204,308.7 		"/>
		<polygon class="st20" points="-182.6,313 -189.7,313 -189.7,318.5 -182.8,318.5 -182.8,322.8 -189.7,322.8 -189.7,331.4 
			-196.4,331.4 -196.4,308.7 -182.6,308.7 		"/>
		<polygon class="st20" points="-161.6,331.4 -176.7,331.4 -176.7,308.7 -163,308.7 -163,313 -170,313 -170,317.4 -163.1,317.4 
			-163.1,321.7 -170,321.7 -170,327.1 -161.6,327.1 		"/>
		<path class="st20" d="M-143.4,315.6c0-1.2-0.4-2-1.1-2.4c-0.5-0.3-1.4-0.5-2.8-0.5h-1.3v6.2h1.2c1.4,0,2.4-0.3,3-0.8
			C-143.7,317.5-143.4,316.7-143.4,315.6z M-135.8,331l-7.1,0.7l-3.8-9.3h-1.8v8.9h-6.8v-22.7h8.8c1.7,0,2.9,0,3.6,0.1
			c1.4,0.2,2.5,0.6,3.3,1.2c1.7,1.1,2.5,2.9,2.5,5.2c0,2.7-1.4,4.8-4.2,6.2L-135.8,331z"/>
		<polygon class="st20" points="-114.8,331.4 -130,331.4 -130,308.7 -116.2,308.7 -116.2,313 -123.2,313 -123.2,317.4 -116.3,317.4 
			-116.3,321.7 -123.2,321.7 -123.2,327.1 -114.8,327.1 		"/>
		<polygon class="st20" points="-88.5,331.4 -92.8,331.4 -103.1,318.6 -103.1,331.4 -108.4,331.4 -108.4,308.7 -103.7,308.7 
			-93.8,321.3 -93.8,308.7 -88.5,308.7 		"/>
		<path class="st20" d="M-62.7,330.8c-1.8,0.6-3.7,1-5.7,1c-4,0-7.2-1.1-9.7-3.2c-2.5-2.1-3.8-5-3.8-8.5c0-3.4,1.2-6.2,3.7-8.4
			c2.5-2.2,5.6-3.3,9.4-3.3c2,0,4,0.4,6.1,1.1l-1.7,4.1c-1.2-0.3-2.3-0.5-3.2-0.5c-2.2,0-3.9,0.6-5.2,1.9c-1.3,1.3-1.9,3-1.9,5.1
			c0,2,0.6,3.6,1.8,4.9c1.3,1.4,3.1,2.1,5.5,2.1c1.1,0,2.3-0.2,3.5-0.5L-62.7,330.8z"/>
		<polygon class="st20" points="-41.6,331.4 -56.7,331.4 -56.7,308.7 -42.9,308.7 -42.9,313 -50,313 -50,317.4 -43.1,317.4 
			-43.1,321.7 -50,321.7 -50,327.1 -41.6,327.1 		"/>
		<polygon class="st20" points="-6.7,313 -13.3,313 -13.3,331.4 -20.1,331.4 -20.1,313 -26.6,313 -26.6,308.7 -6.7,308.7 		"/>
		<polygon class="st20" points="19.3,331.4 12.5,331.4 12.5,321 5.2,321 5.2,331.4 -1.6,331.4 -1.6,308.7 5.2,308.7 5.2,316.7 
			12.5,316.7 12.5,308.7 19.3,308.7 		"/>
		<polygon class="st20" points="42,331.4 26.9,331.4 26.9,308.7 40.7,308.7 40.7,313 33.6,313 33.6,317.4 40.5,317.4 40.5,321.7 
			33.6,321.7 33.6,327.1 42,327.1 		"/>
		<path class="st20" d="M73.5,331.4H67V320c0-0.8,0-2.3,0.1-4.5c-0.3,1.3-0.8,2.8-1.4,4.5l-4,11.4h-2.9l-4-11.4
			c-0.4-1.2-0.9-2.7-1.4-4.5c0.1,1.6,0.1,3.1,0.1,4.5v11.4h-5.3v-22.7h8.1l4.8,13.9l4.6-13.9h7.8V331.4z"/>
		<polygon class="st20" points="96.2,331.4 81.1,331.4 81.1,308.7 94.8,308.7 94.8,313 87.8,313 87.8,317.4 94.7,317.4 94.7,321.7 
			87.8,321.7 87.8,327.1 96.2,327.1 		"/>
		<path class="st20" d="M116.9,325.1c0,2-0.8,3.6-2.4,4.9s-3.7,1.8-6.3,1.8c-2.7,0-5.1-0.7-7.2-2.1l2.1-3.8c1.3,1.1,2.6,1.6,4.1,1.6
			c0.8,0,1.5-0.2,2-0.6c0.6-0.4,0.8-0.9,0.8-1.6c0-0.6-0.3-1.2-0.8-1.9c-0.4-0.4-1.2-1.2-2.5-2.4c-0.8-0.7-1.9-1.6-3.1-2.8
			c-1.2-1.2-1.7-2.6-1.7-4c0-1.8,0.7-3.2,2.2-4.3c1.5-1.1,3.4-1.6,5.8-1.6c2.1,0,4.1,0.5,6,1.5l-1.8,3.6c-1.2-0.6-2.2-0.8-3.1-0.8
			c-1.4,0-2.1,0.5-2.1,1.4c0,0.4,0.1,0.7,0.4,1.1c0.3,0.4,0.9,1,1.9,1.8c1.2,1,2.3,2.1,3.4,3.2C116.2,321.7,116.9,323.3,116.9,325.1
			z"/>
	</g>
	<g>
		<path class="st21" d="M-258.2,330.8c-1.8,0.6-3.7,1-5.7,1c-4,0-7.2-1.1-9.7-3.2c-2.5-2.1-3.8-5-3.8-8.5c0-3.4,1.2-6.2,3.7-8.4
			c2.5-2.2,5.6-3.3,9.4-3.3c2,0,4,0.4,6.1,1.1l-1.7,4.1c-1.2-0.3-2.3-0.5-3.2-0.5c-2.2,0-3.9,0.6-5.2,1.9s-1.9,3-1.9,5.1
			c0,2,0.6,3.6,1.8,4.9c1.3,1.4,3.1,2.1,5.5,2.1c1.1,0,2.3-0.2,3.5-0.5L-258.2,330.8z"/>
		<path class="st21" d="M-237.8,320.2c0-4.7-1.4-7.1-4.2-7.1c-2.7,0-4.1,2.3-4.1,7c0,4.7,1.4,7,4.1,7
			C-239.2,327.1-237.8,324.8-237.8,320.2z M-230.7,320c0,3.4-1,6.2-3,8.4c-2.1,2.3-4.8,3.4-8.2,3.4s-6.1-1.1-8.2-3.4
			c-2.1-2.2-3.1-5-3.1-8.4c0-3.4,1.1-6.2,3.2-8.4c2.2-2.2,4.9-3.3,8.4-3.3c3.1,0,5.7,1.1,7.8,3.3
			C-231.8,313.9-230.7,316.6-230.7,320z"/>
		<path class="st21" d="M-204.2,331.4h-4.3l-10.3-12.8v12.8h-5.3v-22.7h4.7l9.8,12.6v-12.6h5.3V331.4z"/>
		<path class="st21" d="M-182.8,313h-7v5.5h6.9v4.3h-6.9v8.5h-6.8v-22.7h13.8V313z"/>
		<path class="st21" d="M-161.7,331.4h-15.2v-22.7h13.8v4.3h-7v4.3h6.9v4.3h-6.9v5.4h8.4V331.4z"/>
		<path class="st21" d="M-143.5,315.6c0-1.2-0.4-2-1.1-2.4c-0.5-0.3-1.4-0.5-2.8-0.5h-1.3v6.2h1.2c1.4,0,2.4-0.3,3-0.8
			C-143.8,317.5-143.5,316.7-143.5,315.6z M-135.9,331l-7.1,0.7l-3.8-9.3h-1.8v8.9h-6.8v-22.7h8.8c1.7,0,2.9,0,3.6,0.1
			c1.4,0.2,2.5,0.6,3.3,1.2c1.7,1.1,2.5,2.9,2.5,5.2c0,2.7-1.4,4.8-4.2,6.2L-135.9,331z"/>
		<path class="st21" d="M-114.9,331.4h-15.2v-22.7h13.8v4.3h-7v4.3h6.9v4.3h-6.9v5.4h8.4V331.4z"/>
		<path class="st21" d="M-88.6,331.4h-4.3l-10.3-12.8v12.8h-5.3v-22.7h4.7l9.8,12.6v-12.6h5.3V331.4z"/>
		<path class="st21" d="M-62.8,330.8c-1.8,0.6-3.7,1-5.7,1c-4,0-7.2-1.1-9.7-3.2c-2.5-2.1-3.8-5-3.8-8.5c0-3.4,1.2-6.2,3.7-8.4
			c2.5-2.2,5.6-3.3,9.4-3.3c2,0,4,0.4,6.1,1.1l-1.7,4.1c-1.2-0.3-2.3-0.5-3.2-0.5c-2.2,0-3.9,0.6-5.2,1.9c-1.3,1.3-1.9,3-1.9,5.1
			c0,2,0.6,3.6,1.8,4.9c1.3,1.4,3.1,2.1,5.5,2.1c1.1,0,2.3-0.2,3.5-0.5L-62.8,330.8z"/>
		<path class="st21" d="M-41.7,331.4h-15.2v-22.7h13.8v4.3h-7v4.3h6.9v4.3h-6.9v5.4h8.4V331.4z"/>
		<path class="st21" d="M-6.8,313h-6.6v18.4h-6.8V313h-6.5v-4.3h19.9V313z"/>
		<path class="st21" d="M19.2,331.4h-6.8V321H5.1v10.4h-6.8v-22.7h6.8v8h7.3v-8h6.8V331.4z"/>
		<path class="st21" d="M41.9,331.4H26.8v-22.7h13.8v4.3h-7v4.3h6.9v4.3h-6.9v5.4h8.4V331.4z"/>
		<path class="st21" d="M73.4,331.4h-6.5V320c0-0.8,0-2.3,0.1-4.5c-0.3,1.3-0.8,2.8-1.4,4.5l-4,11.4h-2.9l-4-11.4
			c-0.4-1.2-0.9-2.7-1.4-4.5c0.1,1.6,0.1,3.1,0.1,4.5v11.4h-5.3v-22.7h8.1l4.8,13.9l4.6-13.9h7.8V331.4z"/>
		<path class="st21" d="M96.1,331.4H80.9v-22.7h13.8v4.3h-7v4.3h6.9v4.3h-6.9v5.4h8.4V331.4z"/>
		<path class="st21" d="M116.8,325.1c0,2-0.8,3.6-2.4,4.9s-3.7,1.8-6.3,1.8c-2.7,0-5.1-0.7-7.2-2.1l2.1-3.8c1.3,1.1,2.6,1.6,4.1,1.6
			c0.8,0,1.5-0.2,2-0.6c0.6-0.4,0.8-0.9,0.8-1.6c0-0.6-0.3-1.2-0.8-1.9c-0.4-0.4-1.2-1.2-2.5-2.4c-0.8-0.7-1.8-1.6-3.1-2.8
			c-1.1-1.2-1.7-2.6-1.7-4c0-1.8,0.7-3.2,2.2-4.3c1.5-1.1,3.4-1.6,5.8-1.6c2.1,0,4.1,0.5,6,1.5l-1.8,3.6c-1.2-0.6-2.2-0.8-3.1-0.8
			c-1.4,0-2.1,0.5-2.1,1.4c0,0.4,0.1,0.7,0.4,1.1c0.3,0.4,0.9,1,1.9,1.8c1.2,1,2.3,2.1,3.4,3.2C116.1,321.7,116.8,323.3,116.8,325.1
			z"/>
	</g>
</g>
</svg>
