<?xml version="1.0" encoding="utf-8"?>
<!-- Generator: Adobe Illustrator 19.0.0, SVG Export Plug-In . SVG Version: 6.00 Build 0)  -->
<svg version="1.1" id="Layer_1" xmlns="http://www.w3.org/2000/svg" xmlns:xlink="http://www.w3.org/1999/xlink" x="0px" y="0px"
	 viewBox="-379 231 200 100" style="enable-background:new -379 231 200 100;" xml:space="preserve">
<style type="text/css">
	.st0{fill:#106174;}
	.st1{fill:#FFFFFF;stroke:#FFFFFF;stroke-width:0.25;stroke-miterlimit:10;}
	.st2{fill:#2D2725;}
</style>
<g>
	<path class="st0" d="M-311.5,263.6c0-0.4-0.1-0.6-0.6-0.7c-0.1,0-0.3,0-0.5,0c-0.1,0-0.2,0-0.2-0.1s0.1-0.1,0.3-0.1
		c0.7,0,1.5,0,1.9,0c0.5,0,1.3,0,1.9,0c1.6,0,2.2,0.5,2.5,0.7c0.3,0.3,0.7,0.8,0.7,1.4c0,1.7-1.4,2.9-3.2,2.9c-0.1,0-0.2,0-0.3,0
		s-0.2,0-0.2-0.1s0.1-0.1,0.4-0.1c0.7,0,1.8-0.8,1.8-2c0-0.4,0-1.2-0.8-1.8c-0.5-0.4-1-0.5-1.3-0.5c-0.2,0-0.4,0-0.5,0
		s-0.1,0.1-0.1,0.2v4.8c0,1.1,0,2.1,0.1,2.6c0,0.3,0.1,0.6,0.5,0.6c0.2,0,0.5,0,0.7,0c0.1,0,0.2,0,0.2,0.1s-0.1,0.1-0.3,0.1
		c-0.9,0-1.7,0-2,0s-1.1,0-1.7,0c-0.2,0-0.3,0-0.3-0.1s0.1-0.1,0.2-0.1c0.2,0,0.4,0,0.5,0c0.3,0,0.3-0.3,0.4-0.7"/>
	<path class="st0" d="M-302.9,268.6c-0.1,0-0.1,0-0.1,0.1l-0.7,1.7c-0.1,0.3-0.2,0.6-0.2,0.7c0,0.2,0.1,0.4,0.5,0.4h0.2
		c0.2,0,0.2,0,0.2,0.1s-0.1,0.1-0.2,0.1c-0.4,0-1,0-1.4,0c-0.1,0-0.9,0-1.6,0c-0.2,0-0.3,0-0.3-0.1s0.1-0.1,0.2-0.1s0.3,0,0.4,0
		c0.6-0.1,0.9-0.5,1.1-1.1l3.3-7.5c0.2-0.3,0.2-0.5,0.4-0.5c0.1,0,0.2,0.1,0.3,0.4c0.3,0.7,2.4,5.6,3.3,7.4c0.5,1.1,0.9,1.2,1.2,1.3
		c0.2,0,0.4,0,0.6,0c0.1,0,0.2,0,0.2,0.1s-0.1,0.1-0.6,0.1s-1.4,0-2.5,0c-0.2,0-0.4,0-0.4-0.1s0.1-0.1,0.2-0.1s0.2-0.1,0.1-0.3
		l-1.1-2.5c0-0.1-0.1-0.1-0.1-0.1H-302.9z M-300.2,268L-300.2,268l-1.1-3c0,0,0-0.1-0.1-0.1s-0.1,0.1-0.1,0.1l-1.2,3
		c0,0,0,0.1,0.1,0.1h2.4V268z"/>
	<path class="st0" d="M-296,263.9c-0.2-0.4-0.3-0.7-0.5-0.9c-0.1-0.1-0.4-0.1-0.5-0.1s-0.2,0-0.2-0.1s0.1-0.1,0.3-0.1
		c0.7,0,1.4,0,1.5,0s0.7,0,1.5,0c0.2,0,0.3,0,0.3,0.1s-0.1,0.1-0.2,0.1s-0.2,0-0.3,0c-0.1,0-0.1,0.1-0.1,0.3c0,0.2,0.1,0.6,0.3,1.1
		c0.2,0.8,1.5,4.4,1.7,5.1l0,0l2.6-6.2c0.1-0.3,0.2-0.4,0.3-0.4c0.1,0,0.2,0.2,0.4,0.6l2.7,6l0,0c0.2-0.8,1.3-4,1.8-5.4
		c0.1-0.3,0.1-0.5,0.1-0.7s-0.1-0.4-0.6-0.4c-0.1,0-0.2,0-0.2-0.1s0.1-0.1,0.3-0.1c0.7,0,1.3,0,1.4,0s0.7,0,1.1,0
		c0.1,0,0.2,0,0.2,0.1s-0.1,0.1-0.2,0.1s-0.3,0-0.5,0.1c-0.3,0.1-0.5,0.6-0.7,1.3c-0.6,1.5-2,5.3-2.6,7.1c-0.1,0.4-0.2,0.6-0.4,0.6
		c-0.1,0-0.2-0.1-0.4-0.6l-2.7-6l0,0c-0.3,0.6-2,4.9-2.6,6c-0.3,0.5-0.3,0.6-0.5,0.6c-0.1,0-0.2-0.1-0.3-0.4L-296,263.9z"/>
	<path class="st0" d="M-280.5,263.6c0-0.4-0.1-0.6-0.6-0.7c-0.1,0-0.3,0-0.5,0c-0.1,0-0.2,0-0.2-0.1s0.1-0.1,0.3-0.1
		c0.4,0,0.7,0,1.1,0c0.3,0,0.6,0,0.8,0c0.4,0,3,0,3.3,0s0.5,0,0.6-0.1c0.1,0,0.1,0,0.2,0s0.1,0,0.1,0.1s-0.1,0.2-0.1,0.8
		c0,0.1,0,0.6-0.1,0.8c0,0.1,0,0.1-0.1,0.1s-0.1-0.1-0.1-0.2s0-0.3-0.1-0.4c-0.1-0.2-0.2-0.4-0.9-0.4c-0.2,0-1.6,0-1.9,0
		c-0.1,0-0.1,0-0.1,0.1v3c0,0.1,0,0.1,0.1,0.1c0.3,0,1.8,0,2.1,0c0.3,0,0.5-0.1,0.6-0.2s0.1-0.2,0.2-0.2s0.1,0,0.1,0.1
		s-0.1,0.3-0.1,0.9c0,0.2-0.1,0.7-0.1,0.8c0,0.1,0,0.2-0.1,0.2s-0.1,0-0.1-0.1s0-0.3-0.1-0.4c-0.1-0.2-0.3-0.4-0.7-0.5
		c-0.3,0-1.6,0-1.9,0c-0.1,0-0.1,0-0.1,0.1v0.9c0,0.4,0,1.5,0,1.9c0,0.8,0.2,1,1.6,1c0.3,0,0.9,0,1.2-0.1c0.3-0.1,0.5-0.4,0.6-0.9
		c0-0.1,0.1-0.2,0.1-0.2c0.1,0,0.1,0.1,0.1,0.2c0,0.3-0.1,1.1-0.2,1.3c-0.1,0.3-0.2,0.3-0.7,0.3c-1,0-1.7,0-2.3,0c-0.6,0-1,0-1.4,0
		c-0.1,0-0.4,0-0.8,0c-0.3,0-0.6,0-0.9,0c-0.2,0-0.3,0-0.3-0.1s0.1-0.1,0.2-0.1c0.2,0,0.4,0,0.5,0c0.3,0,0.3-0.3,0.4-0.7"/>
	<path class="st0" d="M-272.2,263.6c0-0.4-0.1-0.6-0.6-0.7c-0.1,0-0.3,0-0.5,0c-0.1,0-0.2,0-0.2-0.1s0.1-0.1,0.3-0.1
		c0.4,0,0.7,0,1.1,0c0.3,0,0.6,0,0.8,0c0.4,0,3,0,3.3,0s0.5,0,0.6-0.1c0.1,0,0.1,0,0.2,0s0.1,0,0.1,0.1s-0.1,0.2-0.1,0.8
		c0,0.1,0,0.6-0.1,0.8c0,0.1,0,0.1-0.1,0.1s-0.1-0.1-0.1-0.2s0-0.3-0.1-0.4c-0.1-0.2-0.2-0.4-0.9-0.4c-0.2,0-1.6,0-1.9,0
		c-0.1,0-0.1,0-0.1,0.1v3c0,0.1,0,0.1,0.1,0.1c0.3,0,1.8,0,2.1,0c0.3,0,0.5-0.1,0.6-0.2s0.1-0.2,0.2-0.2s0.1,0,0.1,0.1
		s-0.1,0.3-0.1,0.9c0,0.2-0.1,0.7-0.1,0.8c0,0.1,0,0.2-0.1,0.2s-0.1,0-0.1-0.1s0-0.3-0.1-0.4c-0.1-0.2-0.3-0.4-0.7-0.5
		c-0.3,0-1.6,0-1.9,0c-0.1,0-0.1,0-0.1,0.1v0.9c0,0.4,0,1.5,0,1.9c0,0.8,0.2,1,1.6,1c0.3,0,0.9,0,1.2-0.1c0.3-0.1,0.5-0.4,0.6-0.9
		c0-0.1,0.1-0.2,0.1-0.2c0.1,0,0.1,0.1,0.1,0.2c0,0.3-0.1,1.1-0.2,1.3c-0.1,0.3-0.2,0.3-0.7,0.3c-1,0-1.7,0-2.3,0c-0.6,0-1,0-1.4,0
		c-0.1,0-0.4,0-0.8,0c-0.3,0-0.6,0-0.9,0c-0.2,0-0.3,0-0.3-0.1s0.1-0.1,0.2-0.1c0.2,0,0.4,0,0.5,0c0.3,0,0.3-0.3,0.4-0.7"/>
	<path class="st0" d="M-264.5,271.6c-0.2-0.1-0.3-0.1-0.3-0.4c0-0.7,0.1-1.4,0.1-1.6s0.1-0.3,0.2-0.3s0.1,0.1,0.1,0.2
		c0,0.2,0.1,0.4,0.1,0.6c0.3,0.9,1.1,1.2,1.9,1.2c1.2,0,1.8-0.7,1.8-1.4c0-0.6-0.2-1.1-1.3-1.9l-0.6-0.4c-1.5-1-2-1.9-2-2.8
		c0-1.3,1.2-2.3,3-2.3c0.9,0,1.4,0.1,1.8,0.2c0.1,0,0.2,0.1,0.2,0.1c0,0.2-0.1,0.5-0.1,1.4c0,0.3,0,0.4-0.1,0.4s-0.1-0.1-0.1-0.2
		s-0.1-0.5-0.3-0.8c-0.2-0.2-0.6-0.6-1.4-0.6c-1,0-1.6,0.5-1.6,1.2c0,0.6,0.3,1,1.4,1.7l0.4,0.3c1.6,1.1,2.2,1.9,2.2,3.1
		c0,0.7-0.3,1.5-1.2,2.1c-0.7,0.4-1.4,0.5-2.1,0.5C-263.4,271.9-264,271.8-264.5,271.6z"/>
	<path class="st0" d="M-253.6,271.7c-0.1,0-0.2-0.1-0.2-0.2s0.1-0.2,0.3-0.3c1.8-1.5,4.5-3.3,4.5-5.9c0-1.9-1.1-2.3-1.8-2.3
		c-0.6,0-1,0.1-1.4,0.4c-0.3,0.3-0.6,0.8-0.6,1.2c0,0.1,0,0.2-0.2,0.2c-0.1,0-0.1-0.1-0.1-0.2s-0.1-1.1-0.1-1.5c0-0.1,0-0.2,0.2-0.2
		c0.5-0.2,1.2-0.5,2.4-0.5c2.3,0,3.3,1.2,3.3,2.6c0,2.3-2.8,4.4-4.5,5.6c-0.1,0,0,0.1,0,0.1h0.9c0.2,0,1.8,0,2.3-0.1
		c0.9-0.1,1.3-0.5,1.5-1.1c0-0.1,0.1-0.2,0.2-0.2s0.1,0.1,0.1,0.2c0,0.2-0.3,1.3-0.4,1.7c-0.1,0.3-0.3,0.4-1.1,0.4L-253.6,271.7
		L-253.6,271.7z"/>
	<path class="st0" d="M-242.6,271.9c-2.6,0-3.3-2.7-3.3-4.4c0-2.8,1.1-5,3.5-5c2.6,0,3.3,2.5,3.3,4.4
		C-239,269.9-240.3,271.9-242.6,271.9z M-242.6,263.1c-1,0-1.7,1.2-1.7,4c0,2.1,0.6,4.4,2,4.4c1.1,0,1.7-1.6,1.7-4
		C-240.6,265.3-241.2,263.1-242.6,263.1z"/>
	<path class="st0" d="M-235.1,266.2c0-0.6,0-1.2,0-1.6c0-0.3,0-0.4-0.2-0.4c-0.3,0-1.2,0.5-1.5,0.6c-0.1,0-0.1,0-0.2,0l-0.1-0.1
		c0-0.1,0.1-0.1,0.1-0.2c0.1,0,2.6-1.5,3-1.8c0.1-0.1,0.2-0.2,0.3-0.2c0.1,0,0.2,0.1,0.2,0.3c0,0.1-0.1,1.3-0.1,3.1v2.2
		c0,1.2,0,2.2,0.1,2.7c0,0.4,0.1,0.6,0.5,0.6c0.2,0,0.8,0.1,0.9,0.1s0.1,0,0.1,0.1s-0.1,0.1-0.2,0.1c-1,0-1.8,0-2.2,0
		c-0.3,0-1.4,0-2.3,0c-0.1,0-0.2,0-0.2-0.1s0.1-0.1,0.1-0.1c0.1,0,0.8,0,1.1-0.1c0.4-0.1,0.5-0.3,0.5-0.6c0.1-0.5,0.1-1.5,0.1-2.7
		L-235.1,266.2z"/>
	<path class="st0" d="M-223.3,262.7c0.2,0,0.3,0,0.3,0.1s-0.1,0.2-0.1,0.2c-1.1,1.4-3.2,6.2-3.4,7.7c0,0.2,0,0.3,0,0.4
		c0,0.2-1.1,0.7-1.7,0.7c-0.1,0-0.2,0-0.2-0.1s0-0.3,0.1-0.5c0.4-1.2,2.1-4.7,3.9-7.5h-3.4c-0.4,0-0.9,0-1.2,0.2
		c-0.2,0.1-0.4,0.5-0.4,0.7c0,0.1-0.1,0.2-0.1,0.2c-0.1,0-0.1-0.1-0.1-0.2c0-0.4,0.2-1.8,0.2-2c0-0.1,0.1-0.2,0.1-0.2
		s0.4,0.1,1.8,0.1h4.2V262.7z"/>
</g>
<g>
	<path class="st1" d="M-310.5,285.1c0,1,0,1.7,0,2.2c0,0.3,0.1,0.5,0.4,0.5c0.1,0,0.4,0,0.5,0s0.1,0,0.1,0.1c0,0,0,0.1-0.2,0.1
		c-0.5,0-1.2,0-1.2,0s-0.7,0-1,0c-0.1,0-0.2,0-0.2-0.1c0,0,0-0.1,0.1-0.1s0.2,0,0.3,0c0.2,0,0.2-0.3,0.3-0.5c0-0.4,0-1.2,0-2.2v-1.8
		c0-1.6,0-1.8,0-2.2c0-0.3-0.1-0.5-0.3-0.6c-0.1,0-0.2,0-0.3,0c0,0-0.1,0-0.1-0.1s0.1-0.1,0.2-0.1c0.3,0,1,0,1,0s0.7,0,1,0
		c0.1,0,0.2,0,0.2,0.1c0,0,0,0.1-0.1,0.1s-0.1,0-0.2,0c-0.3,0-0.3,0.2-0.4,0.6C-310.5,281.5-310.5,283.5-310.5,285.1L-310.5,285.1z"
		/>
	<path class="st1" d="M-305.8,286.8c0,0.7,0.1,0.9,0.3,1c0.2,0,0.4,0,0.4,0s0.1,0,0.1,0.1c0,0-0.1,0.1-0.2,0.1c-0.5,0-0.8,0-0.9,0
		s-0.4,0-0.8,0c-0.1,0-0.1,0-0.1-0.1c0,0,0-0.1,0.1-0.1s0.2,0,0.4,0c0.2-0.1,0.2-0.3,0.2-1.1v-4.9c0-0.3,0.1-0.4,0.1-0.4
		c0.1,0,0.2,0.2,0.3,0.3c0.1,0.1,1.4,1.5,2.8,2.9c0.9,0.9,1.8,1.9,2.1,2.2l-0.1-4.3c0-0.5-0.1-0.7-0.3-0.8c-0.2,0-0.4,0-0.4,0
		c-0.1,0-0.1,0-0.1-0.1c0,0,0.1-0.1,0.2-0.1c0.4,0,0.8,0,0.9,0s0.4,0,0.7,0c0.1,0,0.2,0,0.2,0.1c0,0,0,0.1-0.1,0.1c0,0-0.1,0-0.2,0
		c-0.3,0.1-0.3,0.2-0.3,0.7v5c0,0.6,0,0.6-0.1,0.6s-0.2-0.1-0.7-0.5c-0.1-0.1-1.4-1.3-2.3-2.3c-1-1.1-2-2.1-2.3-2.4L-305.8,286.8z"
		/>
	<path class="st1" d="M-295,282c0,0.8,0,5.1,0,5.4c0,0.2,0.1,0.4,0.3,0.4c0.1,0,0.3,0,0.4,0s0.1,0,0.1,0.1c0,0,0,0.1-0.1,0.1
		c-0.5,0-1,0-1.1,0c0,0-0.6,0-0.9,0c-0.1,0-0.1,0-0.1-0.1c0,0,0-0.1,0.1-0.1s0.2,0,0.3,0c0.2,0,0.2-0.2,0.3-0.5c0-0.3,0-1,0-1.8
		v-3.6h-1.3c-0.5,0-0.8,0.1-0.9,0.3c-0.1,0.1-0.1,0.2-0.1,0.3c0,0.1,0,0.1-0.1,0.1c0,0-0.1,0-0.1-0.1s0.2-0.8,0.2-0.9l0.1-0.2
		c0.1,0,0.1,0.1,0.4,0.1c0.2,0,0.6,0,0.7,0h3.3c0.3,0,0.5,0,0.6,0s0.2,0,0.2,0s0,0,0,0.1c0,0.3,0,0.9,0,1s0,0.1-0.1,0.1
		s-0.1,0-0.1-0.1v-0.1c0-0.3-0.2-0.5-1.1-0.5L-295,282L-295,282z"/>
	<path class="st1" d="M-289.8,284c0-1.3,0-1.6,0-1.8c0-0.3-0.1-0.4-0.4-0.5c-0.1,0-0.2,0-0.3,0c0,0-0.1,0-0.1-0.1s0-0.1,0.1-0.1
		c0.4,0,1,0,1,0c0.1,0,1.9,0,2.1,0s0.3,0,0.4,0h0.1c0,0,0,0,0,0.1s-0.1,0.2-0.1,0.4c0,0.1,0,0.5,0,0.6c0,0,0,0.1-0.1,0.1
		c0,0-0.1,0-0.1-0.1s0-0.2,0-0.3c-0.1-0.1-0.1-0.2-0.6-0.3c-0.1,0-1.2,0-1.3,0c0,0,0,0,0,0.1v2.3c0,0.1,0,0.1,0,0.1
		c0.1,0,1.3,0,1.5,0s0.3,0,0.4-0.1s0.1-0.1,0.1-0.1s0,0,0,0.1c0,0,0,0.2-0.1,0.5c0,0.2,0,0.5,0,0.5c0,0.1,0,0.2-0.1,0.2
		c0,0-0.1,0-0.1-0.1s0-0.2,0-0.3c0-0.1-0.1-0.2-0.4-0.3c-0.2,0-1.2,0-1.3,0c0,0-0.1,0-0.1,0.1v0.7c0,0.3,0,1.3,0,1.4
		c0,0.6,0.2,0.7,1,0.7c0.2,0,0.6,0,0.9-0.1c0.2-0.1,0.3-0.2,0.4-0.6c0-0.1,0-0.1,0.1-0.1l0.1,0.1c0,0.1-0.1,0.6-0.1,0.8
		c-0.1,0.2-0.1,0.2-0.5,0.2c-0.7,0-1.2,0-1.5,0c-0.4,0-0.6,0-0.7,0c0,0-0.2,0-0.4,0c-0.2,0-0.4,0-0.5,0s-0.1,0-0.1-0.1
		c0,0,0-0.1,0.1-0.1s0.2,0,0.3,0c0.2,0,0.2-0.2,0.2-0.4c0.1-0.3,0.1-1,0.1-1.8V284z"/>
	<path class="st1" d="M-283.3,284c0-1.3,0-1.6,0-1.8c0-0.3-0.1-0.4-0.4-0.5c-0.1,0-0.2,0-0.3,0c0,0-0.1,0-0.1-0.1s0-0.1,0.1-0.1
		c0.4,0,1,0,1,0c0.1,0,0.8,0,1.1,0c0.6,0,1.2,0,1.6,0.4c0.2,0.2,0.6,0.6,0.6,1.2s-0.3,1.2-1.1,1.9c0.7,0.9,1.3,1.7,1.8,2.2
		s0.8,0.6,1,0.6s0.3,0,0.3,0s0.1,0,0.1,0.1c0,0-0.1,0.1-0.2,0.1h-0.5c-0.5,0-0.7,0-0.9-0.2c-0.4-0.2-0.7-0.6-1.2-1.2
		c-0.4-0.5-0.8-1-0.9-1.2h-0.1h-1.1c0,0-0.1,0-0.1,0.1v0.2c0,0.8,0,1.5,0,1.8c0,0.2,0.1,0.4,0.4,0.4c0.1,0,0.3,0,0.4,0
		s0.1,0,0.1,0.1c0,0,0,0.1-0.1,0.1c-0.5,0-1,0-1.1,0c0,0-0.6,0-0.9,0c-0.1,0-0.1,0-0.1-0.1c0,0,0-0.1,0.1-0.1s0.2,0,0.3,0
		c0.2,0,0.2-0.2,0.2-0.4c0.1-0.3,0.1-1,0.1-1.8L-283.3,284L-283.3,284z M-282.5,284.8c0,0,0,0.1,0.1,0.1c0.1,0.1,0.6,0.1,1,0.1
		c0.2,0,0.4,0,0.7-0.1c0.3-0.2,0.5-0.7,0.5-1.3c0-1.1-0.6-1.7-1.5-1.7c-0.3,0-0.5,0-0.6,0c0,0-0.1,0-0.1,0.1v2.8H-282.5z"/>
	<path class="st1" d="M-275.2,286.8c0,0.7,0.1,0.9,0.3,1c0.2,0,0.4,0,0.4,0s0.1,0,0.1,0.1c0,0-0.1,0.1-0.2,0.1c-0.5,0-0.8,0-0.9,0
		s-0.4,0-0.8,0c-0.1,0-0.1,0-0.1-0.1c0,0,0-0.1,0.1-0.1s0.2,0,0.4,0c0.2-0.1,0.2-0.3,0.2-1.1v-4.9c0-0.3,0.1-0.4,0.1-0.4
		c0.1,0,0.2,0.2,0.3,0.3c0.1,0.1,1.4,1.5,2.8,2.9c0.9,0.9,1.8,1.9,2.1,2.2l-0.1-4.3c0-0.5-0.1-0.7-0.3-0.8c-0.2,0-0.4,0-0.4,0
		c-0.1,0-0.1,0-0.1-0.1c0,0,0.1-0.1,0.2-0.1c0.4,0,0.8,0,0.9,0s0.4,0,0.7,0c0.1,0,0.2,0,0.2,0.1c0,0,0,0.1-0.1,0.1c0,0-0.1,0-0.2,0
		c-0.3,0.1-0.3,0.2-0.3,0.7v5c0,0.6,0,0.6-0.1,0.6s-0.2-0.1-0.7-0.5c-0.1-0.1-1.4-1.3-2.3-2.3c-1-1.1-2-2.1-2.3-2.4L-275.2,286.8z"
		/>
	<path class="st1" d="M-264.9,281.7c0.1-0.3,0.2-0.3,0.2-0.3c0.1,0,0.1,0.1,0.2,0.3c0.2,0.4,1.6,3.9,2.1,5.2
		c0.3,0.8,0.6,0.9,0.7,0.9s0.3,0,0.4,0c0,0,0.1,0,0.1,0.1s-0.1,0.1-0.2,0.1s-0.8,0-1.4,0c-0.2,0-0.3,0-0.3-0.1c0,0,0,0,0.1-0.1
		c0,0,0.1-0.1,0.1-0.2l-0.8-1.9c0,0,0,0-0.1,0h-2c0,0-0.1,0-0.1,0.1l-0.5,1.4c-0.1,0.2-0.1,0.4-0.1,0.6s0.1,0.2,0.3,0.2h0.1
		c0.1,0,0.1,0,0.1,0.1l-0.1,0.1c-0.2,0-0.7,0-0.8,0c-0.1,0-0.5,0-0.9,0c-0.1,0-0.2,0-0.2-0.1c0,0,0-0.1,0.1-0.1s0.2,0,0.3,0
		c0.4,0,0.6-0.3,0.7-0.8L-264.9,281.7z M-263.9,285.3L-263.9,285.3l-0.8-2.4c0-0.1-0.1-0.1-0.1,0l-0.8,2.3v0.1H-263.9z"/>
	<path class="st1" d="M-257.7,282c0,0.8,0,5.1,0,5.4c0,0.2,0.1,0.4,0.3,0.4c0.1,0,0.3,0,0.4,0s0.1,0,0.1,0.1c0,0,0,0.1-0.1,0.1
		c-0.5,0-1,0-1.1,0c0,0-0.6,0-0.9,0c-0.1,0-0.1,0-0.1-0.1c0,0,0-0.1,0.1-0.1s0.2,0,0.3,0c0.2,0,0.2-0.2,0.3-0.5c0-0.3,0-1,0-1.8
		v-3.6h-1.3c-0.5,0-0.8,0.1-0.9,0.3c-0.1,0.1-0.1,0.2-0.1,0.3c0,0.1,0,0.1-0.1,0.1c0,0-0.1,0-0.1-0.1s0.2-0.8,0.2-0.9l0.1-0.2
		c0.1,0,0.1,0.1,0.4,0.1c0.2,0,0.6,0,0.7,0h3.3c0.3,0,0.5,0,0.6,0s0.2,0,0.2,0s0,0,0,0.1c0,0.3,0,0.9,0,1s0,0.1-0.1,0.1
		s-0.1,0-0.1-0.1v-0.1c0-0.3-0.2-0.5-1.1-0.5L-257.7,282L-257.7,282z"/>
	<path class="st1" d="M-251.7,282.2c0,0.8,0,4.8,0,5.2c0,0.2,0.1,0.4,0.3,0.4c0.1,0,0.3,0,0.4,0c0,0,0.1,0,0.1,0.1
		c0,0,0,0.1-0.1,0.1c-0.5,0-1.1,0-1.1,0s-0.6,0-0.9,0c-0.1,0-0.1,0-0.1-0.1c0,0,0-0.1,0.1-0.1s0.2,0,0.3,0c0.2,0,0.2-0.2,0.2-0.4
		c0-0.3,0-1,0-1.8v-1.5c0-1.3,0-1.6,0-1.8c0-0.3-0.1-0.4-0.3-0.5c-0.1,0-0.2,0-0.3,0c0,0-0.1,0-0.1-0.1s0-0.1,0.1-0.1
		c0.3,0,0.8,0,0.9,0c0,0,0.6,0,0.9,0c0.1,0,0.1,0,0.1,0.1c0,0,0,0.1-0.1,0.1s-0.1,0-0.2,0C-251.6,281.8-251.7,281.9-251.7,282.2
		C-251.7,282.5-251.7,280.9-251.7,282.2L-251.7,282.2z"/>
	<path class="st1" d="M-245.3,281.5c2,0,3.5,1.2,3.5,3.2c0,1.9-1.4,3.5-3.5,3.5c-2.4,0-3.4-1.8-3.4-3.3
		C-248.8,283.4-247.7,281.5-245.3,281.5z M-245.1,287.8c0.8,0,2.4-0.4,2.4-2.9c0-2-1.2-3.1-2.6-3.1c-1.5,0-2.5,0.9-2.5,2.8
		C-247.9,286.5-246.7,287.8-245.1,287.8z"/>
	<path class="st1" d="M-238.6,286.8c0,0.7,0.1,0.9,0.3,1c0.2,0,0.4,0,0.4,0s0.1,0,0.1,0.1c0,0-0.1,0.1-0.2,0.1c-0.5,0-0.8,0-0.9,0
		s-0.4,0-0.8,0c-0.1,0-0.1,0-0.1-0.1c0,0,0-0.1,0.1-0.1s0.2,0,0.4,0c0.2-0.1,0.2-0.3,0.2-1.1v-4.9c0-0.3,0-0.4,0.1-0.4
		s0.2,0.2,0.3,0.3c0.1,0.1,1.4,1.5,2.8,2.9c0.9,0.9,1.8,1.9,2.1,2.2l-0.1-4.3c0-0.5-0.1-0.7-0.3-0.8c-0.2,0-0.4,0-0.4,0
		c-0.1,0-0.1,0-0.1-0.1c0,0,0.1-0.1,0.2-0.1c0.4,0,0.8,0,0.9,0s0.4,0,0.7,0c0.1,0,0.2,0,0.2,0.1c0,0,0,0.1-0.1,0.1c0,0-0.1,0-0.2,0
		c-0.3,0.1-0.3,0.2-0.3,0.7v5c0,0.6,0,0.6-0.1,0.6s-0.2-0.1-0.7-0.5c-0.1-0.1-1.4-1.3-2.3-2.3c-1-1.1-2-2.1-2.3-2.4L-238.6,286.8z"
		/>
	<path class="st1" d="M-228.3,281.7c0.1-0.3,0.1-0.3,0.2-0.3s0.1,0.1,0.2,0.3c0.2,0.4,1.6,3.9,2.1,5.2c0.3,0.8,0.6,0.9,0.8,0.9
		c0.1,0,0.3,0,0.3,0s0.1,0,0.1,0.1s-0.1,0.1-0.2,0.1s-0.8,0-1.4,0c-0.2,0-0.3,0-0.3-0.1c0,0,0,0,0.1-0.1c0,0,0.1-0.1,0.1-0.2
		l-0.8-1.9c0,0,0,0-0.1,0h-2c0,0-0.1,0-0.1,0.1l-0.5,1.4c-0.1,0.2-0.1,0.4-0.1,0.6s0.2,0.2,0.3,0.2h0.1c0.1,0,0.1,0,0.1,0.1
		c0,0,0,0.1-0.1,0.1c-0.2,0-0.7,0-0.8,0c-0.1,0-0.5,0-0.9,0c-0.1,0-0.2,0-0.2-0.1c0,0,0-0.1,0.1-0.1s0.2,0,0.3,0
		c0.4,0,0.6-0.3,0.7-0.8L-228.3,281.7z M-227.3,285.3L-227.3,285.3l-0.8-2.4c0-0.1-0.1-0.1-0.1,0l-0.8,2.3v0.1H-227.3z"/>
	<path class="st1" d="M-221.6,285.6c0,1.2,0,1.8,0.2,1.9c0.1,0.1,0.5,0.2,1.2,0.2c0.5,0,0.8,0,1.1-0.3c0.1-0.1,0.2-0.3,0.2-0.5
		c0-0.1,0-0.1,0.1-0.1c0,0,0.1,0,0.1,0.1s-0.1,0.6-0.1,0.8c-0.1,0.2-0.1,0.2-0.6,0.2c-0.6,0-1.1,0-1.5,0s-0.7,0-1,0c0,0-0.2,0-0.4,0
		c-0.2,0-0.4,0-0.5,0s-0.1,0-0.1-0.1c0,0,0-0.1,0.1-0.1s0.2,0,0.3,0c0.2,0,0.2-0.2,0.2-0.4c0-0.3,0-1,0-1.8V284c0-1.3,0-1.6,0-1.8
		c0-0.3-0.1-0.4-0.4-0.5c-0.1,0-0.2,0-0.3,0c0,0-0.1,0-0.1-0.1s0-0.1,0.1-0.1c0.4,0,0.9,0,1,0c0,0,0.7,0,1,0c0.1,0,0.1,0,0.1,0.1
		c0,0,0,0.1-0.1,0.1s-0.2,0-0.3,0c-0.3,0-0.3,0.2-0.3,0.5s0,0.5,0,1.8V285.6z"/>
	<path class="st1" d="M-311.3,299.1c-1-0.9-1.2-2-1.2-3c0-0.7,0.2-1.8,1.1-2.7c0.6-0.6,1.5-1.1,3-1.1c0.4,0,1,0,1.4,0.1
		s0.7,0.1,1,0.2c0.1,0,0.1,0,0.1,0.1s0,0.2,0,0.6c0,0.3,0,0.9,0,1c0,0.2,0,0.2-0.1,0.2s-0.1-0.1-0.1-0.2c0-0.4-0.2-0.8-0.4-1
		c-0.3-0.3-1.1-0.6-2-0.6c-1.3,0-1.9,0.4-2.3,0.7c-0.7,0.7-0.9,1.6-0.9,2.6c0,1.9,1.5,3.7,3.6,3.7c0.8,0,1.3-0.1,1.7-0.5
		c0.2-0.2,0.3-0.7,0.4-0.8c0-0.1,0-0.2,0.1-0.2c0,0,0.1,0.1,0.1,0.2s-0.1,0.9-0.2,1.3c-0.1,0.2-0.1,0.2-0.3,0.3
		c-0.4,0.2-1.2,0.2-1.8,0.2C-309.5,300.1-310.5,299.8-311.3,299.1z"/>
	<path class="st1" d="M-300.2,293.5c2,0,3.5,1.2,3.5,3.2c0,1.9-1.4,3.5-3.5,3.5c-2.4,0-3.4-1.8-3.4-3.3
		C-303.7,295.4-302.6,293.5-300.2,293.5z M-300,299.8c0.8,0,2.4-0.4,2.4-2.9c0-2-1.2-3.1-2.6-3.1c-1.5,0-2.5,0.9-2.5,2.8
		C-302.8,298.5-301.6,299.8-300,299.8z"/>
	<path class="st1" d="M-293.5,298.8c0,0.7,0.1,0.9,0.3,1c0.2,0,0.4,0,0.4,0s0.1,0,0.1,0.1c0,0-0.1,0.1-0.2,0.1c-0.5,0-0.8,0-0.9,0
		s-0.4,0-0.8,0c-0.1,0-0.1,0-0.1-0.1c0,0,0-0.1,0.1-0.1s0.2,0,0.4,0c0.2-0.1,0.2-0.3,0.2-1.1v-4.9c0-0.3,0.1-0.4,0.1-0.4
		c0.1,0,0.2,0.2,0.3,0.3c0.1,0.1,1.4,1.5,2.8,2.9c0.9,0.9,1.8,1.9,2.1,2.2l-0.1-4.3c0-0.5-0.1-0.7-0.3-0.8c-0.2,0-0.4,0-0.4,0
		c-0.1,0-0.1,0-0.1-0.1c0,0,0.1-0.1,0.2-0.1c0.4,0,0.8,0,0.9,0s0.4,0,0.7,0c0.1,0,0.2,0,0.2,0.1c0,0,0,0.1-0.1,0.1c0,0-0.1,0-0.2,0
		c-0.3,0.1-0.3,0.2-0.3,0.7v5c0,0.6,0,0.6-0.1,0.6s-0.2-0.1-0.7-0.5c-0.1-0.1-1.4-1.3-2.3-2.3c-1-1.1-2-2.1-2.3-2.4L-293.5,298.8z"
		/>
	<path class="st1" d="M-284.7,296c0-1.3,0-1.6,0-1.8c0-0.3-0.1-0.4-0.4-0.5c-0.1,0-0.2,0-0.3,0c0,0-0.1,0-0.1-0.1s0-0.1,0.1-0.1
		c0.4,0,0.9,0,1,0c0.2,0,2.1,0,2.3,0c0.2,0,0.3,0,0.4,0l0.1-0.1c0,0,0.1,0,0.1,0.1s0,0.2-0.1,0.4c0,0.1,0,0.5,0,0.6
		c0,0,0,0.1-0.1,0.1s-0.1,0-0.1-0.1s0-0.2-0.1-0.3s-0.3-0.2-0.6-0.2h-1.4c0,0-0.1,0-0.1,0.1v2.3c0,0,0,0.1,0.1,0.1h1.2
		c0.1,0,0.3,0,0.4,0c0.2,0,0.3-0.1,0.4-0.2l0.1-0.1c0,0,0.1,0,0.1,0.1c0,0-0.1,0.2-0.1,0.5c0,0.2,0,0.5,0,0.6s0,0.2-0.1,0.2
		s-0.1,0-0.1-0.1s0-0.2-0.1-0.3c0-0.1-0.2-0.2-0.4-0.3c-0.2,0-1.3,0-1.4,0c0,0-0.1,0-0.1,0.1v0.7c0,0.8,0,1.5,0,1.8
		c0,0.2,0.1,0.4,0.3,0.4c0.1,0,0.3,0,0.4,0c0,0,0.1,0,0.1,0.1c0,0,0,0.1-0.1,0.1c-0.5,0-1.1,0-1.1,0s-0.6,0-0.9,0
		c-0.1,0-0.1,0-0.1-0.1c0,0,0-0.1,0.1-0.1s0.2,0,0.3,0c0.2,0,0.2-0.2,0.2-0.4c0.1-0.3,0.1-1,0.1-1.8L-284.7,296L-284.7,296z"/>
	<path class="st1" d="M-278.4,296c0-1.3,0-1.6,0-1.8c0-0.3-0.1-0.4-0.4-0.5c-0.1,0-0.2,0-0.3,0c0,0-0.1,0-0.1-0.1s0-0.1,0.1-0.1
		c0.4,0,1,0,1,0c0.1,0,1.9,0,2.1,0s0.3,0,0.4,0h0.1c0,0,0,0,0,0.1s-0.1,0.2-0.1,0.4c0,0.1,0,0.5,0,0.6c0,0,0,0.1-0.1,0.1
		c0,0-0.1,0-0.1-0.1s0-0.2,0-0.3c-0.1-0.1-0.1-0.2-0.6-0.3c-0.1,0-1.2,0-1.3,0c0,0,0,0,0,0.1v2.3c0,0.1,0,0.1,0,0.1
		c0.1,0,1.3,0,1.5,0s0.3,0,0.4-0.1s0.1-0.1,0.1-0.1s0,0,0,0.1c0,0,0,0.2-0.1,0.5c0,0.2,0,0.5,0,0.5c0,0.1,0,0.2-0.1,0.2
		c0,0-0.1,0-0.1-0.1s0-0.2,0-0.3c0-0.1-0.1-0.2-0.4-0.3c-0.2,0-1.2,0-1.3,0c0,0-0.1,0-0.1,0.1v0.7c0,0.3,0,1.3,0,1.4
		c0,0.6,0.2,0.7,1,0.7c0.2,0,0.6,0,0.9-0.1c0.2-0.1,0.3-0.2,0.4-0.6c0-0.1,0-0.1,0.1-0.1l0.1,0.1c0,0.1-0.1,0.6-0.1,0.8
		c-0.1,0.2-0.1,0.2-0.5,0.2c-0.7,0-1.2,0-1.5,0c-0.4,0-0.6,0-0.7,0c0,0-0.2,0-0.4,0c-0.2,0-0.4,0-0.5,0s-0.1,0-0.1-0.1
		c0,0,0-0.1,0.1-0.1s0.2,0,0.3,0c0.2,0,0.2-0.2,0.2-0.4c0.1-0.3,0.1-1,0.1-1.8V296z"/>
	<path class="st1" d="M-271.9,296c0-1.3,0-1.6,0-1.8c0-0.3-0.1-0.4-0.4-0.5c-0.1,0-0.2,0-0.3,0c0,0-0.1,0-0.1-0.1s0-0.1,0.1-0.1
		c0.4,0,1,0,1,0c0.1,0,0.8,0,1.1,0c0.6,0,1.2,0,1.6,0.4c0.2,0.2,0.6,0.6,0.6,1.2s-0.3,1.2-1.1,1.9c0.7,0.9,1.3,1.7,1.8,2.2
		s0.8,0.6,1,0.6s0.3,0,0.3,0s0.1,0,0.1,0.1c0,0-0.1,0.1-0.2,0.1h-0.5c-0.5,0-0.7,0-0.9-0.2c-0.4-0.2-0.7-0.6-1.2-1.2
		c-0.4-0.5-0.8-1-0.9-1.2h-0.1h-1.1c0,0-0.1,0-0.1,0.1v0.2c0,0.8,0,1.5,0,1.8c0,0.2,0.1,0.4,0.4,0.4c0.1,0,0.3,0,0.4,0
		s0.1,0,0.1,0.1c0,0,0,0.1-0.1,0.1c-0.5,0-1,0-1.1,0c0,0-0.6,0-0.9,0c-0.1,0-0.1,0-0.1-0.1c0,0,0-0.1,0.1-0.1s0.2,0,0.3,0
		c0.2,0,0.2-0.2,0.2-0.4C-271.9,299-271.9,296.9-271.9,296L-271.9,296z M-271.1,296.8c0,0,0,0.1,0.1,0.1c0.1,0.1,0.6,0.1,1,0.1
		c0.2,0,0.4,0,0.7-0.1c0.3-0.2,0.5-0.7,0.5-1.3c0-1.1-0.6-1.7-1.5-1.7c-0.3,0-0.5,0-0.6,0c0,0-0.1,0-0.1,0.1v2.8H-271.1z"/>
	<path class="st1" d="M-264.1,296c0-1.3,0-1.6,0-1.8c0-0.3-0.1-0.4-0.4-0.5c-0.1,0-0.2,0-0.3,0c0,0-0.1,0-0.1-0.1s0-0.1,0.1-0.1
		c0.4,0,1,0,1,0c0.1,0,1.9,0,2.1,0s0.3,0,0.4,0h0.1c0,0,0,0,0,0.1s-0.1,0.2-0.1,0.4c0,0.1,0,0.5,0,0.6c0,0,0,0.1-0.1,0.1
		c0,0-0.1,0-0.1-0.1s0-0.2,0-0.3c-0.1-0.1-0.1-0.2-0.6-0.3c-0.1,0-1.2,0-1.3,0c0,0-0.1,0-0.1,0.1v2.3c0,0.1,0,0.1,0.1,0.1
		s1.3,0,1.5,0s0.3,0,0.4-0.1s0.1-0.1,0.1-0.1s0,0,0,0.1c0,0,0,0.2-0.1,0.5c0,0.2,0,0.5,0,0.5c0,0.1,0,0.2-0.1,0.2c0,0-0.1,0-0.1-0.1
		s0-0.2,0-0.3c0-0.1-0.1-0.2-0.4-0.3c-0.2,0-1.2,0-1.3,0c0,0-0.1,0-0.1,0.1v0.7c0,0.3,0,1.3,0,1.4c0,0.6,0.2,0.7,1,0.7
		c0.2,0,0.6,0,0.9-0.1c0.2-0.1,0.3-0.2,0.4-0.6c0-0.1,0-0.1,0.1-0.1l0.1,0.1c0,0.1-0.1,0.6-0.1,0.8c-0.1,0.2-0.1,0.2-0.5,0.2
		c-0.7,0-1.2,0-1.5,0c-0.4,0-0.6,0-0.7,0c0,0-0.2,0-0.4,0c-0.2,0-0.4,0-0.5,0s-0.1,0-0.1-0.1c0,0,0-0.1,0.1-0.1s0.2,0,0.3,0
		c0.2,0,0.2-0.2,0.2-0.4c0.1-0.3,0.1-1,0.1-1.8V296z"/>
	<path class="st1" d="M-257.3,298.8c0,0.7,0.1,0.9,0.3,1c0.2,0,0.4,0,0.4,0s0.1,0,0.1,0.1c0,0-0.1,0.1-0.2,0.1c-0.5,0-0.8,0-0.9,0
		s-0.4,0-0.8,0c-0.1,0-0.1,0-0.1-0.1c0,0,0-0.1,0.1-0.1s0.2,0,0.4,0c0.2-0.1,0.2-0.3,0.2-1.1v-4.9c0-0.3,0.1-0.4,0.1-0.4
		c0.1,0,0.2,0.2,0.3,0.3c0.1,0.1,1.4,1.5,2.8,2.9c0.9,0.9,1.8,1.9,2.1,2.2l-0.1-4.3c0-0.5-0.1-0.7-0.3-0.8c-0.2,0-0.4,0-0.4,0
		c-0.1,0-0.1,0-0.1-0.1c0,0,0.1-0.1,0.2-0.1c0.4,0,0.8,0,0.9,0s0.4,0,0.8,0c0.1,0,0.2,0,0.2,0.1c0,0,0,0.1-0.1,0.1c0,0-0.1,0-0.2,0
		c-0.3,0.1-0.3,0.2-0.3,0.7v5c0,0.6,0,0.6-0.1,0.6s-0.2-0.1-0.7-0.5c-0.1-0.1-1.4-1.3-2.3-2.3c-1-1.1-2-2.1-2.3-2.4V298.8z"/>
	<path class="st1" d="M-248.4,299.2c-0.9-0.7-1.1-1.7-1.1-2.5c0-0.6,0.2-1.6,1-2.3c0.5-0.5,1.3-0.9,2.7-0.9c0.3,0,0.8,0,1.3,0.1
		c0.3,0.1,0.6,0.1,0.9,0.1c0.1,0,0.1,0,0.1,0.1s0,0.2,0,0.5s0,0.8,0,0.9s0,0.2-0.1,0.2s-0.1-0.1-0.1-0.2c0-0.3-0.1-0.7-0.4-0.8
		c-0.3-0.3-1-0.5-1.7-0.5c-1.1,0-1.7,0.3-2,0.6c-0.7,0.6-0.8,1.4-0.8,2.2c0,1.6,1.3,3.1,3.2,3.1c0.7,0,1.1,0,1.4-0.4
		c0.2-0.2,0.3-0.5,0.3-0.7c0-0.1,0-0.1,0.1-0.1l0.1,0.1c0,0.1-0.1,0.8-0.2,1.1c0,0.2-0.1,0.2-0.2,0.2c-0.4,0.1-1,0.2-1.6,0.2
		C-246.8,300.1-247.7,299.8-248.4,299.2z"/>
	<path class="st1" d="M-240.4,296c0-1.3,0-1.6,0-1.8c0-0.3-0.1-0.4-0.4-0.5c-0.1,0-0.2,0-0.3,0c0,0-0.1,0-0.1-0.1s0-0.1,0.1-0.1
		c0.4,0,1,0,1,0c0.1,0,1.9,0,2.1,0s0.3,0,0.4,0h0.1c0,0,0,0,0,0.1s0,0.2-0.1,0.4c0,0.1,0,0.5-0.1,0.6c0,0,0,0.1-0.1,0.1
		s-0.1,0-0.1-0.1s0-0.2,0-0.3c-0.1-0.1-0.2-0.2-0.6-0.3c-0.1,0-1.2,0-1.3,0c0,0,0,0,0,0.1v2.3c0,0.1,0,0.1,0,0.1c0.1,0,1.3,0,1.5,0
		s0.3,0,0.4-0.1s0.1-0.1,0.1-0.1s0,0,0,0.1c0,0,0,0.2-0.1,0.5c0,0.2,0,0.5,0,0.5c0,0.1,0,0.2-0.1,0.2c0,0-0.1,0-0.1-0.1s0-0.2,0-0.3
		c0-0.1-0.1-0.2-0.4-0.3c-0.2,0-1.2,0-1.3,0c0,0-0.1,0-0.1,0.1v0.7c0,0.3,0,1.3,0,1.4c0,0.6,0.2,0.7,1,0.7c0.2,0,0.6,0,0.9-0.1
		c0.2-0.1,0.4-0.2,0.4-0.6c0-0.1,0-0.1,0.1-0.1s0.1,0.1,0.1,0.1c0,0.1-0.1,0.6-0.1,0.8c-0.1,0.2-0.1,0.2-0.5,0.2c-0.7,0-1.2,0-1.5,0
		c-0.4,0-0.6,0-0.7,0c0,0-0.2,0-0.4,0c-0.2,0-0.4,0-0.5,0s-0.1,0-0.1-0.1c0,0,0-0.1,0.1-0.1s0.2,0,0.3,0c0.2,0,0.2-0.2,0.2-0.4
		C-240.4,299-240.4,296.9-240.4,296L-240.4,296z"/>
</g>
<path id="XMLID_1_" class="st2" d="M-301.9,254.3c0,0-9.5-2.6-10.9-3.2c-0.8-0.7-5.9-3.1-5.9-3.1s-1.9-0.7-3.3-0.5s-4,1.8-4.5,3.9
	c-1.9,2-6,6.6-10.9,6.1c4.2,1.6,9.2-3.3,9.7-3.6c-0.7,0.7-4.5,6-7.2,6.7c3,0,6.9-5.7,8.1-6.1c-1.9,2.6-0.3,6.6-0.3,6.6
	s3,6.6-0.2,11.4c-0.4,2.3-1.2,5.6-5,6.1c-3.9,0.6-15.9,2.6-24.3,11c-3.4,0.2-3.3-0.7-3.3-0.7s0.8,1.7,2.3,1.7
	c-1.9,0.3-2.1,0.4-2.9-0.1c1,0.9,2.1,0.7,2.2,0.7c0.1,0-7.2,4.5-9.6,9.9c3.7,0.1,5.6,0.4,9.2,2.7c4.4,2.1,11.6,0.5,11.6,0.5
	s-5.5,12.2-6.5,13.4c1.2,1.5,4.8,13.3,4.8,13.3h1.5c0,0-3.1-12.7-4-14c1.1-1.1,7-13.8,7-13.8l3-0.4c0,0,0.8,8.4,0.6,10.8
	c1.3,2.1,5.6,17.4,5.6,17.4h2.1c0,0-4.6-15.4-6.2-17.5c0.8-1.7,0-11.5,0-11.5s10.4-6,12.5-14.8c4.4-5.6,6.2-14.7,5.3-23.5
	c-0.9-3.9-2.2-3.8-2.4-6.3c-0.1-1.6,0.6-2.7,1.7-3.5c3.4-1.2,6.7,0.2,8.9-0.5C-307.9,254.3-301.9,254.3-301.9,254.3z"/>
</svg>
