<?xml version="1.0" encoding="utf-8"?>
<!-- Generator: Adobe Illustrator 19.0.0, SVG Export Plug-In . SVG Version: 6.00 Build 0)  -->
<svg version="1.1" id="Layer_1" xmlns="http://www.w3.org/2000/svg" xmlns:xlink="http://www.w3.org/1999/xlink" x="0px" y="0px"
	 viewBox="-379 231 200 100" style="enable-background:new -379 231 200 100;" xml:space="preserve">
<style type="text/css">
	.st0{fill:#6C979E;}
	.st1{fill:#106174;}
	.st2{fill:#F2F2F2;}
</style>
<g id="XMLID_68_">
	<path id="XMLID_69_" class="st0" d="M-333.2,293.4c0,0.9,0.2,1.2,0.4,1.3c0.2,0.1,0.4,0.1,0.6,0.1c0.1,0,0.2,0,0.2,0.1
		s-0.1,0.1-0.3,0.1c-0.8,0-1.3,0-1.5,0c-0.1,0-0.7,0-1.3,0c-0.2,0-0.3,0-0.3-0.1s0.1-0.1,0.2-0.1c0.2,0,0.4,0,0.5-0.1
		c0.3-0.1,0.4-0.4,0.4-1.5l0.1-7.1c0-0.2,0-0.4,0.2-0.4c0.1,0,0.2,0.2,0.4,0.4c0.1,0.2,2,2.1,3.7,3.9c0.8,0.8,2.4,2.5,2.6,2.7h0.3
		l-0.1-5.4c0-0.7-0.1-1-0.4-1.1c-0.2-0.1-0.5-0.1-0.6-0.1s-0.2,0-0.2-0.1c0-0.1,0.1-0.1,0.3-0.1c0.6,0,1.2,0,1.5,0
		c0.1,0,0.6,0,1.2,0c0.2,0,0.3,0,0.3,0.1c0,0.1-0.1,0.1-0.2,0.1c-0.1,0-0.2,0-0.4,0c-0.3,0.1-0.4,0.3-0.4,1l-0.1,7.6
		c0,0.3,0,0.4-0.2,0.4c-0.1,0-0.3-0.1-0.4-0.3c-0.8-0.7-2.3-2.3-3.5-3.5c-1.3-1.3-2.6-2.8-2.9-3l0,0L-333.2,293.4z"/>
	<path id="XMLID_71_" class="st0" d="M-322.8,291.2c0-1.7,1.2-4,4.4-4c2.7,0,4.3,1.5,4.3,3.8s-1.7,4.2-4.4,4.2
		C-321.6,295.2-322.8,293-322.8,291.2z M-315.6,291.4c0-2.3-1.4-3.6-3.1-3.6c-1.2,0-2.6,0.6-2.6,3.1c0,2.1,1.2,3.8,3.2,3.8
		C-317.3,294.6-315.6,294.3-315.6,291.4z"/>
	<path id="XMLID_74_" class="st0" d="M-311.5,288.3c-0.2-0.6-0.4-0.7-0.8-0.8c-0.2,0-0.3,0-0.4,0c-0.1,0-0.1,0-0.1-0.1
		s0.1-0.1,0.3-0.1c0.6,0,1.2,0,1.5,0s0.8,0,1.3,0c0.1,0,0.3,0,0.3,0.1s-0.1,0.1-0.2,0.1c-0.2,0-0.3,0-0.4,0.1
		c-0.1,0-0.1,0.1-0.1,0.2c0,0.1,0.1,0.4,0.2,0.8l1.8,4.6l0,0c0.5-1.1,1.8-4.3,2.1-5c0-0.1,0.1-0.3,0.1-0.4c0-0.1,0-0.1-0.1-0.2
		c-0.1,0-0.3,0-0.4,0s-0.2,0-0.2-0.1s0.1-0.1,0.3-0.1c0.5,0,1,0,1.1,0c0.2,0,0.7,0,1,0c0.1,0,0.2,0,0.2,0.1s-0.1,0.1-0.2,0.1
		s-0.3,0-0.5,0.1c-0.1,0.1-0.3,0.3-0.6,0.9c-0.4,1-0.7,1.5-1.3,2.8c-0.7,1.5-1.2,2.6-1.4,3.1c-0.3,0.6-0.4,0.7-0.5,0.7
		c-0.1,0-0.2-0.1-0.4-0.6L-311.5,288.3z"/>
	<path id="XMLID_76_" class="st0" d="M-301.7,290.3c0-1.5,0-1.8,0-2.2c0-0.3-0.1-0.5-0.5-0.6c-0.1,0-0.3,0-0.4,0s-0.2,0-0.2-0.1
		s0.1-0.1,0.2-0.1c0.6,0,1.2,0,1.5,0c0.3,0,2.7,0,2.9,0c0.2,0,0.4,0,0.4-0.1c0.1,0,0.1,0,0.2,0s0.1,0,0.1,0.1c0,0.1-0.1,0.2-0.1,0.7
		c0,0.1,0,0.6-0.1,0.7c0,0,0,0.2-0.1,0.2c-0.1,0-0.1,0-0.1-0.1c0-0.1,0-0.3-0.1-0.4c-0.1-0.2-0.2-0.3-0.7-0.4c-0.2,0-1.4,0-1.7,0
		c0,0-0.1,0-0.1,0.1v2.5c0,0.1,0,0.1,0.1,0.1c0.2,0,1.6,0,1.8,0c0.3,0,0.4,0,0.5-0.2c0.1-0.1,0.1-0.1,0.2-0.1s0.1,0,0.1,0.1
		s0,0.2-0.1,0.7c0,0.2,0,0.6,0,0.7s0,0.2-0.1,0.2c-0.1,0-0.1,0-0.1-0.1s0-0.2,0-0.4c-0.1-0.2-0.2-0.4-0.6-0.4c-0.2,0-1.4,0-1.7,0
		c0,0-0.1,0-0.1,0.1v0.8c0,0.3,0,1.2,0,1.5c0,0.7,0.3,0.9,1.4,0.9c0.3,0,0.7,0,1-0.1s0.4-0.3,0.5-0.8c0-0.1,0-0.2,0.1-0.2
		s0.1,0.1,0.1,0.2c0,0.2-0.1,0.9-0.1,1.1c0.1,0.3,0,0.3-0.4,0.3c-0.8,0-1.4,0-1.9,0s-0.9,0-1.2,0c-0.1,0-0.3,0-0.6,0
		c-0.3,0-0.5,0-0.7,0c-0.1,0-0.2,0-0.2-0.1c0,0,0-0.1,0.2-0.1c0.2,0,0.3,0,0.4,0c0.2,0,0.3-0.2,0.3-0.5c0-0.4,0-1.2,0-2.2v-1.8
		H-301.7z"/>
	<path id="XMLID_78_" class="st0" d="M-293.2,287.3c0-0.2,0.1-0.3,0.2-0.3s0.2,0,0.3,0.3l2.8,5.7l2.8-5.8c0.1-0.2,0.2-0.3,0.3-0.3
		s0.2,0.1,0.2,0.3l1,6.3c0.1,0.6,0.2,0.9,0.5,1c0.3,0.1,0.5,0.1,0.6,0.1c0.1,0,0.2,0,0.2,0.1c0,0.1-0.1,0.1-0.3,0.1
		c-0.3,0-1.8,0-2.2-0.1c-0.3,0-0.3-0.1-0.3-0.1s0-0.1,0.1-0.1s0.1-0.1,0-0.4l-0.6-4.4l0,0l-2.3,4.6c-0.1,0.6-0.1,0.7-0.2,0.7
		s-0.3-0.2-0.4-0.5c-0.3-0.5-1.1-2-1.2-2.3c-0.1-0.2-0.7-1.5-1.1-2.2l0,0l-0.5,4c0,0.2,0,0.3,0,0.5s0.1,0.3,0.3,0.3s0.3,0,0.4,0
		c0.1,0,0.2,0,0.2,0.1s-0.1,0.1-0.3,0.1c-0.4,0-0.9,0-1.1,0c-0.2,0-0.7,0-1,0c-0.1,0-0.2,0-0.2-0.1c0,0,0.1-0.1,0.2-0.1
		c0.1,0,0.2,0,0.3,0c0.3,0,0.4-0.4,0.4-0.8L-293.2,287.3z"/>
	<path id="XMLID_80_" class="st0" d="M-281.3,290.3c0-1.5,0-1.8,0-2.2c0-0.3-0.1-0.5-0.5-0.6c-0.1,0-0.3,0-0.4,0
		c-0.1,0-0.2,0-0.2-0.1s0.1-0.1,0.2-0.1c0.6,0,1.2,0,1.4,0c0.5,0,1.2,0,1.6,0c1.9,0,2.2,1,2.2,1.5c0,0.8-0.6,1.4-1.2,1.8
		c0.9,0.3,1.9,1,1.9,2.2c0,1.1-0.9,2.2-2.8,2.2c-0.1,0-0.5,0-0.8,0c-0.4,0-0.7,0-0.9,0c-0.1,0-0.3,0-0.6,0c-0.3,0-0.5,0-0.7,0
		c-0.1,0-0.2,0-0.2-0.1c0,0,0-0.1,0.2-0.1s0.3,0,0.4,0c0.2,0,0.3-0.2,0.3-0.5c0-0.4,0-1.2,0-2.2v-1.8H-281.3z M-279.9,290.4
		c0,0.1,0,0.1,0.1,0.1c0.1,0,0.3,0,0.5,0c0.3,0,0.6,0,0.8-0.2c0.3-0.2,0.5-0.6,0.5-1.1c0-0.7-0.4-1.5-1.3-1.5c-0.1,0-0.3,0-0.5,0
		c-0.1,0-0.1,0.1-0.1,0.2V290.4z M-279.9,293.4c0,0.7,0,0.9,0.4,1c0.3,0.1,0.5,0.1,0.8,0.1c0.6,0,1.3-0.3,1.3-1.4
		c0-0.5-0.2-1.3-1-1.8c-0.2-0.2-0.5-0.3-0.9-0.3h-0.5c0,0-0.1,0-0.1,0.1C-279.9,291.1-279.9,293.4-279.9,293.4z"/>
	<path id="XMLID_84_" class="st0" d="M-272.9,290.3c0-1.5,0-1.8,0-2.2c0-0.3-0.1-0.5-0.5-0.6c-0.1,0-0.3,0-0.4,0
		c-0.1,0-0.2,0-0.2-0.1s0.1-0.1,0.2-0.1c0.6,0,1.2,0,1.5,0c0.3,0,2.7,0,2.9,0c0.2,0,0.4,0,0.4-0.1c0.1,0,0.1,0,0.2,0
		c0.1,0,0.1,0,0.1,0.1c0,0.1-0.1,0.2-0.1,0.7c0,0.1,0,0.6-0.1,0.7c0,0,0,0.2-0.1,0.2s-0.1,0-0.1-0.1c0-0.1,0-0.3-0.1-0.4
		c-0.1-0.2-0.2-0.3-0.7-0.4c-0.2,0-1.4,0-1.7,0c0,0-0.1,0-0.1,0.1v2.5c0,0.1,0,0.1,0.1,0.1c0.2,0,1.6,0,1.8,0c0.3,0,0.4,0,0.5-0.2
		c0.1-0.1,0.1-0.1,0.2-0.1c0.1,0,0.1,0,0.1,0.1s0,0.2-0.1,0.7c0,0.2,0,0.6,0,0.7s0,0.2-0.1,0.2s-0.1,0-0.1-0.1s0-0.2,0-0.4
		c-0.1-0.2-0.2-0.4-0.6-0.4c-0.2,0-1.4,0-1.7,0c0,0-0.1,0-0.1,0.1v0.8c0,0.3,0,1.2,0,1.5c0,0.7,0.3,0.9,1.4,0.9c0.3,0,0.7,0,1-0.1
		c0.3-0.1,0.4-0.3,0.5-0.8c0-0.1,0-0.2,0.1-0.2s0.1,0.1,0.1,0.2c0,0.2-0.1,0.9-0.1,1.1c-0.1,0.3-0.2,0.3-0.6,0.3c-0.8,0-1.4,0-1.9,0
		s-0.9,0-1.2,0c-0.1,0-0.3,0-0.6,0c-0.3,0-0.5,0-0.7,0c-0.1,0-0.2,0-0.2-0.1c0,0,0-0.1,0.2-0.1c0.2,0,0.3,0,0.4,0
		c0.2,0,0.3-0.2,0.3-0.5c0-0.4,0-1.2,0-2.2L-272.9,290.3L-272.9,290.3z"/>
	<path id="XMLID_86_" class="st0" d="M-265,290.3c0-1.5,0-1.8,0-2.2c0-0.3-0.1-0.5-0.5-0.6c-0.1,0-0.3,0-0.4,0s-0.2,0-0.2-0.1
		s0.1-0.1,0.2-0.1c0.6,0,1.2,0,1.4,0c0.4,0,1.3,0,1.6,0c0.7,0,1.4,0.1,2,0.4c0.3,0.2,0.7,0.7,0.7,1.4c0,0.8-0.4,1.4-1.5,2.3
		c0.9,1.2,1.7,2.1,2.3,2.7s1,0.6,1.1,0.7c0.1,0,0.2,0,0.3,0s0.1,0.1,0.1,0.1c0,0.1-0.1,0.1-0.2,0.1h-1c-0.6,0-0.9-0.1-1.2-0.2
		c-0.5-0.2-0.9-0.7-1.4-1.5c-0.4-0.6-0.9-1.2-1-1.4c-0.1-0.1-0.1-0.1-0.2-0.1h-0.9c0,0-0.1,0-0.1,0.1v0.1c0,0.9,0,1.7,0.1,2.2
		c0,0.3,0.1,0.5,0.4,0.5c0.2,0,0.4,0,0.5,0s0.1,0.1,0.1,0.1c0,0.1-0.1,0.1-0.2,0.1c-0.6,0-1.5,0-1.6,0c-0.2,0-0.9,0-1.3,0
		c-0.1,0-0.2,0-0.2-0.1c0,0,0-0.1,0.2-0.1s0.3,0,0.4,0c0.2,0,0.3-0.2,0.3-0.5c0-0.4,0-1.2,0-2.2v-1.7H-265z M-263.7,291.1
		c0,0.1,0,0.1,0.1,0.2c0.2,0.1,0.5,0.1,0.8,0.1c0.4,0,0.6,0,0.7-0.2c0.3-0.2,0.7-0.7,0.7-1.5c0-1.4-1-1.8-1.6-1.8
		c-0.3,0-0.5,0-0.6,0s-0.1,0.1-0.1,0.1V291.1z"/>
	<path id="XMLID_89_" class="st0" d="M-245.9,289c0,3.4-2.9,5.5-4.4,6.2c-0.1,0-0.1,0-0.2,0l-0.1-0.1c0-0.1,0.1-0.2,0.1-0.2
		c1.2-0.8,3.1-2.7,3.1-5.6c0-2.1-0.9-3.1-1.8-3.1c-0.9,0-1.4,0.8-1.4,1.8c0,1.8,1.2,2.3,1.6,2.3c0.4,0,0.7-0.1,0.8-0.1
		c0.1-0.1,0.2-0.1,0.2-0.1s0.1,0,0.1,0.1c0,0,0,0.1-0.1,0.1c-0.3,0.4-1,0.6-1.6,0.6c-1.7,0-2.4-1.3-2.4-2.3c0-1.6,1.2-2.8,3.1-2.8
		C-247,285.8-245.9,287.2-245.9,289z"/>
	<path id="XMLID_91_" class="st0" d="M-239.8,291.2c0.2,0,0.4,0,0.4,0.2c0,0.2-0.2,0.2-0.5,0.3c-0.5,0.1-2.7,0.5-3.1,0.6
		c-0.2,0.1-0.4,0.2-0.5,0.2s-0.1-0.1-0.1-0.2l0.2-0.8c0-0.1,0.1-0.2,0.3-0.2L-239.8,291.2L-239.8,291.2z"/>
	<path id="XMLID_93_" class="st0" d="M-234.7,289.5c0-0.6,0-1.2,0-1.6c0-0.3,0-0.4-0.2-0.4s-1.1,0.5-1.4,0.6c-0.1,0-0.1,0-0.2,0
		l-0.1-0.1c0-0.1,0.1-0.1,0.1-0.2c0,0,2.4-1.5,2.8-1.8c0.1-0.1,0.2-0.2,0.3-0.2s0.1,0.1,0.1,0.3c0,0.1-0.1,1.3-0.1,3.1v2.2
		c0,1.2,0,2.2,0,2.7c0,0.4,0.1,0.6,0.5,0.6c0.2,0,0.7,0.1,0.8,0.1c0,0,0.1,0,0.1,0.1s-0.1,0.1-0.2,0.1c-0.9,0-1.7,0-2,0
		s-1.3,0-2.1,0c-0.1,0-0.2,0-0.2-0.1s0-0.1,0.1-0.1s0.7,0,1-0.1c0.4-0.1,0.4-0.3,0.5-0.6c0-0.5,0.1-1.5,0.1-2.7L-234.7,289.5z"/>
	<path id="XMLID_95_" class="st0" d="M-225.9,295.2c-2.4,0-3-2.7-3-4.4c0-2.8,1-5,3.2-5c2.4,0,3,2.5,3,4.4
		C-222.7,293.2-223.9,295.2-225.9,295.2z M-226,286.3c-0.9,0-1.5,1.2-1.5,4c0,2.1,0.5,4.4,1.8,4.4c1,0,1.6-1.6,1.6-4
		C-224.1,288.6-224.7,286.3-226,286.3z"/>
</g>
<g id="XMLID_8_">
	<rect id="XMLID_7_" x="-336.9" y="268.4" class="st1" width="13.8" height="10.6"/>
	<path id="XMLID_2_" class="st2" d="M-325.1,278.1c-1.1,0-13.6,0.2-14.6-0.3c1.7-1.5,2.3-10.1,2.3-10.1h13.8
		C-323.8,267.6-324,277.8-325.1,278.1z"/>
	<rect id="XMLID_5_" x="-337.5" y="265.7" class="st1" width="13.8" height="1.2"/>
</g>
<g id="XMLID_11_">
	<path id="XMLID_12_" class="st1" d="M-317.4,270.3c0-0.3-0.1-0.4-0.3-0.5c-0.1,0-0.2,0-0.3,0c-0.1,0-0.1,0-0.1-0.1
		c0-0.1,0.1-0.1,0.2-0.1c0.4,0,0.9,0,1.2,0c0.2,0,0.8,0,1.2,0c1,0,2.3,0,3.2,0.9c0.4,0.4,0.8,1.1,0.8,2c0,1-0.4,1.8-0.9,2.2
		c-0.4,0.4-1.2,0.9-2.7,0.9c-0.3,0-0.6,0-0.9,0s-0.6,0-0.8,0c-0.1,0-0.3,0-0.5,0c-0.2,0-0.4,0-0.6,0c-0.1,0-0.2,0-0.2-0.1
		c0,0,0-0.1,0.1-0.1s0.2,0,0.3,0c0.2,0,0.2-0.2,0.2-0.4 M-316.4,274.5c0,0.2,0,0.5,0.1,0.6c0.1,0.2,0.4,0.3,1,0.3
		c0.8,0,1.4-0.2,1.8-0.6c0.5-0.4,0.7-1.2,0.7-2c0-1-0.4-1.7-0.8-2c-0.7-0.7-1.6-0.8-2.3-0.8c-0.2,0-0.5,0-0.5,0.1
		c-0.1,0-0.1,0.1-0.1,0.2"/>
	<path id="XMLID_15_" class="st1" d="M-309,274L-309,274l-0.4,1c-0.1,0.2-0.1,0.3-0.1,0.4s0.1,0.2,0.3,0.2h0.1c0.1,0,0.1,0,0.1,0.1
		c0,0.1,0,0.1-0.1,0.1c-0.2,0-0.6,0-0.8,0c-0.1,0-0.4,0-0.8,0c-0.1,0-0.1,0-0.1-0.1c0,0,0-0.1,0.1-0.1s0.1,0,0.2,0
		c0.3,0,0.4-0.3,0.6-0.6l1.8-4.3c0.1-0.2,0.1-0.3,0.2-0.3s0.1,0.1,0.2,0.2c0.2,0.4,1.3,3.2,1.8,4.2c0.3,0.6,0.5,0.7,0.6,0.7
		c0.1,0,0.2,0,0.3,0s0.1,0,0.1,0.1s0,0.1-0.3,0.1c-0.2,0-0.8,0-1.4,0c-0.1,0-0.2,0-0.2-0.1c0,0,0-0.1,0.1-0.1c0,0,0.1-0.1,0.1-0.2
		l-0.5-1.4c0,0,0,0-0.1,0h-1.8V274z M-307.5,273.6C-307.4,273.6-307.4,273.6-307.5,273.6l-0.6-1.8v-0.1c0,0,0,0,0,0.1l-0.7,1.7l0,0
		h1.3V273.6z"/>
	<path id="XMLID_18_" class="st1" d="M-303,271h-1c-0.4,0-0.6,0.1-0.7,0.2c-0.1,0.1-0.1,0.2-0.1,0.2c0,0.1,0,0.1-0.1,0.1
		c0,0-0.1,0-0.1-0.1s0.1-0.8,0.2-0.8c0-0.1,0-0.1,0.1-0.1s0.1,0.1,0.3,0.1c0.2,0,0.5,0,0.7,0h2.9c0.2,0,0.4,0,0.5,0
		c0.1,0,0.2,0,0.2,0s0.1,0,0.1,0.1c0,0.1,0,0.6,0,0.8c0,0.1,0,0.1-0.1,0.1c-0.1,0-0.1,0-0.1-0.1v-0.1c0-0.2-0.2-0.4-0.8-0.4h-0.9
		v2.8c0,0.6,0,1.2,0,1.5c0,0.2,0.1,0.3,0.3,0.4c0.1,0,0.2,0,0.3,0s0.1,0,0.1,0.1l-0.1,0.1c-0.5,0-0.8,0-1,0c-0.2,0-0.6,0-0.9,0
		c-0.1,0-0.1,0-0.1-0.1c0,0,0-0.1,0.1-0.1s0.2,0,0.2,0c0.1,0,0.2-0.2,0.2-0.4c0-0.3,0-0.8,0-1.4V271H-303z"/>
	<path id="XMLID_20_" class="st1" d="M-298,271.1c0-0.2-0.1-0.3-0.3-0.4c-0.1,0-0.2,0-0.3,0s-0.1,0-0.1-0.1s0.1-0.1,0.2-0.1
		c0.4,0,0.8,0,1,0c0.2,0,1.8,0,1.9,0s0.2,0,0.3,0h0.1c0,0,0,0,0,0.1c0,0,0,0.1-0.1,0.4c0,0.1,0,0.4,0,0.4s0,0.1-0.1,0.1
		c0,0-0.1,0-0.1-0.1v-0.2c-0.1-0.1-0.1-0.2-0.5-0.2c-0.1,0-1,0-1.1,0c0,0,0,0,0,0.1v1.7v0.1c0.2,0,1.1,0,1.2,0c0.2,0,0.3,0,0.3-0.1
		c0.1,0,0.1-0.1,0.1-0.1s0.1,0,0.1,0.1c0,0.1,0,0.2-0.1,0.5c0,0.1,0,0.4,0,0.5c0,0.1,0,0.2-0.1,0.2c0,0-0.1,0-0.1-0.1s0-0.2,0-0.2
		c0-0.1-0.1-0.2-0.4-0.3c-0.1,0-0.9,0-1.1,0c0,0,0,0,0,0.1v0.5c0,0.2,0,0.8,0,1c0,0.5,0.2,0.6,1,0.6c0.2,0,0.5,0,0.7-0.1
		c0.2-0.1,0.3-0.2,0.3-0.5c0-0.1,0-0.1,0.1-0.1s0.1,0.1,0.1,0.2c0,0.2-0.1,0.6-0.1,0.8c0,0.2-0.1,0.2-0.4,0.2c-0.5,0-1,0-1.3,0
		c-0.3,0-0.6,0-0.8,0c-0.1,0-0.2,0-0.4,0s-0.3,0-0.5,0c-0.1,0-0.1,0-0.1-0.1c0,0,0-0.1,0.1-0.1s0.2,0,0.2,0c0.1,0,0.2-0.2,0.2-0.4"
		/>
	<path id="XMLID_22_" class="st1" d="M-292.9,275.7c-0.1,0-0.3-0.2-0.3-0.4c0-0.4,0-0.8,0-0.9s0-0.2,0.1-0.2s0.1,0.1,0.1,0.1
		c0,0.1,0,0.2,0.1,0.4c0.2,0.5,0.7,0.7,1.1,0.7c0.6,0,1-0.4,1-0.9c0-0.3-0.1-0.6-0.7-1l-0.4-0.2c-0.8-0.5-1.1-0.9-1.1-1.5
		c0-0.8,0.8-1.4,1.8-1.4c0.5,0,0.8,0.1,1,0.1c0.1,0,0.1,0,0.1,0.1c0,0.1,0,0.3,0,0.8c0,0.1,0,0.2-0.1,0.2c0,0-0.1,0-0.1-0.1
		c0-0.1,0-0.3-0.2-0.4c-0.1-0.1-0.3-0.3-0.8-0.3s-1,0.3-1,0.7c0,0.3,0.1,0.5,0.7,0.9l0.3,0.2c0.9,0.5,1.3,1,1.3,1.7
		c0,0.5-0.2,1-0.7,1.4c-0.3,0.2-0.8,0.4-1.2,0.4C-292.1,276-292.5,276-292.9,275.7z"/>
</g>
</svg>
